{"asset":{"generator":"glTF-Transform v4.5.1","version":"2.0"},"accessors":[{"type":"VEC3","componentType":5126,"count":3673,"max":[3.864760398864746,1.9892470836639404,11.879201889038086],"min":[-3.864760398864746,-1.314197063446045,-6.669183254241943],"bufferView":0,"byteOffset":0},{"type":"VEC3","componentType":5126,"count":3673,"bufferView":0,"byteOffset":12},{"type":"VEC2","componentType":5126,"count":3673,"bufferView":0,"byteOffset":24},{"type":"SCALAR","componentType":5123,"count":7926,"bufferView":1,"byteOffset":0}],"bufferViews":[{"buffer":0,"byteOffset":0,"byteLength":117536,"byteStride":32,"target":34962},{"buffer":0,"byteOffset":117536,"byteLength":15852,"target":34963}],"samplers":[{"magFilter":9729,"minFilter":9987,"wrapS":10497,"wrapT":10497}],"textures":[{"sampler":0,"extensions":{"EXT_texture_webp":{"source":0}}}],"images":[{"name":"Imperial_Orange","uri":"imperial_0.webp"}],"buffers":[{"byteLength":133388,"uri":"data:application/octet-stream;base64,"}],"materials":[{"name":"Texture","doubleSided":true,"pbrMetallicRoughness":{"roughnessFactor":0,"metallicFactor":0,"baseColorTexture":{"index":0}},"extensions":{"KHR_materials_ior":{"ior":1.4500000476837158},"KHR_materials_specular":{"specularFactor":0}}}],"meshes":[{"name":"Cube.028","primitives":[{"attributes":{"POSITION":0,"NORMAL":1,"TEXCOORD_0":2},"mode":4,"material":0,"indices":3}]}],"nodes":[{"name":"Imperial","mesh":0}],"scenes":[{"name":"Scene","nodes":[0]}],"scene":0,"extensionsUsed":["EXT_texture_webp","KHR_materials_ior","KHR_materials_specular"],"extensionsRequired":["EXT_texture_webp"]}