{"asset":{"generator":"glTF-Transform v4.5.1","version":"2.0"},"accessors":[{"type":"VEC3","componentType":5126,"count":7644,"max":[2.7827606201171875,1.9387714862823486,7.668166160583496],"min":[-2.7827606201171875,-0.9317505955696106,-3.2823309898376465],"bufferView":0,"byteOffset":0},{"type":"VEC3","componentType":5126,"count":7644,"bufferView":0,"byteOffset":12},{"type":"VEC2","componentType":5126,"count":7644,"bufferView":0,"byteOffset":24},{"type":"SCALAR","componentType":5123,"count":24876,"bufferView":1,"byteOffset":0}],"bufferViews":[{"buffer":0,"byteOffset":0,"byteLength":244608,"byteStride":32,"target":34962},{"buffer":0,"byteOffset":244608,"byteLength":49752,"target":34963}],"samplers":[{"magFilter":9729,"minFilter":9987,"wrapS":10497,"wrapT":10497}],"textures":[{"sampler":0,"extensions":{"EXT_texture_webp":{"source":0}}}],"images":[{"name":"Insurgent_Orange","uri":"insurgent_0.webp"}],"buffers":[{"byteLength":294360,"uri":"data:application/octet-stream;base64,"}],"materials":[{"name":"Texture","doubleSided":true,"pbrMetallicRoughness":{"roughnessFactor":0,"metallicFactor":0,"baseColorTexture":{"index":0}},"extensions":{"KHR_materials_ior":{"ior":1.4500000476837158},"KHR_materials_specular":{"specularFactor":0}}}],"meshes":[{"name":"Cylinder.001","primitives":[{"attributes":{"POSITION":0,"NORMAL":1,"TEXCOORD_0":2},"mode":4,"material":0,"indices":3}]}],"nodes":[{"name":"Insurgent","mesh":0}],"scenes":[{"name":"Scene","nodes":[0]}],"scene":0,"extensionsUsed":["EXT_texture_webp","KHR_materials_ior","KHR_materials_specular"],"extensionsRequired":["EXT_texture_webp"]}