{"asset":{"generator":"glTF-Transform v4.5.1","version":"2.0"},"accessors":[{"type":"VEC3","componentType":5126,"count":4102,"max":[5.261844158172607,1.0298198461532593,4.393892765045166],"min":[-5.261844158172607,-2.025360107421875,-3.1394150257110596],"bufferView":0,"byteOffset":0},{"type":"VEC3","componentType":5126,"count":4102,"bufferView":0,"byteOffset":12},{"type":"VEC2","componentType":5126,"count":4102,"bufferView":0,"byteOffset":24},{"type":"SCALAR","componentType":5123,"count":10536,"bufferView":1,"byteOffset":0}],"bufferViews":[{"buffer":0,"byteOffset":0,"byteLength":131264,"byteStride":32,"target":34962},{"buffer":0,"byteOffset":131264,"byteLength":21072,"target":34963}],"samplers":[{"magFilter":9729,"minFilter":9987,"wrapS":10497,"wrapT":10497}],"textures":[{"sampler":0,"extensions":{"EXT_texture_webp":{"source":0}}}],"images":[{"name":"Spitfire_Orange","uri":"spitfire_0.webp"}],"buffers":[{"byteLength":152336,"uri":"data:application/octet-stream;base64,"}],"materials":[{"name":"Texture","doubleSided":true,"pbrMetallicRoughness":{"roughnessFactor":0,"metallicFactor":0,"baseColorTexture":{"index":0}},"extensions":{"KHR_materials_ior":{"ior":1.4500000476837158},"KHR_materials_specular":{"specularFactor":0}}}],"meshes":[{"name":"Cube.017","primitives":[{"attributes":{"POSITION":0,"NORMAL":1,"TEXCOORD_0":2},"mode":4,"material":0,"indices":3}]}],"nodes":[{"name":"Spitfire","mesh":0}],"scenes":[{"name":"Scene","nodes":[0]}],"scene":0,"extensionsUsed":["EXT_texture_webp","KHR_materials_ior","KHR_materials_specular"],"extensionsRequired":["EXT_texture_webp"]}