{"asset":{"generator":"glTF-Transform v4.5.1","version":"2.0"},"accessors":[{"type":"VEC3","componentType":5126,"count":66,"max":[1.3314791917800903,1.399999976158142,1.3314791917800903],"min":[-1.3314791917800903,-1.399999976158142,-1.3314791917800903],"bufferView":0,"byteOffset":0},{"type":"VEC3","componentType":5126,"count":66,"bufferView":0,"byteOffset":12},{"type":"VEC2","componentType":5126,"count":66,"bufferView":0,"byteOffset":24},{"type":"SCALAR","componentType":5123,"count":192,"bufferView":1,"byteOffset":0},{"type":"SCALAR","componentType":5123,"count":192,"bufferView":1,"byteOffset":384},{"type":"SCALAR","componentType":5123,"count":864,"bufferView":1,"byteOffset":768},{"type":"SCALAR","componentType":5123,"count":108,"bufferView":1,"byteOffset":2496},{"type":"SCALAR","componentType":5123,"count":84,"bufferView":1,"byteOffset":2712},{"type":"SCALAR","componentType":5123,"count":84,"bufferView":1,"byteOffset":2880},{"type":"SCALAR","componentType":5123,"count":300,"bufferView":1,"byteOffset":3048},{"type":"SCALAR","componentType":5123,"count":108,"bufferView":1,"byteOffset":3648},{"type":"SCALAR","componentType":5123,"count":108,"bufferView":1,"byteOffset":3864},{"type":"SCALAR","componentType":5123,"count":300,"bufferView":1,"byteOffset":4080},{"type":"SCALAR","componentType":5123,"count":108,"bufferView":1,"byteOffset":4680},{"type":"SCALAR","componentType":5123,"count":108,"bufferView":1,"byteOffset":4896},{"type":"SCALAR","componentType":5123,"count":300,"bufferView":1,"byteOffset":5112},{"type":"SCALAR","componentType":5123,"count":108,"bufferView":1,"byteOffset":5712},{"type":"SCALAR","componentType":5123,"count":108,"bufferView":1,"byteOffset":5928},{"type":"SCALAR","componentType":5123,"count":300,"bufferView":1,"byteOffset":6144},{"type":"SCALAR","componentType":5123,"count":108,"bufferView":1,"byteOffset":6744},{"type":"SCALAR","componentType":5123,"count":108,"bufferView":1,"byteOffset":6960},{"type":"SCALAR","componentType":5123,"count":432,"bufferView":1,"byteOffset":7176},{"type":"SCALAR","componentType":5123,"count":432,"bufferView":1,"byteOffset":8040},{"type":"SCALAR","componentType":5123,"count":432,"bufferView":1,"byteOffset":8904},{"type":"SCALAR","componentType":5123,"count":432,"bufferView":1,"byteOffset":9768},{"type":"SCALAR","componentType":5123,"count":432,"bufferView":1,"byteOffset":10632},{"type":"SCALAR","componentType":5123,"count":1320,"bufferView":1,"byteOffset":11496},{"type":"VEC2","componentType":5126,"count":66,"bufferView":2,"byteOffset":0},{"type":"VEC3","componentType":5126,"count":198,"max":[12,9,10],"min":[-11.999999046325684,-9,-10],"bufferView":3,"byteOffset":0},{"type":"VEC3","componentType":5126,"count":198,"bufferView":3,"byteOffset":12},{"type":"VEC2","componentType":5126,"count":198,"bufferView":3,"byteOffset":24},{"type":"VEC3","componentType":5126,"count":48,"max":[3.0433809757232666,8.845903396606445,3.200000047683716],"min":[-3.0433809757232666,-8.845903396606445,-3.200000047683716],"bufferView":4,"byteOffset":0},{"type":"VEC3","componentType":5126,"count":48,"bufferView":4,"byteOffset":12},{"type":"VEC2","componentType":5126,"count":48,"bufferView":4,"byteOffset":24},{"type":"VEC3","componentType":5126,"count":40,"max":[2.1999998092651367,6.164413928985596,2.200000286102295],"min":[-2.200000286102295,-6.164413928985596,-2.200000286102295],"bufferView":5,"byteOffset":0},{"type":"VEC3","componentType":5126,"count":40,"bufferView":5,"byteOffset":12},{"type":"VEC2","componentType":5126,"count":40,"bufferView":5,"byteOffset":24},{"type":"VEC3","componentType":5126,"count":40,"max":[2.1999998092651367,6.164413928985596,2.200000286102295],"min":[-2.200000286102295,-6.164413928985596,-2.200000286102295],"bufferView":6,"byteOffset":0},{"type":"VEC2","componentType":5126,"count":40,"bufferView":6,"byteOffset":12},{"type":"VEC3","componentType":5126,"count":84,"max":[6.181868076324463,2.4000000953674316,6.500000953674316],"min":[-6.181868553161621,-2.4000000953674316,-6.5],"bufferView":7,"byteOffset":0},{"type":"VEC3","componentType":5126,"count":84,"bufferView":7,"byteOffset":12},{"type":"VEC2","componentType":5126,"count":84,"bufferView":7,"byteOffset":24},{"type":"VEC3","componentType":5126,"count":48,"max":[4.755282402038574,5.590169429779053,5],"min":[-4.755282402038574,-5.590169429779053,-5],"bufferView":8,"byteOffset":0},{"type":"VEC3","componentType":5126,"count":48,"bufferView":8,"byteOffset":12},{"type":"VEC2","componentType":5126,"count":48,"bufferView":8,"byteOffset":24},{"type":"VEC3","componentType":5126,"count":48,"max":[5.706339359283447,6.652067184448242,6],"min":[-5.706339359283447,-6.652067184448242,-6],"bufferView":9,"byteOffset":0},{"type":"VEC2","componentType":5126,"count":48,"bufferView":9,"byteOffset":12},{"type":"VEC2","componentType":5126,"count":84,"bufferView":10,"byteOffset":0},{"type":"VEC2","componentType":5126,"count":48,"bufferView":11,"byteOffset":0},{"type":"VEC3","componentType":5126,"count":48,"max":[5.706339359283447,6.652067184448242,6],"min":[-5.706339359283447,-6.652067184448242,-6],"bufferView":12,"byteOffset":0},{"type":"VEC2","componentType":5126,"count":48,"bufferView":12,"byteOffset":12},{"type":"VEC2","componentType":5126,"count":84,"bufferView":13,"byteOffset":0},{"type":"VEC2","componentType":5126,"count":48,"bufferView":14,"byteOffset":0},{"type":"VEC2","componentType":5126,"count":48,"bufferView":15,"byteOffset":0},{"type":"VEC2","componentType":5126,"count":84,"bufferView":16,"byteOffset":0},{"type":"VEC2","componentType":5126,"count":48,"bufferView":17,"byteOffset":0},{"type":"VEC2","componentType":5126,"count":48,"bufferView":18,"byteOffset":0},{"type":"VEC3","componentType":5126,"count":114,"max":[6.824494361877441,5,12.674060821533203],"min":[-6.824494361877441,-5,-12.674062728881836],"bufferView":19,"byteOffset":0},{"type":"VEC3","componentType":5126,"count":114,"bufferView":19,"byteOffset":12},{"type":"VEC2","componentType":5126,"count":114,"bufferView":19,"byteOffset":24},{"type":"VEC3","componentType":5126,"count":114,"max":[6.824494361877441,5,14.623916625976562],"min":[-6.824494361877441,-5,-14.623918533325195],"bufferView":20,"byteOffset":0},{"type":"VEC3","componentType":5126,"count":114,"bufferView":20,"byteOffset":12},{"type":"VEC2","componentType":5126,"count":114,"bufferView":20,"byteOffset":24},{"type":"VEC3","componentType":5126,"count":114,"max":[6.824494361877441,5,16.573772430419922],"min":[-6.824494361877441,-5,-16.573774337768555],"bufferView":21,"byteOffset":0},{"type":"VEC3","componentType":5126,"count":114,"bufferView":21,"byteOffset":12},{"type":"VEC2","componentType":5126,"count":114,"bufferView":21,"byteOffset":24},{"type":"VEC2","componentType":5126,"count":114,"bufferView":22,"byteOffset":0},{"type":"VEC2","componentType":5126,"count":114,"bufferView":23,"byteOffset":0},{"type":"VEC3","componentType":5126,"count":290,"max":[30.000003814697266,17,20.000003814697266],"min":[-30.000015258789062,-17,-20],"bufferView":24,"byteOffset":0},{"type":"VEC3","componentType":5126,"count":290,"bufferView":24,"byteOffset":12},{"type":"VEC2","componentType":5126,"count":290,"bufferView":24,"byteOffset":24},{"type":"SCALAR","componentType":5126,"count":40,"max":[1.3333333730697632],"min":[0.03333333507180214],"bufferView":25,"byteOffset":0},{"type":"VEC3","componentType":5126,"count":40,"bufferView":25,"byteOffset":160},{"type":"VEC4","componentType":5126,"count":40,"bufferView":25,"byteOffset":640},{"type":"SCALAR","componentType":5126,"count":37,"max":[1.2333333492279053],"min":[0.03333333507180214],"bufferView":25,"byteOffset":1280},{"type":"VEC3","componentType":5126,"count":37,"bufferView":25,"byteOffset":1428},{"type":"VEC4","componentType":5126,"count":37,"bufferView":25,"byteOffset":1872},{"type":"VEC4","componentType":5126,"count":37,"bufferView":25,"byteOffset":2464},{"type":"VEC4","componentType":5126,"count":37,"bufferView":25,"byteOffset":3056},{"type":"VEC4","componentType":5126,"count":37,"bufferView":25,"byteOffset":3648},{"type":"VEC4","componentType":5126,"count":37,"bufferView":25,"byteOffset":4240},{"type":"SCALAR","componentType":5126,"count":60,"max":[2],"min":[0.03333333507180214],"bufferView":25,"byteOffset":4832},{"type":"VEC3","componentType":5126,"count":60,"bufferView":25,"byteOffset":5072},{"type":"SCALAR","componentType":5126,"count":30,"max":[1],"min":[0.03333333507180214],"bufferView":25,"byteOffset":5792},{"type":"VEC3","componentType":5126,"count":30,"bufferView":25,"byteOffset":5912},{"type":"VEC4","componentType":5126,"count":30,"bufferView":25,"byteOffset":6272},{"type":"VEC4","componentType":5126,"count":30,"bufferView":25,"byteOffset":6752}],"bufferViews":[{"buffer":0,"byteOffset":0,"byteLength":2112,"byteStride":32,"target":34962},{"buffer":0,"byteOffset":2112,"byteLength":14136,"target":34963},{"buffer":0,"byteOffset":16248,"byteLength":528,"byteStride":8,"target":34962},{"buffer":0,"byteOffset":16776,"byteLength":6336,"byteStride":32,"target":34962},{"buffer":0,"byteOffset":23112,"byteLength":1536,"byteStride":32,"target":34962},{"buffer":0,"byteOffset":24648,"byteLength":1280,"byteStride":32,"target":34962},{"buffer":0,"byteOffset":25928,"byteLength":800,"byteStride":20,"target":34962},{"buffer":0,"byteOffset":26728,"byteLength":2688,"byteStride":32,"target":34962},{"buffer":0,"byteOffset":29416,"byteLength":1536,"byteStride":32,"target":34962},{"buffer":0,"byteOffset":30952,"byteLength":960,"byteStride":20,"target":34962},{"buffer":0,"byteOffset":31912,"byteLength":672,"byteStride":8,"target":34962},{"buffer":0,"byteOffset":32584,"byteLength":384,"byteStride":8,"target":34962},{"buffer":0,"byteOffset":32968,"byteLength":960,"byteStride":20,"target":34962},{"buffer":0,"byteOffset":33928,"byteLength":672,"byteStride":8,"target":34962},{"buffer":0,"byteOffset":34600,"byteLength":384,"byteStride":8,"target":34962},{"buffer":0,"byteOffset":34984,"byteLength":384,"byteStride":8,"target":34962},{"buffer":0,"byteOffset":35368,"byteLength":672,"byteStride":8,"target":34962},{"buffer":0,"byteOffset":36040,"byteLength":384,"byteStride":8,"target":34962},{"buffer":0,"byteOffset":36424,"byteLength":384,"byteStride":8,"target":34962},{"buffer":0,"byteOffset":36808,"byteLength":3648,"byteStride":32,"target":34962},{"buffer":0,"byteOffset":40456,"byteLength":3648,"byteStride":32,"target":34962},{"buffer":0,"byteOffset":44104,"byteLength":3648,"byteStride":32,"target":34962},{"buffer":0,"byteOffset":47752,"byteLength":912,"byteStride":8,"target":34962},{"buffer":0,"byteOffset":48664,"byteLength":912,"byteStride":8,"target":34962},{"buffer":0,"byteOffset":49576,"byteLength":9280,"byteStride":32,"target":34962},{"buffer":0,"byteOffset":58856,"byteLength":7232}],"samplers":[{"magFilter":9729,"minFilter":9987,"wrapS":10497,"wrapT":10497}],"textures":[{"sampler":0,"extensions":{"EXT_texture_webp":{"source":1}}},{"sampler":0,"extensions":{"EXT_texture_webp":{"source":0}}},{"sampler":0,"extensions":{"EXT_texture_webp":{"source":2}}},{"sampler":0,"extensions":{"EXT_texture_webp":{"source":4}}},{"sampler":0,"extensions":{"EXT_texture_webp":{"source":3}}},{"sampler":0,"extensions":{"EXT_texture_webp":{"source":5}}}],"images":[{"name":"chitin2_normal","uri":"behemoth_0.webp"},{"name":"chitin2_color","uri":"behemoth_1.webp"},{"name":"chitin2_rough","uri":"behemoth_2.webp"},{"name":"chitin_normal","uri":"behemoth_3.webp"},{"name":"chitin_color","uri":"behemoth_4.webp"},{"name":"chitin_rough","uri":"behemoth_5.webp"}],"buffers":[{"byteLength":66088,"uri":"data:application/octet-stream;base64,"}],"materials":[{"name":"eye","doubleSided":true,"pbrMetallicRoughness":{"baseColorFactor":[1,0.43415364623069763,0.06480326503515244,1],"roughnessFactor":0.30000001192092896,"metallicFactor":0},"emissiveFactor":[1,0.43415364623069763,0.06480326503515244],"extensions":{"KHR_materials_emissive_strength":{"emissiveStrength":3}}},{"name":"hide","doubleSided":true,"pbrMetallicRoughness":{"baseColorFactor":[0.1441284716129303,0.10224173218011856,0.06480326503515244,1],"metallicFactor":0.10000000149011612,"baseColorTexture":{"index":0},"metallicRoughnessTexture":{"index":2}},"normalTexture":{"index":1}},{"name":"horn","doubleSided":true,"pbrMetallicRoughness":{"baseColorFactor":[0.68668532371521,0.577580451965332,0.3915724754333496,1],"metallicFactor":0.10000000149011612,"baseColorTexture":{"index":0},"metallicRoughnessTexture":{"index":2}},"normalTexture":{"index":1}},{"name":"plates","doubleSided":true,"pbrMetallicRoughness":{"baseColorFactor":[0.10224173218011856,0.06847816705703735,0.0423114113509655,1],"metallicFactor":0.20000000298023224,"baseColorTexture":{"index":3},"metallicRoughnessTexture":{"index":5}},"normalTexture":{"index":4}}],"meshes":[{"name":"Sphere.007","primitives":[{"attributes":{"POSITION":0,"NORMAL":1,"TEXCOORD_0":2},"mode":4,"material":0,"indices":3}]},{"name":"Sphere.008","primitives":[{"attributes":{"TEXCOORD_0":27,"POSITION":0,"NORMAL":1},"mode":4,"material":0,"indices":4}]},{"name":"Sphere.006","primitives":[{"attributes":{"POSITION":28,"NORMAL":29,"TEXCOORD_0":30},"mode":4,"material":1,"indices":5}]},{"name":"Cone","primitives":[{"attributes":{"POSITION":31,"NORMAL":32,"TEXCOORD_0":33},"mode":4,"material":2,"indices":6}]},{"name":"Cone.001","primitives":[{"attributes":{"POSITION":34,"NORMAL":35,"TEXCOORD_0":36},"mode":4,"material":2,"indices":7}]},{"name":"Cone.002","primitives":[{"attributes":{"POSITION":37,"TEXCOORD_0":38,"NORMAL":35},"mode":4,"material":2,"indices":8}]},{"name":"Sphere.009","primitives":[{"attributes":{"POSITION":39,"NORMAL":40,"TEXCOORD_0":41},"mode":4,"material":1,"indices":9}]},{"name":"Cylinder.001","primitives":[{"attributes":{"POSITION":42,"NORMAL":43,"TEXCOORD_0":44},"mode":4,"material":3,"indices":10}]},{"name":"Cylinder","primitives":[{"attributes":{"POSITION":45,"TEXCOORD_0":46,"NORMAL":43},"mode":4,"material":1,"indices":11}]},{"name":"Sphere.010","primitives":[{"attributes":{"TEXCOORD_0":47,"POSITION":39,"NORMAL":40},"mode":4,"material":1,"indices":12}]},{"name":"Cylinder.003","primitives":[{"attributes":{"TEXCOORD_0":48,"POSITION":42,"NORMAL":43},"mode":4,"material":3,"indices":13}]},{"name":"Cylinder.002","primitives":[{"attributes":{"POSITION":49,"TEXCOORD_0":50,"NORMAL":43},"mode":4,"material":1,"indices":14}]},{"name":"Sphere.011","primitives":[{"attributes":{"TEXCOORD_0":51,"POSITION":39,"NORMAL":40},"mode":4,"material":1,"indices":15}]},{"name":"Cylinder.005","primitives":[{"attributes":{"TEXCOORD_0":52,"POSITION":42,"NORMAL":43},"mode":4,"material":3,"indices":16}]},{"name":"Cylinder.004","primitives":[{"attributes":{"TEXCOORD_0":53,"POSITION":45,"NORMAL":43},"mode":4,"material":1,"indices":17}]},{"name":"Sphere.012","primitives":[{"attributes":{"TEXCOORD_0":54,"POSITION":39,"NORMAL":40},"mode":4,"material":1,"indices":18}]},{"name":"Cylinder.007","primitives":[{"attributes":{"TEXCOORD_0":55,"POSITION":42,"NORMAL":43},"mode":4,"material":3,"indices":19}]},{"name":"Cylinder.006","primitives":[{"attributes":{"TEXCOORD_0":56,"POSITION":49,"NORMAL":43},"mode":4,"material":1,"indices":20}]},{"name":"Sphere.001","primitives":[{"attributes":{"POSITION":57,"NORMAL":58,"TEXCOORD_0":59},"mode":4,"material":3,"indices":21}]},{"name":"Sphere.002","primitives":[{"attributes":{"POSITION":60,"NORMAL":61,"TEXCOORD_0":62},"mode":4,"material":3,"indices":22}]},{"name":"Sphere.003","primitives":[{"attributes":{"POSITION":63,"NORMAL":64,"TEXCOORD_0":65},"mode":4,"material":3,"indices":23}]},{"name":"Sphere.004","primitives":[{"attributes":{"TEXCOORD_0":66,"POSITION":60,"NORMAL":61},"mode":4,"material":3,"indices":24}]},{"name":"Sphere.005","primitives":[{"attributes":{"TEXCOORD_0":67,"POSITION":57,"NORMAL":58},"mode":4,"material":3,"indices":25}]},{"name":"Sphere","primitives":[{"attributes":{"POSITION":68,"NORMAL":69,"TEXCOORD_0":70},"mode":4,"material":1,"indices":26}]}],"nodes":[{"name":"eye","translation":[16,2,-6],"mesh":0},{"name":"eye.001","translation":[16,2,6],"mesh":1},{"name":"headm","translation":[8,-2,0],"mesh":2},{"name":"horn_main","translation":[20,9.5,0],"rotation":[0,0,-0.36414048075675964,0.9313440322875977],"mesh":3},{"name":"tusk1","translation":[19,-3,-8],"rotation":[-0.1881554275751114,0,-0.4703885316848755,0.8621671795845032],"mesh":4},{"name":"tusk-1","translation":[19,-3,8],"rotation":[0.1881554275751114,0,-0.4703885316848755,0.8621671795845032],"mesh":5},{"name":"head","translation":[26,0,0],"children":[0,1,2,3,4,5]},{"name":"foot0L","translation":[-1,-11,0],"mesh":6},{"name":"shin0L","translation":[-1,-5.5,0],"rotation":[0,0,0.9959593415260315,0.08980552852153778],"mesh":7},{"name":"knee0L","translation":[2,-13,-2],"children":[7,8]},{"name":"thigh0L","translation":[1,-6.5,-1],"rotation":[-0.7030540108680725,0,-0.7030540704727173,0.10691142082214355],"mesh":8},{"name":"leg0L","translation":[16,-2,-15],"children":[9,10]},{"name":"foot0R","translation":[-1,-11,0],"mesh":9},{"name":"shin0R","translation":[-1,-5.5,0],"rotation":[0,0,0.9959593415260315,0.08980552852153778],"mesh":10},{"name":"knee0R","translation":[2,-13,2],"children":[12,13]},{"name":"thigh0R","translation":[1,-6.5,1],"rotation":[0.7030540108680725,0,-0.7030540704727173,0.10691142082214355],"mesh":11},{"name":"leg0R","translation":[16,-2,15],"children":[14,15]},{"name":"foot1L","translation":[-1,-11,0],"mesh":12},{"name":"shin1L","translation":[-1,-5.5,0],"rotation":[0,0,0.9959593415260315,0.08980552852153778],"mesh":13},{"name":"knee1L","translation":[2,-13,-2],"children":[17,18]},{"name":"thigh1L","translation":[1,-6.5,-1],"rotation":[-0.7030540108680725,0,-0.7030540704727173,0.10691142082214355],"mesh":14},{"name":"leg1L","translation":[-16,-2,-15],"children":[19,20]},{"name":"foot1R","translation":[-1,-11,0],"mesh":15},{"name":"shin1R","translation":[-1,-5.5,0],"rotation":[0,0,0.9959593415260315,0.08980552852153778],"mesh":16},{"name":"knee1R","translation":[2,-13,2],"children":[22,23]},{"name":"thigh1R","translation":[1,-6.5,1],"rotation":[0.7030540108680725,0,-0.7030540704727173,0.10691142082214355],"mesh":17},{"name":"leg1R","translation":[-16,-2,15],"children":[24,25]},{"name":"plate0","translation":[14,12,0],"mesh":18},{"name":"plate1","translation":[7,14,0],"mesh":19},{"name":"plate2","translation":[0,16,0],"mesh":20},{"name":"plate3","translation":[-7,14,0],"mesh":21},{"name":"plate4","translation":[-14,12,0],"mesh":22},{"name":"torso","translation":[0,2,0],"mesh":23},{"name":"body","translation":[0,28,0],"children":[6,11,16,21,26,27,28,29,30,31,32]},{"name":"root","children":[33]}],"animations":[{"name":"die","samplers":[{"input":71,"output":72,"interpolation":"LINEAR"},{"input":71,"output":73,"interpolation":"LINEAR"}],"channels":[{"sampler":0,"target":{"node":34,"path":"translation"}},{"sampler":1,"target":{"node":34,"path":"rotation"}}]},{"name":"run","samplers":[{"input":74,"output":75,"interpolation":"LINEAR"},{"input":74,"output":76,"interpolation":"LINEAR"},{"input":74,"output":77,"interpolation":"LINEAR"},{"input":74,"output":78,"interpolation":"LINEAR"},{"input":74,"output":79,"interpolation":"LINEAR"},{"input":74,"output":80,"interpolation":"LINEAR"},{"input":74,"output":79,"interpolation":"LINEAR"},{"input":74,"output":80,"interpolation":"LINEAR"},{"input":74,"output":77,"interpolation":"LINEAR"},{"input":74,"output":78,"interpolation":"LINEAR"}],"channels":[{"sampler":0,"target":{"node":33,"path":"translation"}},{"sampler":1,"target":{"node":6,"path":"rotation"}},{"sampler":2,"target":{"node":11,"path":"rotation"}},{"sampler":3,"target":{"node":9,"path":"rotation"}},{"sampler":4,"target":{"node":16,"path":"rotation"}},{"sampler":5,"target":{"node":14,"path":"rotation"}},{"sampler":6,"target":{"node":21,"path":"rotation"}},{"sampler":7,"target":{"node":19,"path":"rotation"}},{"sampler":8,"target":{"node":26,"path":"rotation"}},{"sampler":9,"target":{"node":24,"path":"rotation"}}]},{"name":"idle","samplers":[{"input":81,"output":82,"interpolation":"LINEAR"}],"channels":[{"sampler":0,"target":{"node":33,"path":"translation"}}]},{"name":"attack","samplers":[{"input":83,"output":84,"interpolation":"LINEAR"},{"input":83,"output":85,"interpolation":"LINEAR"},{"input":83,"output":86,"interpolation":"LINEAR"}],"channels":[{"sampler":0,"target":{"node":33,"path":"translation"}},{"sampler":1,"target":{"node":33,"path":"rotation"}},{"sampler":2,"target":{"node":6,"path":"rotation"}}]}],"scenes":[{"name":"Scene","nodes":[34]}],"scene":0,"extensionsUsed":["EXT_texture_webp","KHR_materials_emissive_strength"],"extensionsRequired":["EXT_texture_webp"]}