{"asset":{"generator":"glTF-Transform v4.5.1","version":"2.0"},"accessors":[{"type":"VEC3","componentType":5126,"count":28,"max":[0.4279753863811493,1.3285330533981323,0.36405766010284424],"min":[-0.4279753863811493,-1.3285330533981323,-0.44999995827674866],"bufferView":0,"byteOffset":0},{"type":"VEC3","componentType":5126,"count":28,"bufferView":0,"byteOffset":12},{"type":"VEC2","componentType":5126,"count":28,"bufferView":0,"byteOffset":24},{"type":"SCALAR","componentType":5123,"count":48,"bufferView":1,"byteOffset":0},{"type":"SCALAR","componentType":5123,"count":48,"bufferView":1,"byteOffset":96},{"type":"SCALAR","componentType":5123,"count":48,"bufferView":1,"byteOffset":192},{"type":"SCALAR","componentType":5123,"count":48,"bufferView":1,"byteOffset":288},{"type":"SCALAR","componentType":5123,"count":48,"bufferView":1,"byteOffset":384},{"type":"SCALAR","componentType":5123,"count":360,"bufferView":1,"byteOffset":480},{"type":"SCALAR","componentType":5123,"count":360,"bufferView":1,"byteOffset":1200},{"type":"SCALAR","componentType":5123,"count":360,"bufferView":1,"byteOffset":1920},{"type":"VEC3","componentType":5126,"count":28,"max":[0.42797544598579407,1.3285330533981323,0.36405763030052185],"min":[-0.42797544598579407,-1.3285330533981323,-0.44999998807907104],"bufferView":2,"byteOffset":0},{"type":"VEC2","componentType":5126,"count":28,"bufferView":2,"byteOffset":12},{"type":"VEC3","componentType":5126,"count":28,"max":[0.4279753863811493,1.3285330533981323,0.36405760049819946],"min":[-0.4279753863811493,-1.3285330533981323,-0.45000001788139343],"bufferView":3,"byteOffset":0},{"type":"VEC2","componentType":5126,"count":28,"bufferView":3,"byteOffset":12},{"type":"VEC3","componentType":5126,"count":28,"max":[0.42797544598579407,1.3285330533981323,0.36405763030052185],"min":[-0.42797544598579407,-1.3285330533981323,-0.44999998807907104],"bufferView":4,"byteOffset":0},{"type":"VEC2","componentType":5126,"count":28,"bufferView":4,"byteOffset":12},{"type":"VEC3","componentType":5126,"count":28,"max":[0.28531691431999207,1.3238202333450317,0.24270503222942352],"min":[-0.28531697392463684,-1.3238202333450317,-0.30000001192092896],"bufferView":5,"byteOffset":0},{"type":"VEC3","componentType":5126,"count":28,"bufferView":5,"byteOffset":12},{"type":"VEC2","componentType":5126,"count":28,"bufferView":5,"byteOffset":24},{"type":"VEC3","componentType":5126,"count":28,"max":[0.28531691431999207,1.3238202333450317,0.24270512163639069],"min":[-0.28531697392463684,-1.3238202333450317,-0.2999999523162842],"bufferView":6,"byteOffset":0},{"type":"VEC2","componentType":5126,"count":28,"bufferView":6,"byteOffset":12},{"type":"VEC2","componentType":5126,"count":28,"bufferView":7,"byteOffset":0},{"type":"VEC2","componentType":5126,"count":28,"bufferView":8,"byteOffset":0},{"type":"VEC3","componentType":5126,"count":28,"max":[0.28531697392463684,1.3238202333450317,0.24270498752593994],"min":[-0.28531697392463684,-1.3238202333450317,-0.3000001311302185],"bufferView":9,"byteOffset":0},{"type":"VEC2","componentType":5126,"count":28,"bufferView":9,"byteOffset":12},{"type":"VEC3","componentType":5126,"count":28,"max":[0.28531697392463684,1.3238202333450317,0.24270522594451904],"min":[-0.28531697392463684,-1.3238202333450317,-0.2999998927116394],"bufferView":10,"byteOffset":0},{"type":"VEC2","componentType":5126,"count":28,"bufferView":10,"byteOffset":12},{"type":"VEC3","componentType":5126,"count":28,"max":[0.28531694412231445,1.3238203525543213,0.2427050769329071],"min":[-0.28531694412231445,-1.3238203525543213,-0.29999998211860657],"bufferView":11,"byteOffset":0},{"type":"VEC2","componentType":5126,"count":28,"bufferView":11,"byteOffset":12},{"type":"VEC3","componentType":5126,"count":28,"max":[0.28531694412231445,1.3238203525543213,0.2427050769329071],"min":[-0.28531694412231445,-1.3238203525543213,-0.29999998211860657],"bufferView":12,"byteOffset":0},{"type":"VEC2","componentType":5126,"count":28,"bufferView":12,"byteOffset":12},{"type":"VEC3","componentType":5126,"count":98,"max":[1.5762596130371094,1.2000000476837158,1.3648990392684937],"min":[-1.5762596130371094,-1.2000000476837158,-1.3648990392684937],"bufferView":13,"byteOffset":0},{"type":"VEC3","componentType":5126,"count":98,"bufferView":13,"byteOffset":12},{"type":"VEC2","componentType":5126,"count":98,"bufferView":13,"byteOffset":24},{"type":"VEC3","componentType":5126,"count":98,"max":[1.5762596130371094,1.350000023841858,1.5598846673965454],"min":[-1.5762596130371094,-1.350000023841858,-1.5598846673965454],"bufferView":14,"byteOffset":0},{"type":"VEC3","componentType":5126,"count":98,"bufferView":14,"byteOffset":12},{"type":"VEC2","componentType":5126,"count":98,"bufferView":14,"byteOffset":24},{"type":"VEC3","componentType":5126,"count":98,"max":[1.5762596130371094,1.5,1.7548701763153076],"min":[-1.5762596130371094,-1.5,-1.7548701763153076],"bufferView":15,"byteOffset":0},{"type":"VEC3","componentType":5126,"count":98,"bufferView":15,"byteOffset":12},{"type":"VEC2","componentType":5126,"count":98,"bufferView":15,"byteOffset":24},{"type":"VEC3","componentType":5126,"count":98,"max":[1.5762596130371094,1.649999976158142,1.9498558044433594],"min":[-1.5762596130371094,-1.649999976158142,-1.9498558044433594],"bufferView":16,"byteOffset":0},{"type":"VEC3","componentType":5126,"count":98,"bufferView":16,"byteOffset":12},{"type":"VEC2","componentType":5126,"count":98,"bufferView":16,"byteOffset":24},{"type":"VEC3","componentType":5126,"count":98,"max":[1.5762596130371094,1.7999999523162842,2.144841432571411],"min":[-1.5762596130371094,-1.7999999523162842,-2.144841432571411],"bufferView":17,"byteOffset":0},{"type":"VEC3","componentType":5126,"count":98,"bufferView":17,"byteOffset":12},{"type":"VEC2","componentType":5126,"count":98,"bufferView":17,"byteOffset":24},{"type":"SCALAR","componentType":5126,"count":16,"max":[0.5333333611488342],"min":[0.03333333507180214],"bufferView":18,"byteOffset":0},{"type":"VEC3","componentType":5126,"count":16,"bufferView":18,"byteOffset":64},{"type":"VEC4","componentType":5126,"count":16,"bufferView":18,"byteOffset":256},{"type":"SCALAR","componentType":5126,"count":60,"max":[2],"min":[0.03333333507180214],"bufferView":18,"byteOffset":512},{"type":"VEC3","componentType":5126,"count":60,"bufferView":18,"byteOffset":752},{"type":"SCALAR","componentType":5126,"count":8,"max":[0.2666666805744171],"min":[0.03333333507180214],"bufferView":18,"byteOffset":1472},{"type":"VEC3","componentType":5126,"count":8,"bufferView":18,"byteOffset":1504},{"type":"VEC4","componentType":5126,"count":8,"bufferView":18,"byteOffset":1600},{"type":"SCALAR","componentType":5126,"count":13,"max":[0.4333333373069763],"min":[0.03333333507180214],"bufferView":18,"byteOffset":1728},{"type":"VEC3","componentType":5126,"count":13,"bufferView":18,"byteOffset":1780},{"type":"VEC4","componentType":5126,"count":13,"bufferView":18,"byteOffset":1936},{"type":"VEC3","componentType":5126,"count":13,"bufferView":18,"byteOffset":2144},{"type":"VEC4","componentType":5126,"count":13,"bufferView":18,"byteOffset":2300},{"type":"VEC3","componentType":5126,"count":13,"bufferView":18,"byteOffset":2508},{"type":"VEC4","componentType":5126,"count":13,"bufferView":18,"byteOffset":2664},{"type":"VEC3","componentType":5126,"count":13,"bufferView":18,"byteOffset":2872},{"type":"VEC4","componentType":5126,"count":13,"bufferView":18,"byteOffset":3028},{"type":"VEC3","componentType":5126,"count":13,"bufferView":18,"byteOffset":3236},{"type":"VEC4","componentType":5126,"count":13,"bufferView":18,"byteOffset":3392}],"bufferViews":[{"buffer":0,"byteOffset":0,"byteLength":896,"byteStride":32,"target":34962},{"buffer":0,"byteOffset":896,"byteLength":2640,"target":34963},{"buffer":0,"byteOffset":3536,"byteLength":560,"byteStride":20,"target":34962},{"buffer":0,"byteOffset":4096,"byteLength":560,"byteStride":20,"target":34962},{"buffer":0,"byteOffset":4656,"byteLength":560,"byteStride":20,"target":34962},{"buffer":0,"byteOffset":5216,"byteLength":896,"byteStride":32,"target":34962},{"buffer":0,"byteOffset":6112,"byteLength":560,"byteStride":20,"target":34962},{"buffer":0,"byteOffset":6672,"byteLength":224,"byteStride":8,"target":34962},{"buffer":0,"byteOffset":6896,"byteLength":224,"byteStride":8,"target":34962},{"buffer":0,"byteOffset":7120,"byteLength":560,"byteStride":20,"target":34962},{"buffer":0,"byteOffset":7680,"byteLength":560,"byteStride":20,"target":34962},{"buffer":0,"byteOffset":8240,"byteLength":560,"byteStride":20,"target":34962},{"buffer":0,"byteOffset":8800,"byteLength":560,"byteStride":20,"target":34962},{"buffer":0,"byteOffset":9360,"byteLength":3136,"byteStride":32,"target":34962},{"buffer":0,"byteOffset":12496,"byteLength":3136,"byteStride":32,"target":34962},{"buffer":0,"byteOffset":15632,"byteLength":3136,"byteStride":32,"target":34962},{"buffer":0,"byteOffset":18768,"byteLength":3136,"byteStride":32,"target":34962},{"buffer":0,"byteOffset":21904,"byteLength":3136,"byteStride":32,"target":34962},{"buffer":0,"byteOffset":25040,"byteLength":3600}],"samplers":[{"magFilter":9729,"minFilter":9987,"wrapS":10497,"wrapT":10497}],"textures":[{"sampler":0,"extensions":{"EXT_texture_webp":{"source":1}}},{"sampler":0,"extensions":{"EXT_texture_webp":{"source":0}}},{"sampler":0,"extensions":{"EXT_texture_webp":{"source":2}}},{"sampler":0,"extensions":{"EXT_texture_webp":{"source":4}}},{"sampler":0,"extensions":{"EXT_texture_webp":{"source":3}}},{"sampler":0,"extensions":{"EXT_texture_webp":{"source":5}}}],"images":[{"name":"chitin2_normal","uri":"burrower_0.webp"},{"name":"chitin2_color","uri":"burrower_1.webp"},{"name":"chitin2_rough","uri":"burrower_2.webp"},{"name":"chitin_normal","uri":"burrower_3.webp"},{"name":"chitin_color","uri":"burrower_4.webp"},{"name":"chitin_rough","uri":"burrower_5.webp"}],"buffers":[{"byteLength":28640,"uri":"data:application/octet-stream;base64,"}],"materials":[{"name":"drill","doubleSided":true,"pbrMetallicRoughness":{"baseColorFactor":[0.520995557308197,0.44520118832588196,0.32314321398735046,1],"metallicFactor":0.30000001192092896,"baseColorTexture":{"index":0},"metallicRoughnessTexture":{"index":2}},"normalTexture":{"index":1}},{"name":"joint","doubleSided":true,"pbrMetallicRoughness":{"baseColorFactor":[0.0423114113509655,0.02518685907125473,0.012983032502233982,1],"metallicFactor":0.15000000596046448,"baseColorTexture":{"index":0},"metallicRoughnessTexture":{"index":2}},"normalTexture":{"index":1}},{"name":"grub","doubleSided":true,"pbrMetallicRoughness":{"baseColorFactor":[0.1946178376674652,0.12743768095970154,0.06480326503515244,1],"metallicFactor":0.15000000596046448,"baseColorTexture":{"index":3},"metallicRoughnessTexture":{"index":5}},"normalTexture":{"index":4}}],"meshes":[{"name":"Cone","primitives":[{"attributes":{"POSITION":0,"NORMAL":1,"TEXCOORD_0":2},"mode":4,"material":0,"indices":3}]},{"name":"Cone.001","primitives":[{"attributes":{"POSITION":11,"TEXCOORD_0":12,"NORMAL":1},"mode":4,"material":0,"indices":4}]},{"name":"Cone.002","primitives":[{"attributes":{"POSITION":13,"TEXCOORD_0":14,"NORMAL":1},"mode":4,"material":0,"indices":5}]},{"name":"Cone.003","primitives":[{"attributes":{"POSITION":15,"TEXCOORD_0":16,"NORMAL":1},"mode":4,"material":0,"indices":4}]},{"name":"Cone.005","primitives":[{"attributes":{"POSITION":17,"NORMAL":18,"TEXCOORD_0":19},"mode":4,"material":1,"indices":5}]},{"name":"Cone.004","primitives":[{"attributes":{"POSITION":20,"TEXCOORD_0":21,"NORMAL":18},"mode":4,"material":1,"indices":6}]},{"name":"Cone.007","primitives":[{"attributes":{"TEXCOORD_0":22,"POSITION":17,"NORMAL":18},"mode":4,"material":1,"indices":5}]},{"name":"Cone.006","primitives":[{"attributes":{"TEXCOORD_0":23,"POSITION":20,"NORMAL":18},"mode":4,"material":1,"indices":7}]},{"name":"Cone.009","primitives":[{"attributes":{"POSITION":24,"TEXCOORD_0":25,"NORMAL":18},"mode":4,"material":1,"indices":3}]},{"name":"Cone.008","primitives":[{"attributes":{"POSITION":26,"TEXCOORD_0":27,"NORMAL":18},"mode":4,"material":1,"indices":7}]},{"name":"Cone.011","primitives":[{"attributes":{"POSITION":28,"TEXCOORD_0":29,"NORMAL":18},"mode":4,"material":1,"indices":3}]},{"name":"Cone.010","primitives":[{"attributes":{"POSITION":30,"TEXCOORD_0":31,"NORMAL":18},"mode":4,"material":1,"indices":7}]},{"name":"Sphere.004","primitives":[{"attributes":{"POSITION":32,"NORMAL":33,"TEXCOORD_0":34},"mode":4,"material":2,"indices":8}]},{"name":"Sphere.003","primitives":[{"attributes":{"POSITION":35,"NORMAL":36,"TEXCOORD_0":37},"mode":4,"material":2,"indices":8}]},{"name":"Sphere.002","primitives":[{"attributes":{"POSITION":38,"NORMAL":39,"TEXCOORD_0":40},"mode":4,"material":2,"indices":8}]},{"name":"Sphere.001","primitives":[{"attributes":{"POSITION":41,"NORMAL":42,"TEXCOORD_0":43},"mode":4,"material":2,"indices":9}]},{"name":"Sphere","primitives":[{"attributes":{"POSITION":44,"NORMAL":45,"TEXCOORD_0":46},"mode":4,"material":2,"indices":10}]}],"nodes":[{"name":"tooth0","translation":[1.6500000953674316,0,-0.75],"rotation":[0.23951084911823273,0,-0.6653078198432922,0.70710688829422],"mesh":0},{"name":"tooth1","translation":[1.6500000953674316,0.75,0],"rotation":[0,0,-0.8181441426277161,0.5750131607055664],"mesh":1},{"name":"tooth2","translation":[1.6500000953674316,0,0.75],"rotation":[-0.23951084911823273,0,-0.6653078198432922,0.70710688829422],"mesh":2},{"name":"tooth3","translation":[1.6500000953674316,-0.75,0],"rotation":[0,0,-0.5750133395195007,0.8181440234184265],"mesh":3},{"name":"head","translation":[2.5999999046325684,0.20000004768371582,0],"children":[0,1,2,3]},{"name":"l0-1","translation":[0.20000004768371582,-1.75,2.5],"rotation":[0.9046522378921509,0,-0.2010338455438614,0.3757525682449341],"mesh":4},{"name":"l01","translation":[0.20000004768371582,-1.75,-2.5],"rotation":[-0.9046522378921509,0,-0.2010338455438614,0.3757525682449341],"mesh":5},{"name":"l1-1","translation":[0.19999992847442627,-1.75,2.5],"rotation":[0.9046521186828613,0,-0.2010338455438614,0.3757525384426117],"mesh":6},{"name":"l11","translation":[0.1999998688697815,-1.75,-2.500000238418579],"rotation":[-0.9046521186828613,0,-0.2010338455438614,0.3757525384426117],"mesh":7},{"name":"l2-1","translation":[0.19999998807907104,-1.75,2.5],"rotation":[0.9046521186828613,0,-0.2010337859392166,0.3757525682449341],"mesh":8},{"name":"l21","translation":[0.19999992847442627,-1.75,-2.500000238418579],"rotation":[-0.9046521186828613,0,-0.2010337859392166,0.3757525682449341],"mesh":9},{"name":"l3-1","translation":[0.19999969005584717,-1.75,2.5],"rotation":[0.9046520590782166,0,-0.201033815741539,0.37575259804725647],"mesh":10},{"name":"l31","translation":[0.19999980926513672,-1.75,-2.5],"rotation":[-0.9046520590782166,0,-0.201033815741539,0.37575259804725647],"mesh":11},{"name":"segm4","mesh":12},{"name":"seg4","translation":[-2.59999942779541,0.3027210235595703,0],"rotation":[0,0.09445930272340775,0,0.9955287575721741],"children":[13]},{"name":"segm3","mesh":13},{"name":"seg3","translation":[-2.5999999046325684,0,0],"rotation":[0,-0.01763908937573433,0,0.9998444318771362],"children":[11,12,14,15]},{"name":"segm2","mesh":14},{"name":"seg2","translation":[-2.6000003814697266,0,0],"rotation":[0,-0.1134176105260849,0,0.9935474395751953],"children":[9,10,16,17]},{"name":"segm1","mesh":15},{"name":"seg1","translation":[-2.5999999046325684,0,0],"rotation":[0,-0.10499002784490585,0,0.9944732785224915],"children":[7,8,18,19]},{"name":"segm0","mesh":16},{"name":"seg0","translation":[1,0,0],"children":[5,6,20,21]},{"name":"body","translation":[0,3,0],"children":[4,22]},{"name":"root","children":[23]}],"animations":[{"name":"die","samplers":[{"input":47,"output":48,"interpolation":"LINEAR"},{"input":47,"output":49,"interpolation":"LINEAR"}],"channels":[{"sampler":0,"target":{"node":24,"path":"translation"}},{"sampler":1,"target":{"node":24,"path":"rotation"}}]},{"name":"idle","samplers":[{"input":50,"output":51,"interpolation":"LINEAR"}],"channels":[{"sampler":0,"target":{"node":23,"path":"translation"}}]},{"name":"attack","samplers":[{"input":52,"output":53,"interpolation":"LINEAR"},{"input":52,"output":54,"interpolation":"LINEAR"}],"channels":[{"sampler":0,"target":{"node":4,"path":"translation"}},{"sampler":1,"target":{"node":4,"path":"rotation"}}]},{"name":"run","samplers":[{"input":55,"output":56,"interpolation":"LINEAR"},{"input":55,"output":57,"interpolation":"LINEAR"},{"input":55,"output":58,"interpolation":"LINEAR"},{"input":55,"output":59,"interpolation":"LINEAR"},{"input":55,"output":60,"interpolation":"LINEAR"},{"input":55,"output":61,"interpolation":"LINEAR"},{"input":55,"output":62,"interpolation":"LINEAR"},{"input":55,"output":63,"interpolation":"LINEAR"},{"input":55,"output":64,"interpolation":"LINEAR"},{"input":55,"output":65,"interpolation":"LINEAR"}],"channels":[{"sampler":0,"target":{"node":22,"path":"translation"}},{"sampler":1,"target":{"node":22,"path":"rotation"}},{"sampler":2,"target":{"node":20,"path":"translation"}},{"sampler":3,"target":{"node":20,"path":"rotation"}},{"sampler":4,"target":{"node":18,"path":"translation"}},{"sampler":5,"target":{"node":18,"path":"rotation"}},{"sampler":6,"target":{"node":16,"path":"translation"}},{"sampler":7,"target":{"node":16,"path":"rotation"}},{"sampler":8,"target":{"node":14,"path":"translation"}},{"sampler":9,"target":{"node":14,"path":"rotation"}}]}],"scenes":[{"name":"Scene","nodes":[24]}],"scene":0,"extensionsUsed":["EXT_texture_webp"],"extensionsRequired":["EXT_texture_webp"]}