{"asset":{"generator":"glTF-Transform v4.5.1","version":"2.0"},"accessors":[{"type":"VEC3","componentType":5126,"count":1180,"max":[0.37672102451324463,5,0.36075523495674133],"min":[-0.37672102451324463,-2.384185791015625e-07,-0.36075523495674133],"bufferView":0,"byteOffset":0},{"type":"VEC3","componentType":5126,"count":1180,"bufferView":0,"byteOffset":12},{"type":"VEC2","componentType":5126,"count":1180,"bufferView":0,"byteOffset":24},{"type":"SCALAR","componentType":5123,"count":3456,"bufferView":1,"byteOffset":0},{"type":"SCALAR","componentType":5123,"count":8976,"bufferView":1,"byteOffset":6912},{"type":"SCALAR","componentType":5123,"count":7008,"bufferView":1,"byteOffset":24864},{"type":"VEC3","componentType":5126,"count":3184,"max":[0.43731409311294556,5,0.43731409311294556],"min":[-0.43731409311294556,-1.9416149791128142e-16,-0.43731409311294556],"bufferView":2,"byteOffset":0},{"type":"VEC3","componentType":5126,"count":3184,"bufferView":2,"byteOffset":12},{"type":"VEC2","componentType":5126,"count":3184,"bufferView":2,"byteOffset":24},{"type":"VEC3","componentType":5126,"count":2176,"max":[0.43731409311294556,5,0.43731409311294556],"min":[-0.43731409311294556,-1.9416149791128142e-16,-0.43731409311294556],"bufferView":3,"byteOffset":0},{"type":"VEC3","componentType":5126,"count":2176,"bufferView":3,"byteOffset":12},{"type":"VEC2","componentType":5126,"count":2176,"bufferView":3,"byteOffset":24}],"bufferViews":[{"buffer":0,"byteOffset":0,"byteLength":37760,"byteStride":32,"target":34962},{"buffer":0,"byteOffset":37760,"byteLength":38880,"target":34963},{"buffer":0,"byteOffset":76640,"byteLength":101888,"byteStride":32,"target":34962},{"buffer":0,"byteOffset":178528,"byteLength":69632,"byteStride":32,"target":34962}],"samplers":[{"magFilter":9729,"minFilter":9987,"wrapS":10497,"wrapT":10497}],"textures":[{"sampler":0,"extensions":{"EXT_texture_webp":{"source":1}}},{"sampler":0,"extensions":{"EXT_texture_webp":{"source":0}}},{"sampler":0,"extensions":{"EXT_texture_webp":{"source":2}}},{"sampler":0,"extensions":{"EXT_texture_webp":{"source":4}}},{"sampler":0,"extensions":{"EXT_texture_webp":{"source":3}}},{"sampler":0,"extensions":{"EXT_texture_webp":{"source":5}}},{"sampler":0,"extensions":{"EXT_texture_webp":{"source":7}}},{"sampler":0,"extensions":{"EXT_texture_webp":{"source":6}}},{"sampler":0,"extensions":{"EXT_texture_webp":{"source":8}}}],"images":[{"name":"T_Trim_01_Normal","uri":"column_pipes_0.webp"},{"name":"T_Trim_01_BaseColor_Red","uri":"column_pipes_1.webp"},{"name":"T_Trim_01_ORM","uri":"column_pipes_2.webp"},{"name":"T_Trim_02_Normal","uri":"column_pipes_3.webp"},{"name":"T_Trim_02_BaseColor_Red","uri":"column_pipes_4.webp"},{"name":"T_Trim_02_ORM","uri":"column_pipes_5.webp"},{"name":"T_PaddedWall_Normal","uri":"column_pipes_6.webp"},{"name":"T_PaddedWall_BaseColor","uri":"column_pipes_7.webp"},{"name":"T_PaddedWall_ORM","uri":"column_pipes_8.webp"}],"buffers":[{"byteLength":248160,"uri":"data:application/octet-stream;base64,"}],"materials":[{"name":"MI_Trim_01","doubleSided":true,"pbrMetallicRoughness":{"baseColorTexture":{"index":0},"metallicRoughnessTexture":{"index":2}},"normalTexture":{"index":1},"extensions":{"KHR_materials_ior":{"ior":1.4500000476837158},"KHR_materials_specular":{"specularFactor":0}}},{"name":"MI_Trim_02","doubleSided":true,"pbrMetallicRoughness":{"baseColorTexture":{"index":3},"metallicRoughnessTexture":{"index":5}},"normalTexture":{"index":4}},{"name":"MI_PaddedWall","doubleSided":true,"pbrMetallicRoughness":{"baseColorTexture":{"index":6},"metallicRoughnessTexture":{"index":8}},"normalTexture":{"index":7},"extensions":{"KHR_materials_ior":{"ior":1.4500000476837158},"KHR_materials_specular":{"specularFactor":0}}}],"meshes":[{"name":"Cylinder.032","primitives":[{"attributes":{"POSITION":0,"NORMAL":1,"TEXCOORD_0":2},"mode":4,"material":0,"indices":3},{"attributes":{"POSITION":6,"NORMAL":7,"TEXCOORD_0":8},"mode":4,"material":1,"indices":4},{"attributes":{"POSITION":9,"NORMAL":10,"TEXCOORD_0":11},"mode":4,"material":2,"indices":5}]}],"nodes":[{"name":"Column_Pipes","mesh":0}],"scenes":[{"name":"Scene","nodes":[0]}],"scene":0,"extensionsUsed":["EXT_texture_webp","KHR_materials_ior","KHR_materials_specular"],"extensionsRequired":["EXT_texture_webp"]}