{"asset":{"generator":"glTF-Transform v4.5.1","version":"2.0"},"accessors":[{"type":"VEC3","componentType":5126,"count":216,"max":[0.7514093518257141,0.7322261929512024,0.36449527740478516],"min":[-0.7514093518257141,0.003235679818317294,-0.36449527740478516],"bufferView":0,"byteOffset":0},{"type":"VEC3","componentType":5126,"count":216,"bufferView":0,"byteOffset":12},{"type":"VEC2","componentType":5126,"count":216,"bufferView":0,"byteOffset":24},{"type":"VEC4","componentType":5121,"count":216,"bufferView":0,"byteOffset":32},{"type":"VEC4","componentType":5126,"count":216,"bufferView":0,"byteOffset":36},{"type":"SCALAR","componentType":5123,"count":384,"bufferView":1,"byteOffset":0},{"type":"SCALAR","componentType":5123,"count":324,"bufferView":1,"byteOffset":768},{"type":"SCALAR","componentType":5123,"count":144,"bufferView":1,"byteOffset":1416},{"type":"SCALAR","componentType":5123,"count":120,"bufferView":1,"byteOffset":1704},{"type":"VEC3","componentType":5126,"count":198,"max":[0.7451001405715942,0.7322261929512024,0.36449527740478516],"min":[-0.7451001405715942,0.003235679818317294,-0.36449527740478516],"bufferView":2,"byteOffset":0},{"type":"VEC3","componentType":5126,"count":198,"bufferView":2,"byteOffset":12},{"type":"VEC2","componentType":5126,"count":198,"bufferView":2,"byteOffset":24},{"type":"VEC4","componentType":5121,"count":198,"bufferView":2,"byteOffset":32},{"type":"VEC4","componentType":5126,"count":198,"bufferView":2,"byteOffset":36},{"type":"MAT4","componentType":5126,"count":3,"bufferView":3,"byteOffset":0},{"type":"VEC3","componentType":5126,"count":64,"max":[0.7273240685462952,0.7322261929512024,0.36449527740478516],"min":[-0.7273240685462952,0.4146871268749237,-0.36449527740478516],"bufferView":4,"byteOffset":0},{"type":"VEC3","componentType":5126,"count":64,"bufferView":4,"byteOffset":12},{"type":"VEC2","componentType":5126,"count":64,"bufferView":4,"byteOffset":24},{"type":"VEC4","componentType":5121,"count":64,"bufferView":4,"byteOffset":32},{"type":"VEC4","componentType":5126,"count":64,"bufferView":4,"byteOffset":36},{"type":"VEC3","componentType":5126,"count":80,"max":[0.7273240685462952,0.7322261929512024,0.3885376453399658],"min":[-0.7273240685462952,0.4405530095100403,-0.36449527740478516],"bufferView":5,"byteOffset":0},{"type":"VEC3","componentType":5126,"count":80,"bufferView":5,"byteOffset":12},{"type":"VEC2","componentType":5126,"count":80,"bufferView":5,"byteOffset":24},{"type":"VEC4","componentType":5121,"count":80,"bufferView":5,"byteOffset":32},{"type":"VEC4","componentType":5126,"count":80,"bufferView":5,"byteOffset":36},{"type":"SCALAR","componentType":5126,"count":2,"max":[0.5],"min":[0.03333333507180214],"bufferView":6,"byteOffset":0},{"type":"VEC3","componentType":5126,"count":2,"bufferView":6,"byteOffset":8},{"type":"VEC4","componentType":5126,"count":2,"bufferView":6,"byteOffset":32},{"type":"VEC3","componentType":5126,"count":2,"bufferView":6,"byteOffset":64},{"type":"SCALAR","componentType":5126,"count":15,"max":[0.5],"min":[0.03333333507180214],"bufferView":6,"byteOffset":88},{"type":"VEC3","componentType":5126,"count":15,"bufferView":6,"byteOffset":148},{"type":"VEC4","componentType":5126,"count":15,"bufferView":6,"byteOffset":328},{"type":"VEC3","componentType":5126,"count":2,"bufferView":6,"byteOffset":568},{"type":"VEC4","componentType":5126,"count":15,"bufferView":6,"byteOffset":592},{"type":"VEC3","componentType":5126,"count":2,"bufferView":6,"byteOffset":832},{"type":"SCALAR","componentType":5126,"count":2,"max":[0.3333333432674408],"min":[0],"bufferView":6,"byteOffset":856},{"type":"VEC4","componentType":5126,"count":2,"bufferView":6,"byteOffset":864},{"type":"VEC4","componentType":5126,"count":2,"bufferView":6,"byteOffset":896},{"type":"VEC4","componentType":5126,"count":2,"bufferView":6,"byteOffset":928},{"type":"VEC3","componentType":5126,"count":2,"bufferView":6,"byteOffset":960},{"type":"SCALAR","componentType":5126,"count":2,"max":[0.6333333253860474],"min":[0],"bufferView":6,"byteOffset":984},{"type":"SCALAR","componentType":5126,"count":20,"max":[0.6333333253860474],"min":[0],"bufferView":6,"byteOffset":992},{"type":"VEC3","componentType":5126,"count":20,"bufferView":6,"byteOffset":1072},{"type":"VEC4","componentType":5126,"count":20,"bufferView":6,"byteOffset":1312},{"type":"VEC4","componentType":5126,"count":20,"bufferView":6,"byteOffset":1632},{"type":"VEC3","componentType":5126,"count":2,"bufferView":6,"byteOffset":1952}],"bufferViews":[{"buffer":0,"byteOffset":0,"byteLength":11232,"byteStride":52,"target":34962},{"buffer":0,"byteOffset":11232,"byteLength":1944,"target":34963},{"buffer":0,"byteOffset":13176,"byteLength":10296,"byteStride":52,"target":34962},{"buffer":0,"byteOffset":23472,"byteLength":192},{"buffer":0,"byteOffset":23664,"byteLength":3328,"byteStride":52,"target":34962},{"buffer":0,"byteOffset":26992,"byteLength":4160,"byteStride":52,"target":34962},{"buffer":0,"byteOffset":31152,"byteLength":1976}],"samplers":[{"magFilter":9729,"minFilter":9987,"wrapS":10497,"wrapT":10497}],"textures":[{"sampler":0,"extensions":{"EXT_texture_webp":{"source":1}}},{"sampler":0,"extensions":{"EXT_texture_webp":{"source":0}}},{"sampler":0,"extensions":{"EXT_texture_webp":{"source":2}}},{"sampler":0,"extensions":{"EXT_texture_webp":{"source":4}}},{"sampler":0,"extensions":{"EXT_texture_webp":{"source":3}}},{"sampler":0,"extensions":{"EXT_texture_webp":{"source":5}}}],"images":[{"name":"T_Trim_02_Normal","uri":"prop_chest_0.webp"},{"name":"T_Trim_02_BaseColor_Red","uri":"prop_chest_1.webp"},{"name":"T_Trim_02_ORM","uri":"prop_chest_2.webp"},{"name":"T_Trim_01_Normal","uri":"prop_chest_3.webp"},{"name":"T_Trim_01_BaseColor_Red","uri":"prop_chest_4.webp"},{"name":"T_Trim_01_ORM","uri":"prop_chest_5.webp"}],"buffers":[{"byteLength":33128,"uri":"data:application/octet-stream;base64,"}],"materials":[{"name":"MI_Trim_02","doubleSided":true,"pbrMetallicRoughness":{"baseColorTexture":{"index":0},"metallicRoughnessTexture":{"index":2}},"normalTexture":{"index":1}},{"name":"MI_Trim_01","doubleSided":true,"pbrMetallicRoughness":{"baseColorTexture":{"index":3},"metallicRoughnessTexture":{"index":5}},"normalTexture":{"index":4},"extensions":{"KHR_materials_ior":{"ior":1.4500000476837158},"KHR_materials_specular":{"specularFactor":0}}}],"meshes":[{"name":"Cube.016","primitives":[{"attributes":{"POSITION":0,"NORMAL":1,"TEXCOORD_0":2,"JOINTS_0":3,"WEIGHTS_0":4},"mode":4,"material":0,"indices":5},{"attributes":{"POSITION":9,"NORMAL":10,"TEXCOORD_0":11,"JOINTS_0":12,"WEIGHTS_0":13},"mode":4,"material":1,"indices":6}]},{"name":"Cube.001","primitives":[{"attributes":{"POSITION":15,"NORMAL":16,"TEXCOORD_0":17,"JOINTS_0":18,"WEIGHTS_0":19},"mode":4,"material":0,"indices":7},{"attributes":{"POSITION":20,"NORMAL":21,"TEXCOORD_0":22,"JOINTS_0":23,"WEIGHTS_0":24},"mode":4,"material":1,"indices":8}]}],"nodes":[{"name":"Chest_Top","translation":[0,0.4155474603176117,-0.36449527740478516]},{"name":"Chest_Bottom","children":[0]},{"name":"Root","children":[1]},{"name":"Prop_Chest","mesh":0,"skin":0},{"name":"Prop_Chest_Top","mesh":1,"skin":0},{"name":"Chest_Armature","children":[3,4,2]}],"skins":[{"name":"Chest_Armature","inverseBindMatrices":14,"joints":[2,1,0]}],"animations":[{"name":"Chest_Close","samplers":[{"input":25,"output":26,"interpolation":"STEP"},{"input":25,"output":27,"interpolation":"STEP"},{"input":25,"output":28,"interpolation":"STEP"},{"input":29,"output":30,"interpolation":"LINEAR"},{"input":29,"output":31,"interpolation":"LINEAR"},{"input":25,"output":28,"interpolation":"STEP"},{"input":25,"output":32,"interpolation":"STEP"},{"input":29,"output":33,"interpolation":"LINEAR"},{"input":25,"output":34,"interpolation":"STEP"}],"channels":[{"sampler":0,"target":{"node":2,"path":"translation"}},{"sampler":1,"target":{"node":2,"path":"rotation"}},{"sampler":2,"target":{"node":2,"path":"scale"}},{"sampler":3,"target":{"node":1,"path":"translation"}},{"sampler":4,"target":{"node":1,"path":"rotation"}},{"sampler":5,"target":{"node":1,"path":"scale"}},{"sampler":6,"target":{"node":0,"path":"translation"}},{"sampler":7,"target":{"node":0,"path":"rotation"}},{"sampler":8,"target":{"node":0,"path":"scale"}}]},{"name":"Chest_Idle_Closed","samplers":[{"input":35,"output":26,"interpolation":"STEP"},{"input":35,"output":27,"interpolation":"STEP"},{"input":35,"output":28,"interpolation":"STEP"},{"input":35,"output":26,"interpolation":"STEP"},{"input":35,"output":36,"interpolation":"STEP"},{"input":35,"output":28,"interpolation":"STEP"},{"input":35,"output":32,"interpolation":"STEP"},{"input":35,"output":37,"interpolation":"STEP"},{"input":35,"output":28,"interpolation":"STEP"}],"channels":[{"sampler":0,"target":{"node":2,"path":"translation"}},{"sampler":1,"target":{"node":2,"path":"rotation"}},{"sampler":2,"target":{"node":2,"path":"scale"}},{"sampler":3,"target":{"node":1,"path":"translation"}},{"sampler":4,"target":{"node":1,"path":"rotation"}},{"sampler":5,"target":{"node":1,"path":"scale"}},{"sampler":6,"target":{"node":0,"path":"translation"}},{"sampler":7,"target":{"node":0,"path":"rotation"}},{"sampler":8,"target":{"node":0,"path":"scale"}}]},{"name":"Chest_Idle_Open","samplers":[{"input":35,"output":26,"interpolation":"STEP"},{"input":35,"output":27,"interpolation":"STEP"},{"input":35,"output":28,"interpolation":"STEP"},{"input":35,"output":26,"interpolation":"STEP"},{"input":35,"output":36,"interpolation":"STEP"},{"input":35,"output":28,"interpolation":"STEP"},{"input":35,"output":32,"interpolation":"STEP"},{"input":35,"output":38,"interpolation":"STEP"},{"input":35,"output":39,"interpolation":"STEP"}],"channels":[{"sampler":0,"target":{"node":2,"path":"translation"}},{"sampler":1,"target":{"node":2,"path":"rotation"}},{"sampler":2,"target":{"node":2,"path":"scale"}},{"sampler":3,"target":{"node":1,"path":"translation"}},{"sampler":4,"target":{"node":1,"path":"rotation"}},{"sampler":5,"target":{"node":1,"path":"scale"}},{"sampler":6,"target":{"node":0,"path":"translation"}},{"sampler":7,"target":{"node":0,"path":"rotation"}},{"sampler":8,"target":{"node":0,"path":"scale"}}]},{"name":"Chest_Open","samplers":[{"input":40,"output":26,"interpolation":"STEP"},{"input":40,"output":27,"interpolation":"STEP"},{"input":40,"output":28,"interpolation":"STEP"},{"input":41,"output":42,"interpolation":"LINEAR"},{"input":41,"output":43,"interpolation":"LINEAR"},{"input":40,"output":28,"interpolation":"STEP"},{"input":40,"output":32,"interpolation":"STEP"},{"input":41,"output":44,"interpolation":"LINEAR"},{"input":40,"output":45,"interpolation":"STEP"}],"channels":[{"sampler":0,"target":{"node":2,"path":"translation"}},{"sampler":1,"target":{"node":2,"path":"rotation"}},{"sampler":2,"target":{"node":2,"path":"scale"}},{"sampler":3,"target":{"node":1,"path":"translation"}},{"sampler":4,"target":{"node":1,"path":"rotation"}},{"sampler":5,"target":{"node":1,"path":"scale"}},{"sampler":6,"target":{"node":0,"path":"translation"}},{"sampler":7,"target":{"node":0,"path":"rotation"}},{"sampler":8,"target":{"node":0,"path":"scale"}}]}],"scenes":[{"name":"Scene","nodes":[5]}],"scene":0,"extensionsUsed":["EXT_texture_webp","KHR_materials_ior","KHR_materials_specular"],"extensionsRequired":["EXT_texture_webp"]}