{"asset":{"generator":"glTF-Transform v4.5.1","version":"2.0"},"accessors":[{"type":"VEC3","componentType":5126,"count":360,"max":[0.5,0.5,0.5],"min":[-0.5,-0.5,-0.5],"bufferView":0,"byteOffset":0},{"type":"VEC3","componentType":5126,"count":360,"bufferView":0,"byteOffset":12},{"type":"VEC2","componentType":5126,"count":360,"bufferView":0,"byteOffset":24},{"type":"SCALAR","componentType":5123,"count":612,"bufferView":1,"byteOffset":0}],"bufferViews":[{"buffer":0,"byteOffset":0,"byteLength":11520,"byteStride":32,"target":34962},{"buffer":0,"byteOffset":11520,"byteLength":1224,"target":34963}],"samplers":[{"magFilter":9729,"minFilter":9987,"wrapS":10497,"wrapT":10497}],"textures":[{"sampler":0,"extensions":{"EXT_texture_webp":{"source":1}}},{"sampler":0,"extensions":{"EXT_texture_webp":{"source":0}}},{"sampler":0,"extensions":{"EXT_texture_webp":{"source":2}}}],"images":[{"name":"T_Trim_02_Normal","uri":"prop_crate3_0.webp"},{"name":"T_Trim_02_BaseColor_Red","uri":"prop_crate3_1.webp"},{"name":"T_Trim_02_ORM","uri":"prop_crate3_2.webp"}],"buffers":[{"byteLength":12744,"uri":"data:application/octet-stream;base64,"}],"materials":[{"name":"MI_Trim_02","doubleSided":true,"pbrMetallicRoughness":{"baseColorTexture":{"index":0},"metallicRoughnessTexture":{"index":2}},"normalTexture":{"index":1}}],"meshes":[{"name":"Cube.023","primitives":[{"attributes":{"POSITION":0,"NORMAL":1,"TEXCOORD_0":2},"mode":4,"material":0,"indices":3}]}],"nodes":[{"name":"Prop_Crate3","mesh":0}],"scenes":[{"name":"Scene","nodes":[0]}],"scene":0,"extensionsUsed":["EXT_texture_webp"],"extensionsRequired":["EXT_texture_webp"]}