{"asset":{"generator":"glTF-Transform v4.5.1","version":"2.0"},"accessors":[{"type":"VEC4","componentType":5123,"count":83,"normalized":true,"bufferView":0,"byteOffset":0},{"type":"VEC3","componentType":5126,"count":83,"max":[0.33694082498550415,1.5908066034317017,0.22568681836128235],"min":[-0.3369406759738922,1.2768127918243408,-0.0807439386844635],"bufferView":0,"byteOffset":8},{"type":"VEC3","componentType":5126,"count":83,"bufferView":0,"byteOffset":20},{"type":"VEC2","componentType":5126,"count":83,"bufferView":0,"byteOffset":32},{"type":"SCALAR","componentType":5123,"count":225,"bufferView":1,"byteOffset":0},{"type":"SCALAR","componentType":5123,"count":1050,"bufferView":1,"byteOffset":452},{"type":"SCALAR","componentType":5123,"count":282,"bufferView":1,"byteOffset":2552},{"type":"VEC4","componentType":5123,"count":367,"normalized":true,"bufferView":2,"byteOffset":0},{"type":"VEC3","componentType":5126,"count":367,"max":[0.37167635560035706,1.5915641784667969,0.3462287187576294],"min":[-0.3716762363910675,-0.0011917203664779663,-0.21623048186302185],"bufferView":2,"byteOffset":8},{"type":"VEC3","componentType":5126,"count":367,"bufferView":2,"byteOffset":20},{"type":"VEC2","componentType":5126,"count":367,"bufferView":2,"byteOffset":32},{"type":"VEC4","componentType":5123,"count":96,"normalized":true,"bufferView":3,"byteOffset":0},{"type":"VEC3","componentType":5126,"count":96,"max":[0.3487084209918976,1.5915641784667969,0.23400777578353882],"min":[-0.34870827198028564,1.2684918642044067,-0.08906489610671997],"bufferView":3,"byteOffset":8},{"type":"VEC3","componentType":5126,"count":96,"bufferView":3,"byteOffset":20},{"type":"VEC2","componentType":5126,"count":96,"bufferView":3,"byteOffset":32}],"bufferViews":[{"buffer":0,"byteOffset":0,"byteLength":3320,"byteStride":40,"target":34962},{"buffer":0,"byteOffset":3320,"byteLength":3116,"target":34963},{"buffer":0,"byteOffset":6436,"byteLength":14680,"byteStride":40,"target":34962},{"buffer":0,"byteOffset":21116,"byteLength":3840,"byteStride":40,"target":34962}],"samplers":[{"magFilter":9729,"minFilter":9987,"wrapS":10497,"wrapT":10497}],"textures":[{"sampler":0,"extensions":{"EXT_texture_webp":{"source":0}}},{"sampler":0,"extensions":{"EXT_texture_webp":{"source":2}}},{"sampler":0,"extensions":{"EXT_texture_webp":{"source":1}}},{"sampler":0,"extensions":{"EXT_texture_webp":{"source":3}}}],"images":[{"name":"T_Decals","uri":"prop_computer_0.webp"},{"name":"T_Trim_01_Normal","uri":"prop_computer_1.webp"},{"name":"T_Trim_01_BaseColor_Red","uri":"prop_computer_2.webp"},{"name":"T_Trim_01_ORM","uri":"prop_computer_3.webp"}],"buffers":[{"byteLength":24956,"uri":"data:application/octet-stream;base64,"}],"materials":[{"name":"M_Decal_Screen","doubleSided":true,"pbrMetallicRoughness":{"roughnessFactor":0.5,"metallicFactor":0,"baseColorTexture":{"index":0}}},{"name":"MI_Trim_01","doubleSided":true,"pbrMetallicRoughness":{"baseColorTexture":{"index":1},"metallicRoughnessTexture":{"index":3}},"normalTexture":{"index":2},"extensions":{"KHR_materials_ior":{"ior":1.4500000476837158},"KHR_materials_specular":{"specularFactor":0}}},{"name":"M_Black","doubleSided":true,"pbrMetallicRoughness":{"baseColorFactor":[0.0057737254537642,0.0057737254537642,0.0057737254537642,1],"roughnessFactor":0.5,"metallicFactor":0}}],"meshes":[{"name":"Plane.097","primitives":[{"attributes":{"COLOR_0":0,"POSITION":1,"NORMAL":2,"TEXCOORD_0":3},"mode":4,"material":0,"indices":4},{"attributes":{"COLOR_0":7,"POSITION":8,"NORMAL":9,"TEXCOORD_0":10},"mode":4,"material":1,"indices":5},{"attributes":{"COLOR_0":11,"POSITION":12,"NORMAL":13,"TEXCOORD_0":14},"mode":4,"material":2,"indices":6}]}],"nodes":[{"name":"Prop_Computer","mesh":0}],"scenes":[{"name":"Scene","nodes":[0]}],"scene":0,"extensionsUsed":["EXT_texture_webp","KHR_materials_ior","KHR_materials_specular"],"extensionsRequired":["EXT_texture_webp"]}