{"asset":{"generator":"glTF-Transform v4.5.1","version":"2.0"},"accessors":[{"type":"VEC3","componentType":5126,"count":96,"max":[0.6665517687797546,0.20770126581192017,0.2622881531715393],"min":[-0.6665517687797546,-0.001287149265408516,-0.26228827238082886],"bufferView":0,"byteOffset":0},{"type":"VEC3","componentType":5126,"count":96,"bufferView":0,"byteOffset":12},{"type":"VEC2","componentType":5126,"count":96,"bufferView":0,"byteOffset":24},{"type":"SCALAR","componentType":5123,"count":276,"bufferView":1,"byteOffset":0},{"type":"SCALAR","componentType":5123,"count":156,"bufferView":1,"byteOffset":552},{"type":"VEC3","componentType":5126,"count":54,"max":[0.44480395317077637,0.18402239680290222,0.04816137254238129],"min":[-0.44480395317077637,0.08280160278081894,-0.15943415462970734],"bufferView":2,"byteOffset":0},{"type":"VEC3","componentType":5126,"count":54,"bufferView":2,"byteOffset":12},{"type":"VEC2","componentType":5126,"count":54,"bufferView":2,"byteOffset":24}],"bufferViews":[{"buffer":0,"byteOffset":0,"byteLength":3072,"byteStride":32,"target":34962},{"buffer":0,"byteOffset":3072,"byteLength":864,"target":34963},{"buffer":0,"byteOffset":3936,"byteLength":1728,"byteStride":32,"target":34962}],"samplers":[{"magFilter":9729,"minFilter":9987,"wrapS":10497,"wrapT":10497}],"textures":[{"sampler":0,"extensions":{"EXT_texture_webp":{"source":1}}},{"sampler":0,"extensions":{"EXT_texture_webp":{"source":0}}},{"sampler":0,"extensions":{"EXT_texture_webp":{"source":2}}}],"images":[{"name":"T_Trim_01_Normal","uri":"prop_light_floor_0.webp"},{"name":"T_Trim_01_BaseColor_Red","uri":"prop_light_floor_1.webp"},{"name":"T_Trim_01_ORM","uri":"prop_light_floor_2.webp"}],"buffers":[{"byteLength":5664,"uri":"data:application/octet-stream;base64,"}],"materials":[{"name":"MI_Trim_01","doubleSided":true,"pbrMetallicRoughness":{"baseColorTexture":{"index":0},"metallicRoughnessTexture":{"index":2}},"normalTexture":{"index":1},"extensions":{"KHR_materials_ior":{"ior":1.4500000476837158},"KHR_materials_specular":{"specularFactor":0}}},{"name":"M_Light","doubleSided":true,"pbrMetallicRoughness":{"baseColorFactor":[0,0,0,1]},"emissiveFactor":[1,1,1]}],"meshes":[{"name":"Plane.152","primitives":[{"attributes":{"POSITION":0,"NORMAL":1,"TEXCOORD_0":2},"mode":4,"material":0,"indices":3},{"attributes":{"POSITION":5,"NORMAL":6,"TEXCOORD_0":7},"mode":4,"material":1,"indices":4}]}],"nodes":[{"name":"Prop_Light_Floor","mesh":0}],"scenes":[{"name":"Scene","nodes":[0]}],"scene":0,"extensionsUsed":["EXT_texture_webp","KHR_materials_ior","KHR_materials_specular"],"extensionsRequired":["EXT_texture_webp"]}