{"asset":{"generator":"glTF-Transform v4.5.1","version":"2.0"},"accessors":[{"type":"VEC3","componentType":5126,"count":404,"max":[0.25392207503318787,1.05525803565979,0.25392207503318787],"min":[-0.25392207503318787,0.008179725147783756,-0.25392207503318787],"bufferView":0,"byteOffset":0},{"type":"VEC3","componentType":5126,"count":404,"bufferView":0,"byteOffset":12},{"type":"VEC2","componentType":5126,"count":404,"bufferView":0,"byteOffset":24},{"type":"SCALAR","componentType":5123,"count":1092,"bufferView":1,"byteOffset":0},{"type":"SCALAR","componentType":5123,"count":414,"bufferView":1,"byteOffset":2184},{"type":"VEC3","componentType":5126,"count":202,"max":[0.25392207503318787,1.1107845306396484,0.2659945487976074],"min":[-0.25392207503318787,0.16806669533252716,-0.2659945487976074],"bufferView":2,"byteOffset":0},{"type":"VEC3","componentType":5126,"count":202,"bufferView":2,"byteOffset":12},{"type":"VEC2","componentType":5126,"count":202,"bufferView":2,"byteOffset":24}],"bufferViews":[{"buffer":0,"byteOffset":0,"byteLength":12928,"byteStride":32,"target":34962},{"buffer":0,"byteOffset":12928,"byteLength":3012,"target":34963},{"buffer":0,"byteOffset":15940,"byteLength":6464,"byteStride":32,"target":34962}],"samplers":[{"magFilter":9729,"minFilter":9987,"wrapS":10497,"wrapT":10497}],"textures":[{"sampler":0,"extensions":{"EXT_texture_webp":{"source":1}}},{"sampler":0,"extensions":{"EXT_texture_webp":{"source":0}}},{"sampler":0,"extensions":{"EXT_texture_webp":{"source":2}}},{"sampler":0,"extensions":{"EXT_texture_webp":{"source":4}}},{"sampler":0,"extensions":{"EXT_texture_webp":{"source":3}}},{"sampler":0,"extensions":{"EXT_texture_webp":{"source":5}}}],"images":[{"name":"T_Trim_01_Normal","uri":"prop_barrel_large_0.webp"},{"name":"T_Trim_01_BaseColor_Red","uri":"prop_barrel_large_1.webp"},{"name":"T_Trim_01_ORM","uri":"prop_barrel_large_2.webp"},{"name":"T_Trim_02_Normal","uri":"prop_barrel_large_3.webp"},{"name":"T_Trim_02_BaseColor_Red","uri":"prop_barrel_large_4.webp"},{"name":"T_Trim_02_ORM","uri":"prop_barrel_large_5.webp"}],"buffers":[{"byteLength":22404,"uri":"data:application/octet-stream;base64,"}],"materials":[{"name":"MI_Trim_01","doubleSided":true,"pbrMetallicRoughness":{"baseColorTexture":{"index":0},"metallicRoughnessTexture":{"index":2}},"normalTexture":{"index":1},"extensions":{"KHR_materials_ior":{"ior":1.4500000476837158},"KHR_materials_specular":{"specularFactor":0}}},{"name":"MI_Trim_02","doubleSided":true,"pbrMetallicRoughness":{"baseColorTexture":{"index":3},"metallicRoughnessTexture":{"index":5}},"normalTexture":{"index":4}}],"meshes":[{"name":"Cylinder.021","primitives":[{"attributes":{"POSITION":0,"NORMAL":1,"TEXCOORD_0":2},"mode":4,"material":0,"indices":3},{"attributes":{"POSITION":5,"NORMAL":6,"TEXCOORD_0":7},"mode":4,"material":1,"indices":4}]}],"nodes":[{"name":"Prop_Barrel_Large","mesh":0}],"scenes":[{"name":"Scene","nodes":[0]}],"scene":0,"extensionsUsed":["EXT_texture_webp","KHR_materials_ior","KHR_materials_specular"],"extensionsRequired":["EXT_texture_webp"]}