{"asset":{"generator":"glTF-Transform v4.5.1","version":"2.0"},"accessors":[{"type":"VEC3","componentType":5126,"count":268,"max":[50.76837158203125,22.72789764404297,35.177642822265625],"min":[-45.72816467285156,-4.392003536224365,-31.430622100830078],"bufferView":0,"byteOffset":0},{"type":"VEC3","componentType":5126,"count":268,"bufferView":0,"byteOffset":12},{"type":"VEC2","componentType":5126,"count":268,"bufferView":0,"byteOffset":24},{"type":"SCALAR","componentType":5123,"count":960,"bufferView":1,"byteOffset":0}],"bufferViews":[{"buffer":0,"byteOffset":0,"byteLength":8576,"byteStride":32,"target":34962},{"buffer":0,"byteOffset":8576,"byteLength":1920,"target":34963}],"samplers":[{"magFilter":9729,"minFilter":9987,"wrapS":10497,"wrapT":10497}],"textures":[{"sampler":0,"extensions":{"EXT_texture_webp":{"source":1}}},{"sampler":0,"extensions":{"EXT_texture_webp":{"source":0}}},{"sampler":0,"extensions":{"EXT_texture_webp":{"source":2}}}],"images":[{"name":"rock2_normal","uri":"rock_3_0.webp"},{"name":"rock2_color","uri":"rock_3_1.webp"},{"name":"rock2_rough","uri":"rock_3_2.webp"}],"buffers":[{"byteLength":10496,"uri":"data:application/octet-stream;base64,"}],"materials":[{"name":"rock","doubleSided":true,"pbrMetallicRoughness":{"baseColorFactor":[0.2345505803823471,0.17464740574359894,0.12213877588510513,1],"metallicFactor":0,"baseColorTexture":{"index":0},"metallicRoughnessTexture":{"index":2}},"normalTexture":{"index":1}}],"meshes":[{"name":"Icosphere","primitives":[{"attributes":{"POSITION":0,"NORMAL":1,"TEXCOORD_0":2},"mode":4,"material":0,"indices":3}]}],"nodes":[{"name":"rock","translation":[0,9.899999618530273,0],"mesh":0},{"name":"root","children":[0]}],"scenes":[{"name":"Scene","nodes":[1]}],"scene":0,"extensionsUsed":["EXT_texture_webp"],"extensionsRequired":["EXT_texture_webp"]}