{"asset":{"generator":"glTF-Transform v4.5.1","version":"2.0"},"accessors":[{"type":"VEC3","componentType":5126,"count":272,"max":[36.758636474609375,18.194793701171875,23.344558715820312],"min":[-32.103240966796875,-3.588392972946167,-27.617843627929688],"bufferView":0,"byteOffset":0},{"type":"VEC3","componentType":5126,"count":272,"bufferView":0,"byteOffset":12},{"type":"VEC2","componentType":5126,"count":272,"bufferView":0,"byteOffset":24},{"type":"SCALAR","componentType":5123,"count":960,"bufferView":1,"byteOffset":0}],"bufferViews":[{"buffer":0,"byteOffset":0,"byteLength":8704,"byteStride":32,"target":34962},{"buffer":0,"byteOffset":8704,"byteLength":1920,"target":34963}],"samplers":[{"magFilter":9729,"minFilter":9987,"wrapS":10497,"wrapT":10497}],"textures":[{"sampler":0,"extensions":{"EXT_texture_webp":{"source":1}}},{"sampler":0,"extensions":{"EXT_texture_webp":{"source":0}}},{"sampler":0,"extensions":{"EXT_texture_webp":{"source":2}}}],"images":[{"name":"rock2_normal","uri":"rock_1_0.webp"},{"name":"rock2_color","uri":"rock_1_1.webp"},{"name":"rock2_rough","uri":"rock_1_2.webp"}],"buffers":[{"byteLength":10624,"uri":"data:application/octet-stream;base64,"}],"materials":[{"name":"rock","doubleSided":true,"pbrMetallicRoughness":{"baseColorFactor":[0.1946178376674652,0.1441284716129303,0.09758734703063965,1],"metallicFactor":0,"baseColorTexture":{"index":0},"metallicRoughnessTexture":{"index":2}},"normalTexture":{"index":1}}],"meshes":[{"name":"Icosphere","primitives":[{"attributes":{"POSITION":0,"NORMAL":1,"TEXCOORD_0":2},"mode":4,"material":0,"indices":3}]}],"nodes":[{"name":"rock","translation":[0,8.100000381469727,0],"mesh":0},{"name":"root","children":[0]}],"scenes":[{"name":"Scene","nodes":[1]}],"scene":0,"extensionsUsed":["EXT_texture_webp"],"extensionsRequired":["EXT_texture_webp"]}