{"asset":{"generator":"glTF-Transform v4.5.1","version":"2.0"},"accessors":[{"type":"VEC3","componentType":5126,"count":275,"max":[26.581565856933594,26.764751434326172,31.261260986328125],"min":[-28.71984100341797,-4.784582614898682,-34.351505279541016],"bufferView":0,"byteOffset":0},{"type":"VEC3","componentType":5126,"count":275,"bufferView":0,"byteOffset":12},{"type":"VEC2","componentType":5126,"count":275,"bufferView":0,"byteOffset":24},{"type":"SCALAR","componentType":5123,"count":960,"bufferView":1,"byteOffset":0}],"bufferViews":[{"buffer":0,"byteOffset":0,"byteLength":8800,"byteStride":32,"target":34962},{"buffer":0,"byteOffset":8800,"byteLength":1920,"target":34963}],"samplers":[{"magFilter":9729,"minFilter":9987,"wrapS":10497,"wrapT":10497}],"textures":[{"sampler":0,"extensions":{"EXT_texture_webp":{"source":1}}},{"sampler":0,"extensions":{"EXT_texture_webp":{"source":0}}},{"sampler":0,"extensions":{"EXT_texture_webp":{"source":2}}}],"images":[{"name":"rock2_normal","uri":"rock_5_0.webp"},{"name":"rock2_color","uri":"rock_5_1.webp"},{"name":"rock2_rough","uri":"rock_5_2.webp"}],"buffers":[{"byteLength":10720,"uri":"data:application/octet-stream;base64,"}],"materials":[{"name":"rock","doubleSided":true,"pbrMetallicRoughness":{"baseColorFactor":[0.20863686501979828,0.16202937066555023,0.11697066575288773,1],"metallicFactor":0,"baseColorTexture":{"index":0},"metallicRoughnessTexture":{"index":2}},"normalTexture":{"index":1}}],"meshes":[{"name":"Icosphere","primitives":[{"attributes":{"POSITION":0,"NORMAL":1,"TEXCOORD_0":2},"mode":4,"material":0,"indices":3}]}],"nodes":[{"name":"rock","translation":[0,10.800000190734863,0],"mesh":0},{"name":"root","children":[0]}],"scenes":[{"name":"Scene","nodes":[1]}],"scene":0,"extensionsUsed":["EXT_texture_webp"],"extensionsRequired":["EXT_texture_webp"]}