{"asset":{"generator":"glTF-Transform v4.5.1","version":"2.0"},"accessors":[{"type":"VEC3","componentType":5126,"count":304,"max":[13.326299667358398,11.440787315368652,10.71140193939209],"min":[-13.993722915649414,-1.795450210571289,-11.403783798217773],"bufferView":0,"byteOffset":0},{"type":"VEC3","componentType":5126,"count":304,"bufferView":0,"byteOffset":12},{"type":"VEC2","componentType":5126,"count":304,"bufferView":0,"byteOffset":24},{"type":"SCALAR","componentType":5123,"count":960,"bufferView":1,"byteOffset":0}],"bufferViews":[{"buffer":0,"byteOffset":0,"byteLength":9728,"byteStride":32,"target":34962},{"buffer":0,"byteOffset":9728,"byteLength":1920,"target":34963}],"samplers":[{"magFilter":9729,"minFilter":9987,"wrapS":10497,"wrapT":10497}],"textures":[{"sampler":0,"extensions":{"EXT_texture_webp":{"source":1}}},{"sampler":0,"extensions":{"EXT_texture_webp":{"source":0}}},{"sampler":0,"extensions":{"EXT_texture_webp":{"source":2}}}],"images":[{"name":"rock_normal","uri":"rock_4_0.webp"},{"name":"rock_color","uri":"rock_4_1.webp"},{"name":"rock_rough","uri":"rock_4_2.webp"}],"buffers":[{"byteLength":11648,"uri":"data:application/octet-stream;base64,"}],"materials":[{"name":"rock","doubleSided":true,"pbrMetallicRoughness":{"baseColorFactor":[0.1119324266910553,0.08865558356046677,0.06480326503515244,1],"metallicFactor":0,"baseColorTexture":{"index":0},"metallicRoughnessTexture":{"index":2}},"normalTexture":{"index":1}}],"meshes":[{"name":"Icosphere","primitives":[{"attributes":{"POSITION":0,"NORMAL":1,"TEXCOORD_0":2},"mode":4,"material":0,"indices":3}]}],"nodes":[{"name":"rock","translation":[0,4.050000190734863,0],"mesh":0},{"name":"root","children":[0]}],"scenes":[{"name":"Scene","nodes":[1]}],"scene":0,"extensionsUsed":["EXT_texture_webp"],"extensionsRequired":["EXT_texture_webp"]}