{"asset":{"generator":"glTF-Transform v4.5.1","version":"2.0"},"accessors":[{"type":"VEC3","componentType":5126,"count":257,"max":[67.30227661132812,21.890695571899414,42.464263916015625],"min":[-70.7336654663086,-3.991244077682495,-43.90193557739258],"bufferView":0,"byteOffset":0},{"type":"VEC3","componentType":5126,"count":257,"bufferView":0,"byteOffset":12},{"type":"VEC2","componentType":5126,"count":257,"bufferView":0,"byteOffset":24},{"type":"SCALAR","componentType":5123,"count":960,"bufferView":1,"byteOffset":0}],"bufferViews":[{"buffer":0,"byteOffset":0,"byteLength":8224,"byteStride":32,"target":34962},{"buffer":0,"byteOffset":8224,"byteLength":1920,"target":34963}],"samplers":[{"magFilter":9729,"minFilter":9987,"wrapS":10497,"wrapT":10497}],"textures":[{"sampler":0,"extensions":{"EXT_texture_webp":{"source":1}}},{"sampler":0,"extensions":{"EXT_texture_webp":{"source":0}}},{"sampler":0,"extensions":{"EXT_texture_webp":{"source":2}}}],"images":[{"name":"rock_normal","uri":"rock_6_0.webp"},{"name":"rock_color","uri":"rock_6_1.webp"},{"name":"rock_rough","uri":"rock_6_2.webp"}],"buffers":[{"byteLength":10144,"uri":"data:application/octet-stream;base64,"}],"materials":[{"name":"rock","doubleSided":true,"pbrMetallicRoughness":{"baseColorFactor":[0.15592646598815918,0.11697066575288773,0.0802198201417923,1],"metallicFactor":0,"baseColorTexture":{"index":0},"metallicRoughnessTexture":{"index":2}},"normalTexture":{"index":1}}],"meshes":[{"name":"Icosphere","primitives":[{"attributes":{"POSITION":0,"NORMAL":1,"TEXCOORD_0":2},"mode":4,"material":0,"indices":3}]}],"nodes":[{"name":"rock","translation":[0,9,0],"mesh":0},{"name":"root","children":[0]}],"scenes":[{"name":"Scene","nodes":[1]}],"scene":0,"extensionsUsed":["EXT_texture_webp"],"extensionsRequired":["EXT_texture_webp"]}