{"asset":{"generator":"glTF-Transform v4.5.1","version":"2.0"},"accessors":[{"type":"VEC3","componentType":5126,"count":96,"max":[9,5.5,10],"min":[-9,-5.5,-10],"bufferView":0,"byteOffset":0},{"type":"VEC3","componentType":5126,"count":96,"bufferView":0,"byteOffset":12},{"type":"VEC2","componentType":5126,"count":96,"bufferView":0,"byteOffset":24},{"type":"SCALAR","componentType":5123,"count":132,"bufferView":1,"byteOffset":0},{"type":"SCALAR","componentType":5123,"count":84,"bufferView":1,"byteOffset":264},{"type":"SCALAR","componentType":5123,"count":84,"bufferView":1,"byteOffset":432},{"type":"SCALAR","componentType":5123,"count":108,"bufferView":1,"byteOffset":600},{"type":"SCALAR","componentType":5123,"count":108,"bufferView":1,"byteOffset":816},{"type":"VEC3","componentType":5126,"count":96,"max":[6,1.5,7],"min":[-6,-1.5,-7],"bufferView":2,"byteOffset":0},{"type":"VEC2","componentType":5126,"count":96,"bufferView":2,"byteOffset":12},{"type":"VEC3","componentType":5126,"count":96,"max":[1.5,2.25,6],"min":[-1.5,-2.25,-6],"bufferView":3,"byteOffset":0},{"type":"VEC2","componentType":5126,"count":96,"bufferView":3,"byteOffset":12},{"type":"VEC3","componentType":5126,"count":96,"max":[3,3.5,6],"min":[-3,-3.5,-6],"bufferView":4,"byteOffset":0},{"type":"VEC3","componentType":5126,"count":96,"bufferView":4,"byteOffset":12},{"type":"VEC2","componentType":5126,"count":96,"bufferView":4,"byteOffset":24},{"type":"VEC3","componentType":5126,"count":40,"max":[1.2000000476837158,2,1.2000000476837158],"min":[-1.2000000476837158,-2,-1.2000000476837158],"bufferView":5,"byteOffset":0},{"type":"VEC3","componentType":5126,"count":40,"bufferView":5,"byteOffset":12},{"type":"VEC2","componentType":5126,"count":40,"bufferView":5,"byteOffset":24},{"type":"VEC2","componentType":5126,"count":40,"bufferView":6,"byteOffset":0},{"type":"VEC3","componentType":5126,"count":40,"max":[0.800000011920929,4.5,0.800000011920929],"min":[-0.800000011920929,-4.5,-0.800000011920929],"bufferView":7,"byteOffset":0},{"type":"VEC2","componentType":5126,"count":40,"bufferView":7,"byteOffset":12},{"type":"VEC2","componentType":5126,"count":40,"bufferView":8,"byteOffset":0},{"type":"VEC3","componentType":5126,"count":96,"max":[6,2.5,2.5],"min":[-6,-2.5,-2.5],"bufferView":9,"byteOffset":0},{"type":"VEC2","componentType":5126,"count":96,"bufferView":9,"byteOffset":12},{"type":"VEC2","componentType":5126,"count":40,"bufferView":10,"byteOffset":0},{"type":"VEC2","componentType":5126,"count":40,"bufferView":11,"byteOffset":0},{"type":"VEC2","componentType":5126,"count":96,"bufferView":12,"byteOffset":0},{"type":"VEC3","componentType":5126,"count":96,"max":[9.199999809265137,0.6000000238418579,10.199999809265137],"min":[-9.199999809265137,-0.6000000238418579,-10.199999809265137],"bufferView":13,"byteOffset":0},{"type":"VEC2","componentType":5126,"count":96,"bufferView":13,"byteOffset":12},{"type":"VEC3","componentType":5126,"count":96,"max":[5,2.5,7],"min":[-5,-2.5,-7],"bufferView":14,"byteOffset":0},{"type":"VEC2","componentType":5126,"count":96,"bufferView":14,"byteOffset":12},{"type":"VEC3","componentType":5126,"count":96,"max":[5.5,1.2999999523162842,3],"min":[-5.5,-1.2999999523162842,-3],"bufferView":15,"byteOffset":0},{"type":"VEC2","componentType":5126,"count":96,"bufferView":15,"byteOffset":12},{"type":"VEC3","componentType":5126,"count":48,"max":[2.4727468490600586,2.5,2.5999999046325684],"min":[-2.4727468490600586,-2.5,-2.5999999046325684],"bufferView":16,"byteOffset":0},{"type":"VEC3","componentType":5126,"count":48,"bufferView":16,"byteOffset":12},{"type":"VEC2","componentType":5126,"count":48,"bufferView":16,"byteOffset":24},{"type":"VEC3","componentType":5126,"count":96,"max":[2,5.5,1.7999999523162842],"min":[-2,-5.5,-1.7999999523162842],"bufferView":17,"byteOffset":0},{"type":"VEC2","componentType":5126,"count":96,"bufferView":17,"byteOffset":12},{"type":"VEC3","componentType":5126,"count":96,"max":[2.5,5.5,2],"min":[-2.5,-5.5,-2],"bufferView":18,"byteOffset":0},{"type":"VEC2","componentType":5126,"count":96,"bufferView":18,"byteOffset":12},{"type":"VEC2","componentType":5126,"count":96,"bufferView":19,"byteOffset":0},{"type":"VEC2","componentType":5126,"count":48,"bufferView":20,"byteOffset":0},{"type":"VEC2","componentType":5126,"count":96,"bufferView":21,"byteOffset":0},{"type":"VEC2","componentType":5126,"count":96,"bufferView":22,"byteOffset":0},{"type":"SCALAR","componentType":5126,"count":30,"max":[1],"min":[0.03333333507180214],"bufferView":23,"byteOffset":0},{"type":"VEC3","componentType":5126,"count":30,"bufferView":23,"byteOffset":120},{"type":"VEC4","componentType":5126,"count":30,"bufferView":23,"byteOffset":480},{"type":"SCALAR","componentType":5126,"count":31,"max":[1.0333333015441895],"min":[0.03333333507180214],"bufferView":23,"byteOffset":960},{"type":"VEC3","componentType":5126,"count":31,"bufferView":23,"byteOffset":1084},{"type":"VEC4","componentType":5126,"count":31,"bufferView":23,"byteOffset":1456},{"type":"VEC4","componentType":5126,"count":31,"bufferView":23,"byteOffset":1952},{"type":"VEC4","componentType":5126,"count":31,"bufferView":23,"byteOffset":2448},{"type":"VEC4","componentType":5126,"count":31,"bufferView":23,"byteOffset":2944},{"type":"VEC4","componentType":5126,"count":31,"bufferView":23,"byteOffset":3440},{"type":"VEC4","componentType":5126,"count":31,"bufferView":23,"byteOffset":3936},{"type":"VEC4","componentType":5126,"count":31,"bufferView":23,"byteOffset":4432},{"type":"SCALAR","componentType":5126,"count":60,"max":[2],"min":[0.03333333507180214],"bufferView":23,"byteOffset":4928},{"type":"VEC3","componentType":5126,"count":60,"bufferView":23,"byteOffset":5168},{"type":"SCALAR","componentType":5126,"count":6,"max":[0.20000000298023224],"min":[0.03333333507180214],"bufferView":23,"byteOffset":5888},{"type":"VEC3","componentType":5126,"count":6,"bufferView":23,"byteOffset":5912},{"type":"VEC3","componentType":5126,"count":6,"bufferView":23,"byteOffset":5984}],"bufferViews":[{"buffer":0,"byteOffset":0,"byteLength":3072,"byteStride":32,"target":34962},{"buffer":0,"byteOffset":3072,"byteLength":1032,"target":34963},{"buffer":0,"byteOffset":4104,"byteLength":1920,"byteStride":20,"target":34962},{"buffer":0,"byteOffset":6024,"byteLength":1920,"byteStride":20,"target":34962},{"buffer":0,"byteOffset":7944,"byteLength":3072,"byteStride":32,"target":34962},{"buffer":0,"byteOffset":11016,"byteLength":1280,"byteStride":32,"target":34962},{"buffer":0,"byteOffset":12296,"byteLength":320,"byteStride":8,"target":34962},{"buffer":0,"byteOffset":12616,"byteLength":800,"byteStride":20,"target":34962},{"buffer":0,"byteOffset":13416,"byteLength":320,"byteStride":8,"target":34962},{"buffer":0,"byteOffset":13736,"byteLength":1920,"byteStride":20,"target":34962},{"buffer":0,"byteOffset":15656,"byteLength":320,"byteStride":8,"target":34962},{"buffer":0,"byteOffset":15976,"byteLength":320,"byteStride":8,"target":34962},{"buffer":0,"byteOffset":16296,"byteLength":768,"byteStride":8,"target":34962},{"buffer":0,"byteOffset":17064,"byteLength":1920,"byteStride":20,"target":34962},{"buffer":0,"byteOffset":18984,"byteLength":1920,"byteStride":20,"target":34962},{"buffer":0,"byteOffset":20904,"byteLength":1920,"byteStride":20,"target":34962},{"buffer":0,"byteOffset":22824,"byteLength":1536,"byteStride":32,"target":34962},{"buffer":0,"byteOffset":24360,"byteLength":1920,"byteStride":20,"target":34962},{"buffer":0,"byteOffset":26280,"byteLength":1920,"byteStride":20,"target":34962},{"buffer":0,"byteOffset":28200,"byteLength":768,"byteStride":8,"target":34962},{"buffer":0,"byteOffset":28968,"byteLength":384,"byteStride":8,"target":34962},{"buffer":0,"byteOffset":29352,"byteLength":768,"byteStride":8,"target":34962},{"buffer":0,"byteOffset":30120,"byteLength":768,"byteStride":8,"target":34962},{"buffer":0,"byteOffset":30888,"byteLength":6056}],"samplers":[{"magFilter":9729,"minFilter":9987,"wrapS":10497,"wrapT":10497}],"textures":[{"sampler":0,"extensions":{"EXT_texture_webp":{"source":1}}},{"sampler":0,"extensions":{"EXT_texture_webp":{"source":0}}},{"sampler":0,"extensions":{"EXT_texture_webp":{"source":2}}},{"sampler":0,"extensions":{"EXT_texture_webp":{"source":4}}},{"sampler":0,"extensions":{"EXT_texture_webp":{"source":3}}},{"sampler":0,"extensions":{"EXT_texture_webp":{"source":5}}},{"sampler":0,"extensions":{"EXT_texture_webp":{"source":7}}},{"sampler":0,"extensions":{"EXT_texture_webp":{"source":6}}},{"sampler":0,"extensions":{"EXT_texture_webp":{"source":8}}}],"images":[{"name":"paintworn_normal","uri":"mech_0.webp"},{"name":"paintworn_color","uri":"mech_1.webp"},{"name":"paintworn_rough","uri":"mech_2.webp"},{"name":"plate_normal","uri":"mech_3.webp"},{"name":"plate_color","uri":"mech_4.webp"},{"name":"plate_rough","uri":"mech_5.webp"},{"name":"paint_normal","uri":"mech_6.webp"},{"name":"paint_color","uri":"mech_7.webp"},{"name":"paint_rough","uri":"mech_8.webp"}],"buffers":[{"byteLength":36944,"uri":"data:application/octet-stream;base64,"}],"materials":[{"name":"armor","doubleSided":true,"pbrMetallicRoughness":{"baseColorFactor":[0.15592646598815918,0.1946178376674652,0.23074005544185638,1],"metallicFactor":0.44999998807907104,"baseColorTexture":{"index":0},"metallicRoughnessTexture":{"index":2}},"normalTexture":{"index":1}},{"name":"blue","doubleSided":true,"pbrMetallicRoughness":{"baseColorFactor":[0.06847816705703735,0.13286831974983215,0.2158605009317398,1],"metallicFactor":0.44999998807907104,"baseColorTexture":{"index":0},"metallicRoughnessTexture":{"index":2}},"normalTexture":{"index":1}},{"name":"glass","doubleSided":true,"pbrMetallicRoughness":{"baseColorFactor":[0.34670406579971313,0.7681511640548706,1,1],"roughnessFactor":0.15000000596046448,"metallicFactor":0},"emissiveFactor":[0.15896083414554596,0.577580451965332,1],"extensions":{"KHR_materials_emissive_strength":{"emissiveStrength":2.5}}},{"name":"dark","doubleSided":true,"pbrMetallicRoughness":{"baseColorFactor":[0.06847816705703735,0.07818742096424103,0.09084171056747437,1],"metallicFactor":0.699999988079071,"baseColorTexture":{"index":3},"metallicRoughnessTexture":{"index":5}},"normalTexture":{"index":4}},{"name":"hazard","doubleSided":true,"pbrMetallicRoughness":{"baseColorFactor":[0.5840784311294556,0.32314321398735046,0.027320891618728638,1],"metallicFactor":0.30000001192092896,"baseColorTexture":{"index":6},"metallicRoughnessTexture":{"index":8}},"normalTexture":{"index":7}}],"meshes":[{"name":"Cube.001","primitives":[{"attributes":{"POSITION":0,"NORMAL":1,"TEXCOORD_0":2},"mode":4,"material":0,"indices":3}]},{"name":"Cube.002","primitives":[{"attributes":{"POSITION":8,"TEXCOORD_0":9,"NORMAL":1},"mode":4,"material":1,"indices":3}]},{"name":"Cube.003","primitives":[{"attributes":{"POSITION":10,"TEXCOORD_0":11,"NORMAL":1},"mode":4,"material":2,"indices":3}]},{"name":"Cube.005","primitives":[{"attributes":{"POSITION":12,"NORMAL":13,"TEXCOORD_0":14},"mode":4,"material":3,"indices":3}]},{"name":"Cylinder","primitives":[{"attributes":{"POSITION":15,"NORMAL":16,"TEXCOORD_0":17},"mode":4,"material":3,"indices":4}]},{"name":"Cylinder.001","primitives":[{"attributes":{"TEXCOORD_0":18,"POSITION":15,"NORMAL":16},"mode":4,"material":3,"indices":4}]},{"name":"Cylinder.005","primitives":[{"attributes":{"POSITION":15,"NORMAL":16,"TEXCOORD_0":18},"mode":4,"material":3,"indices":4}]},{"name":"Cylinder.002","primitives":[{"attributes":{"POSITION":19,"TEXCOORD_0":20,"NORMAL":16},"mode":4,"material":3,"indices":4}]},{"name":"Cylinder.003","primitives":[{"attributes":{"TEXCOORD_0":21,"POSITION":19,"NORMAL":16},"mode":4,"material":3,"indices":4}]},{"name":"Cube.006","primitives":[{"attributes":{"POSITION":22,"TEXCOORD_0":23,"NORMAL":1},"mode":4,"material":0,"indices":3}]},{"name":"Cylinder.006","primitives":[{"attributes":{"TEXCOORD_0":24,"POSITION":19,"NORMAL":16},"mode":4,"material":3,"indices":5}]},{"name":"Cylinder.007","primitives":[{"attributes":{"TEXCOORD_0":25,"POSITION":19,"NORMAL":16},"mode":4,"material":3,"indices":5}]},{"name":"Cube.007","primitives":[{"attributes":{"TEXCOORD_0":26,"POSITION":22,"NORMAL":1},"mode":4,"material":0,"indices":3}]},{"name":"Cube.004","primitives":[{"attributes":{"POSITION":27,"TEXCOORD_0":28,"NORMAL":1},"mode":4,"material":4,"indices":3}]},{"name":"Cube","primitives":[{"attributes":{"POSITION":29,"TEXCOORD_0":30,"NORMAL":1},"mode":4,"material":3,"indices":3}]},{"name":"Cube.010","primitives":[{"attributes":{"POSITION":31,"TEXCOORD_0":32,"NORMAL":1},"mode":4,"material":3,"indices":3}]},{"name":"Cylinder.008","primitives":[{"attributes":{"POSITION":33,"NORMAL":34,"TEXCOORD_0":35},"mode":4,"material":3,"indices":6}]},{"name":"Cube.009","primitives":[{"attributes":{"POSITION":36,"TEXCOORD_0":37,"NORMAL":1},"mode":4,"material":0,"indices":3}]},{"name":"Cube.008","primitives":[{"attributes":{"POSITION":38,"TEXCOORD_0":39,"NORMAL":1},"mode":4,"material":0,"indices":3}]},{"name":"Cube.013","primitives":[{"attributes":{"TEXCOORD_0":40,"POSITION":31,"NORMAL":1},"mode":4,"material":3,"indices":3}]},{"name":"Cylinder.009","primitives":[{"attributes":{"TEXCOORD_0":41,"POSITION":33,"NORMAL":34},"mode":4,"material":3,"indices":7}]},{"name":"Cube.012","primitives":[{"attributes":{"TEXCOORD_0":42,"POSITION":36,"NORMAL":1},"mode":4,"material":0,"indices":3}]},{"name":"Cube.011","primitives":[{"attributes":{"TEXCOORD_0":43,"POSITION":38,"NORMAL":1},"mode":4,"material":0,"indices":3}]}],"nodes":[{"name":"cab","translation":[1,6,0],"mesh":0},{"name":"cab_top","translation":[0,12.5,0],"mesh":1},{"name":"canopy","translation":[10.399999618530273,7.5,0],"mesh":2},{"name":"engine","translation":[-10,7,0],"mesh":3},{"name":"exhaust","translation":[-12,12,-2.700000047683716],"mesh":4},{"name":"exhaust.001","translation":[-12,12,2.700000047683716],"mesh":5},{"name":"exhaust.002","translation":[-12,12,-2.700000047683716],"mesh":4},{"name":"exhaust.003","translation":[-12,12,2.700000047683716],"mesh":6},{"name":"barrel1-1","translation":[12,0,1.3000001907348633],"rotation":[0,0,-0.7071068286895752,0.7071068286895752],"mesh":7},{"name":"barrel11","translation":[12,0,-1.3000001907348633],"rotation":[0,0,-0.7071068286895752,0.7071068286895752],"mesh":8},{"name":"gunpod1","translation":[2,0,0],"mesh":9},{"name":"gun1","translation":[4,5,-12.5],"children":[8,9,10]},{"name":"barrel-1-1","translation":[12,0,-1.3000001907348633],"rotation":[0,0,-0.7071068286895752,0.7071068286895752],"mesh":10},{"name":"barrel-11","translation":[12,0,1.3000001907348633],"rotation":[0,0,-0.7071068286895752,0.7071068286895752],"mesh":11},{"name":"gunpod-1","translation":[2,0,0],"mesh":12},{"name":"gun-1","translation":[4,5,12.5],"children":[12,13,14]},{"name":"stripe","translation":[1,2,0],"mesh":13},{"name":"cabin","translation":[0,2,0],"children":[0,1,2,3,4,5,6,7,11,15,16]},{"name":"hipblock","mesh":14},{"name":"footL","translation":[2.000000238418579,-1.0999999046325684,0],"mesh":15},{"name":"ankleL","translation":[-5.800000190734863,-10.09999942779541,0],"children":[19]},{"name":"kneecylL","rotation":[0.7071068286895752,0,0,0.7071068286895752],"mesh":16},{"name":"shinL","translation":[-3.1999998092651367,-5,0],"rotation":[0,0,0.24740397930145264,0.9689124226570129],"mesh":17},{"name":"kneeL","translation":[4.199999809265137,-9.5,-0.3000001907348633],"rotation":[0,0,-0.24740397930145264,0.9689124226570129],"children":[20,21,22]},{"name":"thighmL","translation":[2.200000047683716,-4.5,-0.3000001907348633],"rotation":[0,0,-0.22310638427734375,0.9747942090034485],"mesh":18},{"name":"thighL","translation":[0,0,-6.5],"children":[23,24]},{"name":"footR","translation":[2,-1.1000001430511475,0],"mesh":19},{"name":"ankleR","translation":[-5.799999713897705,-10.100000381469727,0],"children":[26]},{"name":"kneecylR","rotation":[0.7071068286895752,0,0,0.7071068286895752],"mesh":20},{"name":"shinR","translation":[-3.1999998092651367,-5,0],"rotation":[0,0,0.24740397930145264,0.9689124226570129],"mesh":21},{"name":"kneeR","translation":[4.199999809265137,-9.5,0.3000001907348633],"children":[27,28,29]},{"name":"thighmR","translation":[2.200000047683716,-4.5,0.3000001907348633],"rotation":[0,0,-0.22310638427734375,0.9747942090034485],"mesh":22},{"name":"thighR","translation":[0,0,6.5],"children":[30,31]},{"name":"pelvis","translation":[0,22,0],"children":[17,18,25,32]},{"name":"root","children":[33]}],"animations":[{"name":"die","samplers":[{"input":44,"output":45,"interpolation":"LINEAR"},{"input":44,"output":46,"interpolation":"LINEAR"}],"channels":[{"sampler":0,"target":{"node":34,"path":"translation"}},{"sampler":1,"target":{"node":34,"path":"rotation"}}]},{"name":"run","samplers":[{"input":47,"output":48,"interpolation":"LINEAR"},{"input":47,"output":49,"interpolation":"LINEAR"},{"input":47,"output":50,"interpolation":"LINEAR"},{"input":47,"output":51,"interpolation":"LINEAR"},{"input":47,"output":52,"interpolation":"LINEAR"},{"input":47,"output":53,"interpolation":"LINEAR"},{"input":47,"output":54,"interpolation":"LINEAR"},{"input":47,"output":55,"interpolation":"LINEAR"}],"channels":[{"sampler":0,"target":{"node":33,"path":"translation"}},{"sampler":1,"target":{"node":17,"path":"rotation"}},{"sampler":2,"target":{"node":25,"path":"rotation"}},{"sampler":3,"target":{"node":23,"path":"rotation"}},{"sampler":4,"target":{"node":20,"path":"rotation"}},{"sampler":5,"target":{"node":32,"path":"rotation"}},{"sampler":6,"target":{"node":30,"path":"rotation"}},{"sampler":7,"target":{"node":27,"path":"rotation"}}]},{"name":"idle","samplers":[{"input":56,"output":57,"interpolation":"LINEAR"}],"channels":[{"sampler":0,"target":{"node":17,"path":"translation"}}]},{"name":"shoot","samplers":[{"input":58,"output":59,"interpolation":"LINEAR"},{"input":58,"output":60,"interpolation":"LINEAR"}],"channels":[{"sampler":0,"target":{"node":11,"path":"translation"}},{"sampler":1,"target":{"node":15,"path":"translation"}}]}],"scenes":[{"name":"Scene","nodes":[34]}],"scene":0,"extensionsUsed":["EXT_texture_webp","KHR_materials_emissive_strength"],"extensionsRequired":["EXT_texture_webp"]}