{"asset":{"generator":"glTF-Transform v4.5.1","version":"2.0"},"accessors":[{"type":"VEC3","componentType":5126,"count":96,"max":[3,0.6000000238418579,4],"min":[-3,-0.6000000238418579,-4],"bufferView":0,"byteOffset":0},{"type":"VEC3","componentType":5126,"count":96,"bufferView":0,"byteOffset":12},{"type":"VEC2","componentType":5126,"count":96,"bufferView":0,"byteOffset":24},{"type":"SCALAR","componentType":5123,"count":132,"bufferView":1,"byteOffset":0},{"type":"SCALAR","componentType":5123,"count":324,"bufferView":1,"byteOffset":264},{"type":"SCALAR","componentType":5123,"count":132,"bufferView":1,"byteOffset":912},{"type":"SCALAR","componentType":5123,"count":324,"bufferView":1,"byteOffset":1176},{"type":"SCALAR","componentType":5123,"count":132,"bufferView":1,"byteOffset":1824},{"type":"SCALAR","componentType":5123,"count":36,"bufferView":1,"byteOffset":2088},{"type":"SCALAR","componentType":5123,"count":672,"bufferView":1,"byteOffset":2160},{"type":"SCALAR","componentType":5123,"count":276,"bufferView":1,"byteOffset":3504},{"type":"SCALAR","componentType":5123,"count":432,"bufferView":1,"byteOffset":4056},{"type":"SCALAR","componentType":5123,"count":132,"bufferView":1,"byteOffset":4920},{"type":"SCALAR","componentType":5123,"count":276,"bufferView":1,"byteOffset":5184},{"type":"SCALAR","componentType":5123,"count":432,"bufferView":1,"byteOffset":5736},{"type":"SCALAR","componentType":5123,"count":132,"bufferView":1,"byteOffset":6600},{"type":"VEC3","componentType":5126,"count":96,"max":[1.5,1.100000023841858,1.2999999523162842],"min":[-1.5,-1.100000023841858,-1.2999999523162842],"bufferView":2,"byteOffset":0},{"type":"VEC3","componentType":5126,"count":96,"bufferView":2,"byteOffset":12},{"type":"VEC2","componentType":5126,"count":96,"bufferView":2,"byteOffset":24},{"type":"VEC3","componentType":5126,"count":96,"max":[2.75,1.5,3.75],"min":[-2.75,-1.5,-3.75],"bufferView":3,"byteOffset":0},{"type":"VEC2","componentType":5126,"count":96,"bufferView":3,"byteOffset":12},{"type":"VEC3","componentType":5126,"count":96,"max":[2.5999999046325684,1,1.600000023841858],"min":[-2.5999999046325684,-1,-1.600000023841858],"bufferView":4,"byteOffset":0},{"type":"VEC2","componentType":5126,"count":96,"bufferView":4,"byteOffset":12},{"type":"VEC3","componentType":5126,"count":96,"max":[0.800000011920929,1.100000023841858,1.399999976158142],"min":[-0.800000011920929,-1.100000023841858,-1.399999976158142],"bufferView":5,"byteOffset":0},{"type":"VEC2","componentType":5126,"count":96,"bufferView":5,"byteOffset":12},{"type":"VEC3","componentType":5126,"count":96,"max":[1.6482362747192383,2.0999999046325684,1.6482362747192383],"min":[-1.6482362747192383,-2.0999999046325684,-1.6482362747192383],"bufferView":6,"byteOffset":0},{"type":"VEC3","componentType":5126,"count":96,"bufferView":6,"byteOffset":12},{"type":"VEC2","componentType":5126,"count":96,"bufferView":6,"byteOffset":24},{"type":"VEC3","componentType":5126,"count":56,"max":[1.7999999523162842,2.5,1.7999999523162842],"min":[-1.7999999523162842,-2.5,-1.7999999523162842],"bufferView":7,"byteOffset":0},{"type":"VEC3","componentType":5126,"count":56,"bufferView":7,"byteOffset":12},{"type":"VEC2","componentType":5126,"count":56,"bufferView":7,"byteOffset":24},{"type":"VEC3","componentType":5126,"count":96,"max":[0.5,1.7999999523162842,1.5],"min":[-0.5,-1.7999999523162842,-1.5],"bufferView":8,"byteOffset":0},{"type":"VEC2","componentType":5126,"count":96,"bufferView":8,"byteOffset":12},{"type":"VEC2","componentType":5126,"count":96,"bufferView":9,"byteOffset":0},{"type":"VEC2","componentType":5126,"count":96,"bufferView":10,"byteOffset":0},{"type":"VEC2","componentType":5126,"count":96,"bufferView":11,"byteOffset":0},{"type":"VEC2","componentType":5126,"count":56,"bufferView":12,"byteOffset":0},{"type":"VEC2","componentType":5126,"count":96,"bufferView":13,"byteOffset":0},{"type":"VEC3","componentType":5126,"count":96,"max":[2.5,1.2999999523162842,3.299999952316284],"min":[-2.5,-1.2999999523162842,-3.299999952316284],"bufferView":14,"byteOffset":0},{"type":"VEC2","componentType":5126,"count":96,"bufferView":14,"byteOffset":12},{"type":"VEC3","componentType":5126,"count":96,"max":[1.7000000476837158,3.0999999046325684,3.700000047683716],"min":[-1.7000000476837158,-3.0999999046325684,-3.700000047683716],"bufferView":15,"byteOffset":0},{"type":"VEC3","componentType":5126,"count":96,"bufferView":15,"byteOffset":12},{"type":"VEC2","componentType":5126,"count":96,"bufferView":15,"byteOffset":24},{"type":"VEC3","componentType":5126,"count":96,"max":[3.5999999046325684,2.799999952316284,4.800000190734863],"min":[-3.5999999046325684,-2.799999952316284,-4.800000190734863],"bufferView":16,"byteOffset":0},{"type":"VEC2","componentType":5126,"count":96,"bufferView":16,"byteOffset":12},{"type":"VEC3","componentType":5126,"count":96,"max":[0.6000000238418579,1.7000000476837158,3.200000047683716],"min":[-0.6000000238418579,-1.7000000476837158,-3.200000047683716],"bufferView":17,"byteOffset":0},{"type":"VEC2","componentType":5126,"count":96,"bufferView":17,"byteOffset":12},{"type":"VEC3","componentType":5126,"count":24,"max":[0.20000000298023224,0.550000011920929,1.7999999523162842],"min":[-0.20000000298023224,-0.550000011920929,-1.7999999523162842],"bufferView":18,"byteOffset":0},{"type":"VEC3","componentType":5126,"count":24,"bufferView":18,"byteOffset":12},{"type":"VEC2","componentType":5126,"count":24,"bufferView":18,"byteOffset":24},{"type":"VEC3","componentType":5126,"count":24,"max":[0.20000000298023224,1.7999999523162842,0.550000011920929],"min":[-0.20000000298023224,-1.7999999523162842,-0.550000011920929],"bufferView":19,"byteOffset":0},{"type":"VEC2","componentType":5126,"count":24,"bufferView":19,"byteOffset":12},{"type":"VEC3","componentType":5126,"count":96,"max":[2,0.8999999761581421,0.6000000238418579],"min":[-2,-0.8999999761581421,-0.6000000238418579],"bufferView":20,"byteOffset":0},{"type":"VEC2","componentType":5126,"count":96,"bufferView":20,"byteOffset":12},{"type":"VEC3","componentType":5126,"count":174,"max":[3.0723729133605957,3.0999999046325684,2.954422950744629],"min":[-3.0723729133605957,-3.0999999046325684,-2.954423189163208],"bufferView":21,"byteOffset":0},{"type":"VEC3","componentType":5126,"count":174,"bufferView":21,"byteOffset":12},{"type":"VEC2","componentType":5126,"count":174,"bufferView":21,"byteOffset":24},{"type":"VEC3","componentType":5126,"count":96,"max":[1.100000023841858,0.699999988079071,1.7999999523162842],"min":[-1.100000023841858,-0.699999988079071,-1.7999999523162842],"bufferView":22,"byteOffset":0},{"type":"VEC2","componentType":5126,"count":96,"bufferView":22,"byteOffset":12},{"type":"VEC3","componentType":5126,"count":96,"max":[0.800000011920929,0.75,2.0999999046325684],"min":[-0.800000011920929,-0.75,-2.0999999046325684],"bufferView":23,"byteOffset":0},{"type":"VEC2","componentType":5126,"count":96,"bufferView":23,"byteOffset":12},{"type":"VEC3","componentType":5126,"count":80,"max":[1.5,2.0999999046325684,1.5],"min":[-1.5,-2.0999999046325684,-1.5],"bufferView":24,"byteOffset":0},{"type":"VEC3","componentType":5126,"count":80,"bufferView":24,"byteOffset":12},{"type":"VEC2","componentType":5126,"count":80,"bufferView":24,"byteOffset":24},{"type":"VEC3","componentType":5126,"count":96,"max":[1,0.8999999761581421,1],"min":[-1,-0.8999999761581421,-1],"bufferView":25,"byteOffset":0},{"type":"VEC2","componentType":5126,"count":96,"bufferView":25,"byteOffset":12},{"type":"VEC3","componentType":5126,"count":96,"max":[2.5999999046325684,0.5,0.30000001192092896],"min":[-2.5999999046325684,-0.5,-0.30000001192092896],"bufferView":26,"byteOffset":0},{"type":"VEC3","componentType":5126,"count":96,"bufferView":26,"byteOffset":12},{"type":"VEC2","componentType":5126,"count":96,"bufferView":26,"byteOffset":24},{"type":"VEC3","componentType":5126,"count":114,"max":[3.3147544860839844,2.5999999046325684,2.924783229827881],"min":[-3.3147544860839844,-2.5999999046325684,-2.924783706665039],"bufferView":27,"byteOffset":0},{"type":"VEC3","componentType":5126,"count":114,"bufferView":27,"byteOffset":12},{"type":"VEC2","componentType":5126,"count":114,"bufferView":27,"byteOffset":24},{"type":"VEC3","componentType":5126,"count":24,"max":[1.2000000476837158,0.3499999940395355,0.15000000596046448],"min":[-1.2000000476837158,-0.3499999940395355,-0.15000000596046448],"bufferView":28,"byteOffset":0},{"type":"VEC2","componentType":5126,"count":24,"bufferView":28,"byteOffset":12},{"type":"VEC3","componentType":5126,"count":24,"max":[0.3499999940395355,1.2000000476837158,0.15000000596046448],"min":[-0.3499999940395355,-1.2000000476837158,-0.15000000596046448],"bufferView":29,"byteOffset":0},{"type":"VEC2","componentType":5126,"count":24,"bufferView":29,"byteOffset":12},{"type":"VEC3","componentType":5126,"count":56,"max":[1.2999999523162842,2.299999952316284,1.2999999523162842],"min":[-1.2999999523162842,-2.299999952316284,-1.2999999523162842],"bufferView":30,"byteOffset":0},{"type":"VEC2","componentType":5126,"count":56,"bufferView":30,"byteOffset":12},{"type":"VEC2","componentType":5126,"count":80,"bufferView":31,"byteOffset":0},{"type":"VEC2","componentType":5126,"count":96,"bufferView":32,"byteOffset":0},{"type":"VEC2","componentType":5126,"count":96,"bufferView":33,"byteOffset":0},{"type":"VEC2","componentType":5126,"count":114,"bufferView":34,"byteOffset":0},{"type":"VEC2","componentType":5126,"count":24,"bufferView":35,"byteOffset":0},{"type":"VEC2","componentType":5126,"count":24,"bufferView":36,"byteOffset":0},{"type":"VEC2","componentType":5126,"count":56,"bufferView":37,"byteOffset":0},{"type":"VEC3","componentType":5126,"count":96,"max":[0.30000001192092896,0.5,2.700000047683716],"min":[-0.30000001192092896,-0.5,-2.700000047683716],"bufferView":38,"byteOffset":0},{"type":"VEC2","componentType":5126,"count":96,"bufferView":38,"byteOffset":12},{"type":"SCALAR","componentType":5126,"count":30,"max":[1],"min":[0.03333333507180214],"bufferView":39,"byteOffset":0},{"type":"VEC3","componentType":5126,"count":30,"bufferView":39,"byteOffset":120},{"type":"VEC4","componentType":5126,"count":30,"bufferView":39,"byteOffset":480},{"type":"VEC4","componentType":5126,"count":30,"bufferView":39,"byteOffset":960},{"type":"SCALAR","componentType":5126,"count":19,"max":[0.6333333253860474],"min":[0.03333333507180214],"bufferView":39,"byteOffset":1440},{"type":"VEC3","componentType":5126,"count":19,"bufferView":39,"byteOffset":1516},{"type":"VEC4","componentType":5126,"count":19,"bufferView":39,"byteOffset":1744},{"type":"VEC4","componentType":5126,"count":19,"bufferView":39,"byteOffset":2048},{"type":"VEC4","componentType":5126,"count":19,"bufferView":39,"byteOffset":2352},{"type":"VEC4","componentType":5126,"count":19,"bufferView":39,"byteOffset":2656},{"type":"VEC4","componentType":5126,"count":19,"bufferView":39,"byteOffset":2960},{"type":"VEC4","componentType":5126,"count":19,"bufferView":39,"byteOffset":3264},{"type":"VEC4","componentType":5126,"count":19,"bufferView":39,"byteOffset":3568},{"type":"SCALAR","componentType":5126,"count":60,"max":[2],"min":[0.03333333507180214],"bufferView":39,"byteOffset":3872},{"type":"VEC3","componentType":5126,"count":60,"bufferView":39,"byteOffset":4112},{"type":"VEC4","componentType":5126,"count":60,"bufferView":39,"byteOffset":4832},{"type":"SCALAR","componentType":5126,"count":7,"max":[0.23333333432674408],"min":[0.03333333507180214],"bufferView":39,"byteOffset":5792},{"type":"VEC4","componentType":5126,"count":7,"bufferView":39,"byteOffset":5820},{"type":"VEC3","componentType":5126,"count":7,"bufferView":39,"byteOffset":5932}],"bufferViews":[{"buffer":0,"byteOffset":0,"byteLength":3072,"byteStride":32,"target":34962},{"buffer":0,"byteOffset":3072,"byteLength":6864,"target":34963},{"buffer":0,"byteOffset":9936,"byteLength":3072,"byteStride":32,"target":34962},{"buffer":0,"byteOffset":13008,"byteLength":1920,"byteStride":20,"target":34962},{"buffer":0,"byteOffset":14928,"byteLength":1920,"byteStride":20,"target":34962},{"buffer":0,"byteOffset":16848,"byteLength":1920,"byteStride":20,"target":34962},{"buffer":0,"byteOffset":18768,"byteLength":3072,"byteStride":32,"target":34962},{"buffer":0,"byteOffset":21840,"byteLength":1792,"byteStride":32,"target":34962},{"buffer":0,"byteOffset":23632,"byteLength":1920,"byteStride":20,"target":34962},{"buffer":0,"byteOffset":25552,"byteLength":768,"byteStride":8,"target":34962},{"buffer":0,"byteOffset":26320,"byteLength":768,"byteStride":8,"target":34962},{"buffer":0,"byteOffset":27088,"byteLength":768,"byteStride":8,"target":34962},{"buffer":0,"byteOffset":27856,"byteLength":448,"byteStride":8,"target":34962},{"buffer":0,"byteOffset":28304,"byteLength":768,"byteStride":8,"target":34962},{"buffer":0,"byteOffset":29072,"byteLength":1920,"byteStride":20,"target":34962},{"buffer":0,"byteOffset":30992,"byteLength":3072,"byteStride":32,"target":34962},{"buffer":0,"byteOffset":34064,"byteLength":1920,"byteStride":20,"target":34962},{"buffer":0,"byteOffset":35984,"byteLength":1920,"byteStride":20,"target":34962},{"buffer":0,"byteOffset":37904,"byteLength":768,"byteStride":32,"target":34962},{"buffer":0,"byteOffset":38672,"byteLength":480,"byteStride":20,"target":34962},{"buffer":0,"byteOffset":39152,"byteLength":1920,"byteStride":20,"target":34962},{"buffer":0,"byteOffset":41072,"byteLength":5568,"byteStride":32,"target":34962},{"buffer":0,"byteOffset":46640,"byteLength":1920,"byteStride":20,"target":34962},{"buffer":0,"byteOffset":48560,"byteLength":1920,"byteStride":20,"target":34962},{"buffer":0,"byteOffset":50480,"byteLength":2560,"byteStride":32,"target":34962},{"buffer":0,"byteOffset":53040,"byteLength":1920,"byteStride":20,"target":34962},{"buffer":0,"byteOffset":54960,"byteLength":3072,"byteStride":32,"target":34962},{"buffer":0,"byteOffset":58032,"byteLength":3648,"byteStride":32,"target":34962},{"buffer":0,"byteOffset":61680,"byteLength":480,"byteStride":20,"target":34962},{"buffer":0,"byteOffset":62160,"byteLength":480,"byteStride":20,"target":34962},{"buffer":0,"byteOffset":62640,"byteLength":1120,"byteStride":20,"target":34962},{"buffer":0,"byteOffset":63760,"byteLength":640,"byteStride":8,"target":34962},{"buffer":0,"byteOffset":64400,"byteLength":768,"byteStride":8,"target":34962},{"buffer":0,"byteOffset":65168,"byteLength":768,"byteStride":8,"target":34962},{"buffer":0,"byteOffset":65936,"byteLength":912,"byteStride":8,"target":34962},{"buffer":0,"byteOffset":66848,"byteLength":192,"byteStride":8,"target":34962},{"buffer":0,"byteOffset":67040,"byteLength":192,"byteStride":8,"target":34962},{"buffer":0,"byteOffset":67232,"byteLength":448,"byteStride":8,"target":34962},{"buffer":0,"byteOffset":67680,"byteLength":1920,"byteStride":20,"target":34962},{"buffer":0,"byteOffset":69600,"byteLength":6016}],"samplers":[{"magFilter":9729,"minFilter":9987,"wrapS":10497,"wrapT":10497}],"textures":[{"sampler":0,"extensions":{"EXT_texture_webp":{"source":1}}},{"sampler":0,"extensions":{"EXT_texture_webp":{"source":0}}},{"sampler":0,"extensions":{"EXT_texture_webp":{"source":2}}},{"sampler":0,"extensions":{"EXT_texture_webp":{"source":4}}},{"sampler":0,"extensions":{"EXT_texture_webp":{"source":3}}},{"sampler":0,"extensions":{"EXT_texture_webp":{"source":5}}},{"sampler":0,"extensions":{"EXT_texture_webp":{"source":7}}},{"sampler":0,"extensions":{"EXT_texture_webp":{"source":6}}},{"sampler":0,"extensions":{"EXT_texture_webp":{"source":8}}},{"sampler":0,"extensions":{"EXT_texture_webp":{"source":10}}},{"sampler":0,"extensions":{"EXT_texture_webp":{"source":9}}},{"sampler":0,"extensions":{"EXT_texture_webp":{"source":11}}}],"images":[{"name":"paintworn_normal","uri":"medic_0.webp"},{"name":"paintworn_color","uri":"medic_1.webp"},{"name":"paintworn_rough","uri":"medic_2.webp"},{"name":"suit_normal","uri":"medic_3.webp"},{"name":"suit_color","uri":"medic_4.webp"},{"name":"suit_rough","uri":"medic_5.webp"},{"name":"gunmetal_normal","uri":"medic_6.webp"},{"name":"gunmetal_color","uri":"medic_7.webp"},{"name":"gunmetal_rough","uri":"medic_8.webp"},{"name":"paint_normal","uri":"medic_9.webp"},{"name":"paint_color","uri":"medic_10.webp"},{"name":"paint_rough","uri":"medic_11.webp"}],"buffers":[{"byteLength":75616,"uri":"data:application/octet-stream;base64,"}],"materials":[{"name":"armor","doubleSided":true,"pbrMetallicRoughness":{"baseColorFactor":[0.5520114302635193,0.577580451965332,0.6038273572921753,1],"metallicFactor":0.4000000059604645,"baseColorTexture":{"index":0},"metallicRoughnessTexture":{"index":2}},"normalTexture":{"index":1}},{"name":"white","doubleSided":true,"pbrMetallicRoughness":{"baseColorFactor":[0.8549926280975342,0.8549926280975342,0.8549926280975342,1],"roughnessFactor":0.6000000238418579,"metallicFactor":0}},{"name":"suit","doubleSided":true,"pbrMetallicRoughness":{"baseColorFactor":[0.0423114113509655,0.04666508734226227,0.05448027700185776,1],"metallicFactor":0.10000000149011612,"baseColorTexture":{"index":3},"metallicRoughnessTexture":{"index":5}},"normalTexture":{"index":4}},{"name":"red","doubleSided":true,"pbrMetallicRoughness":{"baseColorFactor":[0.5647115111351013,0.023153366521000862,0.023153366521000862,1],"roughnessFactor":0.5,"metallicFactor":0.10000000149011612}},{"name":"gunmetal","doubleSided":true,"pbrMetallicRoughness":{"baseColorFactor":[0.0423114113509655,0.04666508734226227,0.05126945674419403,1],"metallicFactor":0.800000011920929,"baseColorTexture":{"index":6},"metallicRoughnessTexture":{"index":8}},"normalTexture":{"index":7}},{"name":"visor","doubleSided":true,"pbrMetallicRoughness":{"baseColorFactor":[0.2746773064136505,0.7681511640548706,1,1],"roughnessFactor":0.20000000298023224,"metallicFactor":0},"emissiveFactor":[0.2746773064136505,0.7681511640548706,1],"extensions":{"KHR_materials_emissive_strength":{"emissiveStrength":3}}},{"name":"hazard","doubleSided":true,"pbrMetallicRoughness":{"baseColorFactor":[0.5840784311294556,0.32314321398735046,0.027320891618728638,1],"metallicFactor":0.30000001192092896,"baseColorTexture":{"index":9},"metallicRoughnessTexture":{"index":11}},"normalTexture":{"index":10}}],"meshes":[{"name":"Cube.001","primitives":[{"attributes":{"POSITION":0,"NORMAL":1,"TEXCOORD_0":2},"mode":4,"material":0,"indices":3}]},{"name":"Cube.026","primitives":[{"attributes":{"POSITION":16,"NORMAL":17,"TEXCOORD_0":18},"mode":4,"material":1,"indices":3}]},{"name":"Cube","primitives":[{"attributes":{"POSITION":19,"TEXCOORD_0":20,"NORMAL":17},"mode":4,"material":2,"indices":3}]},{"name":"Cube.021","primitives":[{"attributes":{"POSITION":21,"TEXCOORD_0":22,"NORMAL":17},"mode":4,"material":2,"indices":3}]},{"name":"Cube.020","primitives":[{"attributes":{"POSITION":23,"TEXCOORD_0":24,"NORMAL":17},"mode":4,"material":0,"indices":3}]},{"name":"Cylinder.005","primitives":[{"attributes":{"POSITION":25,"NORMAL":26,"TEXCOORD_0":27},"mode":4,"material":0,"indices":4}]},{"name":"Cylinder.004","primitives":[{"attributes":{"POSITION":28,"NORMAL":29,"TEXCOORD_0":30},"mode":4,"material":2,"indices":5}]},{"name":"Cube.019","primitives":[{"attributes":{"POSITION":31,"TEXCOORD_0":32,"NORMAL":17},"mode":4,"material":0,"indices":3}]},{"name":"Cube.024","primitives":[{"attributes":{"TEXCOORD_0":33,"POSITION":21,"NORMAL":17},"mode":4,"material":2,"indices":3}]},{"name":"Cube.023","primitives":[{"attributes":{"TEXCOORD_0":34,"POSITION":23,"NORMAL":17},"mode":4,"material":0,"indices":3}]},{"name":"Cylinder.007","primitives":[{"attributes":{"TEXCOORD_0":35,"POSITION":25,"NORMAL":26},"mode":4,"material":0,"indices":6}]},{"name":"Cylinder.006","primitives":[{"attributes":{"TEXCOORD_0":36,"POSITION":28,"NORMAL":29},"mode":4,"material":2,"indices":7}]},{"name":"Cube.022","primitives":[{"attributes":{"TEXCOORD_0":37,"POSITION":31,"NORMAL":17},"mode":4,"material":0,"indices":3}]},{"name":"Cube.002","primitives":[{"attributes":{"POSITION":38,"TEXCOORD_0":39,"NORMAL":17},"mode":4,"material":2,"indices":3}]},{"name":"Cube.005","primitives":[{"attributes":{"POSITION":40,"NORMAL":41,"TEXCOORD_0":42},"mode":4,"material":2,"indices":3}]},{"name":"Cube.003","primitives":[{"attributes":{"POSITION":43,"TEXCOORD_0":44,"NORMAL":17},"mode":4,"material":0,"indices":3}]},{"name":"Cube.004","primitives":[{"attributes":{"POSITION":45,"TEXCOORD_0":46,"NORMAL":17},"mode":4,"material":0,"indices":3}]},{"name":"Cube.007","primitives":[{"attributes":{"POSITION":47,"NORMAL":48,"TEXCOORD_0":49},"mode":4,"material":3,"indices":8}]},{"name":"Cube.008","primitives":[{"attributes":{"POSITION":50,"TEXCOORD_0":51,"NORMAL":48},"mode":4,"material":3,"indices":8}]},{"name":"Cube.025","primitives":[{"attributes":{"POSITION":52,"TEXCOORD_0":53,"NORMAL":17},"mode":4,"material":4,"indices":3}]},{"name":"Sphere","primitives":[{"attributes":{"POSITION":54,"NORMAL":55,"TEXCOORD_0":56},"mode":4,"material":0,"indices":9}]},{"name":"Cube.010","primitives":[{"attributes":{"POSITION":57,"TEXCOORD_0":58,"NORMAL":17},"mode":4,"material":2,"indices":3}]},{"name":"Cube.009","primitives":[{"attributes":{"POSITION":59,"TEXCOORD_0":60,"NORMAL":1},"mode":4,"material":5,"indices":3}]},{"name":"Cylinder.001","primitives":[{"attributes":{"POSITION":61,"NORMAL":62,"TEXCOORD_0":63},"mode":4,"material":0,"indices":10}]},{"name":"Cube.014","primitives":[{"attributes":{"POSITION":64,"TEXCOORD_0":65,"NORMAL":17},"mode":4,"material":2,"indices":3}]},{"name":"Cube.011","primitives":[{"attributes":{"POSITION":66,"NORMAL":67,"TEXCOORD_0":68},"mode":4,"material":6,"indices":3}]},{"name":"Sphere.001","primitives":[{"attributes":{"POSITION":69,"NORMAL":70,"TEXCOORD_0":71},"mode":4,"material":0,"indices":11}]},{"name":"Cube.012","primitives":[{"attributes":{"POSITION":72,"TEXCOORD_0":73,"NORMAL":48},"mode":4,"material":3,"indices":8}]},{"name":"Cube.013","primitives":[{"attributes":{"POSITION":74,"TEXCOORD_0":75,"NORMAL":48},"mode":4,"material":3,"indices":8}]},{"name":"Cylinder","primitives":[{"attributes":{"POSITION":76,"TEXCOORD_0":77,"NORMAL":29},"mode":4,"material":2,"indices":12}]},{"name":"Cylinder.003","primitives":[{"attributes":{"TEXCOORD_0":78,"POSITION":61,"NORMAL":62},"mode":4,"material":0,"indices":13}]},{"name":"Cube.018","primitives":[{"attributes":{"TEXCOORD_0":79,"POSITION":64,"NORMAL":17},"mode":4,"material":2,"indices":3}]},{"name":"Cube.015","primitives":[{"attributes":{"TEXCOORD_0":80,"POSITION":66,"NORMAL":67},"mode":4,"material":0,"indices":3}]},{"name":"Sphere.002","primitives":[{"attributes":{"TEXCOORD_0":81,"POSITION":69,"NORMAL":70},"mode":4,"material":0,"indices":14}]},{"name":"Cube.016","primitives":[{"attributes":{"TEXCOORD_0":82,"POSITION":72,"NORMAL":48},"mode":4,"material":3,"indices":8}]},{"name":"Cube.017","primitives":[{"attributes":{"TEXCOORD_0":83,"POSITION":74,"NORMAL":48},"mode":4,"material":3,"indices":8}]},{"name":"Cylinder.002","primitives":[{"attributes":{"TEXCOORD_0":84,"POSITION":76,"NORMAL":29},"mode":4,"material":2,"indices":15}]},{"name":"Cube.006","primitives":[{"attributes":{"POSITION":85,"TEXCOORD_0":86,"NORMAL":1},"mode":4,"material":6,"indices":3}]}],"nodes":[{"name":"belt","translation":[0,1.3999996185302734,0],"mesh":0},{"name":"medkit","translation":[-1.5,1,-5],"mesh":1},{"name":"pelvis","translation":[0,0.19999980926513672,0],"mesh":2},{"name":"bootL","translation":[0.8999999761581421,-4.800000190734863,0],"mesh":3},{"name":"kneepadL","translation":[1.600000023841858,0,0],"mesh":4},{"name":"shinL","translation":[0,-2.200000286102295,0],"mesh":5},{"name":"kneeL","translation":[0,-5.199999809265137,-0.09999990463256836],"children":[3,4,5]},{"name":"thighmL","translation":[0,-2.6000003814697266,-0.09999990463256836],"mesh":6},{"name":"thighplateL","translation":[1.7000000476837158,-2.3999996185302734,-0.09999990463256836],"mesh":7},{"name":"thighL","translation":[0,0,-2.5],"children":[6,7,8]},{"name":"bootR","translation":[0.8999999761581421,-4.800000190734863,0],"mesh":8},{"name":"kneepadR","translation":[1.600000023841858,0,0],"mesh":9},{"name":"shinR","translation":[0,-2.200000286102295,0],"mesh":10},{"name":"kneeR","translation":[0,-5.199999809265137,0.09999990463256836],"children":[10,11,12]},{"name":"thighmR","translation":[0,-2.6000003814697266,0.09999990463256836],"mesh":11},{"name":"thighplateR","translation":[1.7000000476837158,-2.3999996185302734,0.09999990463256836],"mesh":12},{"name":"thighR","translation":[0,0,2.5],"children":[13,14,15]},{"name":"abdomen","translation":[0,1.3999996185302734,0],"mesh":13},{"name":"backpack","translation":[-4.599999904632568,5,0],"mesh":14},{"name":"chest","translation":[0.30000001192092896,5,0],"mesh":15},{"name":"chest_plate","translation":[4,5.19999885559082,0],"mesh":16},{"name":"cross_h","translation":[-6.449999809265137,4.799999237060547,0],"mesh":17},{"name":"cross_v","translation":[-6.449999809265137,4.799999237060547,0],"mesh":18},{"name":"pistol","translation":[0.5,0.19999980926513672,0],"mesh":19},{"name":"gun","translation":[5.5,2,1.2000000476837158],"children":[23]},{"name":"helmet","translation":[0.20000000298023224,1.7999992370605469,0],"mesh":20},{"name":"jaw","translation":[1.899999976158142,0.2999992370605469,0],"mesh":21},{"name":"visor","translation":[2.700000047683716,1.7999992370605469,0],"mesh":22},{"name":"head","translation":[0,8,0],"children":[25,26,27]},{"name":"forearmL","translation":[0,-2.0000009536743164,0],"mesh":23},{"name":"gloveL","translation":[0,-4.500000476837158,0],"mesh":24},{"name":"elbowL","translation":[0,-4.8000030517578125,-0.39999955892562866],"rotation":[0.04727853462100029,0.16756606101989746,0.26739946007728577,0.9477256536483765],"children":[29,30]},{"name":"pauldron_trimL","translation":[0,-0.2000027894973755,-3.0000009536743164],"mesh":25},{"name":"pauldronL","translation":[0,0.5999962091445923,-0.5999993681907654],"mesh":26},{"name":"pcross_hL","translation":[0,0.39999890327453613,-3.4000003337860107],"mesh":27},{"name":"pcross_vL","translation":[0,0.39999890327453613,-3.4000003337860107],"mesh":28},{"name":"upperarmL","translation":[-2.2649765014648438e-06,-2.6000022888183594,-0.3999999165534973],"mesh":29},{"name":"shoulderL","translation":[0.20000000298023224,6.600000381469727,-5.599999904632568],"rotation":[-0.1468474119901657,-0.2618650496006012,0.5246070027351379,0.7966493964195251],"children":[31,32,33,34,35,36]},{"name":"forearmR","translation":[0,-2.0000009536743164,0],"mesh":30},{"name":"gloveR","translation":[0,-4.500000476837158,0],"mesh":31},{"name":"elbowR","translation":[0,-4.8000030517578125,0.39999955892562866],"rotation":[-0.04727853462100029,-0.16756606101989746,0.26739946007728577,0.9477256536483765],"children":[38,39]},{"name":"pauldron_trimR","translation":[0,-0.2000027894973755,3.0000009536743164],"mesh":32},{"name":"pauldronR","translation":[0,0.5999962091445923,0.5999993681907654],"mesh":33},{"name":"pcross_hR","translation":[0,0.39999890327453613,3.4000003337860107],"mesh":34},{"name":"pcross_vR","translation":[0,0.39999890327453613,3.4000003337860107],"mesh":35},{"name":"upperarmR","translation":[-2.2649765014648438e-06,-2.6000022888183594,0.3999999165534973],"mesh":36},{"name":"shoulderR","translation":[0.20000000298023224,6.600000381469727,5.599999904632568],"rotation":[0.1468474119901657,0.2618650496006012,0.5246070027351379,0.7966493964195251],"children":[40,41,42,43,44,45]},{"name":"vent","translation":[-6.400000095367432,6.600000381469727,0],"mesh":37},{"name":"torso","translation":[0,1.6000003814697266,0],"children":[17,18,19,20,21,22,24,28,37,46,47]},{"name":"hips","translation":[0,10.399999618530273,0],"children":[0,1,2,9,16,48]},{"name":"root","children":[49]}],"animations":[{"name":"die","samplers":[{"input":87,"output":88,"interpolation":"LINEAR"},{"input":87,"output":89,"interpolation":"LINEAR"},{"input":87,"output":90,"interpolation":"LINEAR"}],"channels":[{"sampler":0,"target":{"node":50,"path":"translation"}},{"sampler":1,"target":{"node":50,"path":"rotation"}},{"sampler":2,"target":{"node":48,"path":"rotation"}}]},{"name":"run","samplers":[{"input":91,"output":92,"interpolation":"LINEAR"},{"input":91,"output":93,"interpolation":"LINEAR"},{"input":91,"output":94,"interpolation":"LINEAR"},{"input":91,"output":95,"interpolation":"LINEAR"},{"input":91,"output":96,"interpolation":"LINEAR"},{"input":91,"output":97,"interpolation":"LINEAR"},{"input":91,"output":98,"interpolation":"LINEAR"},{"input":91,"output":99,"interpolation":"LINEAR"}],"channels":[{"sampler":0,"target":{"node":49,"path":"translation"}},{"sampler":1,"target":{"node":9,"path":"rotation"}},{"sampler":2,"target":{"node":6,"path":"rotation"}},{"sampler":3,"target":{"node":16,"path":"rotation"}},{"sampler":4,"target":{"node":13,"path":"rotation"}},{"sampler":5,"target":{"node":48,"path":"rotation"}},{"sampler":6,"target":{"node":37,"path":"rotation"}},{"sampler":7,"target":{"node":46,"path":"rotation"}}]},{"name":"idle","samplers":[{"input":100,"output":101,"interpolation":"LINEAR"},{"input":100,"output":102,"interpolation":"LINEAR"}],"channels":[{"sampler":0,"target":{"node":48,"path":"translation"}},{"sampler":1,"target":{"node":28,"path":"rotation"}}]},{"name":"shoot","samplers":[{"input":103,"output":104,"interpolation":"LINEAR"},{"input":103,"output":105,"interpolation":"LINEAR"}],"channels":[{"sampler":0,"target":{"node":48,"path":"rotation"}},{"sampler":1,"target":{"node":24,"path":"translation"}}]}],"scenes":[{"name":"Scene","nodes":[50]}],"scene":0,"extensionsUsed":["EXT_texture_webp","KHR_materials_emissive_strength"],"extensionsRequired":["EXT_texture_webp"]}