{"asset":{"generator":"glTF-Transform v4.5.1","version":"2.0"},"accessors":[{"type":"VEC3","componentType":5126,"count":96,"max":[9,9,9],"min":[-9,-9,-9],"bufferView":0,"byteOffset":0},{"type":"VEC3","componentType":5126,"count":96,"bufferView":0,"byteOffset":12},{"type":"VEC2","componentType":5126,"count":96,"bufferView":0,"byteOffset":24},{"type":"SCALAR","componentType":5123,"count":132,"bufferView":1,"byteOffset":0},{"type":"SCALAR","componentType":5123,"count":84,"bufferView":1,"byteOffset":264},{"type":"SCALAR","componentType":5123,"count":84,"bufferView":1,"byteOffset":432},{"type":"SCALAR","componentType":5123,"count":84,"bufferView":1,"byteOffset":600},{"type":"SCALAR","componentType":5123,"count":84,"bufferView":1,"byteOffset":768},{"type":"VEC3","componentType":5126,"count":96,"max":[7,7,7],"min":[-7,-7,-7],"bufferView":2,"byteOffset":0},{"type":"VEC2","componentType":5126,"count":96,"bufferView":2,"byteOffset":12},{"type":"VEC2","componentType":5126,"count":96,"bufferView":3,"byteOffset":0},{"type":"VEC3","componentType":5126,"count":96,"max":[6,6,6],"min":[-6,-6,-6],"bufferView":4,"byteOffset":0},{"type":"VEC2","componentType":5126,"count":96,"bufferView":4,"byteOffset":12},{"type":"VEC3","componentType":5126,"count":96,"max":[60,2,60],"min":[-60,-2,-60],"bufferView":5,"byteOffset":0},{"type":"VEC2","componentType":5126,"count":96,"bufferView":5,"byteOffset":12},{"type":"VEC3","componentType":5126,"count":96,"max":[1,11,1.5],"min":[-1,-11,-1.5],"bufferView":6,"byteOffset":0},{"type":"VEC3","componentType":5126,"count":96,"bufferView":6,"byteOffset":12},{"type":"VEC2","componentType":5126,"count":96,"bufferView":6,"byteOffset":24},{"type":"VEC2","componentType":5126,"count":96,"bufferView":7,"byteOffset":0},{"type":"VEC2","componentType":5126,"count":96,"bufferView":8,"byteOffset":0},{"type":"VEC2","componentType":5126,"count":96,"bufferView":9,"byteOffset":0},{"type":"VEC2","componentType":5126,"count":96,"bufferView":10,"byteOffset":0},{"type":"VEC3","componentType":5126,"count":40,"max":[3,23,3],"min":[-3,-23,-3],"bufferView":11,"byteOffset":0},{"type":"VEC3","componentType":5126,"count":40,"bufferView":11,"byteOffset":12},{"type":"VEC2","componentType":5126,"count":40,"bufferView":11,"byteOffset":24},{"type":"VEC3","componentType":5126,"count":36,"max":[3,23,3],"min":[-3,-23,-3],"bufferView":12,"byteOffset":0},{"type":"VEC3","componentType":5126,"count":36,"bufferView":12,"byteOffset":12},{"type":"VEC2","componentType":5126,"count":36,"bufferView":12,"byteOffset":24},{"type":"VEC2","componentType":5126,"count":36,"bufferView":13,"byteOffset":0},{"type":"VEC2","componentType":5126,"count":40,"bufferView":14,"byteOffset":0},{"type":"VEC3","componentType":5126,"count":96,"max":[4,14,40],"min":[-4,-14,-40],"bufferView":15,"byteOffset":0},{"type":"VEC2","componentType":5126,"count":96,"bufferView":15,"byteOffset":12},{"type":"VEC3","componentType":5126,"count":96,"max":[64,2,64],"min":[-64,-2,-64],"bufferView":16,"byteOffset":0},{"type":"VEC2","componentType":5126,"count":96,"bufferView":16,"byteOffset":12}],"bufferViews":[{"buffer":0,"byteOffset":0,"byteLength":3072,"byteStride":32,"target":34962},{"buffer":0,"byteOffset":3072,"byteLength":936,"target":34963},{"buffer":0,"byteOffset":4008,"byteLength":1920,"byteStride":20,"target":34962},{"buffer":0,"byteOffset":5928,"byteLength":768,"byteStride":8,"target":34962},{"buffer":0,"byteOffset":6696,"byteLength":1920,"byteStride":20,"target":34962},{"buffer":0,"byteOffset":8616,"byteLength":1920,"byteStride":20,"target":34962},{"buffer":0,"byteOffset":10536,"byteLength":3072,"byteStride":32,"target":34962},{"buffer":0,"byteOffset":13608,"byteLength":768,"byteStride":8,"target":34962},{"buffer":0,"byteOffset":14376,"byteLength":768,"byteStride":8,"target":34962},{"buffer":0,"byteOffset":15144,"byteLength":768,"byteStride":8,"target":34962},{"buffer":0,"byteOffset":15912,"byteLength":768,"byteStride":8,"target":34962},{"buffer":0,"byteOffset":16680,"byteLength":1280,"byteStride":32,"target":34962},{"buffer":0,"byteOffset":17960,"byteLength":1152,"byteStride":32,"target":34962},{"buffer":0,"byteOffset":19112,"byteLength":288,"byteStride":8,"target":34962},{"buffer":0,"byteOffset":19400,"byteLength":320,"byteStride":8,"target":34962},{"buffer":0,"byteOffset":19720,"byteLength":1920,"byteStride":20,"target":34962},{"buffer":0,"byteOffset":21640,"byteLength":1920,"byteStride":20,"target":34962}],"samplers":[{"magFilter":9729,"minFilter":9987,"wrapS":10497,"wrapT":10497}],"textures":[{"sampler":0,"extensions":{"EXT_texture_webp":{"source":1}}},{"sampler":0,"extensions":{"EXT_texture_webp":{"source":0}}},{"sampler":0,"extensions":{"EXT_texture_webp":{"source":2}}},{"sampler":0,"extensions":{"EXT_texture_webp":{"source":4}}},{"sampler":0,"extensions":{"EXT_texture_webp":{"source":3}}},{"sampler":0,"extensions":{"EXT_texture_webp":{"source":5}}},{"sampler":0,"extensions":{"EXT_texture_webp":{"source":7}}},{"sampler":0,"extensions":{"EXT_texture_webp":{"source":6}}},{"sampler":0,"extensions":{"EXT_texture_webp":{"source":8}}}],"images":[{"name":"panels_normal","uri":"armory_0.webp"},{"name":"panels_color","uri":"armory_1.webp"},{"name":"panels_rough","uri":"armory_2.webp"},{"name":"suit_normal","uri":"armory_3.webp"},{"name":"suit_color","uri":"armory_4.webp"},{"name":"suit_rough","uri":"armory_5.webp"},{"name":"panels2_normal","uri":"armory_6.webp"},{"name":"panels2_color","uri":"armory_7.webp"},{"name":"panels2_rough","uri":"armory_8.webp"}],"buffers":[{"byteLength":23560,"uri":"data:application/octet-stream;base64,"}],"materials":[{"name":"armor","doubleSided":true,"pbrMetallicRoughness":{"baseColorFactor":[0.2541520893573761,0.28744083642959595,0.32314321398735046,1],"metallicFactor":0.5,"baseColorTexture":{"index":0},"metallicRoughnessTexture":{"index":2}},"normalTexture":{"index":1}},{"name":"sandbag","doubleSided":true,"pbrMetallicRoughness":{"baseColorFactor":[0.2541520893573761,0.1946178376674652,0.10224173218011856,1],"metallicFactor":0,"baseColorTexture":{"index":3},"metallicRoughnessTexture":{"index":5}},"normalTexture":{"index":4}},{"name":"steel","doubleSided":true,"pbrMetallicRoughness":{"baseColorFactor":[0.1441284716129303,0.15896083414554596,0.177888423204422,1],"metallicFactor":0.699999988079071,"baseColorTexture":{"index":6},"metallicRoughnessTexture":{"index":8}},"normalTexture":{"index":7}}],"meshes":[{"name":"Cube.008","primitives":[{"attributes":{"POSITION":0,"NORMAL":1,"TEXCOORD_0":2},"mode":4,"material":0,"indices":3}]},{"name":"Cube.009","primitives":[{"attributes":{"POSITION":8,"TEXCOORD_0":9,"NORMAL":1},"mode":4,"material":1,"indices":3}]},{"name":"Cube.010","primitives":[{"attributes":{"TEXCOORD_0":10,"POSITION":8,"NORMAL":1},"mode":4,"material":0,"indices":3}]},{"name":"Cube.011","primitives":[{"attributes":{"POSITION":11,"TEXCOORD_0":12,"NORMAL":1},"mode":4,"material":1,"indices":3}]},{"name":"Cube","primitives":[{"attributes":{"POSITION":13,"TEXCOORD_0":14,"NORMAL":1},"mode":4,"material":2,"indices":3}]},{"name":"Cube.003","primitives":[{"attributes":{"POSITION":15,"NORMAL":16,"TEXCOORD_0":17},"mode":4,"material":2,"indices":3}]},{"name":"Cube.004","primitives":[{"attributes":{"TEXCOORD_0":18,"POSITION":15,"NORMAL":16},"mode":4,"material":2,"indices":3}]},{"name":"Cube.005","primitives":[{"attributes":{"TEXCOORD_0":19,"POSITION":15,"NORMAL":16},"mode":4,"material":2,"indices":3}]},{"name":"Cube.006","primitives":[{"attributes":{"TEXCOORD_0":20,"POSITION":15,"NORMAL":16},"mode":4,"material":2,"indices":3}]},{"name":"Cube.007","primitives":[{"attributes":{"TEXCOORD_0":21,"POSITION":15,"NORMAL":16},"mode":4,"material":2,"indices":3}]},{"name":"Cylinder.001","primitives":[{"attributes":{"POSITION":22,"NORMAL":23,"TEXCOORD_0":24},"mode":4,"material":0,"indices":4}]},{"name":"Cylinder.003","primitives":[{"attributes":{"POSITION":25,"NORMAL":26,"TEXCOORD_0":27},"mode":4,"material":0,"indices":5}]},{"name":"Cylinder","primitives":[{"attributes":{"TEXCOORD_0":28,"POSITION":25,"NORMAL":26},"mode":4,"material":0,"indices":6}]},{"name":"Cylinder.002","primitives":[{"attributes":{"TEXCOORD_0":29,"POSITION":22,"NORMAL":23},"mode":4,"material":0,"indices":7}]},{"name":"Cube.002","primitives":[{"attributes":{"POSITION":30,"TEXCOORD_0":31,"NORMAL":1},"mode":4,"material":2,"indices":3}]},{"name":"Cube.001","primitives":[{"attributes":{"POSITION":32,"TEXCOORD_0":33,"NORMAL":1},"mode":4,"material":0,"indices":3}]}],"nodes":[{"name":"crate0","translation":[30,13,-30],"mesh":0},{"name":"crate1","translation":[30,11,-8],"mesh":1},{"name":"crate2","translation":[10,11,-34],"mesh":2},{"name":"crate3","translation":[36,10,-40],"mesh":3},{"name":"floor","translation":[0,2,0],"mesh":4},{"name":"gun0","translation":[-43,20,30],"mesh":5},{"name":"gun1","translation":[-43,20,15],"mesh":6},{"name":"gun2","translation":[-43,20,0],"mesh":7},{"name":"gun3","translation":[-43,20,-15],"mesh":8},{"name":"gun4","translation":[-43,20,-30],"mesh":9},{"name":"post55-55","translation":[55,27,55],"mesh":10},{"name":"post5555","translation":[55,27,-55],"mesh":11},{"name":"post-55-55","translation":[-55,27,55],"mesh":12},{"name":"post-5555","translation":[-55,27,-55],"mesh":13},{"name":"rack","translation":[-48,18,0],"mesh":14},{"name":"roof","translation":[0,52,0],"mesh":15},{"name":"root","children":[0,1,2,3,4,5,6,7,8,9,10,11,12,13,14,15]}],"scenes":[{"name":"Scene","nodes":[16]}],"scene":0,"extensionsUsed":["EXT_texture_webp"],"extensionsRequired":["EXT_texture_webp"]}