{"asset":{"generator":"glTF-Transform v4.5.1","version":"2.0"},"accessors":[{"type":"VEC3","componentType":5126,"count":96,"max":[7,3.5,4],"min":[-7,-3.5,-4],"bufferView":0,"byteOffset":0},{"type":"VEC3","componentType":5126,"count":96,"bufferView":0,"byteOffset":12},{"type":"VEC2","componentType":5126,"count":96,"bufferView":0,"byteOffset":24},{"type":"SCALAR","componentType":5123,"count":132,"bufferView":1,"byteOffset":0},{"type":"SCALAR","componentType":5123,"count":108,"bufferView":1,"byteOffset":264},{"type":"SCALAR","componentType":5123,"count":228,"bufferView":1,"byteOffset":480},{"type":"VEC2","componentType":5126,"count":96,"bufferView":2,"byteOffset":0},{"type":"VEC2","componentType":5126,"count":96,"bufferView":3,"byteOffset":0},{"type":"VEC2","componentType":5126,"count":96,"bufferView":4,"byteOffset":0},{"type":"VEC2","componentType":5126,"count":96,"bufferView":5,"byteOffset":0},{"type":"VEC2","componentType":5126,"count":96,"bufferView":6,"byteOffset":0},{"type":"VEC3","componentType":5126,"count":48,"max":[3.8042261600494385,15,4],"min":[-3.8042261600494385,-15,-4],"bufferView":7,"byteOffset":0},{"type":"VEC3","componentType":5126,"count":48,"bufferView":7,"byteOffset":12},{"type":"VEC2","componentType":5126,"count":48,"bufferView":7,"byteOffset":24},{"type":"VEC3","componentType":5126,"count":96,"max":[1,17,20],"min":[-1,-17,-20],"bufferView":8,"byteOffset":0},{"type":"VEC2","componentType":5126,"count":96,"bufferView":8,"byteOffset":12},{"type":"VEC3","componentType":5126,"count":96,"max":[3,26,50],"min":[-3,-26,-50],"bufferView":9,"byteOffset":0},{"type":"VEC2","componentType":5126,"count":96,"bufferView":9,"byteOffset":12},{"type":"VEC3","componentType":5126,"count":96,"max":[95,3,75],"min":[-95,-3,-75],"bufferView":10,"byteOffset":0},{"type":"VEC2","componentType":5126,"count":96,"bufferView":10,"byteOffset":12},{"type":"VEC3","componentType":5126,"count":88,"max":[55,75,0],"min":[-55,-75,-55],"bufferView":11,"byteOffset":0},{"type":"VEC3","componentType":5126,"count":88,"bufferView":11,"byteOffset":12},{"type":"VEC2","componentType":5126,"count":88,"bufferView":11,"byteOffset":24},{"type":"VEC3","componentType":5126,"count":96,"max":[2,2,2],"min":[-2,-2,-2],"bufferView":12,"byteOffset":0},{"type":"VEC2","componentType":5126,"count":96,"bufferView":12,"byteOffset":12},{"type":"VEC2","componentType":5126,"count":96,"bufferView":13,"byteOffset":0},{"type":"VEC2","componentType":5126,"count":96,"bufferView":14,"byteOffset":0},{"type":"VEC2","componentType":5126,"count":96,"bufferView":15,"byteOffset":0},{"type":"VEC2","componentType":5126,"count":96,"bufferView":16,"byteOffset":0},{"type":"VEC2","componentType":5126,"count":96,"bufferView":17,"byteOffset":0},{"type":"VEC2","componentType":5126,"count":96,"bufferView":18,"byteOffset":0}],"bufferViews":[{"buffer":0,"byteOffset":0,"byteLength":3072,"byteStride":32,"target":34962},{"buffer":0,"byteOffset":3072,"byteLength":936,"target":34963},{"buffer":0,"byteOffset":4008,"byteLength":768,"byteStride":8,"target":34962},{"buffer":0,"byteOffset":4776,"byteLength":768,"byteStride":8,"target":34962},{"buffer":0,"byteOffset":5544,"byteLength":768,"byteStride":8,"target":34962},{"buffer":0,"byteOffset":6312,"byteLength":768,"byteStride":8,"target":34962},{"buffer":0,"byteOffset":7080,"byteLength":768,"byteStride":8,"target":34962},{"buffer":0,"byteOffset":7848,"byteLength":1536,"byteStride":32,"target":34962},{"buffer":0,"byteOffset":9384,"byteLength":1920,"byteStride":20,"target":34962},{"buffer":0,"byteOffset":11304,"byteLength":1920,"byteStride":20,"target":34962},{"buffer":0,"byteOffset":13224,"byteLength":1920,"byteStride":20,"target":34962},{"buffer":0,"byteOffset":15144,"byteLength":2816,"byteStride":32,"target":34962},{"buffer":0,"byteOffset":17960,"byteLength":1920,"byteStride":20,"target":34962},{"buffer":0,"byteOffset":19880,"byteLength":768,"byteStride":8,"target":34962},{"buffer":0,"byteOffset":20648,"byteLength":768,"byteStride":8,"target":34962},{"buffer":0,"byteOffset":21416,"byteLength":768,"byteStride":8,"target":34962},{"buffer":0,"byteOffset":22184,"byteLength":768,"byteStride":8,"target":34962},{"buffer":0,"byteOffset":22952,"byteLength":768,"byteStride":8,"target":34962},{"buffer":0,"byteOffset":23720,"byteLength":768,"byteStride":8,"target":34962}],"samplers":[{"magFilter":9729,"minFilter":9987,"wrapS":10497,"wrapT":10497}],"textures":[{"sampler":0,"extensions":{"EXT_texture_webp":{"source":1}}},{"sampler":0,"extensions":{"EXT_texture_webp":{"source":0}}},{"sampler":0,"extensions":{"EXT_texture_webp":{"source":2}}},{"sampler":0,"extensions":{"EXT_texture_webp":{"source":4}}},{"sampler":0,"extensions":{"EXT_texture_webp":{"source":3}}},{"sampler":0,"extensions":{"EXT_texture_webp":{"source":5}}},{"sampler":0,"extensions":{"EXT_texture_webp":{"source":7}}},{"sampler":0,"extensions":{"EXT_texture_webp":{"source":6}}},{"sampler":0,"extensions":{"EXT_texture_webp":{"source":8}}},{"sampler":0,"extensions":{"EXT_texture_webp":{"source":10}}},{"sampler":0,"extensions":{"EXT_texture_webp":{"source":9}}},{"sampler":0,"extensions":{"EXT_texture_webp":{"source":11}}},{"sampler":0,"extensions":{"EXT_texture_webp":{"source":13}}},{"sampler":0,"extensions":{"EXT_texture_webp":{"source":12}}},{"sampler":0,"extensions":{"EXT_texture_webp":{"source":14}}}],"images":[{"name":"suit_normal","uri":"barracks_0.webp"},{"name":"suit_color","uri":"barracks_1.webp"},{"name":"suit_rough","uri":"barracks_2.webp"},{"name":"panels2_normal","uri":"barracks_3.webp"},{"name":"panels2_color","uri":"barracks_4.webp"},{"name":"panels2_rough","uri":"barracks_5.webp"},{"name":"paint_normal","uri":"barracks_6.webp"},{"name":"paint_color","uri":"barracks_7.webp"},{"name":"paint_rough","uri":"barracks_8.webp"},{"name":"concrete_normal","uri":"barracks_9.webp"},{"name":"concrete_color","uri":"barracks_10.webp"},{"name":"concrete_rough","uri":"barracks_11.webp"},{"name":"panels_normal","uri":"barracks_12.webp"},{"name":"panels_color","uri":"barracks_13.webp"},{"name":"panels_rough","uri":"barracks_14.webp"}],"buffers":[{"byteLength":24488,"uri":"data:application/octet-stream;base64,"}],"materials":[{"name":"sandbag","doubleSided":true,"pbrMetallicRoughness":{"baseColorFactor":[0.2541520893573761,0.1946178376674652,0.10224173218011856,1],"metallicFactor":0,"baseColorTexture":{"index":0},"metallicRoughnessTexture":{"index":2}},"normalTexture":{"index":1}},{"name":"steel","doubleSided":true,"pbrMetallicRoughness":{"baseColorFactor":[0.1441284716129303,0.15896083414554596,0.177888423204422,1],"metallicFactor":0.699999988079071,"baseColorTexture":{"index":3},"metallicRoughnessTexture":{"index":5}},"normalTexture":{"index":4}},{"name":"hazard","doubleSided":true,"pbrMetallicRoughness":{"baseColorFactor":[0.5840784311294556,0.32314321398735046,0.027320891618728638,1],"metallicFactor":0.30000001192092896,"baseColorTexture":{"index":6},"metallicRoughnessTexture":{"index":8}},"normalTexture":{"index":7}},{"name":"concrete","doubleSided":true,"pbrMetallicRoughness":{"baseColorFactor":[0.2541520893573761,0.24228112399578094,0.2158605009317398,1],"metallicFactor":0,"baseColorTexture":{"index":9},"metallicRoughnessTexture":{"index":11}},"normalTexture":{"index":10}},{"name":"armor","doubleSided":true,"pbrMetallicRoughness":{"baseColorFactor":[0.2541520893573761,0.28744083642959595,0.32314321398735046,1],"metallicFactor":0.5,"baseColorTexture":{"index":12},"metallicRoughnessTexture":{"index":14}},"normalTexture":{"index":13}}],"meshes":[{"name":"Cube.010","primitives":[{"attributes":{"POSITION":0,"NORMAL":1,"TEXCOORD_0":2},"mode":4,"material":0,"indices":3}]},{"name":"Cube.011","primitives":[{"attributes":{"TEXCOORD_0":6,"POSITION":0,"NORMAL":1},"mode":4,"material":0,"indices":3}]},{"name":"Cube.012","primitives":[{"attributes":{"TEXCOORD_0":7,"POSITION":0,"NORMAL":1},"mode":4,"material":0,"indices":3}]},{"name":"Cube.013","primitives":[{"attributes":{"TEXCOORD_0":8,"POSITION":0,"NORMAL":1},"mode":4,"material":0,"indices":3}]},{"name":"Cube.014","primitives":[{"attributes":{"TEXCOORD_0":9,"POSITION":0,"NORMAL":1},"mode":4,"material":0,"indices":3}]},{"name":"Cube.015","primitives":[{"attributes":{"TEXCOORD_0":10,"POSITION":0,"NORMAL":1},"mode":4,"material":0,"indices":3}]},{"name":"Cylinder.001","primitives":[{"attributes":{"POSITION":11,"NORMAL":12,"TEXCOORD_0":13},"mode":4,"material":1,"indices":4}]},{"name":"Cube.002","primitives":[{"attributes":{"POSITION":14,"TEXCOORD_0":15,"NORMAL":1},"mode":4,"material":2,"indices":3}]},{"name":"Cube.001","primitives":[{"attributes":{"POSITION":16,"TEXCOORD_0":17,"NORMAL":1},"mode":4,"material":1,"indices":3}]},{"name":"Cube","primitives":[{"attributes":{"POSITION":18,"TEXCOORD_0":19,"NORMAL":1},"mode":4,"material":3,"indices":3}]},{"name":"Cylinder","primitives":[{"attributes":{"POSITION":20,"NORMAL":21,"TEXCOORD_0":22},"mode":4,"material":4,"indices":5}]},{"name":"Cube.006","primitives":[{"attributes":{"POSITION":23,"TEXCOORD_0":24,"NORMAL":1},"mode":4,"material":1,"indices":3}]},{"name":"Cube.007","primitives":[{"attributes":{"TEXCOORD_0":25,"POSITION":23,"NORMAL":1},"mode":4,"material":1,"indices":3}]},{"name":"Cube.008","primitives":[{"attributes":{"TEXCOORD_0":26,"POSITION":23,"NORMAL":1},"mode":4,"material":1,"indices":3}]},{"name":"Cube.009","primitives":[{"attributes":{"TEXCOORD_0":27,"POSITION":23,"NORMAL":1},"mode":4,"material":1,"indices":3}]},{"name":"Cube.005","primitives":[{"attributes":{"TEXCOORD_0":28,"POSITION":23,"NORMAL":1},"mode":4,"material":1,"indices":3}]},{"name":"Cube.004","primitives":[{"attributes":{"TEXCOORD_0":29,"POSITION":23,"NORMAL":1},"mode":4,"material":1,"indices":3}]},{"name":"Cube.003","primitives":[{"attributes":{"TEXCOORD_0":30,"POSITION":23,"NORMAL":1},"mode":4,"material":1,"indices":3}]}],"nodes":[{"name":"bag0","translation":[-60,9,-72],"mesh":0},{"name":"bag1","translation":[-36,9,-72],"mesh":1},{"name":"bag2","translation":[-12,9,-72],"mesh":2},{"name":"bag3","translation":[12,9,-72],"mesh":3},{"name":"bag4","translation":[36,9,-72],"mesh":4},{"name":"bag5","translation":[60,9,-72],"mesh":5},{"name":"chimney","translation":[30,60,40],"mesh":6},{"name":"door","translation":[0,23,-77.5],"mesh":7},{"name":"front_wall","translation":[0,30,-74],"mesh":8},{"name":"pad","translation":[0,3,0],"mesh":9},{"name":"quonset","translation":[0,6,0],"rotation":[0.7071068286895752,0,0,0.7071068286895752],"mesh":10},{"name":"rib0","translation":[0,62,0],"mesh":11},{"name":"rib1","translation":[20,62,0],"mesh":12},{"name":"rib2","translation":[40,62,0],"mesh":13},{"name":"rib3","translation":[60,62,0],"mesh":14},{"name":"rib-1","translation":[-20,62,0],"mesh":15},{"name":"rib-2","translation":[-40,62,0],"mesh":16},{"name":"rib-3","translation":[-60,62,0],"mesh":17},{"name":"root","children":[0,1,2,3,4,5,6,7,8,9,10,11,12,13,14,15,16,17]}],"scenes":[{"name":"Scene","nodes":[18]}],"scene":0,"extensionsUsed":["EXT_texture_webp"],"extensionsRequired":["EXT_texture_webp"]}