{"asset":{"generator":"glTF-Transform v4.5.1","version":"2.0"},"accessors":[{"type":"VEC3","componentType":5126,"count":32,"max":[1.039230465888977,35,1.2000000476837158],"min":[-1.039230465888977,-35,-1.2000000476837158],"bufferView":0,"byteOffset":0},{"type":"VEC3","componentType":5126,"count":32,"bufferView":0,"byteOffset":12},{"type":"VEC2","componentType":5126,"count":32,"bufferView":0,"byteOffset":24},{"type":"SCALAR","componentType":5123,"count":60,"bufferView":1,"byteOffset":0},{"type":"SCALAR","componentType":5123,"count":240,"bufferView":1,"byteOffset":120},{"type":"SCALAR","componentType":5123,"count":180,"bufferView":1,"byteOffset":600},{"type":"SCALAR","componentType":5123,"count":180,"bufferView":1,"byteOffset":960},{"type":"SCALAR","componentType":5123,"count":132,"bufferView":1,"byteOffset":1320},{"type":"SCALAR","componentType":5123,"count":240,"bufferView":1,"byteOffset":1584},{"type":"SCALAR","componentType":5123,"count":240,"bufferView":1,"byteOffset":2064},{"type":"SCALAR","componentType":5123,"count":240,"bufferView":1,"byteOffset":2544},{"type":"SCALAR","componentType":5123,"count":84,"bufferView":1,"byteOffset":3024},{"type":"SCALAR","componentType":5123,"count":84,"bufferView":1,"byteOffset":3192},{"type":"SCALAR","componentType":5123,"count":84,"bufferView":1,"byteOffset":3360},{"type":"SCALAR","componentType":5123,"count":228,"bufferView":1,"byteOffset":3528},{"type":"SCALAR","componentType":5123,"count":84,"bufferView":1,"byteOffset":3984},{"type":"VEC3","componentType":5126,"count":78,"max":[2.999999761581421,3,2.999999523162842],"min":[-2.999999523162842,-3,-3],"bufferView":2,"byteOffset":0},{"type":"VEC3","componentType":5126,"count":78,"bufferView":2,"byteOffset":12},{"type":"VEC2","componentType":5126,"count":78,"bufferView":2,"byteOffset":24},{"type":"VEC3","componentType":5126,"count":72,"max":[8,1,8],"min":[-8,-1,-8],"bufferView":3,"byteOffset":0},{"type":"VEC3","componentType":5126,"count":72,"bufferView":3,"byteOffset":12},{"type":"VEC2","componentType":5126,"count":72,"bufferView":3,"byteOffset":24},{"type":"VEC2","componentType":5126,"count":72,"bufferView":4,"byteOffset":0},{"type":"VEC2","componentType":5126,"count":72,"bufferView":5,"byteOffset":0},{"type":"VEC2","componentType":5126,"count":72,"bufferView":6,"byteOffset":0},{"type":"VEC3","componentType":5126,"count":96,"max":[2,17,60],"min":[-2,-17,-60],"bufferView":7,"byteOffset":0},{"type":"VEC3","componentType":5126,"count":96,"bufferView":7,"byteOffset":12},{"type":"VEC2","componentType":5126,"count":96,"bufferView":7,"byteOffset":24},{"type":"VEC2","componentType":5126,"count":78,"bufferView":8,"byteOffset":0},{"type":"VEC2","componentType":5126,"count":78,"bufferView":9,"byteOffset":0},{"type":"VEC2","componentType":5126,"count":78,"bufferView":10,"byteOffset":0},{"type":"VEC2","componentType":5126,"count":78,"bufferView":11,"byteOffset":0},{"type":"VEC3","componentType":5126,"count":96,"max":[150,22,85],"min":[-150,-22,-85],"bufferView":12,"byteOffset":0},{"type":"VEC2","componentType":5126,"count":96,"bufferView":12,"byteOffset":12},{"type":"VEC3","componentType":5126,"count":40,"max":[3,45,3],"min":[-3,-45,-3],"bufferView":13,"byteOffset":0},{"type":"VEC3","componentType":5126,"count":40,"bufferView":13,"byteOffset":12},{"type":"VEC2","componentType":5126,"count":40,"bufferView":13,"byteOffset":24},{"type":"VEC2","componentType":5126,"count":40,"bufferView":14,"byteOffset":0},{"type":"VEC2","componentType":5126,"count":40,"bufferView":15,"byteOffset":0},{"type":"VEC2","componentType":5126,"count":40,"bufferView":16,"byteOffset":0},{"type":"VEC3","componentType":5126,"count":96,"max":[190,5,110],"min":[-190,-5,-110],"bufferView":17,"byteOffset":0},{"type":"VEC3","componentType":5126,"count":96,"bufferView":17,"byteOffset":12},{"type":"VEC2","componentType":5126,"count":96,"bufferView":17,"byteOffset":24},{"type":"VEC3","componentType":5126,"count":96,"max":[135,3,70],"min":[-135,-3,-70],"bufferView":18,"byteOffset":0},{"type":"VEC2","componentType":5126,"count":96,"bufferView":18,"byteOffset":12},{"type":"VEC3","componentType":5126,"count":96,"max":[151,2,86],"min":[-151,-2,-86],"bufferView":19,"byteOffset":0},{"type":"VEC2","componentType":5126,"count":96,"bufferView":19,"byteOffset":12},{"type":"VEC3","componentType":5126,"count":40,"max":[20,2,20],"min":[-20,-2,-20],"bufferView":20,"byteOffset":0},{"type":"VEC3","componentType":5126,"count":40,"bufferView":20,"byteOffset":12},{"type":"VEC2","componentType":5126,"count":40,"bufferView":20,"byteOffset":24},{"type":"VEC3","componentType":5126,"count":40,"max":[2.5,8,2.5],"min":[-2.5,-8,-2.5],"bufferView":21,"byteOffset":0},{"type":"VEC2","componentType":5126,"count":40,"bufferView":21,"byteOffset":12},{"type":"VEC3","componentType":5126,"count":96,"max":[28,11,28],"min":[-28,-11,-28],"bufferView":22,"byteOffset":0},{"type":"VEC2","componentType":5126,"count":96,"bufferView":22,"byteOffset":12},{"type":"VEC3","componentType":5126,"count":96,"max":[29,4,29],"min":[-29,-4,-29],"bufferView":23,"byteOffset":0},{"type":"VEC2","componentType":5126,"count":96,"bufferView":23,"byteOffset":12},{"type":"VEC3","componentType":5126,"count":72,"max":[18,30,18],"min":[-18,-30,-18],"bufferView":24,"byteOffset":0},{"type":"VEC2","componentType":5126,"count":72,"bufferView":24,"byteOffset":12},{"type":"VEC3","componentType":5126,"count":96,"max":[17,4,10],"min":[-17,-4,-10],"bufferView":25,"byteOffset":0},{"type":"VEC2","componentType":5126,"count":96,"bufferView":25,"byteOffset":12},{"type":"VEC2","componentType":5126,"count":96,"bufferView":26,"byteOffset":0},{"type":"VEC2","componentType":5126,"count":96,"bufferView":27,"byteOffset":0},{"type":"VEC2","componentType":5126,"count":96,"bufferView":28,"byteOffset":0},{"type":"SCALAR","componentType":5126,"count":120,"max":[4],"min":[0.03333333507180214],"bufferView":29,"byteOffset":0},{"type":"VEC4","componentType":5126,"count":120,"bufferView":29,"byteOffset":480}],"bufferViews":[{"buffer":0,"byteOffset":0,"byteLength":1024,"byteStride":32,"target":34962},{"buffer":0,"byteOffset":1024,"byteLength":4152,"target":34963},{"buffer":0,"byteOffset":5176,"byteLength":2496,"byteStride":32,"target":34962},{"buffer":0,"byteOffset":7672,"byteLength":2304,"byteStride":32,"target":34962},{"buffer":0,"byteOffset":9976,"byteLength":576,"byteStride":8,"target":34962},{"buffer":0,"byteOffset":10552,"byteLength":576,"byteStride":8,"target":34962},{"buffer":0,"byteOffset":11128,"byteLength":576,"byteStride":8,"target":34962},{"buffer":0,"byteOffset":11704,"byteLength":3072,"byteStride":32,"target":34962},{"buffer":0,"byteOffset":14776,"byteLength":624,"byteStride":8,"target":34962},{"buffer":0,"byteOffset":15400,"byteLength":624,"byteStride":8,"target":34962},{"buffer":0,"byteOffset":16024,"byteLength":624,"byteStride":8,"target":34962},{"buffer":0,"byteOffset":16648,"byteLength":624,"byteStride":8,"target":34962},{"buffer":0,"byteOffset":17272,"byteLength":1920,"byteStride":20,"target":34962},{"buffer":0,"byteOffset":19192,"byteLength":1280,"byteStride":32,"target":34962},{"buffer":0,"byteOffset":20472,"byteLength":320,"byteStride":8,"target":34962},{"buffer":0,"byteOffset":20792,"byteLength":320,"byteStride":8,"target":34962},{"buffer":0,"byteOffset":21112,"byteLength":320,"byteStride":8,"target":34962},{"buffer":0,"byteOffset":21432,"byteLength":3072,"byteStride":32,"target":34962},{"buffer":0,"byteOffset":24504,"byteLength":1920,"byteStride":20,"target":34962},{"buffer":0,"byteOffset":26424,"byteLength":1920,"byteStride":20,"target":34962},{"buffer":0,"byteOffset":28344,"byteLength":1280,"byteStride":32,"target":34962},{"buffer":0,"byteOffset":29624,"byteLength":800,"byteStride":20,"target":34962},{"buffer":0,"byteOffset":30424,"byteLength":1920,"byteStride":20,"target":34962},{"buffer":0,"byteOffset":32344,"byteLength":1920,"byteStride":20,"target":34962},{"buffer":0,"byteOffset":34264,"byteLength":1440,"byteStride":20,"target":34962},{"buffer":0,"byteOffset":35704,"byteLength":1920,"byteStride":20,"target":34962},{"buffer":0,"byteOffset":37624,"byteLength":768,"byteStride":8,"target":34962},{"buffer":0,"byteOffset":38392,"byteLength":768,"byteStride":8,"target":34962},{"buffer":0,"byteOffset":39160,"byteLength":768,"byteStride":8,"target":34962},{"buffer":0,"byteOffset":39928,"byteLength":2400}],"samplers":[{"magFilter":9729,"minFilter":9987,"wrapS":10497,"wrapT":10497}],"textures":[{"sampler":0,"extensions":{"EXT_texture_webp":{"source":1}}},{"sampler":0,"extensions":{"EXT_texture_webp":{"source":0}}},{"sampler":0,"extensions":{"EXT_texture_webp":{"source":2}}},{"sampler":0,"extensions":{"EXT_texture_webp":{"source":4}}},{"sampler":0,"extensions":{"EXT_texture_webp":{"source":3}}},{"sampler":0,"extensions":{"EXT_texture_webp":{"source":5}}},{"sampler":0,"extensions":{"EXT_texture_webp":{"source":7}}},{"sampler":0,"extensions":{"EXT_texture_webp":{"source":6}}},{"sampler":0,"extensions":{"EXT_texture_webp":{"source":8}}},{"sampler":0,"extensions":{"EXT_texture_webp":{"source":10}}},{"sampler":0,"extensions":{"EXT_texture_webp":{"source":9}}},{"sampler":0,"extensions":{"EXT_texture_webp":{"source":11}}}],"images":[{"name":"panels2_normal","uri":"base_0.webp"},{"name":"panels2_color","uri":"base_1.webp"},{"name":"panels2_rough","uri":"base_2.webp"},{"name":"panels_normal","uri":"base_3.webp"},{"name":"panels_color","uri":"base_4.webp"},{"name":"panels_rough","uri":"base_5.webp"},{"name":"concrete_normal","uri":"base_6.webp"},{"name":"concrete_color","uri":"base_7.webp"},{"name":"concrete_rough","uri":"base_8.webp"},{"name":"paint_normal","uri":"base_9.webp"},{"name":"paint_color","uri":"base_10.webp"},{"name":"paint_rough","uri":"base_11.webp"}],"buffers":[{"byteLength":42328,"uri":"data:application/octet-stream;base64,"}],"materials":[{"name":"steel","doubleSided":true,"pbrMetallicRoughness":{"baseColorFactor":[0.1441284716129303,0.15896083414554596,0.177888423204422,1],"metallicFactor":0.699999988079071,"baseColorTexture":{"index":0},"metallicRoughnessTexture":{"index":2}},"normalTexture":{"index":1}},{"name":"beacon","doubleSided":true,"pbrMetallicRoughness":{"baseColorFactor":[1,0.10224173218011856,0.0423114113509655,1],"roughnessFactor":0.30000001192092896,"metallicFactor":0},"emissiveFactor":[1,0.0423114113509655,0.01032982300966978],"extensions":{"KHR_materials_emissive_strength":{"emissiveStrength":5}}},{"name":"glass","doubleSided":true,"pbrMetallicRoughness":{"baseColorFactor":[0.34670406579971313,0.7681511640548706,1,1],"roughnessFactor":0.15000000596046448,"metallicFactor":0},"emissiveFactor":[0.15896083414554596,0.577580451965332,1],"extensions":{"KHR_materials_emissive_strength":{"emissiveStrength":2}}},{"name":"armor","doubleSided":true,"pbrMetallicRoughness":{"baseColorFactor":[0.2541520893573761,0.28744083642959595,0.32314321398735046,1],"metallicFactor":0.5,"baseColorTexture":{"index":3},"metallicRoughnessTexture":{"index":5}},"normalTexture":{"index":4}},{"name":"concrete","doubleSided":true,"pbrMetallicRoughness":{"baseColorFactor":[0.2541520893573761,0.24228112399578094,0.2158605009317398,1],"metallicFactor":0,"baseColorTexture":{"index":6},"metallicRoughnessTexture":{"index":8}},"normalTexture":{"index":7}},{"name":"hazard","doubleSided":true,"pbrMetallicRoughness":{"baseColorFactor":[0.5840784311294556,0.32314321398735046,0.027320891618728638,1],"metallicFactor":0.30000001192092896,"baseColorTexture":{"index":9},"metallicRoughnessTexture":{"index":11}},"normalTexture":{"index":10}}],"meshes":[{"name":"Cylinder.006","primitives":[{"attributes":{"POSITION":0,"NORMAL":1,"TEXCOORD_0":2},"mode":4,"material":0,"indices":3}]},{"name":"Sphere","primitives":[{"attributes":{"POSITION":16,"NORMAL":17,"TEXCOORD_0":18},"mode":4,"material":1,"indices":4}]},{"name":"Cylinder.002","primitives":[{"attributes":{"POSITION":19,"NORMAL":20,"TEXCOORD_0":21},"mode":4,"material":0,"indices":5}]},{"name":"Cylinder.003","primitives":[{"attributes":{"TEXCOORD_0":22,"POSITION":19,"NORMAL":20},"mode":4,"material":0,"indices":6}]},{"name":"Cylinder.001","primitives":[{"attributes":{"TEXCOORD_0":23,"POSITION":19,"NORMAL":20},"mode":4,"material":0,"indices":6}]},{"name":"Cylinder","primitives":[{"attributes":{"TEXCOORD_0":24,"POSITION":19,"NORMAL":20},"mode":4,"material":0,"indices":6}]},{"name":"Cube.007","primitives":[{"attributes":{"POSITION":25,"NORMAL":26,"TEXCOORD_0":27},"mode":4,"material":0,"indices":7}]},{"name":"Sphere.003","primitives":[{"attributes":{"TEXCOORD_0":28,"POSITION":16,"NORMAL":17},"mode":4,"material":2,"indices":8}]},{"name":"Sphere.004","primitives":[{"attributes":{"TEXCOORD_0":29,"POSITION":16,"NORMAL":17},"mode":4,"material":2,"indices":9}]},{"name":"Sphere.001","primitives":[{"attributes":{"TEXCOORD_0":30,"POSITION":16,"NORMAL":17},"mode":4,"material":2,"indices":10}]},{"name":"Sphere.002","primitives":[{"attributes":{"TEXCOORD_0":31,"POSITION":16,"NORMAL":17},"mode":4,"material":2,"indices":9}]},{"name":"Cube.001","primitives":[{"attributes":{"POSITION":32,"TEXCOORD_0":33,"NORMAL":26},"mode":4,"material":3,"indices":7}]},{"name":"Cylinder.007","primitives":[{"attributes":{"POSITION":34,"NORMAL":35,"TEXCOORD_0":36},"mode":4,"material":0,"indices":11}]},{"name":"Cylinder.008","primitives":[{"attributes":{"TEXCOORD_0":37,"POSITION":34,"NORMAL":35},"mode":4,"material":0,"indices":11}]},{"name":"Cylinder.009","primitives":[{"attributes":{"TEXCOORD_0":38,"POSITION":34,"NORMAL":35},"mode":4,"material":0,"indices":12}]},{"name":"Cylinder.010","primitives":[{"attributes":{"TEXCOORD_0":39,"POSITION":34,"NORMAL":35},"mode":4,"material":0,"indices":13}]},{"name":"Cube","primitives":[{"attributes":{"POSITION":40,"NORMAL":41,"TEXCOORD_0":42},"mode":4,"material":4,"indices":7}]},{"name":"Cube.002","primitives":[{"attributes":{"POSITION":43,"TEXCOORD_0":44,"NORMAL":26},"mode":4,"material":0,"indices":7}]},{"name":"Cube.008","primitives":[{"attributes":{"POSITION":45,"TEXCOORD_0":46,"NORMAL":26},"mode":4,"material":5,"indices":7}]},{"name":"Cone","primitives":[{"attributes":{"POSITION":47,"NORMAL":48,"TEXCOORD_0":49},"mode":4,"material":3,"indices":14}]},{"name":"Cylinder.005","primitives":[{"attributes":{"POSITION":50,"TEXCOORD_0":51,"NORMAL":35},"mode":4,"material":0,"indices":15}]},{"name":"Cube.009","primitives":[{"attributes":{"POSITION":52,"TEXCOORD_0":53,"NORMAL":26},"mode":4,"material":0,"indices":7}]},{"name":"Cube.010","primitives":[{"attributes":{"POSITION":54,"TEXCOORD_0":55,"NORMAL":26},"mode":4,"material":2,"indices":7}]},{"name":"Cylinder.004","primitives":[{"attributes":{"POSITION":56,"TEXCOORD_0":57,"NORMAL":20},"mode":4,"material":3,"indices":6}]},{"name":"Cube.005","primitives":[{"attributes":{"POSITION":58,"TEXCOORD_0":59,"NORMAL":26},"mode":4,"material":0,"indices":7}]},{"name":"Cube.006","primitives":[{"attributes":{"TEXCOORD_0":60,"POSITION":58,"NORMAL":26},"mode":4,"material":0,"indices":7}]},{"name":"Cube.004","primitives":[{"attributes":{"TEXCOORD_0":61,"POSITION":58,"NORMAL":26},"mode":4,"material":0,"indices":7}]},{"name":"Cube.003","primitives":[{"attributes":{"TEXCOORD_0":62,"POSITION":58,"NORMAL":26},"mode":4,"material":0,"indices":7}]}],"nodes":[{"name":"antenna","translation":[60,95,55],"mesh":0},{"name":"beacon","translation":[60,131,55],"mesh":1},{"name":"fan30","translation":[30,68.5,-40],"mesh":2},{"name":"fan100","translation":[100,68.5,-40],"mesh":3},{"name":"fan-40","translation":[-40,68.5,-40],"mesh":4},{"name":"fan-110","translation":[-110,68.5,-40],"mesh":5},{"name":"hangar_door","translation":[152,27,0],"mesh":6},{"name":"light150-95","translation":[150,12,95],"mesh":7},{"name":"light15095","translation":[150,12,-95],"mesh":8},{"name":"light-150-95","translation":[-150,12,95],"mesh":9},{"name":"light-15095","translation":[-150,12,-95],"mesh":10},{"name":"main","translation":[0,32,0],"mesh":11},{"name":"pipe0","translation":[-20,30,-88],"rotation":[0,0,-0.7071068286895752,0.7071068286895752],"mesh":12},{"name":"pipe1","translation":[-11,30,-88],"rotation":[0,0,-0.7071068286895752,0.7071068286895752],"mesh":13},{"name":"pipe2","translation":[-2,30,-88],"rotation":[0,0,-0.7071068286895752,0.7071068286895752],"mesh":14},{"name":"pipe3","translation":[7,30,-88],"rotation":[0,0,-0.7071068286895752,0.7071068286895752],"mesh":15},{"name":"plinth","translation":[0,5,0],"mesh":16},{"name":"roof","translation":[0,57,0],"mesh":17},{"name":"stripe","translation":[0,14,0],"mesh":18},{"name":"dish","translation":[10,10,0],"rotation":[0,0,-0.5226872563362122,0.8525245189666748],"mesh":19},{"name":"dish_mast","mesh":20},{"name":"radar","translation":[0,86,0],"children":[19,20]},{"name":"tower_cab","translation":[0,68,0],"mesh":21},{"name":"tower_glass","translation":[0,70,0],"mesh":22},{"name":"tower_shaft","translation":[0,30,0],"mesh":23},{"name":"tower","translation":[-90,60,50],"children":[21,22,23,24]},{"name":"vent30","translation":[30,64,-40],"mesh":24},{"name":"vent100","translation":[100,64,-40],"mesh":25},{"name":"vent-40","translation":[-40,64,-40],"mesh":26},{"name":"vent-110","translation":[-110,64,-40],"mesh":27},{"name":"root","children":[0,1,2,3,4,5,6,7,8,9,10,11,12,13,14,15,16,17,18,25,26,27,28,29]}],"animations":[{"name":"idle","samplers":[{"input":63,"output":64,"interpolation":"LINEAR"}],"channels":[{"sampler":0,"target":{"node":21,"path":"rotation"}}]}],"scenes":[{"name":"Scene","nodes":[30]}],"scene":0,"extensionsUsed":["EXT_texture_webp","KHR_materials_emissive_strength"],"extensionsRequired":["EXT_texture_webp"]}