{"asset":{"generator":"glTF-Transform v4.5.1","version":"2.0"},"accessors":[{"type":"VEC3","componentType":5126,"count":273,"max":[57.16178894042969,22.882652282714844,57.07919692993164],"min":[-54.271060943603516,-4.772258758544922,-50.974891662597656],"bufferView":0,"byteOffset":0},{"type":"VEC3","componentType":5126,"count":273,"bufferView":0,"byteOffset":12},{"type":"VEC2","componentType":5126,"count":273,"bufferView":0,"byteOffset":24},{"type":"SCALAR","componentType":5123,"count":960,"bufferView":1,"byteOffset":0},{"type":"SCALAR","componentType":5123,"count":240,"bufferView":1,"byteOffset":1920},{"type":"SCALAR","componentType":5123,"count":60,"bufferView":1,"byteOffset":2400},{"type":"SCALAR","componentType":5123,"count":60,"bufferView":1,"byteOffset":2520},{"type":"SCALAR","componentType":5123,"count":60,"bufferView":1,"byteOffset":2640},{"type":"SCALAR","componentType":5123,"count":60,"bufferView":1,"byteOffset":2760},{"type":"SCALAR","componentType":5123,"count":60,"bufferView":1,"byteOffset":2880},{"type":"SCALAR","componentType":5123,"count":60,"bufferView":1,"byteOffset":3000},{"type":"SCALAR","componentType":5123,"count":60,"bufferView":1,"byteOffset":3120},{"type":"SCALAR","componentType":5123,"count":60,"bufferView":1,"byteOffset":3240},{"type":"SCALAR","componentType":5123,"count":108,"bufferView":1,"byteOffset":3360},{"type":"VEC3","componentType":5126,"count":78,"max":[11.427823066711426,10.84093189239502,12.354742050170898],"min":[-12.267680168151855,-12.751293182373047,-13.273469924926758],"bufferView":2,"byteOffset":0},{"type":"VEC3","componentType":5126,"count":78,"bufferView":2,"byteOffset":12},{"type":"VEC2","componentType":5126,"count":78,"bufferView":2,"byteOffset":24},{"type":"VEC3","componentType":5126,"count":32,"max":[3.464101552963257,17.72004508972168,4],"min":[-3.464101552963257,-17.72004508972168,-4],"bufferView":3,"byteOffset":0},{"type":"VEC3","componentType":5126,"count":32,"bufferView":3,"byteOffset":12},{"type":"VEC2","componentType":5126,"count":32,"bufferView":3,"byteOffset":24},{"type":"VEC3","componentType":5126,"count":32,"max":[3.464101552963257,19.72308349609375,4.000000476837158],"min":[-3.4641025066375732,-19.72308349609375,-4.000000476837158],"bufferView":4,"byteOffset":0},{"type":"VEC3","componentType":5126,"count":32,"bufferView":4,"byteOffset":12},{"type":"VEC2","componentType":5126,"count":32,"bufferView":4,"byteOffset":24},{"type":"VEC3","componentType":5126,"count":32,"max":[3.464101552963257,17.72004508972168,4],"min":[-3.464101552963257,-17.72004508972168,-4],"bufferView":5,"byteOffset":0},{"type":"VEC2","componentType":5126,"count":32,"bufferView":5,"byteOffset":12},{"type":"VEC3","componentType":5126,"count":32,"max":[3.4641025066375732,19.72308349609375,4.000000476837158],"min":[-3.464101552963257,-19.72308349609375,-4.000000476837158],"bufferView":6,"byteOffset":0},{"type":"VEC2","componentType":5126,"count":32,"bufferView":6,"byteOffset":12},{"type":"VEC3","componentType":5126,"count":32,"max":[3.464101552963257,17.72004508972168,4],"min":[-3.464101552963257,-17.72004508972168,-4],"bufferView":7,"byteOffset":0},{"type":"VEC2","componentType":5126,"count":32,"bufferView":7,"byteOffset":12},{"type":"VEC3","componentType":5126,"count":32,"max":[3.4641025066375732,19.72308349609375,4.000000476837158],"min":[-3.464101552963257,-19.72308349609375,-4.000000476837158],"bufferView":8,"byteOffset":0},{"type":"VEC2","componentType":5126,"count":32,"bufferView":8,"byteOffset":12},{"type":"VEC3","componentType":5126,"count":32,"max":[3.464101552963257,17.72004508972168,4],"min":[-3.464101552963257,-17.72004508972168,-4],"bufferView":9,"byteOffset":0},{"type":"VEC2","componentType":5126,"count":32,"bufferView":9,"byteOffset":12},{"type":"VEC3","componentType":5126,"count":32,"max":[3.464101552963257,19.72308349609375,4.000000476837158],"min":[-3.4641025066375732,-19.72308349609375,-4.000000476837158],"bufferView":10,"byteOffset":0},{"type":"VEC2","componentType":5126,"count":32,"bufferView":10,"byteOffset":12},{"type":"VEC3","componentType":5126,"count":48,"max":[15.216904640197754,30,16],"min":[-15.216904640197754,-30,-16],"bufferView":11,"byteOffset":0},{"type":"VEC3","componentType":5126,"count":48,"bufferView":11,"byteOffset":12},{"type":"VEC2","componentType":5126,"count":48,"bufferView":11,"byteOffset":24},{"type":"SCALAR","componentType":5126,"count":60,"max":[2],"min":[0.03333333507180214],"bufferView":12,"byteOffset":0},{"type":"VEC3","componentType":5126,"count":60,"bufferView":12,"byteOffset":240}],"bufferViews":[{"buffer":0,"byteOffset":0,"byteLength":8736,"byteStride":32,"target":34962},{"buffer":0,"byteOffset":8736,"byteLength":3576,"target":34963},{"buffer":0,"byteOffset":12312,"byteLength":2496,"byteStride":32,"target":34962},{"buffer":0,"byteOffset":14808,"byteLength":1024,"byteStride":32,"target":34962},{"buffer":0,"byteOffset":15832,"byteLength":1024,"byteStride":32,"target":34962},{"buffer":0,"byteOffset":16856,"byteLength":640,"byteStride":20,"target":34962},{"buffer":0,"byteOffset":17496,"byteLength":640,"byteStride":20,"target":34962},{"buffer":0,"byteOffset":18136,"byteLength":640,"byteStride":20,"target":34962},{"buffer":0,"byteOffset":18776,"byteLength":640,"byteStride":20,"target":34962},{"buffer":0,"byteOffset":19416,"byteLength":640,"byteStride":20,"target":34962},{"buffer":0,"byteOffset":20056,"byteLength":640,"byteStride":20,"target":34962},{"buffer":0,"byteOffset":20696,"byteLength":1536,"byteStride":32,"target":34962},{"buffer":0,"byteOffset":22232,"byteLength":960}],"samplers":[{"magFilter":9729,"minFilter":9987,"wrapS":10497,"wrapT":10497}],"textures":[{"sampler":0,"extensions":{"EXT_texture_webp":{"source":1}}},{"sampler":0,"extensions":{"EXT_texture_webp":{"source":0}}},{"sampler":0,"extensions":{"EXT_texture_webp":{"source":2}}},{"sampler":0,"extensions":{"EXT_texture_webp":{"source":4}}},{"sampler":0,"extensions":{"EXT_texture_webp":{"source":3}}},{"sampler":0,"extensions":{"EXT_texture_webp":{"source":5}}}],"images":[{"name":"organic_normal","uri":"bug_tower_0.webp"},{"name":"organic_color","uri":"bug_tower_1.webp"},{"name":"organic_rough","uri":"bug_tower_2.webp"},{"name":"chitin2_normal","uri":"bug_tower_3.webp"},{"name":"chitin2_color","uri":"bug_tower_4.webp"},{"name":"chitin2_rough","uri":"bug_tower_5.webp"}],"buffers":[{"byteLength":23192,"uri":"data:application/octet-stream;base64,"}],"materials":[{"name":"flesh","doubleSided":true,"pbrMetallicRoughness":{"baseColorFactor":[0.06847816705703735,0.023153366521000862,0.04817182570695877,1],"metallicFactor":0.10000000149011612,"baseColorTexture":{"index":0},"metallicRoughnessTexture":{"index":2}},"normalTexture":{"index":1}},{"name":"core","doubleSided":true,"pbrMetallicRoughness":{"baseColorFactor":[0.15896083414554596,0.4793201684951782,0.0423114113509655,1],"roughnessFactor":0.30000001192092896,"metallicFactor":0},"emissiveFactor":[0.09201755652447385,0.3907382712565983,0.01299945891856924]},{"name":"spine","doubleSided":true,"pbrMetallicRoughness":{"baseColorFactor":[0.577580451965332,0.4793201684951782,0.3049873113632202,1],"metallicFactor":0.10000000149011612,"baseColorTexture":{"index":3},"metallicRoughnessTexture":{"index":5}},"normalTexture":{"index":4}},{"name":"husk","doubleSided":true,"pbrMetallicRoughness":{"baseColorFactor":[0.0423114113509655,0.023153366521000862,0.017641954123973846,1],"metallicFactor":0.15000000596046448,"baseColorTexture":{"index":3},"metallicRoughnessTexture":{"index":5}},"normalTexture":{"index":4}}],"meshes":[{"name":"Icosphere","primitives":[{"attributes":{"POSITION":0,"NORMAL":1,"TEXCOORD_0":2},"mode":4,"material":0,"indices":3}]},{"name":"Icosphere.001","primitives":[{"attributes":{"POSITION":14,"NORMAL":15,"TEXCOORD_0":16},"mode":4,"material":1,"indices":4}]},{"name":"Cone.001","primitives":[{"attributes":{"POSITION":17,"NORMAL":18,"TEXCOORD_0":19},"mode":4,"material":2,"indices":5}]},{"name":"Cone.002","primitives":[{"attributes":{"POSITION":20,"NORMAL":21,"TEXCOORD_0":22},"mode":4,"material":2,"indices":6}]},{"name":"Cone.003","primitives":[{"attributes":{"POSITION":23,"TEXCOORD_0":24,"NORMAL":18},"mode":4,"material":2,"indices":7}]},{"name":"Cone.004","primitives":[{"attributes":{"POSITION":25,"TEXCOORD_0":26,"NORMAL":21},"mode":4,"material":2,"indices":8}]},{"name":"Cone.005","primitives":[{"attributes":{"POSITION":27,"TEXCOORD_0":28,"NORMAL":18},"mode":4,"material":2,"indices":9}]},{"name":"Cone.006","primitives":[{"attributes":{"POSITION":29,"TEXCOORD_0":30,"NORMAL":21},"mode":4,"material":2,"indices":10}]},{"name":"Cone.007","primitives":[{"attributes":{"POSITION":31,"TEXCOORD_0":32,"NORMAL":18},"mode":4,"material":2,"indices":11}]},{"name":"Cone.008","primitives":[{"attributes":{"POSITION":33,"TEXCOORD_0":34,"NORMAL":21},"mode":4,"material":2,"indices":12}]},{"name":"Cone","primitives":[{"attributes":{"POSITION":35,"NORMAL":36,"TEXCOORD_0":37},"mode":4,"material":3,"indices":13}]}],"nodes":[{"name":"base","translation":[0,6,0],"mesh":0},{"name":"coreorb","translation":[0,2,0],"mesh":1},{"name":"core","translation":[0,74,0],"children":[1]},{"name":"thorn0","translation":[29,25,0],"rotation":[0,0,-0.5990965962409973,0.8006767630577087],"mesh":2},{"name":"thorn1","translation":[20.50609588623047,50,-20.50609588623047],"rotation":[-0.3510626256465912,0,-0.35106271505355835,0.8680495619773865],"mesh":3},{"name":"thorn2","translation":[0,25,-29],"rotation":[-0.5990965962409973,0,0,0.8006767630577087],"mesh":4},{"name":"thorn3","translation":[-20.50609588623047,50,-20.50609588623047],"rotation":[-0.3510626256465912,0,0.35106271505355835,0.8680495619773865],"mesh":5},{"name":"thorn4","translation":[-29,25,0],"rotation":[0,0,0.5990965962409973,0.8006767630577087],"mesh":6},{"name":"thorn5","translation":[-20.50609588623047,50,20.50609588623047],"rotation":[0.3510626256465912,0,0.35106271505355835,0.8680495619773865],"mesh":7},{"name":"thorn6","translation":[0,25,29],"rotation":[0.5990965962409973,0,0,0.8006767630577087],"mesh":8},{"name":"thorn7","translation":[20.50609588623047,50,20.50609588623047],"rotation":[0.3510626256465912,0,-0.35106271505355835,0.8680495619773865],"mesh":9},{"name":"trunk","translation":[0,40,0],"mesh":10},{"name":"root","children":[0,2,3,4,5,6,7,8,9,10,11]}],"animations":[{"name":"idle","samplers":[{"input":38,"output":39,"interpolation":"LINEAR"}],"channels":[{"sampler":0,"target":{"node":2,"path":"translation"}}]}],"scenes":[{"name":"Scene","nodes":[12]}],"scene":0,"extensionsUsed":["EXT_texture_webp"],"extensionsRequired":["EXT_texture_webp"]}