{"asset":{"generator":"glTF-Transform v4.5.1","version":"2.0"},"accessors":[{"type":"VEC3","componentType":5126,"count":76,"max":[9.20821762084961,14,8.999999046325684],"min":[-8.868053436279297,-14,-8.999999046325684],"bufferView":0,"byteOffset":0},{"type":"VEC3","componentType":5126,"count":76,"bufferView":0,"byteOffset":12},{"type":"VEC2","componentType":5126,"count":76,"bufferView":0,"byteOffset":24},{"type":"SCALAR","componentType":5123,"count":240,"bufferView":1,"byteOffset":0},{"type":"SCALAR","componentType":5123,"count":240,"bufferView":1,"byteOffset":480},{"type":"SCALAR","componentType":5123,"count":240,"bufferView":1,"byteOffset":960},{"type":"SCALAR","componentType":5123,"count":240,"bufferView":1,"byteOffset":1440},{"type":"SCALAR","componentType":5123,"count":240,"bufferView":1,"byteOffset":1920},{"type":"SCALAR","componentType":5123,"count":240,"bufferView":1,"byteOffset":2400},{"type":"SCALAR","componentType":5123,"count":240,"bufferView":1,"byteOffset":2880},{"type":"SCALAR","componentType":5123,"count":240,"bufferView":1,"byteOffset":3360},{"type":"SCALAR","componentType":5123,"count":240,"bufferView":1,"byteOffset":3840},{"type":"SCALAR","componentType":5123,"count":276,"bufferView":1,"byteOffset":4320},{"type":"SCALAR","componentType":5123,"count":960,"bufferView":1,"byteOffset":4872},{"type":"SCALAR","componentType":5123,"count":960,"bufferView":1,"byteOffset":6792},{"type":"SCALAR","componentType":5123,"count":960,"bufferView":1,"byteOffset":8712},{"type":"SCALAR","componentType":5123,"count":960,"bufferView":1,"byteOffset":10632},{"type":"SCALAR","componentType":5123,"count":960,"bufferView":1,"byteOffset":12552},{"type":"SCALAR","componentType":5123,"count":960,"bufferView":1,"byteOffset":14472},{"type":"SCALAR","componentType":5123,"count":960,"bufferView":1,"byteOffset":16392},{"type":"SCALAR","componentType":5123,"count":960,"bufferView":1,"byteOffset":18312},{"type":"VEC3","componentType":5126,"count":74,"max":[8.504404067993164,14.279361724853516,9.187590599060059],"min":[-9.370920181274414,-12.81786060333252,-8.555357933044434],"bufferView":2,"byteOffset":0},{"type":"VEC3","componentType":5126,"count":74,"bufferView":2,"byteOffset":12},{"type":"VEC2","componentType":5126,"count":74,"bufferView":2,"byteOffset":24},{"type":"VEC3","componentType":5126,"count":76,"max":[8.595654487609863,12.532520294189453,8.481322288513184],"min":[-8.572598457336426,-13.18746566772461,-8.56004524230957],"bufferView":3,"byteOffset":0},{"type":"VEC3","componentType":5126,"count":76,"bufferView":3,"byteOffset":12},{"type":"VEC2","componentType":5126,"count":76,"bufferView":3,"byteOffset":24},{"type":"VEC3","componentType":5126,"count":73,"max":[9.50255298614502,13.719215393066406,9.075384140014648],"min":[-8.64838695526123,-13.786064147949219,-8.732003211975098],"bufferView":4,"byteOffset":0},{"type":"VEC3","componentType":5126,"count":73,"bufferView":4,"byteOffset":12},{"type":"VEC2","componentType":5126,"count":73,"bufferView":4,"byteOffset":24},{"type":"VEC3","componentType":5126,"count":77,"max":[8.838296890258789,14.852667808532715,9.555501937866211],"min":[-8.802338600158691,-13.32761287689209,-9.382588386535645],"bufferView":5,"byteOffset":0},{"type":"VEC3","componentType":5126,"count":77,"bufferView":5,"byteOffset":12},{"type":"VEC2","componentType":5126,"count":77,"bufferView":5,"byteOffset":24},{"type":"VEC3","componentType":5126,"count":77,"max":[9.364212989807129,13.833728790283203,9.534879684448242],"min":[-8.850061416625977,-14.745245933532715,-8.803345680236816],"bufferView":6,"byteOffset":0},{"type":"VEC3","componentType":5126,"count":77,"bufferView":6,"byteOffset":12},{"type":"VEC2","componentType":5126,"count":77,"bufferView":6,"byteOffset":24},{"type":"VEC3","componentType":5126,"count":74,"max":[8.812280654907227,13.469192504882812,8.753500938415527],"min":[-8.989836692810059,-14.161863327026367,-8.934040069580078],"bufferView":7,"byteOffset":0},{"type":"VEC3","componentType":5126,"count":74,"bufferView":7,"byteOffset":12},{"type":"VEC2","componentType":5126,"count":74,"bufferView":7,"byteOffset":24},{"type":"VEC3","componentType":5126,"count":73,"max":[8.627942085266113,13.423368453979492,8.391783714294434],"min":[-8.552109718322754,-13.295463562011719,-8.81878662109375],"bufferView":8,"byteOffset":0},{"type":"VEC3","componentType":5126,"count":73,"bufferView":8,"byteOffset":12},{"type":"VEC2","componentType":5126,"count":73,"bufferView":8,"byteOffset":24},{"type":"VEC3","componentType":5126,"count":73,"max":[8.632650375366211,13.72722339630127,8.477928161621094],"min":[-9.178894996643066,-13.948509216308594,-8.680611610412598],"bufferView":9,"byteOffset":0},{"type":"VEC3","componentType":5126,"count":73,"bufferView":9,"byteOffset":12},{"type":"VEC2","componentType":5126,"count":73,"bufferView":9,"byteOffset":24},{"type":"VEC3","componentType":5126,"count":100,"max":[62,2,62],"min":[-62,-2,-62],"bufferView":10,"byteOffset":0},{"type":"VEC3","componentType":5126,"count":100,"bufferView":10,"byteOffset":12},{"type":"VEC2","componentType":5126,"count":100,"bufferView":10,"byteOffset":24},{"type":"VEC3","componentType":5126,"count":295,"max":[36.45768737792969,25.405147552490234,31.4624080657959],"min":[-39.047210693359375,-4.372972011566162,-35.56065368652344],"bufferView":11,"byteOffset":0},{"type":"VEC3","componentType":5126,"count":295,"bufferView":11,"byteOffset":12},{"type":"VEC2","componentType":5126,"count":295,"bufferView":11,"byteOffset":24},{"type":"VEC3","componentType":5126,"count":274,"max":[36.698997497558594,26.641353607177734,35.30512237548828],"min":[-34.598514556884766,-4.365192413330078,-31.952672958374023],"bufferView":12,"byteOffset":0},{"type":"VEC3","componentType":5126,"count":274,"bufferView":12,"byteOffset":12},{"type":"VEC2","componentType":5126,"count":274,"bufferView":12,"byteOffset":24},{"type":"VEC3","componentType":5126,"count":285,"max":[32.712379455566406,22.902013778686523,33.090579986572266],"min":[-35.29568862915039,-4.310728073120117,-31.349576950073242],"bufferView":13,"byteOffset":0},{"type":"VEC3","componentType":5126,"count":285,"bufferView":13,"byteOffset":12},{"type":"VEC2","componentType":5126,"count":285,"bufferView":13,"byteOffset":24},{"type":"VEC3","componentType":5126,"count":292,"max":[38.14622116088867,23.328201293945312,29.953693389892578],"min":[-37.04326248168945,-4.3862152099609375,-31.63968849182129],"bufferView":14,"byteOffset":0},{"type":"VEC3","componentType":5126,"count":292,"bufferView":14,"byteOffset":12},{"type":"VEC2","componentType":5126,"count":292,"bufferView":14,"byteOffset":24},{"type":"VEC3","componentType":5126,"count":291,"max":[35.998939514160156,21.008203506469727,36.12885284423828],"min":[-35.25602722167969,-4.388094902038574,-28.387929916381836],"bufferView":15,"byteOffset":0},{"type":"VEC3","componentType":5126,"count":291,"bufferView":15,"byteOffset":12},{"type":"VEC2","componentType":5126,"count":291,"bufferView":15,"byteOffset":24},{"type":"VEC3","componentType":5126,"count":271,"max":[40.12565612792969,23.50965690612793,32.284637451171875],"min":[-36.19398498535156,-4.38598108291626,-33.60567855834961],"bufferView":16,"byteOffset":0},{"type":"VEC3","componentType":5126,"count":271,"bufferView":16,"byteOffset":12},{"type":"VEC2","componentType":5126,"count":271,"bufferView":16,"byteOffset":24},{"type":"VEC3","componentType":5126,"count":266,"max":[34.4180793762207,25.03017807006836,31.745182037353516],"min":[-38.150482177734375,-4.371096134185791,-29.086023330688477],"bufferView":17,"byteOffset":0},{"type":"VEC3","componentType":5126,"count":266,"bufferView":17,"byteOffset":12},{"type":"VEC2","componentType":5126,"count":266,"bufferView":17,"byteOffset":24},{"type":"VEC3","componentType":5126,"count":292,"max":[39.86826705932617,27.25469970703125,32.480194091796875],"min":[-37.81596755981445,-4.366527080535889,-32.18377685546875],"bufferView":18,"byteOffset":0},{"type":"VEC3","componentType":5126,"count":292,"bufferView":18,"byteOffset":12},{"type":"VEC2","componentType":5126,"count":292,"bufferView":18,"byteOffset":24},{"type":"SCALAR","componentType":5126,"count":60,"max":[2],"min":[0.03333333507180214],"bufferView":19,"byteOffset":0},{"type":"VEC3","componentType":5126,"count":60,"bufferView":19,"byteOffset":240}],"bufferViews":[{"buffer":0,"byteOffset":0,"byteLength":2432,"byteStride":32,"target":34962},{"buffer":0,"byteOffset":2432,"byteLength":20232,"target":34963},{"buffer":0,"byteOffset":22664,"byteLength":2368,"byteStride":32,"target":34962},{"buffer":0,"byteOffset":25032,"byteLength":2432,"byteStride":32,"target":34962},{"buffer":0,"byteOffset":27464,"byteLength":2336,"byteStride":32,"target":34962},{"buffer":0,"byteOffset":29800,"byteLength":2464,"byteStride":32,"target":34962},{"buffer":0,"byteOffset":32264,"byteLength":2464,"byteStride":32,"target":34962},{"buffer":0,"byteOffset":34728,"byteLength":2368,"byteStride":32,"target":34962},{"buffer":0,"byteOffset":37096,"byteLength":2336,"byteStride":32,"target":34962},{"buffer":0,"byteOffset":39432,"byteLength":2336,"byteStride":32,"target":34962},{"buffer":0,"byteOffset":41768,"byteLength":3200,"byteStride":32,"target":34962},{"buffer":0,"byteOffset":44968,"byteLength":9440,"byteStride":32,"target":34962},{"buffer":0,"byteOffset":54408,"byteLength":8768,"byteStride":32,"target":34962},{"buffer":0,"byteOffset":63176,"byteLength":9120,"byteStride":32,"target":34962},{"buffer":0,"byteOffset":72296,"byteLength":9344,"byteStride":32,"target":34962},{"buffer":0,"byteOffset":81640,"byteLength":9312,"byteStride":32,"target":34962},{"buffer":0,"byteOffset":90952,"byteLength":8672,"byteStride":32,"target":34962},{"buffer":0,"byteOffset":99624,"byteLength":8512,"byteStride":32,"target":34962},{"buffer":0,"byteOffset":108136,"byteLength":9344,"byteStride":32,"target":34962},{"buffer":0,"byteOffset":117480,"byteLength":960}],"samplers":[{"magFilter":9729,"minFilter":9987,"wrapS":10497,"wrapT":10497}],"textures":[{"sampler":0,"extensions":{"EXT_texture_webp":{"source":1}}},{"sampler":0,"extensions":{"EXT_texture_webp":{"source":0}}},{"sampler":0,"extensions":{"EXT_texture_webp":{"source":2}}},{"sampler":0,"extensions":{"EXT_texture_webp":{"source":4}}},{"sampler":0,"extensions":{"EXT_texture_webp":{"source":3}}},{"sampler":0,"extensions":{"EXT_texture_webp":{"source":5}}}],"images":[{"name":"chitin2_normal","uri":"hatchery_0.webp"},{"name":"chitin2_color","uri":"hatchery_1.webp"},{"name":"chitin2_rough","uri":"hatchery_2.webp"},{"name":"organic_normal","uri":"hatchery_3.webp"},{"name":"organic_color","uri":"hatchery_4.webp"},{"name":"organic_rough","uri":"hatchery_5.webp"}],"buffers":[{"byteLength":118440,"uri":"data:application/octet-stream;base64,"}],"materials":[{"name":"egg","doubleSided":true,"pbrMetallicRoughness":{"baseColorFactor":[0.2541520893573761,0.32314321398735046,0.10224173218011856,1],"roughnessFactor":0.3499999940395355,"metallicFactor":0},"emissiveFactor":[0.02396735806180139,0.06811624202360012,0.00361543799181388]},{"name":"husk","doubleSided":true,"pbrMetallicRoughness":{"baseColorFactor":[0.0423114113509655,0.023153366521000862,0.017641954123973846,1],"metallicFactor":0.15000000596046448,"baseColorTexture":{"index":0},"metallicRoughnessTexture":{"index":2}},"normalTexture":{"index":1}},{"name":"flesh","doubleSided":true,"pbrMetallicRoughness":{"baseColorFactor":[0.06847816705703735,0.023153366521000862,0.04817182570695877,1],"metallicFactor":0.10000000149011612,"baseColorTexture":{"index":3},"metallicRoughnessTexture":{"index":5}},"normalTexture":{"index":4}}],"meshes":[{"name":"Icosphere.008","primitives":[{"attributes":{"POSITION":0,"NORMAL":1,"TEXCOORD_0":2},"mode":4,"material":0,"indices":3}]},{"name":"Icosphere.009","primitives":[{"attributes":{"POSITION":21,"NORMAL":22,"TEXCOORD_0":23},"mode":4,"material":0,"indices":4}]},{"name":"Icosphere.010","primitives":[{"attributes":{"POSITION":24,"NORMAL":25,"TEXCOORD_0":26},"mode":4,"material":0,"indices":5}]},{"name":"Icosphere.011","primitives":[{"attributes":{"POSITION":27,"NORMAL":28,"TEXCOORD_0":29},"mode":4,"material":0,"indices":6}]},{"name":"Icosphere.012","primitives":[{"attributes":{"POSITION":30,"NORMAL":31,"TEXCOORD_0":32},"mode":4,"material":0,"indices":7}]},{"name":"Icosphere.013","primitives":[{"attributes":{"POSITION":33,"NORMAL":34,"TEXCOORD_0":35},"mode":4,"material":0,"indices":8}]},{"name":"Icosphere.014","primitives":[{"attributes":{"POSITION":36,"NORMAL":37,"TEXCOORD_0":38},"mode":4,"material":0,"indices":9}]},{"name":"Icosphere.015","primitives":[{"attributes":{"POSITION":39,"NORMAL":40,"TEXCOORD_0":41},"mode":4,"material":0,"indices":10}]},{"name":"Icosphere.016","primitives":[{"attributes":{"POSITION":42,"NORMAL":43,"TEXCOORD_0":44},"mode":4,"material":0,"indices":11}]},{"name":"Cylinder","primitives":[{"attributes":{"POSITION":45,"NORMAL":46,"TEXCOORD_0":47},"mode":4,"material":1,"indices":12}]},{"name":"Icosphere","primitives":[{"attributes":{"POSITION":48,"NORMAL":49,"TEXCOORD_0":50},"mode":4,"material":2,"indices":13}]},{"name":"Icosphere.001","primitives":[{"attributes":{"POSITION":51,"NORMAL":52,"TEXCOORD_0":53},"mode":4,"material":2,"indices":14}]},{"name":"Icosphere.002","primitives":[{"attributes":{"POSITION":54,"NORMAL":55,"TEXCOORD_0":56},"mode":4,"material":2,"indices":15}]},{"name":"Icosphere.003","primitives":[{"attributes":{"POSITION":57,"NORMAL":58,"TEXCOORD_0":59},"mode":4,"material":2,"indices":16}]},{"name":"Icosphere.004","primitives":[{"attributes":{"POSITION":60,"NORMAL":61,"TEXCOORD_0":62},"mode":4,"material":2,"indices":17}]},{"name":"Icosphere.005","primitives":[{"attributes":{"POSITION":63,"NORMAL":64,"TEXCOORD_0":65},"mode":4,"material":2,"indices":18}]},{"name":"Icosphere.006","primitives":[{"attributes":{"POSITION":66,"NORMAL":67,"TEXCOORD_0":68},"mode":4,"material":2,"indices":19}]},{"name":"Icosphere.007","primitives":[{"attributes":{"POSITION":69,"NORMAL":70,"TEXCOORD_0":71},"mode":4,"material":2,"indices":20}]}],"nodes":[{"name":"egg0","translation":[18,10,0],"mesh":0},{"name":"egg1","translation":[22.981332778930664,10,-19.283628463745117],"mesh":1},{"name":"egg2","translation":[7.2932233810424805,10,-41.3619270324707],"mesh":2},{"name":"egg3","translation":[-9,10,-15.588457107543945],"mesh":3},{"name":"egg4","translation":[-28.190778732299805,10,-10.260603904724121],"mesh":4},{"name":"egg5","translation":[-39.46709060668945,10,14.364846229553223],"mesh":5},{"name":"egg6","translation":[-9,10,15.588457107543945],"mesh":6},{"name":"egg7","translation":[5.209445476531982,10,29.544233322143555],"mesh":7},{"name":"egg8","translation":[32.173866271972656,10,26.997079849243164],"mesh":8},{"name":"eggs","translation":[0,4,0],"children":[0,1,2,3,4,5,6,7,8]},{"name":"pit","translation":[0,1,0],"mesh":9},{"name":"rim0","translation":[70,6,0],"mesh":10},{"name":"rim1","translation":[49.497474670410156,6,-49.497474670410156],"mesh":11},{"name":"rim2","translation":[0,6,-70],"mesh":12},{"name":"rim3","translation":[-49.497474670410156,6,-49.497474670410156],"mesh":13},{"name":"rim4","translation":[-70,6,0],"mesh":14},{"name":"rim5","translation":[-49.497474670410156,6,49.497474670410156],"mesh":15},{"name":"rim6","translation":[0,6,70],"mesh":16},{"name":"rim7","translation":[49.497474670410156,6,49.497474670410156],"mesh":17},{"name":"root","children":[9,10,11,12,13,14,15,16,17,18]}],"animations":[{"name":"idle","samplers":[{"input":72,"output":73,"interpolation":"LINEAR"}],"channels":[{"sampler":0,"target":{"node":9,"path":"translation"}}]}],"scenes":[{"name":"Scene","nodes":[19]}],"scene":0,"extensionsUsed":["EXT_texture_webp"],"extensionsRequired":["EXT_texture_webp"]}