{"asset":{"generator":"glTF-Transform v4.5.1","version":"2.0"},"accessors":[{"type":"VEC3","componentType":5126,"count":288,"max":[46.987491607666016,42.01384735107422,45.69422149658203],"min":[-45.14317321777344,-40.07708740234375,-47.667083740234375],"bufferView":0,"byteOffset":0},{"type":"VEC3","componentType":5126,"count":288,"bufferView":0,"byteOffset":12},{"type":"VEC2","componentType":5126,"count":288,"bufferView":0,"byteOffset":24},{"type":"SCALAR","componentType":5123,"count":960,"bufferView":1,"byteOffset":0},{"type":"SCALAR","componentType":5123,"count":960,"bufferView":1,"byteOffset":1920},{"type":"SCALAR","componentType":5123,"count":960,"bufferView":1,"byteOffset":3840},{"type":"SCALAR","componentType":5123,"count":960,"bufferView":1,"byteOffset":5760},{"type":"SCALAR","componentType":5123,"count":960,"bufferView":1,"byteOffset":7680},{"type":"SCALAR","componentType":5123,"count":960,"bufferView":1,"byteOffset":9600},{"type":"SCALAR","componentType":5123,"count":960,"bufferView":1,"byteOffset":11520},{"type":"SCALAR","componentType":5123,"count":960,"bufferView":1,"byteOffset":13440},{"type":"SCALAR","componentType":5123,"count":960,"bufferView":1,"byteOffset":15360},{"type":"SCALAR","componentType":5123,"count":960,"bufferView":1,"byteOffset":17280},{"type":"SCALAR","componentType":5123,"count":3840,"bufferView":1,"byteOffset":19200},{"type":"SCALAR","componentType":5123,"count":84,"bufferView":1,"byteOffset":26880},{"type":"SCALAR","componentType":5123,"count":84,"bufferView":1,"byteOffset":27048},{"type":"SCALAR","componentType":5123,"count":84,"bufferView":1,"byteOffset":27216},{"type":"SCALAR","componentType":5123,"count":84,"bufferView":1,"byteOffset":27384},{"type":"VEC3","componentType":5126,"count":284,"max":[48.106441497802734,35.394020080566406,48.53285217285156],"min":[-51.90542221069336,-6.662034034729004,-45.97937774658203],"bufferView":2,"byteOffset":0},{"type":"VEC3","componentType":5126,"count":284,"bufferView":2,"byteOffset":12},{"type":"VEC2","componentType":5126,"count":284,"bufferView":2,"byteOffset":24},{"type":"VEC3","componentType":5126,"count":290,"max":[56.097381591796875,36.052677154541016,43.93208312988281],"min":[-54.47538375854492,-6.778696537017822,-46.404876708984375],"bufferView":3,"byteOffset":0},{"type":"VEC3","componentType":5126,"count":290,"bufferView":3,"byteOffset":12},{"type":"VEC2","componentType":5126,"count":290,"bufferView":3,"byteOffset":24},{"type":"VEC3","componentType":5126,"count":293,"max":[52.93961715698242,32.46722412109375,52.988983154296875],"min":[-51.84709930419922,-6.7816009521484375,-41.6356315612793],"bufferView":4,"byteOffset":0},{"type":"VEC3","componentType":5126,"count":293,"bufferView":4,"byteOffset":12},{"type":"VEC2","componentType":5126,"count":293,"bufferView":4,"byteOffset":24},{"type":"VEC3","componentType":5126,"count":273,"max":[59.00831985473633,36.333106994628906,47.35080337524414],"min":[-53.22644805908203,-6.778334140777588,-49.288330078125],"bufferView":5,"byteOffset":0},{"type":"VEC3","componentType":5126,"count":273,"bufferView":5,"byteOffset":12},{"type":"VEC2","componentType":5126,"count":273,"bufferView":5,"byteOffset":24},{"type":"VEC3","componentType":5126,"count":273,"max":[50.61482238769531,38.68300247192383,46.559600830078125],"min":[-56.10365295410156,-6.755330562591553,-42.65950012207031],"bufferView":6,"byteOffset":0},{"type":"VEC3","componentType":5126,"count":273,"bufferView":6,"byteOffset":12},{"type":"VEC2","componentType":5126,"count":273,"bufferView":6,"byteOffset":24},{"type":"VEC3","componentType":5126,"count":291,"max":[58.62980651855469,42.12089920043945,47.63761520385742],"min":[-55.611717224121094,-6.748269081115723,-47.20287322998047],"bufferView":7,"byteOffset":0},{"type":"VEC3","componentType":5126,"count":291,"bufferView":7,"byteOffset":12},{"type":"VEC2","componentType":5126,"count":291,"bufferView":7,"byteOffset":24},{"type":"VEC3","componentType":5126,"count":270,"max":[51.499176025390625,38.809844970703125,48.0617790222168],"min":[-53.042484283447266,-6.729165077209473,-46.51828384399414],"bufferView":8,"byteOffset":0},{"type":"VEC3","componentType":5126,"count":270,"bufferView":8,"byteOffset":12},{"type":"VEC2","componentType":5126,"count":270,"bufferView":8,"byteOffset":24},{"type":"VEC3","componentType":5126,"count":315,"max":[51.09941482543945,38.334205627441406,49.79697799682617],"min":[-59.164939880371094,-6.781994819641113,-49.559906005859375],"bufferView":9,"byteOffset":0},{"type":"VEC3","componentType":5126,"count":315,"bufferView":9,"byteOffset":12},{"type":"VEC2","componentType":5126,"count":315,"bufferView":9,"byteOffset":24},{"type":"VEC3","componentType":5126,"count":296,"max":[57.59989547729492,41.16511535644531,46.48284149169922],"min":[-56.91264724731445,-6.712589740753174,-48.42212677001953],"bufferView":10,"byteOffset":0},{"type":"VEC3","componentType":5126,"count":296,"bufferView":10,"byteOffset":12},{"type":"VEC2","componentType":5126,"count":296,"bufferView":10,"byteOffset":24},{"type":"VEC3","componentType":5126,"count":1051,"max":[213.40733337402344,126.19815826416016,165.33560180664062],"min":[-184.41806030273438,-21.71051025390625,-158.50387573242188],"bufferView":11,"byteOffset":0},{"type":"VEC3","componentType":5126,"count":1051,"bufferView":11,"byteOffset":12},{"type":"VEC2","componentType":5126,"count":1051,"bufferView":11,"byteOffset":24},{"type":"VEC3","componentType":5126,"count":40,"max":[14,62.67958068847656,14],"min":[-14,-62.67958068847656,-14],"bufferView":12,"byteOffset":0},{"type":"VEC3","componentType":5126,"count":40,"bufferView":12,"byteOffset":12},{"type":"VEC2","componentType":5126,"count":40,"bufferView":12,"byteOffset":24},{"type":"VEC3","componentType":5126,"count":40,"max":[14.000000953674316,81.1261978149414,14.000000953674316],"min":[-13.999999046325684,-81.1261978149414,-14.00000286102295],"bufferView":13,"byteOffset":0},{"type":"VEC3","componentType":5126,"count":40,"bufferView":13,"byteOffset":12},{"type":"VEC2","componentType":5126,"count":40,"bufferView":13,"byteOffset":24},{"type":"VEC3","componentType":5126,"count":40,"max":[14.000001907348633,68.12348937988281,14.000004768371582],"min":[-14.000001907348633,-68.12348937988281,-14.00000286102295],"bufferView":14,"byteOffset":0},{"type":"VEC3","componentType":5126,"count":40,"bufferView":14,"byteOffset":12},{"type":"VEC2","componentType":5126,"count":40,"bufferView":14,"byteOffset":24},{"type":"VEC3","componentType":5126,"count":40,"max":[14.000000953674316,77.32731628417969,13.999998092651367],"min":[-13.999999046325684,-77.32731628417969,-13.999998092651367],"bufferView":15,"byteOffset":0},{"type":"VEC3","componentType":5126,"count":40,"bufferView":15,"byteOffset":12},{"type":"VEC2","componentType":5126,"count":40,"bufferView":15,"byteOffset":24},{"type":"VEC3","componentType":5126,"count":40,"max":[13.999998092651367,68.51089477539062,13.999999046325684],"min":[-13.999998092651367,-68.51089477539062,-14.000000953674316],"bufferView":16,"byteOffset":0},{"type":"VEC3","componentType":5126,"count":40,"bufferView":16,"byteOffset":12},{"type":"VEC2","componentType":5126,"count":40,"bufferView":16,"byteOffset":24},{"type":"VEC3","componentType":5126,"count":40,"max":[14.000001907348633,72.2638168334961,14.000001907348633],"min":[-14.000001907348633,-72.2638168334961,-14.000001907348633],"bufferView":17,"byteOffset":0},{"type":"VEC3","componentType":5126,"count":40,"bufferView":17,"byteOffset":12},{"type":"VEC2","componentType":5126,"count":40,"bufferView":17,"byteOffset":24},{"type":"VEC3","componentType":5126,"count":40,"max":[13.999998092651367,60.43377685546875,13.99999713897705],"min":[-13.999998092651367,-60.43377685546875,-13.999999046325684],"bufferView":18,"byteOffset":0},{"type":"VEC3","componentType":5126,"count":40,"bufferView":18,"byteOffset":12},{"type":"VEC2","componentType":5126,"count":40,"bufferView":18,"byteOffset":24},{"type":"SCALAR","componentType":5126,"count":90,"max":[3],"min":[0.03333333507180214],"bufferView":19,"byteOffset":0},{"type":"VEC3","componentType":5126,"count":90,"bufferView":19,"byteOffset":360}],"bufferViews":[{"buffer":0,"byteOffset":0,"byteLength":9216,"byteStride":32,"target":34962},{"buffer":0,"byteOffset":9216,"byteLength":27552,"target":34963},{"buffer":0,"byteOffset":36768,"byteLength":9088,"byteStride":32,"target":34962},{"buffer":0,"byteOffset":45856,"byteLength":9280,"byteStride":32,"target":34962},{"buffer":0,"byteOffset":55136,"byteLength":9376,"byteStride":32,"target":34962},{"buffer":0,"byteOffset":64512,"byteLength":8736,"byteStride":32,"target":34962},{"buffer":0,"byteOffset":73248,"byteLength":8736,"byteStride":32,"target":34962},{"buffer":0,"byteOffset":81984,"byteLength":9312,"byteStride":32,"target":34962},{"buffer":0,"byteOffset":91296,"byteLength":8640,"byteStride":32,"target":34962},{"buffer":0,"byteOffset":99936,"byteLength":10080,"byteStride":32,"target":34962},{"buffer":0,"byteOffset":110016,"byteLength":9472,"byteStride":32,"target":34962},{"buffer":0,"byteOffset":119488,"byteLength":33632,"byteStride":32,"target":34962},{"buffer":0,"byteOffset":153120,"byteLength":1280,"byteStride":32,"target":34962},{"buffer":0,"byteOffset":154400,"byteLength":1280,"byteStride":32,"target":34962},{"buffer":0,"byteOffset":155680,"byteLength":1280,"byteStride":32,"target":34962},{"buffer":0,"byteOffset":156960,"byteLength":1280,"byteStride":32,"target":34962},{"buffer":0,"byteOffset":158240,"byteLength":1280,"byteStride":32,"target":34962},{"buffer":0,"byteOffset":159520,"byteLength":1280,"byteStride":32,"target":34962},{"buffer":0,"byteOffset":160800,"byteLength":1280,"byteStride":32,"target":34962},{"buffer":0,"byteOffset":162080,"byteLength":1440}],"samplers":[{"magFilter":9729,"minFilter":9987,"wrapS":10497,"wrapT":10497}],"textures":[{"sampler":0,"extensions":{"EXT_texture_webp":{"source":1}}},{"sampler":0,"extensions":{"EXT_texture_webp":{"source":0}}},{"sampler":0,"extensions":{"EXT_texture_webp":{"source":2}}},{"sampler":0,"extensions":{"EXT_texture_webp":{"source":4}}},{"sampler":0,"extensions":{"EXT_texture_webp":{"source":3}}},{"sampler":0,"extensions":{"EXT_texture_webp":{"source":5}}}],"images":[{"name":"chitin2_normal","uri":"nest_0.webp"},{"name":"chitin2_color","uri":"nest_1.webp"},{"name":"chitin2_rough","uri":"nest_2.webp"},{"name":"organic_normal","uri":"nest_3.webp"},{"name":"organic_color","uri":"nest_4.webp"},{"name":"organic_rough","uri":"nest_5.webp"}],"buffers":[{"byteLength":163520,"uri":"data:application/octet-stream;base64,"}],"materials":[{"name":"core","doubleSided":true,"pbrMetallicRoughness":{"baseColorFactor":[0.15896083414554596,0.4793201684951782,0.0423114113509655,1],"roughnessFactor":0.30000001192092896,"metallicFactor":0},"emissiveFactor":[0.09201755652447385,0.3907382712565983,0.01299945891856924]},{"name":"husk","doubleSided":true,"pbrMetallicRoughness":{"baseColorFactor":[0.0423114113509655,0.023153366521000862,0.017641954123973846,1],"metallicFactor":0.15000000596046448,"baseColorTexture":{"index":0},"metallicRoughnessTexture":{"index":2}},"normalTexture":{"index":1}},{"name":"flesh","doubleSided":true,"pbrMetallicRoughness":{"baseColorFactor":[0.06847816705703735,0.023153366521000862,0.04817182570695877,1],"metallicFactor":0.10000000149011612,"baseColorTexture":{"index":3},"metallicRoughnessTexture":{"index":5}},"normalTexture":{"index":4}},{"name":"spine","doubleSided":true,"pbrMetallicRoughness":{"baseColorFactor":[0.577580451965332,0.4793201684951782,0.3049873113632202,1],"metallicFactor":0.10000000149011612,"baseColorTexture":{"index":0},"metallicRoughnessTexture":{"index":2}},"normalTexture":{"index":1}}],"meshes":[{"name":"Icosphere.010","primitives":[{"attributes":{"POSITION":0,"NORMAL":1,"TEXCOORD_0":2},"mode":4,"material":0,"indices":3}]},{"name":"Icosphere.001","primitives":[{"attributes":{"POSITION":18,"NORMAL":19,"TEXCOORD_0":20},"mode":4,"material":1,"indices":4}]},{"name":"Icosphere.002","primitives":[{"attributes":{"POSITION":21,"NORMAL":22,"TEXCOORD_0":23},"mode":4,"material":1,"indices":5}]},{"name":"Icosphere.003","primitives":[{"attributes":{"POSITION":24,"NORMAL":25,"TEXCOORD_0":26},"mode":4,"material":1,"indices":6}]},{"name":"Icosphere.004","primitives":[{"attributes":{"POSITION":27,"NORMAL":28,"TEXCOORD_0":29},"mode":4,"material":1,"indices":7}]},{"name":"Icosphere.005","primitives":[{"attributes":{"POSITION":30,"NORMAL":31,"TEXCOORD_0":32},"mode":4,"material":1,"indices":8}]},{"name":"Icosphere.006","primitives":[{"attributes":{"POSITION":33,"NORMAL":34,"TEXCOORD_0":35},"mode":4,"material":1,"indices":9}]},{"name":"Icosphere.007","primitives":[{"attributes":{"POSITION":36,"NORMAL":37,"TEXCOORD_0":38},"mode":4,"material":1,"indices":10}]},{"name":"Icosphere.008","primitives":[{"attributes":{"POSITION":39,"NORMAL":40,"TEXCOORD_0":41},"mode":4,"material":1,"indices":11}]},{"name":"Icosphere.009","primitives":[{"attributes":{"POSITION":42,"NORMAL":43,"TEXCOORD_0":44},"mode":4,"material":1,"indices":12}]},{"name":"Icosphere","primitives":[{"attributes":{"POSITION":45,"NORMAL":46,"TEXCOORD_0":47},"mode":4,"material":2,"indices":13}]},{"name":"Cone","primitives":[{"attributes":{"POSITION":48,"NORMAL":49,"TEXCOORD_0":50},"mode":4,"material":3,"indices":14}]},{"name":"Cone.001","primitives":[{"attributes":{"POSITION":51,"NORMAL":52,"TEXCOORD_0":53},"mode":4,"material":3,"indices":15}]},{"name":"Cone.002","primitives":[{"attributes":{"POSITION":54,"NORMAL":55,"TEXCOORD_0":56},"mode":4,"material":3,"indices":16}]},{"name":"Cone.003","primitives":[{"attributes":{"POSITION":57,"NORMAL":58,"TEXCOORD_0":59},"mode":4,"material":3,"indices":16}]},{"name":"Cone.004","primitives":[{"attributes":{"POSITION":60,"NORMAL":61,"TEXCOORD_0":62},"mode":4,"material":3,"indices":16}]},{"name":"Cone.005","primitives":[{"attributes":{"POSITION":63,"NORMAL":64,"TEXCOORD_0":65},"mode":4,"material":3,"indices":17}]},{"name":"Cone.006","primitives":[{"attributes":{"POSITION":66,"NORMAL":67,"TEXCOORD_0":68},"mode":4,"material":3,"indices":17}]}],"nodes":[{"name":"coreorb","mesh":0},{"name":"core","translation":[20,100,0],"children":[0]},{"name":"lobe0","translation":[129.51858520507812,8,0],"mesh":1},{"name":"lobe1","translation":[108.60148620605469,8,-71.07942199707031],"mesh":2},{"name":"lobe2","translation":[23.40746307373047,8,-103.54524993896484],"mesh":3},{"name":"lobe3","translation":[-72.07839965820312,8,-97.37789154052734],"mesh":4},{"name":"lobe4","translation":[-136.28250122070312,8,-38.69016647338867],"mesh":5},{"name":"lobe5","translation":[-115.2261962890625,8,32.712345123291016],"mesh":6},{"name":"lobe6","translation":[-60.26335906982422,8,81.41577911376953],"mesh":7},{"name":"lobe7","translation":[26.654781341552734,8,117.91007995605469],"mesh":8},{"name":"lobe8","translation":[99.87239837646484,8,65.36625671386719],"mesh":9},{"name":"mound","translation":[0,10,0],"mesh":10},{"name":"spire0","translation":[115,120.8582763671875,0],"rotation":[0,0,-0.12053502351045609,0.9927091598510742],"mesh":11},{"name":"spire1","translation":[71.70132446289062,139.89111328125,-71.53758239746094],"rotation":[-0.06530032306909561,0,-0.057861391454935074,0.9961867332458496],"mesh":12},{"name":"spire2","translation":[-25.589908599853516,126.75658416748047,-89.20590209960938],"rotation":[-0.09708879142999649,0,0.024622084572911263,0.9949711561203003],"mesh":13},{"name":"spire3","translation":[-103.61141967773438,135.91152954101562,-39.70036315917969],"rotation":[-0.03804882615804672,0,0.08778800070285797,0.9954122304916382],"mesh":14},{"name":"spire4","translation":[-103.61141967773438,126.90882873535156,39.70036315917969],"rotation":[0.04300030320882797,0,0.09921227395534515,0.9941368103027344],"mesh":15},{"name":"spire5","translation":[-25.589908599853516,130.97669982910156,89.20590209960938],"rotation":[0.09147404879331589,0,0.023198166862130165,0.9955372214317322],"mesh":16},{"name":"spire6","translation":[71.70132446289062,118.76541137695312,71.53758239746094],"rotation":[0.08793370425701141,0,-0.07791642844676971,0.9930744171142578],"mesh":17},{"name":"root","children":[1,2,3,4,5,6,7,8,9,10,11,12,13,14,15,16,17,18]}],"animations":[{"name":"idle","samplers":[{"input":69,"output":70,"interpolation":"LINEAR"}],"channels":[{"sampler":0,"target":{"node":1,"path":"translation"}}]}],"scenes":[{"name":"Scene","nodes":[19]}],"scene":0,"extensionsUsed":["EXT_texture_webp"],"extensionsRequired":["EXT_texture_webp"]}