{"asset":{"generator":"glTF-Transform v4.5.1","version":"2.0"},"accessors":[{"type":"VEC3","componentType":5126,"count":96,"max":[20,5,3],"min":[-20,-5,-3],"bufferView":0,"byteOffset":0},{"type":"VEC3","componentType":5126,"count":96,"bufferView":0,"byteOffset":12},{"type":"VEC2","componentType":5126,"count":96,"bufferView":0,"byteOffset":24},{"type":"SCALAR","componentType":5123,"count":132,"bufferView":1,"byteOffset":0},{"type":"SCALAR","componentType":5123,"count":60,"bufferView":1,"byteOffset":264},{"type":"SCALAR","componentType":5123,"count":60,"bufferView":1,"byteOffset":384},{"type":"VEC2","componentType":5126,"count":96,"bufferView":2,"byteOffset":0},{"type":"VEC2","componentType":5126,"count":96,"bufferView":3,"byteOffset":0},{"type":"VEC2","componentType":5126,"count":96,"bufferView":4,"byteOffset":0},{"type":"VEC2","componentType":5126,"count":96,"bufferView":5,"byteOffset":0},{"type":"VEC3","componentType":5126,"count":96,"max":[20,5,3],"min":[-20,-5,-3],"bufferView":6,"byteOffset":0},{"type":"VEC2","componentType":5126,"count":96,"bufferView":6,"byteOffset":12},{"type":"VEC3","componentType":5126,"count":96,"max":[12,7,0.5],"min":[-12,-7,-0.5],"bufferView":7,"byteOffset":0},{"type":"VEC2","componentType":5126,"count":96,"bufferView":7,"byteOffset":12},{"type":"VEC3","componentType":5126,"count":32,"max":[1.299038052558899,35,1.5],"min":[-1.299038052558899,-35,-1.5],"bufferView":8,"byteOffset":0},{"type":"VEC3","componentType":5126,"count":32,"bufferView":8,"byteOffset":12},{"type":"VEC2","componentType":5126,"count":32,"bufferView":8,"byteOffset":24},{"type":"VEC3","componentType":5126,"count":32,"max":[51.961524963378906,3,60],"min":[-51.961524963378906,-3,-60],"bufferView":9,"byteOffset":0},{"type":"VEC2","componentType":5126,"count":32,"bufferView":9,"byteOffset":12},{"type":"SCALAR","componentType":5126,"count":60,"max":[2],"min":[0.03333333507180214],"bufferView":10,"byteOffset":0},{"type":"VEC4","componentType":5126,"count":60,"bufferView":10,"byteOffset":240}],"bufferViews":[{"buffer":0,"byteOffset":0,"byteLength":3072,"byteStride":32,"target":34962},{"buffer":0,"byteOffset":3072,"byteLength":504,"target":34963},{"buffer":0,"byteOffset":3576,"byteLength":768,"byteStride":8,"target":34962},{"buffer":0,"byteOffset":4344,"byteLength":768,"byteStride":8,"target":34962},{"buffer":0,"byteOffset":5112,"byteLength":768,"byteStride":8,"target":34962},{"buffer":0,"byteOffset":5880,"byteLength":768,"byteStride":8,"target":34962},{"buffer":0,"byteOffset":6648,"byteLength":1920,"byteStride":20,"target":34962},{"buffer":0,"byteOffset":8568,"byteLength":1920,"byteStride":20,"target":34962},{"buffer":0,"byteOffset":10488,"byteLength":1024,"byteStride":32,"target":34962},{"buffer":0,"byteOffset":11512,"byteLength":640,"byteStride":20,"target":34962},{"buffer":0,"byteOffset":12152,"byteLength":1200}],"samplers":[{"magFilter":9729,"minFilter":9987,"wrapS":10497,"wrapT":10497}],"textures":[{"sampler":0,"extensions":{"EXT_texture_webp":{"source":1}}},{"sampler":0,"extensions":{"EXT_texture_webp":{"source":0}}},{"sampler":0,"extensions":{"EXT_texture_webp":{"source":2}}},{"sampler":0,"extensions":{"EXT_texture_webp":{"source":4}}},{"sampler":0,"extensions":{"EXT_texture_webp":{"source":3}}},{"sampler":0,"extensions":{"EXT_texture_webp":{"source":5}}},{"sampler":0,"extensions":{"EXT_texture_webp":{"source":7}}},{"sampler":0,"extensions":{"EXT_texture_webp":{"source":6}}},{"sampler":0,"extensions":{"EXT_texture_webp":{"source":8}}}],"images":[{"name":"concrete_normal","uri":"outpost_0.webp"},{"name":"concrete_color","uri":"outpost_1.webp"},{"name":"concrete_rough","uri":"outpost_2.webp"},{"name":"paint_normal","uri":"outpost_3.webp"},{"name":"paint_color","uri":"outpost_4.webp"},{"name":"paint_rough","uri":"outpost_5.webp"},{"name":"panels2_normal","uri":"outpost_6.webp"},{"name":"panels2_color","uri":"outpost_7.webp"},{"name":"panels2_rough","uri":"outpost_8.webp"}],"buffers":[{"byteLength":13352,"uri":"data:application/octet-stream;base64,"}],"materials":[{"name":"concrete","doubleSided":true,"pbrMetallicRoughness":{"baseColorFactor":[0.2541520893573761,0.24228112399578094,0.2158605009317398,1],"metallicFactor":0,"baseColorTexture":{"index":0},"metallicRoughnessTexture":{"index":2}},"normalTexture":{"index":1}},{"name":"hazard","doubleSided":true,"pbrMetallicRoughness":{"baseColorFactor":[0.5840784311294556,0.32314321398735046,0.027320891618728638,1],"metallicFactor":0.30000001192092896,"baseColorTexture":{"index":3},"metallicRoughnessTexture":{"index":5}},"normalTexture":{"index":4}},{"name":"steel","doubleSided":true,"pbrMetallicRoughness":{"baseColorFactor":[0.1441284716129303,0.15896083414554596,0.177888423204422,1],"metallicFactor":0.699999988079071,"baseColorTexture":{"index":6},"metallicRoughnessTexture":{"index":8}},"normalTexture":{"index":7}}],"meshes":[{"name":"Cube","primitives":[{"attributes":{"POSITION":0,"NORMAL":1,"TEXCOORD_0":2},"mode":4,"material":0,"indices":3}]},{"name":"Cube.001","primitives":[{"attributes":{"TEXCOORD_0":6,"POSITION":0,"NORMAL":1},"mode":4,"material":0,"indices":3}]},{"name":"Cube.002","primitives":[{"attributes":{"TEXCOORD_0":7,"POSITION":0,"NORMAL":1},"mode":4,"material":0,"indices":3}]},{"name":"Cube.003","primitives":[{"attributes":{"TEXCOORD_0":8,"POSITION":0,"NORMAL":1},"mode":4,"material":0,"indices":3}]},{"name":"Cube.004","primitives":[{"attributes":{"TEXCOORD_0":9,"POSITION":0,"NORMAL":1},"mode":4,"material":0,"indices":3}]},{"name":"Cube.005","primitives":[{"attributes":{"POSITION":10,"TEXCOORD_0":11,"NORMAL":1},"mode":4,"material":0,"indices":3}]},{"name":"Cube.006","primitives":[{"attributes":{"POSITION":12,"TEXCOORD_0":13,"NORMAL":1},"mode":4,"material":1,"indices":3}]},{"name":"Cylinder.001","primitives":[{"attributes":{"POSITION":14,"NORMAL":15,"TEXCOORD_0":16},"mode":4,"material":2,"indices":4}]},{"name":"Cylinder","primitives":[{"attributes":{"POSITION":17,"TEXCOORD_0":18,"NORMAL":15},"mode":4,"material":0,"indices":5}]}],"nodes":[{"name":"barrier0","translation":[45.033321380615234,11,-26],"rotation":[0,0.8660253882408142,0,0.4999999701976776],"mesh":0},{"name":"barrier1","translation":[0,11,-52],"rotation":[0,-1,0,4.371138828673793e-08],"mesh":1},{"name":"barrier2","translation":[-45.033321380615234,11,-26],"rotation":[0,-0.8660253882408142,0,0.5],"mesh":2},{"name":"barrier3","translation":[-45.033321380615234,11,26],"rotation":[0,-0.5,0,0.8660253882408142],"mesh":3},{"name":"barrier4","translation":[0,11,52],"mesh":4},{"name":"barrier5","translation":[45.033321380615234,11,26],"rotation":[0,0.4999999701976776,0,0.8660253882408142],"mesh":5},{"name":"flagm","translation":[12,-2,0],"mesh":6},{"name":"flag","translation":[30,72,30],"children":[6]},{"name":"mast","translation":[30,41,30],"mesh":7},{"name":"platform","translation":[0,3,0],"mesh":8},{"name":"root","children":[0,1,2,3,4,5,7,8,9]}],"animations":[{"name":"idle","samplers":[{"input":19,"output":20,"interpolation":"LINEAR"}],"channels":[{"sampler":0,"target":{"node":7,"path":"rotation"}}]}],"scenes":[{"name":"Scene","nodes":[10]}],"scene":0,"extensionsUsed":["EXT_texture_webp"],"extensionsRequired":["EXT_texture_webp"]}