{"asset":{"generator":"glTF-Transform v4.5.1","version":"2.0"},"accessors":[{"type":"VEC3","componentType":5126,"count":96,"max":[40,6,40],"min":[-40,-6,-40],"bufferView":0,"byteOffset":0},{"type":"VEC3","componentType":5126,"count":96,"bufferView":0,"byteOffset":12},{"type":"VEC2","componentType":5126,"count":96,"bufferView":0,"byteOffset":24},{"type":"SCALAR","componentType":5123,"count":132,"bufferView":1,"byteOffset":0},{"type":"SCALAR","componentType":5123,"count":276,"bufferView":1,"byteOffset":264},{"type":"SCALAR","componentType":5123,"count":108,"bufferView":1,"byteOffset":816},{"type":"SCALAR","componentType":5123,"count":108,"bufferView":1,"byteOffset":1032},{"type":"SCALAR","componentType":5123,"count":276,"bufferView":1,"byteOffset":1248},{"type":"SCALAR","componentType":5123,"count":108,"bufferView":1,"byteOffset":1800},{"type":"SCALAR","componentType":5123,"count":108,"bufferView":1,"byteOffset":2016},{"type":"VEC3","componentType":5126,"count":96,"max":[33,3,33],"min":[-33,-3,-33],"bufferView":2,"byteOffset":0},{"type":"VEC2","componentType":5126,"count":96,"bufferView":2,"byteOffset":12},{"type":"VEC3","componentType":5126,"count":96,"max":[5,3.5,5],"min":[-5,-3.5,-5],"bufferView":3,"byteOffset":0},{"type":"VEC2","componentType":5126,"count":96,"bufferView":3,"byteOffset":12},{"type":"VEC2","componentType":5126,"count":96,"bufferView":4,"byteOffset":0},{"type":"VEC2","componentType":5126,"count":96,"bufferView":5,"byteOffset":0},{"type":"VEC2","componentType":5126,"count":96,"bufferView":6,"byteOffset":0},{"type":"VEC3","componentType":5126,"count":100,"max":[24,3,24],"min":[-24,-3,-24],"bufferView":7,"byteOffset":0},{"type":"VEC3","componentType":5126,"count":100,"bufferView":7,"byteOffset":12},{"type":"VEC2","componentType":5126,"count":100,"bufferView":7,"byteOffset":24},{"type":"VEC3","componentType":5126,"count":48,"max":[2.0923244953155518,17,2.200000047683716],"min":[-2.0923244953155518,-17,-2.200000047683716],"bufferView":8,"byteOffset":0},{"type":"VEC3","componentType":5126,"count":48,"bufferView":8,"byteOffset":12},{"type":"VEC2","componentType":5126,"count":48,"bufferView":8,"byteOffset":24},{"type":"VEC2","componentType":5126,"count":48,"bufferView":9,"byteOffset":0},{"type":"VEC3","componentType":5126,"count":100,"max":[20,6,20],"min":[-20,-6,-20],"bufferView":10,"byteOffset":0},{"type":"VEC3","componentType":5126,"count":100,"bufferView":10,"byteOffset":12},{"type":"VEC2","componentType":5126,"count":100,"bufferView":10,"byteOffset":24},{"type":"VEC3","componentType":5126,"count":96,"max":[7,6,11],"min":[-7,-6,-11],"bufferView":11,"byteOffset":0},{"type":"VEC2","componentType":5126,"count":96,"bufferView":11,"byteOffset":12},{"type":"VEC3","componentType":5126,"count":48,"max":[2.8531696796417236,2,3],"min":[-2.8531696796417236,-2,-3],"bufferView":12,"byteOffset":0},{"type":"VEC2","componentType":5126,"count":48,"bufferView":12,"byteOffset":12},{"type":"VEC2","componentType":5126,"count":48,"bufferView":13,"byteOffset":0},{"type":"VEC3","componentType":5126,"count":96,"max":[2,1.5,5],"min":[-2,-1.5,-5],"bufferView":14,"byteOffset":0},{"type":"VEC3","componentType":5126,"count":96,"bufferView":14,"byteOffset":12},{"type":"VEC2","componentType":5126,"count":96,"bufferView":14,"byteOffset":24}],"bufferViews":[{"buffer":0,"byteOffset":0,"byteLength":3072,"byteStride":32,"target":34962},{"buffer":0,"byteOffset":3072,"byteLength":2232,"target":34963},{"buffer":0,"byteOffset":5304,"byteLength":1920,"byteStride":20,"target":34962},{"buffer":0,"byteOffset":7224,"byteLength":1920,"byteStride":20,"target":34962},{"buffer":0,"byteOffset":9144,"byteLength":768,"byteStride":8,"target":34962},{"buffer":0,"byteOffset":9912,"byteLength":768,"byteStride":8,"target":34962},{"buffer":0,"byteOffset":10680,"byteLength":768,"byteStride":8,"target":34962},{"buffer":0,"byteOffset":11448,"byteLength":3200,"byteStride":32,"target":34962},{"buffer":0,"byteOffset":14648,"byteLength":1536,"byteStride":32,"target":34962},{"buffer":0,"byteOffset":16184,"byteLength":384,"byteStride":8,"target":34962},{"buffer":0,"byteOffset":16568,"byteLength":3200,"byteStride":32,"target":34962},{"buffer":0,"byteOffset":19768,"byteLength":1920,"byteStride":20,"target":34962},{"buffer":0,"byteOffset":21688,"byteLength":960,"byteStride":20,"target":34962},{"buffer":0,"byteOffset":22648,"byteLength":384,"byteStride":8,"target":34962},{"buffer":0,"byteOffset":23032,"byteLength":3072,"byteStride":32,"target":34962}],"samplers":[{"magFilter":9729,"minFilter":9987,"wrapS":10497,"wrapT":10497}],"textures":[{"sampler":0,"extensions":{"EXT_texture_webp":{"source":1}}},{"sampler":0,"extensions":{"EXT_texture_webp":{"source":0}}},{"sampler":0,"extensions":{"EXT_texture_webp":{"source":2}}},{"sampler":0,"extensions":{"EXT_texture_webp":{"source":4}}},{"sampler":0,"extensions":{"EXT_texture_webp":{"source":3}}},{"sampler":0,"extensions":{"EXT_texture_webp":{"source":5}}},{"sampler":0,"extensions":{"EXT_texture_webp":{"source":7}}},{"sampler":0,"extensions":{"EXT_texture_webp":{"source":6}}},{"sampler":0,"extensions":{"EXT_texture_webp":{"source":8}}}],"images":[{"name":"concrete_normal","uri":"tower_0.webp"},{"name":"concrete_color","uri":"tower_1.webp"},{"name":"concrete_rough","uri":"tower_2.webp"},{"name":"paintworn_normal","uri":"tower_3.webp"},{"name":"paintworn_color","uri":"tower_4.webp"},{"name":"paintworn_rough","uri":"tower_5.webp"},{"name":"paint_normal","uri":"tower_6.webp"},{"name":"paint_color","uri":"tower_7.webp"},{"name":"paint_rough","uri":"tower_8.webp"}],"buffers":[{"byteLength":26104,"uri":"data:application/octet-stream;base64,"}],"materials":[{"name":"dark","doubleSided":true,"pbrMetallicRoughness":{"baseColorFactor":[0.09084171056747437,0.09989872574806213,0.1119324266910553,1],"metallicFactor":0.6000000238418579,"baseColorTexture":{"index":0},"metallicRoughnessTexture":{"index":2}},"normalTexture":{"index":1}},{"name":"armor","doubleSided":true,"pbrMetallicRoughness":{"baseColorFactor":[0.15592646598815918,0.18116424977779388,0.2015562504529953,1],"metallicFactor":0.44999998807907104,"baseColorTexture":{"index":3},"metallicRoughnessTexture":{"index":5}},"normalTexture":{"index":4}},{"name":"hazard","doubleSided":true,"pbrMetallicRoughness":{"baseColorFactor":[0.5840784311294556,0.32314321398735046,0.027320891618728638,1],"metallicFactor":0.30000001192092896,"baseColorTexture":{"index":6},"metallicRoughnessTexture":{"index":8}},"normalTexture":{"index":7}},{"name":"blue","doubleSided":true,"pbrMetallicRoughness":{"baseColorFactor":[0.06847816705703735,0.13286831974983215,0.2158605009317398,1],"metallicFactor":0.44999998807907104,"baseColorTexture":{"index":3},"metallicRoughnessTexture":{"index":5}},"normalTexture":{"index":4}},{"name":"glass","doubleSided":true,"pbrMetallicRoughness":{"baseColorFactor":[0.34670406579971313,0.7681511640548706,1,1],"roughnessFactor":0.15000000596046448,"metallicFactor":0},"emissiveFactor":[0.15896083414554596,0.577580451965332,1],"extensions":{"KHR_materials_emissive_strength":{"emissiveStrength":2.5}}}],"meshes":[{"name":"Cube","primitives":[{"attributes":{"POSITION":0,"NORMAL":1,"TEXCOORD_0":2},"mode":4,"material":0,"indices":3}]},{"name":"Cube.001","primitives":[{"attributes":{"POSITION":10,"TEXCOORD_0":11,"NORMAL":1},"mode":4,"material":1,"indices":3}]},{"name":"Cube.002","primitives":[{"attributes":{"POSITION":12,"TEXCOORD_0":13,"NORMAL":1},"mode":4,"material":2,"indices":3}]},{"name":"Cube.003","primitives":[{"attributes":{"TEXCOORD_0":14,"POSITION":12,"NORMAL":1},"mode":4,"material":2,"indices":3}]},{"name":"Cube.004","primitives":[{"attributes":{"TEXCOORD_0":15,"POSITION":12,"NORMAL":1},"mode":4,"material":2,"indices":3}]},{"name":"Cube.005","primitives":[{"attributes":{"TEXCOORD_0":16,"POSITION":12,"NORMAL":1},"mode":4,"material":2,"indices":3}]},{"name":"Cylinder","primitives":[{"attributes":{"POSITION":17,"NORMAL":18,"TEXCOORD_0":19},"mode":4,"material":0,"indices":4}]},{"name":"Cylinder.001","primitives":[{"attributes":{"POSITION":20,"NORMAL":21,"TEXCOORD_0":22},"mode":4,"material":0,"indices":5}]},{"name":"Cylinder.003","primitives":[{"attributes":{"TEXCOORD_0":23,"POSITION":20,"NORMAL":21},"mode":4,"material":0,"indices":6}]},{"name":"Cone","primitives":[{"attributes":{"POSITION":24,"NORMAL":25,"TEXCOORD_0":26},"mode":4,"material":3,"indices":7}]},{"name":"Cube.006","primitives":[{"attributes":{"POSITION":27,"TEXCOORD_0":28,"NORMAL":1},"mode":4,"material":1,"indices":3}]},{"name":"Cylinder.002","primitives":[{"attributes":{"POSITION":29,"TEXCOORD_0":30,"NORMAL":21},"mode":4,"material":1,"indices":8}]},{"name":"Cylinder.004","primitives":[{"attributes":{"TEXCOORD_0":31,"POSITION":29,"NORMAL":21},"mode":4,"material":1,"indices":9}]},{"name":"Cube.007","primitives":[{"attributes":{"POSITION":32,"NORMAL":33,"TEXCOORD_0":34},"mode":4,"material":4,"indices":3}]}],"nodes":[{"name":"base","translation":[0,6,0],"mesh":0},{"name":"base_top","translation":[0,14,0],"mesh":1},{"name":"corner","translation":[-34,15,34],"mesh":2},{"name":"corner.001","translation":[34,15,34],"mesh":3},{"name":"corner.002","translation":[-34,15,-34],"mesh":4},{"name":"corner.003","translation":[34,15,-34],"mesh":5},{"name":"ring","translation":[0,19,0],"mesh":6},{"name":"barrel1","translation":[34,7,-6],"rotation":[0,0,-0.7071068286895752,0.7071068286895752],"mesh":7},{"name":"barrel-1","translation":[34,7,6],"rotation":[0,0,-0.7071068286895752,0.7071068286895752],"mesh":8},{"name":"dome","translation":[0,6,0],"mesh":9},{"name":"mantlet","translation":[14,7,0],"mesh":10},{"name":"muzzle1","translation":[50,7,-6],"rotation":[0,0,-0.7071068286895752,0.7071068286895752],"mesh":11},{"name":"muzzle-1","translation":[50,7,6],"rotation":[0,0,-0.7071068286895752,0.7071068286895752],"mesh":12},{"name":"sensor","translation":[8,13.5,0],"mesh":13},{"name":"turret_head","translation":[0,22,0],"children":[7,8,9,10,11,12,13]},{"name":"root","children":[0,1,2,3,4,5,6,14]}],"scenes":[{"name":"Scene","nodes":[15]}],"scene":0,"extensionsUsed":["EXT_texture_webp","KHR_materials_emissive_strength"],"extensionsRequired":["EXT_texture_webp"]}