{"asset":{"generator":"glTF-Transform v4.5.1","version":"2.0"},"accessors":[{"type":"VEC3","componentType":5126,"count":148,"max":[7.7994232177734375,4.400000095367432,6.499999046325684],"min":[-7.799422740936279,-4.400000095367432,-6.5],"bufferView":0,"byteOffset":0},{"type":"VEC3","componentType":5126,"count":148,"bufferView":0,"byteOffset":12},{"type":"VEC2","componentType":5126,"count":148,"bufferView":0,"byteOffset":24},{"type":"SCALAR","componentType":5123,"count":588,"bufferView":1,"byteOffset":0},{"type":"SCALAR","componentType":5123,"count":108,"bufferView":1,"byteOffset":1176},{"type":"SCALAR","componentType":5123,"count":108,"bufferView":1,"byteOffset":1392},{"type":"SCALAR","componentType":5123,"count":360,"bufferView":1,"byteOffset":1608},{"type":"SCALAR","componentType":5123,"count":60,"bufferView":1,"byteOffset":2328},{"type":"SCALAR","componentType":5123,"count":60,"bufferView":1,"byteOffset":2448},{"type":"SCALAR","componentType":5123,"count":72,"bufferView":1,"byteOffset":2568},{"type":"SCALAR","componentType":5123,"count":72,"bufferView":1,"byteOffset":2712},{"type":"SCALAR","componentType":5123,"count":72,"bufferView":1,"byteOffset":2856},{"type":"SCALAR","componentType":5123,"count":72,"bufferView":1,"byteOffset":3000},{"type":"SCALAR","componentType":5123,"count":72,"bufferView":1,"byteOffset":3144},{"type":"SCALAR","componentType":5123,"count":72,"bufferView":1,"byteOffset":3288},{"type":"SCALAR","componentType":5123,"count":72,"bufferView":1,"byteOffset":3432},{"type":"SCALAR","componentType":5123,"count":300,"bufferView":1,"byteOffset":3576},{"type":"SCALAR","componentType":5123,"count":300,"bufferView":1,"byteOffset":4176},{"type":"SCALAR","componentType":5123,"count":300,"bufferView":1,"byteOffset":4776},{"type":"SCALAR","componentType":5123,"count":432,"bufferView":1,"byteOffset":5376},{"type":"VEC3","componentType":5126,"count":44,"max":[0.5196152925491333,0.6000000238418579,0.6000000238418579],"min":[-0.5196153521537781,-0.6000000238418579,-0.6000000238418579],"bufferView":2,"byteOffset":0},{"type":"VEC3","componentType":5126,"count":44,"bufferView":2,"byteOffset":12},{"type":"VEC2","componentType":5126,"count":44,"bufferView":2,"byteOffset":24},{"type":"VEC2","componentType":5126,"count":44,"bufferView":3,"byteOffset":0},{"type":"VEC3","componentType":5126,"count":98,"max":[2.5961921215057373,2.4000000953674316,3.119769334793091],"min":[-2.5961921215057373,-2.4000000953674316,-3.119769334793091],"bufferView":4,"byteOffset":0},{"type":"VEC3","componentType":5126,"count":98,"bufferView":4,"byteOffset":12},{"type":"VEC2","componentType":5126,"count":98,"bufferView":4,"byteOffset":24},{"type":"VEC3","componentType":5126,"count":32,"max":[0.6062177419662476,2.5,0.699999988079071],"min":[-0.6062177419662476,-2.5,-0.699999988079071],"bufferView":5,"byteOffset":0},{"type":"VEC3","componentType":5126,"count":32,"bufferView":5,"byteOffset":12},{"type":"VEC2","componentType":5126,"count":32,"bufferView":5,"byteOffset":24},{"type":"VEC3","componentType":5126,"count":32,"max":[0.6062177419662476,2.5,0.699999988079071],"min":[-0.6062177419662476,-2.5,-0.699999988079071],"bufferView":6,"byteOffset":0},{"type":"VEC2","componentType":5126,"count":32,"bufferView":6,"byteOffset":12},{"type":"VEC3","componentType":5126,"count":36,"max":[0.7311960458755493,2.8791704177856445,0.6757267713546753],"min":[-0.7311960458755493,-2.8791704177856445,-0.7500001788139343],"bufferView":7,"byteOffset":0},{"type":"VEC3","componentType":5126,"count":36,"bufferView":7,"byteOffset":12},{"type":"VEC2","componentType":5126,"count":36,"bufferView":7,"byteOffset":24},{"type":"VEC3","componentType":5126,"count":36,"max":[0.5849569439888,4.3153581619262695,0.540581226348877],"min":[-0.5849565863609314,-4.3153581619262695,-0.6000001430511475],"bufferView":8,"byteOffset":0},{"type":"VEC3","componentType":5126,"count":36,"bufferView":8,"byteOffset":12},{"type":"VEC2","componentType":5126,"count":36,"bufferView":8,"byteOffset":24},{"type":"VEC3","componentType":5126,"count":36,"max":[0.7311960458755493,2.8791704177856445,0.6757267713546753],"min":[-0.7311960458755493,-2.8791704177856445,-0.7500001788139343],"bufferView":9,"byteOffset":0},{"type":"VEC2","componentType":5126,"count":36,"bufferView":9,"byteOffset":12},{"type":"VEC3","componentType":5126,"count":36,"max":[0.5849569439888,4.3153581619262695,0.540581464767456],"min":[-0.5849565863609314,-4.3153581619262695,-0.5999999046325684],"bufferView":10,"byteOffset":0},{"type":"VEC2","componentType":5126,"count":36,"bufferView":10,"byteOffset":12},{"type":"VEC3","componentType":5126,"count":36,"max":[0.7311959266662598,2.7464747428894043,0.6757266521453857],"min":[-0.7311959266662598,-2.7464747428894043,-0.7499999403953552],"bufferView":11,"byteOffset":0},{"type":"VEC2","componentType":5126,"count":36,"bufferView":11,"byteOffset":12},{"type":"VEC3","componentType":5126,"count":36,"max":[0.5849567651748657,4.195980072021484,0.5405813455581665],"min":[-0.5849567651748657,-4.195980072021484,-0.6000000238418579],"bufferView":12,"byteOffset":0},{"type":"VEC3","componentType":5126,"count":36,"bufferView":12,"byteOffset":12},{"type":"VEC2","componentType":5126,"count":36,"bufferView":12,"byteOffset":24},{"type":"VEC3","componentType":5126,"count":36,"max":[0.7311959266662598,2.7464747428894043,0.6757266521453857],"min":[-0.7311959266662598,-2.7464747428894043,-0.7499999403953552],"bufferView":13,"byteOffset":0},{"type":"VEC2","componentType":5126,"count":36,"bufferView":13,"byteOffset":12},{"type":"VEC2","componentType":5126,"count":36,"bufferView":14,"byteOffset":0},{"type":"VEC3","componentType":5126,"count":36,"max":[0.7311959862709045,2.8791701793670654,0.6757268309593201],"min":[-0.7311959862709045,-2.8791701793670654,-0.7500001788139343],"bufferView":15,"byteOffset":0},{"type":"VEC2","componentType":5126,"count":36,"bufferView":15,"byteOffset":12},{"type":"VEC3","componentType":5126,"count":36,"max":[0.5849565863609314,4.3153581619262695,0.540581226348877],"min":[-0.5849569439888,-4.3153581619262695,-0.6000001430511475],"bufferView":16,"byteOffset":0},{"type":"VEC2","componentType":5126,"count":36,"bufferView":16,"byteOffset":12},{"type":"VEC3","componentType":5126,"count":36,"max":[0.7311959862709045,2.8791701793670654,0.6757268309593201],"min":[-0.7311959862709045,-2.8791701793670654,-0.7500001788139343],"bufferView":17,"byteOffset":0},{"type":"VEC2","componentType":5126,"count":36,"bufferView":17,"byteOffset":12},{"type":"VEC3","componentType":5126,"count":36,"max":[0.5849565863609314,4.3153581619262695,0.540581464767456],"min":[-0.5849569439888,-4.3153581619262695,-0.5999999046325684],"bufferView":18,"byteOffset":0},{"type":"VEC2","componentType":5126,"count":36,"bufferView":18,"byteOffset":12},{"type":"VEC3","componentType":5126,"count":72,"max":[3.0433812141418457,1.600000023841858,6.000000953674316],"min":[-3.043381452560425,-1.600000023841858,-6],"bufferView":19,"byteOffset":0},{"type":"VEC3","componentType":5126,"count":72,"bufferView":19,"byteOffset":12},{"type":"VEC2","componentType":5126,"count":72,"bufferView":19,"byteOffset":24},{"type":"VEC3","componentType":5126,"count":84,"max":[3.0433812141418457,1.600000023841858,5.40000057220459],"min":[-3.043381452560425,-1.600000023841858,-5.400000095367432],"bufferView":20,"byteOffset":0},{"type":"VEC3","componentType":5126,"count":84,"bufferView":20,"byteOffset":12},{"type":"VEC2","componentType":5126,"count":84,"bufferView":20,"byteOffset":24},{"type":"VEC3","componentType":5126,"count":84,"max":[3.0433812141418457,1.600000023841858,4.8000006675720215],"min":[-3.043381452560425,-1.600000023841858,-4.800000190734863],"bufferView":21,"byteOffset":0},{"type":"VEC3","componentType":5126,"count":84,"bufferView":21,"byteOffset":12},{"type":"VEC2","componentType":5126,"count":84,"bufferView":21,"byteOffset":24},{"type":"VEC3","componentType":5126,"count":114,"max":[4.094696521759033,3.4000000953674316,4.484667778015137],"min":[-4.094696521759033,-3.4000000953674316,-4.484668254852295],"bufferView":22,"byteOffset":0},{"type":"VEC3","componentType":5126,"count":114,"bufferView":22,"byteOffset":12},{"type":"VEC2","componentType":5126,"count":114,"bufferView":22,"byteOffset":24},{"type":"SCALAR","componentType":5126,"count":24,"max":[0.800000011920929],"min":[0.03333333507180214],"bufferView":23,"byteOffset":0},{"type":"VEC3","componentType":5126,"count":24,"bufferView":23,"byteOffset":96},{"type":"VEC4","componentType":5126,"count":24,"bufferView":23,"byteOffset":384},{"type":"VEC4","componentType":5126,"count":24,"bufferView":23,"byteOffset":768},{"type":"VEC4","componentType":5126,"count":24,"bufferView":23,"byteOffset":1152},{"type":"SCALAR","componentType":5126,"count":17,"max":[0.5666666626930237],"min":[0.03333333507180214],"bufferView":23,"byteOffset":1536},{"type":"VEC3","componentType":5126,"count":17,"bufferView":23,"byteOffset":1604},{"type":"VEC4","componentType":5126,"count":17,"bufferView":23,"byteOffset":1808},{"type":"VEC4","componentType":5126,"count":17,"bufferView":23,"byteOffset":2080},{"type":"VEC4","componentType":5126,"count":17,"bufferView":23,"byteOffset":2352},{"type":"VEC4","componentType":5126,"count":17,"bufferView":23,"byteOffset":2624},{"type":"SCALAR","componentType":5126,"count":60,"max":[2],"min":[0.03333333507180214],"bufferView":23,"byteOffset":2896},{"type":"VEC3","componentType":5126,"count":60,"bufferView":23,"byteOffset":3136},{"type":"VEC4","componentType":5126,"count":60,"bufferView":23,"byteOffset":3856},{"type":"SCALAR","componentType":5126,"count":14,"max":[0.46666666865348816],"min":[0.03333333507180214],"bufferView":23,"byteOffset":4816},{"type":"VEC3","componentType":5126,"count":14,"bufferView":23,"byteOffset":4872},{"type":"VEC4","componentType":5126,"count":14,"bufferView":23,"byteOffset":5040},{"type":"VEC4","componentType":5126,"count":14,"bufferView":23,"byteOffset":5264},{"type":"VEC4","componentType":5126,"count":14,"bufferView":23,"byteOffset":5488}],"bufferViews":[{"buffer":0,"byteOffset":0,"byteLength":4736,"byteStride":32,"target":34962},{"buffer":0,"byteOffset":4736,"byteLength":6240,"target":34963},{"buffer":0,"byteOffset":10976,"byteLength":1408,"byteStride":32,"target":34962},{"buffer":0,"byteOffset":12384,"byteLength":352,"byteStride":8,"target":34962},{"buffer":0,"byteOffset":12736,"byteLength":3136,"byteStride":32,"target":34962},{"buffer":0,"byteOffset":15872,"byteLength":1024,"byteStride":32,"target":34962},{"buffer":0,"byteOffset":16896,"byteLength":640,"byteStride":20,"target":34962},{"buffer":0,"byteOffset":17536,"byteLength":1152,"byteStride":32,"target":34962},{"buffer":0,"byteOffset":18688,"byteLength":1152,"byteStride":32,"target":34962},{"buffer":0,"byteOffset":19840,"byteLength":720,"byteStride":20,"target":34962},{"buffer":0,"byteOffset":20560,"byteLength":720,"byteStride":20,"target":34962},{"buffer":0,"byteOffset":21280,"byteLength":720,"byteStride":20,"target":34962},{"buffer":0,"byteOffset":22000,"byteLength":1152,"byteStride":32,"target":34962},{"buffer":0,"byteOffset":23152,"byteLength":720,"byteStride":20,"target":34962},{"buffer":0,"byteOffset":23872,"byteLength":288,"byteStride":8,"target":34962},{"buffer":0,"byteOffset":24160,"byteLength":720,"byteStride":20,"target":34962},{"buffer":0,"byteOffset":24880,"byteLength":720,"byteStride":20,"target":34962},{"buffer":0,"byteOffset":25600,"byteLength":720,"byteStride":20,"target":34962},{"buffer":0,"byteOffset":26320,"byteLength":720,"byteStride":20,"target":34962},{"buffer":0,"byteOffset":27040,"byteLength":2304,"byteStride":32,"target":34962},{"buffer":0,"byteOffset":29344,"byteLength":2688,"byteStride":32,"target":34962},{"buffer":0,"byteOffset":32032,"byteLength":2688,"byteStride":32,"target":34962},{"buffer":0,"byteOffset":34720,"byteLength":3648,"byteStride":32,"target":34962},{"buffer":0,"byteOffset":38368,"byteLength":5712}],"samplers":[{"magFilter":9729,"minFilter":9987,"wrapS":10497,"wrapT":10497}],"textures":[{"sampler":0,"extensions":{"EXT_texture_webp":{"source":1}}},{"sampler":0,"extensions":{"EXT_texture_webp":{"source":0}}},{"sampler":0,"extensions":{"EXT_texture_webp":{"source":2}}},{"sampler":0,"extensions":{"EXT_texture_webp":{"source":4}}},{"sampler":0,"extensions":{"EXT_texture_webp":{"source":3}}},{"sampler":0,"extensions":{"EXT_texture_webp":{"source":5}}}],"images":[{"name":"chitin_normal","uri":"beetle_0.webp"},{"name":"chitin_color","uri":"beetle_1.webp"},{"name":"chitin_rough","uri":"beetle_2.webp"},{"name":"chitin2_normal","uri":"beetle_3.webp"},{"name":"chitin2_color","uri":"beetle_4.webp"},{"name":"chitin2_rough","uri":"beetle_5.webp"}],"buffers":[{"byteLength":44080,"uri":"data:application/octet-stream;base64,"}],"materials":[{"name":"chitin","doubleSided":true,"pbrMetallicRoughness":{"baseColorFactor":[0.15592646598815918,0.06847816705703735,0.02955683507025242,1],"metallicFactor":0.15000000596046448,"baseColorTexture":{"index":0},"metallicRoughnessTexture":{"index":2}},"normalTexture":{"index":1}},{"name":"eye","doubleSided":true,"pbrMetallicRoughness":{"baseColorFactor":[1,0.43415364623069763,0.05126945674419403,1],"roughnessFactor":0.20000000298023224,"metallicFactor":0},"emissiveFactor":[1,0.2541520893573761,0.014443843625485897],"extensions":{"KHR_materials_emissive_strength":{"emissiveStrength":4}}},{"name":"tusk","doubleSided":true,"pbrMetallicRoughness":{"baseColorFactor":[0.68668532371521,0.5647115111351013,0.3613067865371704,1],"roughnessFactor":0.4000000059604645,"metallicFactor":0.10000000149011612}},{"name":"joint","doubleSided":true,"pbrMetallicRoughness":{"baseColorFactor":[0.0423114113509655,0.019382361322641373,0.009134058840572834,1],"metallicFactor":0.10000000149011612,"baseColorTexture":{"index":3},"metallicRoughnessTexture":{"index":5}},"normalTexture":{"index":4}},{"name":"plate","doubleSided":true,"pbrMetallicRoughness":{"baseColorFactor":[0.2541520893573761,0.11697066575288773,0.05126945674419403,1],"metallicFactor":0.20000000298023224,"baseColorTexture":{"index":3},"metallicRoughnessTexture":{"index":5}},"normalTexture":{"index":4}}],"meshes":[{"name":"Sphere","primitives":[{"attributes":{"POSITION":0,"NORMAL":1,"TEXCOORD_0":2},"mode":4,"material":0,"indices":3}]},{"name":"Sphere.006","primitives":[{"attributes":{"POSITION":20,"NORMAL":21,"TEXCOORD_0":22},"mode":4,"material":1,"indices":4}]},{"name":"Sphere.007","primitives":[{"attributes":{"TEXCOORD_0":23,"POSITION":20,"NORMAL":21},"mode":4,"material":1,"indices":5}]},{"name":"Sphere.005","primitives":[{"attributes":{"POSITION":24,"NORMAL":25,"TEXCOORD_0":26},"mode":4,"material":0,"indices":6}]},{"name":"Cone","primitives":[{"attributes":{"POSITION":27,"NORMAL":28,"TEXCOORD_0":29},"mode":4,"material":2,"indices":7}]},{"name":"Cone.001","primitives":[{"attributes":{"POSITION":30,"TEXCOORD_0":31,"NORMAL":28},"mode":4,"material":2,"indices":8}]},{"name":"Cylinder","primitives":[{"attributes":{"POSITION":32,"NORMAL":33,"TEXCOORD_0":34},"mode":4,"material":3,"indices":9}]},{"name":"Cone.002","primitives":[{"attributes":{"POSITION":35,"NORMAL":36,"TEXCOORD_0":37},"mode":4,"material":3,"indices":10}]},{"name":"Cylinder.001","primitives":[{"attributes":{"POSITION":38,"TEXCOORD_0":39,"NORMAL":33},"mode":4,"material":3,"indices":11}]},{"name":"Cone.003","primitives":[{"attributes":{"POSITION":40,"TEXCOORD_0":41,"NORMAL":36},"mode":4,"material":3,"indices":11}]},{"name":"Cylinder.002","primitives":[{"attributes":{"POSITION":42,"TEXCOORD_0":43,"NORMAL":33},"mode":4,"material":3,"indices":12}]},{"name":"Cone.004","primitives":[{"attributes":{"POSITION":44,"NORMAL":45,"TEXCOORD_0":46},"mode":4,"material":3,"indices":13}]},{"name":"Cylinder.003","primitives":[{"attributes":{"POSITION":47,"TEXCOORD_0":48,"NORMAL":33},"mode":4,"material":3,"indices":11}]},{"name":"Cone.005","primitives":[{"attributes":{"TEXCOORD_0":49,"POSITION":44,"NORMAL":45},"mode":4,"material":3,"indices":11}]},{"name":"Cylinder.004","primitives":[{"attributes":{"POSITION":50,"TEXCOORD_0":51,"NORMAL":33},"mode":4,"material":3,"indices":14}]},{"name":"Cone.006","primitives":[{"attributes":{"POSITION":52,"TEXCOORD_0":53,"NORMAL":36},"mode":4,"material":3,"indices":15}]},{"name":"Cylinder.005","primitives":[{"attributes":{"POSITION":54,"TEXCOORD_0":55,"NORMAL":33},"mode":4,"material":3,"indices":11}]},{"name":"Cone.007","primitives":[{"attributes":{"POSITION":56,"TEXCOORD_0":57,"NORMAL":36},"mode":4,"material":3,"indices":11}]},{"name":"Sphere.001","primitives":[{"attributes":{"POSITION":58,"NORMAL":59,"TEXCOORD_0":60},"mode":4,"material":4,"indices":16}]},{"name":"Sphere.002","primitives":[{"attributes":{"POSITION":61,"NORMAL":62,"TEXCOORD_0":63},"mode":4,"material":4,"indices":17}]},{"name":"Sphere.003","primitives":[{"attributes":{"POSITION":64,"NORMAL":65,"TEXCOORD_0":66},"mode":4,"material":4,"indices":18}]},{"name":"Sphere.004","primitives":[{"attributes":{"POSITION":67,"NORMAL":68,"TEXCOORD_0":69},"mode":4,"material":4,"indices":19}]}],"nodes":[{"name":"abdomen","translation":[-4,0.5999999046325684,0],"mesh":0},{"name":"eye","translation":[2.799999713897705,0.8000001907348633,-1.5],"mesh":1},{"name":"eye.001","translation":[2.799999713897705,0.8000001907348633,1.5],"mesh":2},{"name":"headm","translation":[1,0,0],"mesh":3},{"name":"mand1","translation":[2,-0.19999980926513672,0.7999999523162842],"rotation":[0.15776002407073975,-0.15776002407073975,-0.6892836093902588,0.689283549785614],"mesh":4},{"name":"jaw1","translation":[3.000000476837158,-0.5999999046325684,-1.399999976158142],"children":[4]},{"name":"mand-1","translation":[2,-0.19999980926513672,-0.7999999523162842],"rotation":[-0.15776002407073975,0.15776002407073975,-0.6892836093902588,0.689283549785614],"mesh":5},{"name":"jaw-1","translation":[3.000000476837158,-0.5999999046325684,1.399999976158142],"children":[6]},{"name":"head","translation":[6.599999904632568,0.19999980926513672,0],"children":[1,2,3,5,7]},{"name":"leg0L_a","translation":[0.8640000820159912,1.575000286102295,-2.249999761581421],"rotation":[-0.44427356123924255,0,-0.17060106992721558,0.879497766494751],"mesh":6},{"name":"leg0L_b","translation":[1.0079998970031738,-3.6750001907348633,-2.02500057220459],"rotation":[-0.8613709807395935,0,-0.4287712872028351,0.2723879814147949],"mesh":7},{"name":"leg0L_k","translation":[1.7280001640319824,3.1500000953674316,-4.5],"children":[10]},{"name":"leg0L","translation":[3,-0.40000009536743164,-3.200000047683716],"children":[9,11]},{"name":"leg0R_a","translation":[0.8640000820159912,1.575000286102295,2.249999761581421],"rotation":[0.44427356123924255,0,-0.17060106992721558,0.879497766494751],"mesh":8},{"name":"leg0R_b","translation":[1.0079998970031738,-3.6750001907348633,2.02500057220459],"rotation":[0.8613709807395935,0,-0.4287712872028351,0.2723879814147949],"mesh":9},{"name":"leg0R_k","translation":[1.7280001640319824,3.1500000953674316,4.5],"children":[14]},{"name":"leg0R","translation":[3,-0.40000009536743164,3.200000047683716],"children":[13,15]},{"name":"leg1L_a","translation":[0,1.575000286102295,-2.249999761581421],"rotation":[-0.4618103802204132,0,0,0.8869787454605103],"mesh":10},{"name":"leg1L_b","translation":[0,-3.6750001907348633,-2.02500057220459],"rotation":[-0.968462347984314,0,0,0.24916033446788788],"mesh":11},{"name":"leg1L_k","translation":[0,3.1500000953674316,-4.5],"children":[18]},{"name":"leg1L","translation":[0.5,-0.40000009536743164,-3.200000047683716],"children":[17,19]},{"name":"leg1R_a","translation":[0,1.575000286102295,2.249999761581421],"rotation":[0.4618103802204132,0,0,0.8869787454605103],"mesh":12},{"name":"leg1R_b","translation":[0,-3.6750001907348633,2.02500057220459],"rotation":[0.968462347984314,0,0,0.24916033446788788],"mesh":13},{"name":"leg1R_k","translation":[0,3.1500000953674316,4.5],"children":[22]},{"name":"leg1R","translation":[0.5,-0.40000009536743164,3.200000047683716],"children":[21,23]},{"name":"leg2L_a","translation":[-0.8640000820159912,1.575000286102295,-2.249999761581421],"rotation":[-0.44427356123924255,0,0.17060105502605438,0.879497766494751],"mesh":14},{"name":"leg2L_b","translation":[-1.0079998970031738,-3.6750001907348633,-2.02500057220459],"rotation":[-0.8613709807395935,0,0.4287712872028351,0.2723879814147949],"mesh":15},{"name":"leg2L_k","translation":[-1.7279999256134033,3.1500000953674316,-4.5],"children":[26]},{"name":"leg2L","translation":[-2.200000047683716,-0.40000009536743164,-3.200000047683716],"children":[25,27]},{"name":"leg2R_a","translation":[-0.8640000820159912,1.575000286102295,2.249999761581421],"rotation":[0.44427356123924255,0,0.17060105502605438,0.879497766494751],"mesh":16},{"name":"leg2R_b","translation":[-1.0079998970031738,-3.6750001907348633,2.02500057220459],"rotation":[0.8613709807395935,0,0.4287712872028351,0.2723879814147949],"mesh":17},{"name":"leg2R_k","translation":[-1.7279999256134033,3.1500000953674316,4.5],"children":[30]},{"name":"leg2R","translation":[-2.200000047683716,-0.40000009536743164,3.200000047683716],"children":[29,31]},{"name":"shell0","translation":[-1.5,3.6000003814697266,0],"mesh":18},{"name":"shell1","translation":[-5.099999904632568,3.1000003814697266,0],"mesh":19},{"name":"shell2","translation":[-8.699999809265137,2.5999999046325684,0],"mesh":20},{"name":"thorax","translation":[3.200000047683716,0.40000009536743164,0],"mesh":21},{"name":"body","translation":[0,5,0],"children":[0,8,12,16,20,24,28,32,33,34,35,36]},{"name":"root","children":[37]}],"animations":[{"name":"die","samplers":[{"input":70,"output":71,"interpolation":"LINEAR"},{"input":70,"output":72,"interpolation":"LINEAR"},{"input":70,"output":73,"interpolation":"LINEAR"},{"input":70,"output":74,"interpolation":"LINEAR"},{"input":70,"output":73,"interpolation":"LINEAR"},{"input":70,"output":74,"interpolation":"LINEAR"},{"input":70,"output":73,"interpolation":"LINEAR"},{"input":70,"output":74,"interpolation":"LINEAR"}],"channels":[{"sampler":0,"target":{"node":38,"path":"translation"}},{"sampler":1,"target":{"node":38,"path":"rotation"}},{"sampler":2,"target":{"node":12,"path":"rotation"}},{"sampler":3,"target":{"node":16,"path":"rotation"}},{"sampler":4,"target":{"node":20,"path":"rotation"}},{"sampler":5,"target":{"node":24,"path":"rotation"}},{"sampler":6,"target":{"node":28,"path":"rotation"}},{"sampler":7,"target":{"node":32,"path":"rotation"}}]},{"name":"run","samplers":[{"input":75,"output":76,"interpolation":"LINEAR"},{"input":75,"output":77,"interpolation":"LINEAR"},{"input":75,"output":78,"interpolation":"LINEAR"},{"input":75,"output":79,"interpolation":"LINEAR"},{"input":75,"output":80,"interpolation":"LINEAR"},{"input":75,"output":77,"interpolation":"LINEAR"},{"input":75,"output":78,"interpolation":"LINEAR"}],"channels":[{"sampler":0,"target":{"node":37,"path":"translation"}},{"sampler":1,"target":{"node":12,"path":"rotation"}},{"sampler":2,"target":{"node":16,"path":"rotation"}},{"sampler":3,"target":{"node":20,"path":"rotation"}},{"sampler":4,"target":{"node":24,"path":"rotation"}},{"sampler":5,"target":{"node":28,"path":"rotation"}},{"sampler":6,"target":{"node":32,"path":"rotation"}}]},{"name":"idle","samplers":[{"input":81,"output":82,"interpolation":"LINEAR"},{"input":81,"output":83,"interpolation":"LINEAR"}],"channels":[{"sampler":0,"target":{"node":37,"path":"translation"}},{"sampler":1,"target":{"node":8,"path":"rotation"}}]},{"name":"attack","samplers":[{"input":84,"output":85,"interpolation":"LINEAR"},{"input":84,"output":86,"interpolation":"LINEAR"},{"input":84,"output":87,"interpolation":"LINEAR"},{"input":84,"output":88,"interpolation":"LINEAR"}],"channels":[{"sampler":0,"target":{"node":37,"path":"translation"}},{"sampler":1,"target":{"node":37,"path":"rotation"}},{"sampler":2,"target":{"node":5,"path":"rotation"}},{"sampler":3,"target":{"node":7,"path":"rotation"}}]}],"scenes":[{"name":"Scene","nodes":[38]}],"scene":0,"extensionsUsed":["EXT_texture_webp","KHR_materials_emissive_strength"],"extensionsRequired":["EXT_texture_webp"]}