{"asset":{"generator":"glTF-Transform v4.5.1","version":"2.0"},"accessors":[{"type":"VEC3","componentType":5126,"count":98,"max":[2.410749912261963,2.200000047683716,2.924783706665039],"min":[-2.410749912261963,-2.200000047683716,-2.924783706665039],"bufferView":0,"byteOffset":0},{"type":"VEC3","componentType":5126,"count":98,"bufferView":0,"byteOffset":12},{"type":"VEC2","componentType":5126,"count":98,"bufferView":0,"byteOffset":24},{"type":"SCALAR","componentType":5123,"count":360,"bufferView":1,"byteOffset":0},{"type":"SCALAR","componentType":5123,"count":72,"bufferView":1,"byteOffset":720},{"type":"SCALAR","componentType":5123,"count":72,"bufferView":1,"byteOffset":864},{"type":"SCALAR","componentType":5123,"count":72,"bufferView":1,"byteOffset":1008},{"type":"SCALAR","componentType":5123,"count":72,"bufferView":1,"byteOffset":1152},{"type":"SCALAR","componentType":5123,"count":72,"bufferView":1,"byteOffset":1296},{"type":"SCALAR","componentType":5123,"count":48,"bufferView":1,"byteOffset":1440},{"type":"SCALAR","componentType":5123,"count":48,"bufferView":1,"byteOffset":1536},{"type":"SCALAR","componentType":5123,"count":60,"bufferView":1,"byteOffset":1632},{"type":"SCALAR","componentType":5123,"count":60,"bufferView":1,"byteOffset":1752},{"type":"SCALAR","componentType":5123,"count":60,"bufferView":1,"byteOffset":1872},{"type":"SCALAR","componentType":5123,"count":60,"bufferView":1,"byteOffset":1992},{"type":"SCALAR","componentType":5123,"count":60,"bufferView":1,"byteOffset":2112},{"type":"SCALAR","componentType":5123,"count":1188,"bufferView":1,"byteOffset":2232},{"type":"VEC3","componentType":5126,"count":36,"max":[0.5362104177474976,1.8854706287384033,0.49553292989730835],"min":[-0.5362104177474976,-1.8854706287384033,-0.5500000715255737],"bufferView":2,"byteOffset":0},{"type":"VEC3","componentType":5126,"count":36,"bufferView":2,"byteOffset":12},{"type":"VEC2","componentType":5126,"count":36,"bufferView":2,"byteOffset":24},{"type":"VEC3","componentType":5126,"count":36,"max":[0.4289681613445282,3.1969704627990723,0.3964262902736664],"min":[-0.42896828055381775,-3.1969704627990723,-0.4399997889995575],"bufferView":3,"byteOffset":0},{"type":"VEC3","componentType":5126,"count":36,"bufferView":3,"byteOffset":12},{"type":"VEC2","componentType":5126,"count":36,"bufferView":3,"byteOffset":24},{"type":"VEC3","componentType":5126,"count":36,"max":[0.5362104177474976,1.8854706287384033,0.49553292989730835],"min":[-0.5362104177474976,-1.8854706287384033,-0.5500000715255737],"bufferView":4,"byteOffset":0},{"type":"VEC2","componentType":5126,"count":36,"bufferView":4,"byteOffset":12},{"type":"VEC3","componentType":5126,"count":36,"max":[0.4289681613445282,3.1969704627990723,0.39642611145973206],"min":[-0.42896828055381775,-3.1969704627990723,-0.4399999678134918],"bufferView":5,"byteOffset":0},{"type":"VEC2","componentType":5126,"count":36,"bufferView":5,"byteOffset":12},{"type":"VEC3","componentType":5126,"count":36,"max":[0.5362104177474976,1.8854706287384033,0.49553292989730835],"min":[-0.5362104177474976,-1.8854706287384033,-0.5500000715255737],"bufferView":6,"byteOffset":0},{"type":"VEC2","componentType":5126,"count":36,"bufferView":6,"byteOffset":12},{"type":"VEC3","componentType":5126,"count":36,"max":[0.42896828055381775,3.1969707012176514,0.3964262306690216],"min":[-0.42896828055381775,-3.1969707012176514,-0.43999993801116943],"bufferView":7,"byteOffset":0},{"type":"VEC2","componentType":5126,"count":36,"bufferView":7,"byteOffset":12},{"type":"VEC3","componentType":5126,"count":36,"max":[0.5362104177474976,1.8854706287384033,0.49553292989730835],"min":[-0.5362104177474976,-1.8854706287384033,-0.5500000715255737],"bufferView":8,"byteOffset":0},{"type":"VEC2","componentType":5126,"count":36,"bufferView":8,"byteOffset":12},{"type":"VEC3","componentType":5126,"count":36,"max":[0.42896828055381775,3.1969707012176514,0.3964262306690216],"min":[-0.42896828055381775,-3.1969707012176514,-0.43999993801116943],"bufferView":9,"byteOffset":0},{"type":"VEC2","componentType":5126,"count":36,"bufferView":9,"byteOffset":12},{"type":"VEC3","componentType":5126,"count":28,"max":[0.4755282700061798,1.1715373992919922,0.40450847148895264],"min":[-0.4755282700061798,-1.1715373992919922,-0.5000000596046448],"bufferView":10,"byteOffset":0},{"type":"VEC3","componentType":5126,"count":28,"bufferView":10,"byteOffset":12},{"type":"VEC2","componentType":5126,"count":28,"bufferView":10,"byteOffset":24},{"type":"VEC3","componentType":5126,"count":28,"max":[0.4755282700061798,1.1715373992919922,0.4045085310935974],"min":[-0.4755282700061798,-1.1715373992919922,-0.4999999701976776],"bufferView":11,"byteOffset":0},{"type":"VEC2","componentType":5126,"count":28,"bufferView":11,"byteOffset":12},{"type":"VEC3","componentType":5126,"count":32,"max":[0.5196152329444885,4.506938934326172,0.6000000238418579],"min":[-0.5196152329444885,-4.506938934326172,-0.6000000238418579],"bufferView":12,"byteOffset":0},{"type":"VEC3","componentType":5126,"count":32,"bufferView":12,"byteOffset":12},{"type":"VEC2","componentType":5126,"count":32,"bufferView":12,"byteOffset":24},{"type":"VEC3","componentType":5126,"count":32,"max":[0.5196151733398438,4.51504373550415,0.6000000238418579],"min":[-0.5196151733398438,-4.51504373550415,-0.6000000238418579],"bufferView":13,"byteOffset":0},{"type":"VEC2","componentType":5126,"count":32,"bufferView":13,"byteOffset":12},{"type":"VEC3","componentType":5126,"count":32,"max":[0.5196151733398438,4.51504373550415,0.6000000238418579],"min":[-0.5196151733398438,-4.51504373550415,-0.6000000238418579],"bufferView":14,"byteOffset":0},{"type":"VEC2","componentType":5126,"count":32,"bufferView":14,"byteOffset":12},{"type":"VEC2","componentType":5126,"count":32,"bufferView":15,"byteOffset":0},{"type":"VEC3","componentType":5126,"count":32,"max":[0.5196151733398438,4.51504373550415,0.6000000238418579],"min":[-0.5196151733398438,-4.51504373550415,-0.6000000238418579],"bufferView":16,"byteOffset":0},{"type":"VEC2","componentType":5126,"count":32,"bufferView":16,"byteOffset":12},{"type":"VEC3","componentType":5126,"count":32,"max":[0.5196151733398438,4.51504373550415,0.6000000238418579],"min":[-0.5196151733398438,-4.51504373550415,-0.6000000238418579],"bufferView":17,"byteOffset":0},{"type":"VEC2","componentType":5126,"count":32,"bufferView":17,"byteOffset":12},{"type":"VEC3","componentType":5126,"count":272,"max":[5.908845901489258,5.400000095367432,5.59999942779541],"min":[-5.908846378326416,-5.400000095367432,-5.59999942779541],"bufferView":18,"byteOffset":0},{"type":"VEC3","componentType":5126,"count":272,"bufferView":18,"byteOffset":12},{"type":"VEC2","componentType":5126,"count":272,"bufferView":18,"byteOffset":24},{"type":"SCALAR","componentType":5126,"count":16,"max":[0.5333333611488342],"min":[0.03333333507180214],"bufferView":19,"byteOffset":0},{"type":"VEC3","componentType":5126,"count":16,"bufferView":19,"byteOffset":64},{"type":"VEC4","componentType":5126,"count":16,"bufferView":19,"byteOffset":256},{"type":"VEC4","componentType":5126,"count":16,"bufferView":19,"byteOffset":512},{"type":"VEC4","componentType":5126,"count":16,"bufferView":19,"byteOffset":768},{"type":"SCALAR","componentType":5126,"count":13,"max":[0.4333333373069763],"min":[0.03333333507180214],"bufferView":19,"byteOffset":1024},{"type":"VEC4","componentType":5126,"count":13,"bufferView":19,"byteOffset":1076},{"type":"VEC4","componentType":5126,"count":13,"bufferView":19,"byteOffset":1284},{"type":"VEC4","componentType":5126,"count":13,"bufferView":19,"byteOffset":1492},{"type":"VEC4","componentType":5126,"count":13,"bufferView":19,"byteOffset":1700},{"type":"SCALAR","componentType":5126,"count":60,"max":[2],"min":[0.03333333507180214],"bufferView":19,"byteOffset":1908},{"type":"VEC3","componentType":5126,"count":60,"bufferView":19,"byteOffset":2148},{"type":"SCALAR","componentType":5126,"count":18,"max":[0.6000000238418579],"min":[0.03333333507180214],"bufferView":19,"byteOffset":2868},{"type":"VEC3","componentType":5126,"count":18,"bufferView":19,"byteOffset":2940}],"bufferViews":[{"buffer":0,"byteOffset":0,"byteLength":3136,"byteStride":32,"target":34962},{"buffer":0,"byteOffset":3136,"byteLength":4608,"target":34963},{"buffer":0,"byteOffset":7744,"byteLength":1152,"byteStride":32,"target":34962},{"buffer":0,"byteOffset":8896,"byteLength":1152,"byteStride":32,"target":34962},{"buffer":0,"byteOffset":10048,"byteLength":720,"byteStride":20,"target":34962},{"buffer":0,"byteOffset":10768,"byteLength":720,"byteStride":20,"target":34962},{"buffer":0,"byteOffset":11488,"byteLength":720,"byteStride":20,"target":34962},{"buffer":0,"byteOffset":12208,"byteLength":720,"byteStride":20,"target":34962},{"buffer":0,"byteOffset":12928,"byteLength":720,"byteStride":20,"target":34962},{"buffer":0,"byteOffset":13648,"byteLength":720,"byteStride":20,"target":34962},{"buffer":0,"byteOffset":14368,"byteLength":896,"byteStride":32,"target":34962},{"buffer":0,"byteOffset":15264,"byteLength":560,"byteStride":20,"target":34962},{"buffer":0,"byteOffset":15824,"byteLength":1024,"byteStride":32,"target":34962},{"buffer":0,"byteOffset":16848,"byteLength":640,"byteStride":20,"target":34962},{"buffer":0,"byteOffset":17488,"byteLength":640,"byteStride":20,"target":34962},{"buffer":0,"byteOffset":18128,"byteLength":256,"byteStride":8,"target":34962},{"buffer":0,"byteOffset":18384,"byteLength":640,"byteStride":20,"target":34962},{"buffer":0,"byteOffset":19024,"byteLength":640,"byteStride":20,"target":34962},{"buffer":0,"byteOffset":19664,"byteLength":8704,"byteStride":32,"target":34962},{"buffer":0,"byteOffset":28368,"byteLength":3156}],"samplers":[{"magFilter":9729,"minFilter":9987,"wrapS":10497,"wrapT":10497}],"textures":[{"sampler":0,"extensions":{"EXT_texture_webp":{"source":1}}},{"sampler":0,"extensions":{"EXT_texture_webp":{"source":0}}},{"sampler":0,"extensions":{"EXT_texture_webp":{"source":2}}},{"sampler":0,"extensions":{"EXT_texture_webp":{"source":4}}},{"sampler":0,"extensions":{"EXT_texture_webp":{"source":3}}},{"sampler":0,"extensions":{"EXT_texture_webp":{"source":5}}}],"images":[{"name":"chitin_normal","uri":"bomber_0.webp"},{"name":"chitin_color","uri":"bomber_1.webp"},{"name":"chitin_rough","uri":"bomber_2.webp"},{"name":"chitin2_normal","uri":"bomber_3.webp"},{"name":"chitin2_color","uri":"bomber_4.webp"},{"name":"chitin2_rough","uri":"bomber_5.webp"}],"buffers":[{"byteLength":31524,"uri":"data:application/octet-stream;base64,"}],"materials":[{"name":"chitin","doubleSided":true,"pbrMetallicRoughness":{"baseColorFactor":[0.10224173218011856,0.061246052384376526,0.03189603239297867,1],"metallicFactor":0.15000000596046448,"baseColorTexture":{"index":0},"metallicRoughnessTexture":{"index":2}},"normalTexture":{"index":1}},{"name":"joint","doubleSided":true,"pbrMetallicRoughness":{"baseColorFactor":[0.027320891618728638,0.017641954123973846,0.009134058840572834,1],"metallicFactor":0.15000000596046448,"baseColorTexture":{"index":3},"metallicRoughnessTexture":{"index":5}},"normalTexture":{"index":4}},{"name":"volatile","doubleSided":true,"pbrMetallicRoughness":{"baseColorFactor":[0.577580451965332,0.11697066575288773,0.012983032502233982,1],"roughnessFactor":0.30000001192092896,"metallicFactor":0},"emissiveFactor":[0.31766925546622815,0.06433386755848725,0.007140668030998498]}],"meshes":[{"name":"Sphere.001","primitives":[{"attributes":{"POSITION":0,"NORMAL":1,"TEXCOORD_0":2},"mode":4,"material":0,"indices":3}]},{"name":"Cylinder.006","primitives":[{"attributes":{"POSITION":17,"NORMAL":18,"TEXCOORD_0":19},"mode":4,"material":1,"indices":4}]},{"name":"Cone.002","primitives":[{"attributes":{"POSITION":20,"NORMAL":21,"TEXCOORD_0":22},"mode":4,"material":1,"indices":5}]},{"name":"Cylinder.007","primitives":[{"attributes":{"POSITION":23,"TEXCOORD_0":24,"NORMAL":18},"mode":4,"material":1,"indices":6}]},{"name":"Cone.003","primitives":[{"attributes":{"POSITION":25,"TEXCOORD_0":26,"NORMAL":21},"mode":4,"material":1,"indices":6}]},{"name":"Cylinder.008","primitives":[{"attributes":{"POSITION":27,"TEXCOORD_0":28,"NORMAL":18},"mode":4,"material":1,"indices":7}]},{"name":"Cone.004","primitives":[{"attributes":{"POSITION":29,"TEXCOORD_0":30,"NORMAL":21},"mode":4,"material":1,"indices":8}]},{"name":"Cylinder.009","primitives":[{"attributes":{"POSITION":31,"TEXCOORD_0":32,"NORMAL":18},"mode":4,"material":1,"indices":6}]},{"name":"Cone.005","primitives":[{"attributes":{"POSITION":33,"TEXCOORD_0":34,"NORMAL":21},"mode":4,"material":1,"indices":6}]},{"name":"Cone","primitives":[{"attributes":{"POSITION":35,"NORMAL":36,"TEXCOORD_0":37},"mode":4,"material":1,"indices":9}]},{"name":"Cone.001","primitives":[{"attributes":{"POSITION":38,"TEXCOORD_0":39,"NORMAL":36},"mode":4,"material":1,"indices":10}]},{"name":"Cylinder","primitives":[{"attributes":{"POSITION":40,"NORMAL":41,"TEXCOORD_0":42},"mode":4,"material":0,"indices":11}]},{"name":"Cylinder.001","primitives":[{"attributes":{"POSITION":43,"TEXCOORD_0":44,"NORMAL":41},"mode":4,"material":0,"indices":12}]},{"name":"Cylinder.002","primitives":[{"attributes":{"POSITION":45,"TEXCOORD_0":46,"NORMAL":41},"mode":4,"material":0,"indices":13}]},{"name":"Cylinder.003","primitives":[{"attributes":{"TEXCOORD_0":47,"POSITION":40,"NORMAL":41},"mode":4,"material":0,"indices":14}]},{"name":"Cylinder.004","primitives":[{"attributes":{"POSITION":48,"TEXCOORD_0":49,"NORMAL":41},"mode":4,"material":0,"indices":15}]},{"name":"Cylinder.005","primitives":[{"attributes":{"POSITION":50,"TEXCOORD_0":51,"NORMAL":41},"mode":4,"material":0,"indices":15}]},{"name":"Sphere","primitives":[{"attributes":{"POSITION":52,"NORMAL":53,"TEXCOORD_0":54},"mode":4,"material":2,"indices":16}]}],"nodes":[{"name":"head","translation":[5.199999809265137,-0.40000009536743164,0],"mesh":0},{"name":"leg0L_a","translation":[0.4500000476837158,1.0500001907348633,-1.499999761581421],"rotation":[-0.45084530115127563,0,-0.13525362312793732,0.8822953104972839],"mesh":1},{"name":"leg0L_b","translation":[0.5250000953674316,-2.8499999046325684,-1.3499999046325684],"rotation":[-0.9063641428947449,0,-0.3524748682975769,0.2329496294260025],"mesh":2},{"name":"leg0L_k","translation":[0.9000000953674316,2.0999999046325684,-2.999999761581421],"children":[2]},{"name":"leg0L","translation":[3,-1,-3.200000047683716],"children":[1,3]},{"name":"leg0R_a","translation":[0.4500000476837158,1.0500001907348633,1.499999761581421],"rotation":[0.45084530115127563,0,-0.13525362312793732,0.8822953104972839],"mesh":3},{"name":"leg0R_b","translation":[0.5250000953674316,-2.8499999046325684,1.3499999046325684],"rotation":[0.9063641428947449,0,-0.3524748682975769,0.2329496294260025],"mesh":4},{"name":"leg0R_k","translation":[0.9000000953674316,2.0999999046325684,2.999999761581421],"children":[6]},{"name":"leg0R","translation":[3,-1,3.200000047683716],"children":[5,7]},{"name":"leg1L_a","translation":[-0.4500000476837158,1.0500001907348633,-1.499999761581421],"rotation":[-0.45084530115127563,0,0.13525362312793732,0.8822953104972839],"mesh":5},{"name":"leg1L_b","translation":[-0.5250000953674316,-2.8499999046325684,-1.3499999046325684],"rotation":[-0.9063640832901001,0,0.35247495770454407,0.23294968903064728],"mesh":6},{"name":"leg1L_k","translation":[-0.9000000953674316,2.0999999046325684,-2.999999761581421],"children":[10]},{"name":"leg1L","translation":[-1.5,-1,-3.200000047683716],"children":[9,11]},{"name":"leg1R_a","translation":[-0.4500000476837158,1.0500001907348633,1.499999761581421],"rotation":[0.45084530115127563,0,0.13525362312793732,0.8822953104972839],"mesh":7},{"name":"leg1R_b","translation":[-0.5250000953674316,-2.8499999046325684,1.3499999046325684],"rotation":[0.9063640832901001,0,0.35247495770454407,0.23294968903064728],"mesh":8},{"name":"leg1R_k","translation":[-0.9000000953674316,2.0999999046325684,2.999999761581421],"children":[14]},{"name":"leg1R","translation":[-1.5,-1,3.200000047683716],"children":[13,15]},{"name":"mand1","translation":[7.900000095367432,-1,-0.6499999761581421],"rotation":[0.23197713494300842,0,-0.7290710210800171,0.6439270973205566],"mesh":9},{"name":"mand-1","translation":[7.900000095367432,-1,0.6499999761581421],"rotation":[-0.23197713494300842,0,-0.7290710210800171,0.6439270973205566],"mesh":10},{"name":"rib0","translation":[1.25,0.5,0],"rotation":[0,0,-0.027745699509978294,0.9996150135993958],"mesh":11},{"name":"rib1","translation":[0.625,0.5,-4.330126762390137],"rotation":[0.03839375451207161,0,-0.013854160904884338,0.99916672706604],"mesh":12},{"name":"rib2","translation":[-0.625,0.5,-4.330126762390137],"rotation":[0.03839375451207161,0,0.013854160904884338,0.99916672706604],"mesh":13},{"name":"rib3","translation":[-1.25,0.5,0],"rotation":[0,0,0.027745699509978294,0.9996150135993958],"mesh":14},{"name":"rib4","translation":[-0.625,0.5,4.330126762390137],"rotation":[-0.03839375451207161,0,0.013854160904884338,0.99916672706604],"mesh":15},{"name":"rib5","translation":[0.625,0.5,4.330126762390137],"rotation":[-0.03839375451207161,0,-0.013854160904884338,0.99916672706604],"mesh":16},{"name":"sacm","translation":[0,0.5,0],"mesh":17},{"name":"sac","translation":[-1,2.5,0],"children":[19,20,21,22,23,24,25]},{"name":"body","translation":[0,5,0],"children":[0,4,8,12,16,17,18,26]},{"name":"root","children":[27]}],"animations":[{"name":"die","samplers":[{"input":55,"output":56,"interpolation":"LINEAR"},{"input":55,"output":57,"interpolation":"LINEAR"},{"input":55,"output":58,"interpolation":"LINEAR"},{"input":55,"output":59,"interpolation":"LINEAR"},{"input":55,"output":58,"interpolation":"LINEAR"},{"input":55,"output":59,"interpolation":"LINEAR"}],"channels":[{"sampler":0,"target":{"node":28,"path":"translation"}},{"sampler":1,"target":{"node":28,"path":"rotation"}},{"sampler":2,"target":{"node":4,"path":"rotation"}},{"sampler":3,"target":{"node":8,"path":"rotation"}},{"sampler":4,"target":{"node":12,"path":"rotation"}},{"sampler":5,"target":{"node":16,"path":"rotation"}}]},{"name":"run","samplers":[{"input":60,"output":61,"interpolation":"LINEAR"},{"input":60,"output":62,"interpolation":"LINEAR"},{"input":60,"output":63,"interpolation":"LINEAR"},{"input":60,"output":64,"interpolation":"LINEAR"}],"channels":[{"sampler":0,"target":{"node":4,"path":"rotation"}},{"sampler":1,"target":{"node":8,"path":"rotation"}},{"sampler":2,"target":{"node":12,"path":"rotation"}},{"sampler":3,"target":{"node":16,"path":"rotation"}}]},{"name":"idle","samplers":[{"input":65,"output":66,"interpolation":"LINEAR"}],"channels":[{"sampler":0,"target":{"node":26,"path":"translation"}}]},{"name":"attack","samplers":[{"input":67,"output":68,"interpolation":"LINEAR"}],"channels":[{"sampler":0,"target":{"node":26,"path":"translation"}}]}],"scenes":[{"name":"Scene","nodes":[28]}],"scene":0,"extensionsUsed":["EXT_texture_webp"],"extensionsRequired":["EXT_texture_webp"]}