{"asset":{"generator":"glTF-Transform v4.5.1","version":"2.0"},"accessors":[{"type":"VEC3","componentType":5126,"count":148,"max":[12.479077339172363,7.039999961853027,10.399998664855957],"min":[-12.479076385498047,-7.039999961853027,-10.399999618530273],"bufferView":0,"byteOffset":0},{"type":"VEC3","componentType":5126,"count":148,"bufferView":0,"byteOffset":12},{"type":"VEC2","componentType":5126,"count":148,"bufferView":0,"byteOffset":24},{"type":"SCALAR","componentType":5123,"count":588,"bufferView":1,"byteOffset":0},{"type":"SCALAR","componentType":5123,"count":108,"bufferView":1,"byteOffset":1176},{"type":"SCALAR","componentType":5123,"count":108,"bufferView":1,"byteOffset":1392},{"type":"SCALAR","componentType":5123,"count":360,"bufferView":1,"byteOffset":1608},{"type":"SCALAR","componentType":5123,"count":84,"bufferView":1,"byteOffset":2328},{"type":"SCALAR","componentType":5123,"count":60,"bufferView":1,"byteOffset":2496},{"type":"SCALAR","componentType":5123,"count":60,"bufferView":1,"byteOffset":2616},{"type":"SCALAR","componentType":5123,"count":72,"bufferView":1,"byteOffset":2736},{"type":"SCALAR","componentType":5123,"count":72,"bufferView":1,"byteOffset":2880},{"type":"SCALAR","componentType":5123,"count":72,"bufferView":1,"byteOffset":3024},{"type":"SCALAR","componentType":5123,"count":72,"bufferView":1,"byteOffset":3168},{"type":"SCALAR","componentType":5123,"count":72,"bufferView":1,"byteOffset":3312},{"type":"SCALAR","componentType":5123,"count":72,"bufferView":1,"byteOffset":3456},{"type":"SCALAR","componentType":5123,"count":72,"bufferView":1,"byteOffset":3600},{"type":"SCALAR","componentType":5123,"count":300,"bufferView":1,"byteOffset":3744},{"type":"SCALAR","componentType":5123,"count":300,"bufferView":1,"byteOffset":4344},{"type":"SCALAR","componentType":5123,"count":300,"bufferView":1,"byteOffset":4944},{"type":"SCALAR","componentType":5123,"count":60,"bufferView":1,"byteOffset":5544},{"type":"SCALAR","componentType":5123,"count":60,"bufferView":1,"byteOffset":5664},{"type":"SCALAR","componentType":5123,"count":432,"bufferView":1,"byteOffset":5784},{"type":"VEC3","componentType":5126,"count":44,"max":[0.8313844203948975,0.9599999785423279,0.9599999785423279],"min":[-0.8313844799995422,-0.9599999785423279,-0.9599999785423279],"bufferView":2,"byteOffset":0},{"type":"VEC3","componentType":5126,"count":44,"bufferView":2,"byteOffset":12},{"type":"VEC2","componentType":5126,"count":44,"bufferView":2,"byteOffset":24},{"type":"VEC2","componentType":5126,"count":44,"bufferView":3,"byteOffset":0},{"type":"VEC3","componentType":5126,"count":98,"max":[4.153907775878906,3.8399999141693115,4.991630554199219],"min":[-4.153907775878906,-3.8399999141693115,-4.991630554199219],"bufferView":4,"byteOffset":0},{"type":"VEC3","componentType":5126,"count":98,"bufferView":4,"byteOffset":12},{"type":"VEC2","componentType":5126,"count":98,"bufferView":4,"byteOffset":24},{"type":"VEC3","componentType":5126,"count":40,"max":[2.239999771118164,6.399999141693115,2.240000009536743],"min":[-2.239999771118164,-6.399999141693115,-2.240000009536743],"bufferView":5,"byteOffset":0},{"type":"VEC3","componentType":5126,"count":40,"bufferView":5,"byteOffset":12},{"type":"VEC2","componentType":5126,"count":40,"bufferView":5,"byteOffset":24},{"type":"VEC3","componentType":5126,"count":32,"max":[0.969948410987854,4,1.1200000047683716],"min":[-0.969948410987854,-4,-1.1200000047683716],"bufferView":6,"byteOffset":0},{"type":"VEC3","componentType":5126,"count":32,"bufferView":6,"byteOffset":12},{"type":"VEC2","componentType":5126,"count":32,"bufferView":6,"byteOffset":24},{"type":"VEC3","componentType":5126,"count":32,"max":[0.969948410987854,4,1.1200000047683716],"min":[-0.969948410987854,-4,-1.1200000047683716],"bufferView":7,"byteOffset":0},{"type":"VEC2","componentType":5126,"count":32,"bufferView":7,"byteOffset":12},{"type":"VEC3","componentType":5126,"count":36,"max":[1.169913411140442,4.606671333312988,1.081162691116333],"min":[-1.169913411140442,-4.606671333312988,-1.2000000476837158],"bufferView":8,"byteOffset":0},{"type":"VEC3","componentType":5126,"count":36,"bufferView":8,"byteOffset":12},{"type":"VEC2","componentType":5126,"count":36,"bufferView":8,"byteOffset":24},{"type":"VEC3","componentType":5126,"count":36,"max":[0.9359305500984192,7.0070481300354,0.8649303317070007],"min":[-0.9359307885169983,-7.0070481300354,-0.9599997401237488],"bufferView":9,"byteOffset":0},{"type":"VEC3","componentType":5126,"count":36,"bufferView":9,"byteOffset":12},{"type":"VEC2","componentType":5126,"count":36,"bufferView":9,"byteOffset":24},{"type":"VEC3","componentType":5126,"count":36,"max":[1.169913411140442,4.606671333312988,1.081162691116333],"min":[-1.169913411140442,-4.606671333312988,-1.2000000476837158],"bufferView":10,"byteOffset":0},{"type":"VEC2","componentType":5126,"count":36,"bufferView":10,"byteOffset":12},{"type":"VEC3","componentType":5126,"count":36,"max":[0.9359305500984192,7.0070481300354,0.8649298548698425],"min":[-0.9359307885169983,-7.0070481300354,-0.960000216960907],"bufferView":11,"byteOffset":0},{"type":"VEC2","componentType":5126,"count":36,"bufferView":11,"byteOffset":12},{"type":"VEC3","componentType":5126,"count":36,"max":[1.1699135303497314,4.394359588623047,1.081162691116333],"min":[-1.1699135303497314,-4.394359588623047,-1.2000000476837158],"bufferView":12,"byteOffset":0},{"type":"VEC2","componentType":5126,"count":36,"bufferView":12,"byteOffset":12},{"type":"VEC3","componentType":5126,"count":36,"max":[0.9359307885169983,6.818914890289307,0.8649300932884216],"min":[-0.9359307885169983,-6.818914890289307,-0.9599999785423279],"bufferView":13,"byteOffset":0},{"type":"VEC3","componentType":5126,"count":36,"bufferView":13,"byteOffset":12},{"type":"VEC2","componentType":5126,"count":36,"bufferView":13,"byteOffset":24},{"type":"VEC2","componentType":5126,"count":36,"bufferView":14,"byteOffset":0},{"type":"VEC2","componentType":5126,"count":36,"bufferView":15,"byteOffset":0},{"type":"VEC3","componentType":5126,"count":36,"max":[1.1699137687683105,4.606672763824463,1.081162929534912],"min":[-1.1699137687683105,-4.606672763824463,-1.200000286102295],"bufferView":16,"byteOffset":0},{"type":"VEC2","componentType":5126,"count":36,"bufferView":16,"byteOffset":12},{"type":"VEC3","componentType":5126,"count":36,"max":[0.9359307885169983,7.0070481300354,0.8649303317070007],"min":[-0.9359305500984192,-7.0070481300354,-0.9599997401237488],"bufferView":17,"byteOffset":0},{"type":"VEC2","componentType":5126,"count":36,"bufferView":17,"byteOffset":12},{"type":"VEC3","componentType":5126,"count":36,"max":[1.1699137687683105,4.606672763824463,1.081162929534912],"min":[-1.1699137687683105,-4.606672763824463,-1.200000286102295],"bufferView":18,"byteOffset":0},{"type":"VEC2","componentType":5126,"count":36,"bufferView":18,"byteOffset":12},{"type":"VEC3","componentType":5126,"count":36,"max":[0.9359307885169983,7.0070481300354,0.8649298548698425],"min":[-0.9359305500984192,-7.0070481300354,-0.960000216960907],"bufferView":19,"byteOffset":0},{"type":"VEC2","componentType":5126,"count":36,"bufferView":19,"byteOffset":12},{"type":"VEC3","componentType":5126,"count":72,"max":[4.869409561157227,2.559999942779541,9.600001335144043],"min":[-4.869410514831543,-2.559999942779541,-9.600000381469727],"bufferView":20,"byteOffset":0},{"type":"VEC3","componentType":5126,"count":72,"bufferView":20,"byteOffset":12},{"type":"VEC2","componentType":5126,"count":72,"bufferView":20,"byteOffset":24},{"type":"VEC3","componentType":5126,"count":84,"max":[4.869409561157227,2.559999942779541,8.64000129699707],"min":[-4.869410514831543,-2.559999942779541,-8.640000343322754],"bufferView":21,"byteOffset":0},{"type":"VEC3","componentType":5126,"count":84,"bufferView":21,"byteOffset":12},{"type":"VEC2","componentType":5126,"count":84,"bufferView":21,"byteOffset":24},{"type":"VEC3","componentType":5126,"count":84,"max":[4.869409561157227,2.559999942779541,7.6800007820129395],"min":[-4.869410514831543,-2.559999942779541,-7.679999828338623],"bufferView":22,"byteOffset":0},{"type":"VEC3","componentType":5126,"count":84,"bufferView":22,"byteOffset":12},{"type":"VEC2","componentType":5126,"count":84,"bufferView":22,"byteOffset":24},{"type":"VEC3","componentType":5126,"count":32,"max":[1.2470766305923462,2.4000000953674316,1.440000057220459],"min":[-1.2470766305923462,-2.4000000953674316,-1.440000057220459],"bufferView":23,"byteOffset":0},{"type":"VEC3","componentType":5126,"count":32,"bufferView":23,"byteOffset":12},{"type":"VEC2","componentType":5126,"count":32,"bufferView":23,"byteOffset":24},{"type":"VEC2","componentType":5126,"count":32,"bufferView":24,"byteOffset":0},{"type":"VEC2","componentType":5126,"count":32,"bufferView":25,"byteOffset":0},{"type":"VEC2","componentType":5126,"count":32,"bufferView":26,"byteOffset":0},{"type":"VEC3","componentType":5126,"count":114,"max":[6.551514625549316,5.440000057220459,7.175468444824219],"min":[-6.551514625549316,-5.440000057220459,-7.175469398498535],"bufferView":27,"byteOffset":0},{"type":"VEC3","componentType":5126,"count":114,"bufferView":27,"byteOffset":12},{"type":"VEC2","componentType":5126,"count":114,"bufferView":27,"byteOffset":24},{"type":"SCALAR","componentType":5126,"count":24,"max":[0.800000011920929],"min":[0.03333333507180214],"bufferView":28,"byteOffset":0},{"type":"VEC3","componentType":5126,"count":24,"bufferView":28,"byteOffset":96},{"type":"VEC4","componentType":5126,"count":24,"bufferView":28,"byteOffset":384},{"type":"VEC4","componentType":5126,"count":24,"bufferView":28,"byteOffset":768},{"type":"VEC4","componentType":5126,"count":24,"bufferView":28,"byteOffset":1152},{"type":"SCALAR","componentType":5126,"count":25,"max":[0.8333333134651184],"min":[0.03333333507180214],"bufferView":28,"byteOffset":1536},{"type":"VEC3","componentType":5126,"count":25,"bufferView":28,"byteOffset":1636},{"type":"VEC4","componentType":5126,"count":25,"bufferView":28,"byteOffset":1936},{"type":"VEC4","componentType":5126,"count":25,"bufferView":28,"byteOffset":2336},{"type":"VEC4","componentType":5126,"count":25,"bufferView":28,"byteOffset":2736},{"type":"VEC4","componentType":5126,"count":25,"bufferView":28,"byteOffset":3136},{"type":"SCALAR","componentType":5126,"count":60,"max":[2],"min":[0.03333333507180214],"bufferView":28,"byteOffset":3536},{"type":"VEC3","componentType":5126,"count":60,"bufferView":28,"byteOffset":3776},{"type":"VEC4","componentType":5126,"count":60,"bufferView":28,"byteOffset":4496},{"type":"SCALAR","componentType":5126,"count":14,"max":[0.46666666865348816],"min":[0.03333333507180214],"bufferView":28,"byteOffset":5456},{"type":"VEC3","componentType":5126,"count":14,"bufferView":28,"byteOffset":5512},{"type":"VEC4","componentType":5126,"count":14,"bufferView":28,"byteOffset":5680},{"type":"VEC4","componentType":5126,"count":14,"bufferView":28,"byteOffset":5904},{"type":"VEC4","componentType":5126,"count":14,"bufferView":28,"byteOffset":6128}],"bufferViews":[{"buffer":0,"byteOffset":0,"byteLength":4736,"byteStride":32,"target":34962},{"buffer":0,"byteOffset":4736,"byteLength":6648,"target":34963},{"buffer":0,"byteOffset":11384,"byteLength":1408,"byteStride":32,"target":34962},{"buffer":0,"byteOffset":12792,"byteLength":352,"byteStride":8,"target":34962},{"buffer":0,"byteOffset":13144,"byteLength":3136,"byteStride":32,"target":34962},{"buffer":0,"byteOffset":16280,"byteLength":1280,"byteStride":32,"target":34962},{"buffer":0,"byteOffset":17560,"byteLength":1024,"byteStride":32,"target":34962},{"buffer":0,"byteOffset":18584,"byteLength":640,"byteStride":20,"target":34962},{"buffer":0,"byteOffset":19224,"byteLength":1152,"byteStride":32,"target":34962},{"buffer":0,"byteOffset":20376,"byteLength":1152,"byteStride":32,"target":34962},{"buffer":0,"byteOffset":21528,"byteLength":720,"byteStride":20,"target":34962},{"buffer":0,"byteOffset":22248,"byteLength":720,"byteStride":20,"target":34962},{"buffer":0,"byteOffset":22968,"byteLength":720,"byteStride":20,"target":34962},{"buffer":0,"byteOffset":23688,"byteLength":1152,"byteStride":32,"target":34962},{"buffer":0,"byteOffset":24840,"byteLength":288,"byteStride":8,"target":34962},{"buffer":0,"byteOffset":25128,"byteLength":288,"byteStride":8,"target":34962},{"buffer":0,"byteOffset":25416,"byteLength":720,"byteStride":20,"target":34962},{"buffer":0,"byteOffset":26136,"byteLength":720,"byteStride":20,"target":34962},{"buffer":0,"byteOffset":26856,"byteLength":720,"byteStride":20,"target":34962},{"buffer":0,"byteOffset":27576,"byteLength":720,"byteStride":20,"target":34962},{"buffer":0,"byteOffset":28296,"byteLength":2304,"byteStride":32,"target":34962},{"buffer":0,"byteOffset":30600,"byteLength":2688,"byteStride":32,"target":34962},{"buffer":0,"byteOffset":33288,"byteLength":2688,"byteStride":32,"target":34962},{"buffer":0,"byteOffset":35976,"byteLength":1024,"byteStride":32,"target":34962},{"buffer":0,"byteOffset":37000,"byteLength":256,"byteStride":8,"target":34962},{"buffer":0,"byteOffset":37256,"byteLength":256,"byteStride":8,"target":34962},{"buffer":0,"byteOffset":37512,"byteLength":256,"byteStride":8,"target":34962},{"buffer":0,"byteOffset":37768,"byteLength":3648,"byteStride":32,"target":34962},{"buffer":0,"byteOffset":41416,"byteLength":6352}],"samplers":[{"magFilter":9729,"minFilter":9987,"wrapS":10497,"wrapT":10497}],"textures":[{"sampler":0,"extensions":{"EXT_texture_webp":{"source":1}}},{"sampler":0,"extensions":{"EXT_texture_webp":{"source":0}}},{"sampler":0,"extensions":{"EXT_texture_webp":{"source":2}}},{"sampler":0,"extensions":{"EXT_texture_webp":{"source":4}}},{"sampler":0,"extensions":{"EXT_texture_webp":{"source":3}}},{"sampler":0,"extensions":{"EXT_texture_webp":{"source":5}}}],"images":[{"name":"chitin_normal","uri":"brute_0.webp"},{"name":"chitin_color","uri":"brute_1.webp"},{"name":"chitin_rough","uri":"brute_2.webp"},{"name":"chitin2_normal","uri":"brute_3.webp"},{"name":"chitin2_color","uri":"brute_4.webp"},{"name":"chitin2_rough","uri":"brute_5.webp"}],"buffers":[{"byteLength":47768,"uri":"data:application/octet-stream;base64,"}],"materials":[{"name":"chitin","doubleSided":true,"pbrMetallicRoughness":{"baseColorFactor":[0.07227185368537903,0.03688944876194,0.019382361322641373,1],"metallicFactor":0.15000000596046448,"baseColorTexture":{"index":0},"metallicRoughnessTexture":{"index":2}},"normalTexture":{"index":1}},{"name":"eye","doubleSided":true,"pbrMetallicRoughness":{"baseColorFactor":[1,0.43415364623069763,0.05126945674419403,1],"roughnessFactor":0.20000000298023224,"metallicFactor":0},"emissiveFactor":[1,0.2541520893573761,0.014443843625485897],"extensions":{"KHR_materials_emissive_strength":{"emissiveStrength":4}}},{"name":"tusk","doubleSided":true,"pbrMetallicRoughness":{"baseColorFactor":[0.68668532371521,0.5647115111351013,0.3613067865371704,1],"roughnessFactor":0.4000000059604645,"metallicFactor":0.10000000149011612}},{"name":"joint","doubleSided":true,"pbrMetallicRoughness":{"baseColorFactor":[0.0423114113509655,0.019382361322641373,0.009134058840572834,1],"metallicFactor":0.10000000149011612,"baseColorTexture":{"index":3},"metallicRoughnessTexture":{"index":5}},"normalTexture":{"index":4}},{"name":"plate","doubleSided":true,"pbrMetallicRoughness":{"baseColorFactor":[0.1119324266910553,0.05780543014407158,0.02955683507025242,1],"metallicFactor":0.20000000298023224,"baseColorTexture":{"index":3},"metallicRoughnessTexture":{"index":5}},"normalTexture":{"index":4}}],"meshes":[{"name":"Sphere","primitives":[{"attributes":{"POSITION":0,"NORMAL":1,"TEXCOORD_0":2},"mode":4,"material":0,"indices":3}]},{"name":"Sphere.006","primitives":[{"attributes":{"POSITION":23,"NORMAL":24,"TEXCOORD_0":25},"mode":4,"material":1,"indices":4}]},{"name":"Sphere.007","primitives":[{"attributes":{"TEXCOORD_0":26,"POSITION":23,"NORMAL":24},"mode":4,"material":1,"indices":5}]},{"name":"Sphere.005","primitives":[{"attributes":{"POSITION":27,"NORMAL":28,"TEXCOORD_0":29},"mode":4,"material":0,"indices":6}]},{"name":"Cone.002","primitives":[{"attributes":{"POSITION":30,"NORMAL":31,"TEXCOORD_0":32},"mode":4,"material":2,"indices":7}]},{"name":"Cone","primitives":[{"attributes":{"POSITION":33,"NORMAL":34,"TEXCOORD_0":35},"mode":4,"material":2,"indices":8}]},{"name":"Cone.001","primitives":[{"attributes":{"POSITION":36,"TEXCOORD_0":37,"NORMAL":34},"mode":4,"material":2,"indices":9}]},{"name":"Cylinder","primitives":[{"attributes":{"POSITION":38,"NORMAL":39,"TEXCOORD_0":40},"mode":4,"material":3,"indices":10}]},{"name":"Cone.007","primitives":[{"attributes":{"POSITION":41,"NORMAL":42,"TEXCOORD_0":43},"mode":4,"material":3,"indices":11}]},{"name":"Cylinder.001","primitives":[{"attributes":{"POSITION":44,"TEXCOORD_0":45,"NORMAL":39},"mode":4,"material":3,"indices":12}]},{"name":"Cone.008","primitives":[{"attributes":{"POSITION":46,"TEXCOORD_0":47,"NORMAL":42},"mode":4,"material":3,"indices":12}]},{"name":"Cylinder.002","primitives":[{"attributes":{"POSITION":48,"TEXCOORD_0":49,"NORMAL":39},"mode":4,"material":3,"indices":13}]},{"name":"Cone.009","primitives":[{"attributes":{"POSITION":50,"NORMAL":51,"TEXCOORD_0":52},"mode":4,"material":3,"indices":14}]},{"name":"Cylinder.003","primitives":[{"attributes":{"TEXCOORD_0":53,"POSITION":48,"NORMAL":39},"mode":4,"material":3,"indices":12}]},{"name":"Cone.010","primitives":[{"attributes":{"TEXCOORD_0":54,"POSITION":50,"NORMAL":51},"mode":4,"material":3,"indices":12}]},{"name":"Cylinder.004","primitives":[{"attributes":{"POSITION":55,"TEXCOORD_0":56,"NORMAL":39},"mode":4,"material":3,"indices":15}]},{"name":"Cone.011","primitives":[{"attributes":{"POSITION":57,"TEXCOORD_0":58,"NORMAL":42},"mode":4,"material":3,"indices":16}]},{"name":"Cylinder.005","primitives":[{"attributes":{"POSITION":59,"TEXCOORD_0":60,"NORMAL":39},"mode":4,"material":3,"indices":12}]},{"name":"Cone.012","primitives":[{"attributes":{"POSITION":61,"TEXCOORD_0":62,"NORMAL":42},"mode":4,"material":3,"indices":12}]},{"name":"Sphere.001","primitives":[{"attributes":{"POSITION":63,"NORMAL":64,"TEXCOORD_0":65},"mode":4,"material":4,"indices":17}]},{"name":"Sphere.002","primitives":[{"attributes":{"POSITION":66,"NORMAL":67,"TEXCOORD_0":68},"mode":4,"material":4,"indices":18}]},{"name":"Sphere.003","primitives":[{"attributes":{"POSITION":69,"NORMAL":70,"TEXCOORD_0":71},"mode":4,"material":4,"indices":19}]},{"name":"Cone.003","primitives":[{"attributes":{"POSITION":72,"NORMAL":73,"TEXCOORD_0":74},"mode":4,"material":2,"indices":20}]},{"name":"Cone.004","primitives":[{"attributes":{"TEXCOORD_0":75,"POSITION":72,"NORMAL":73},"mode":4,"material":2,"indices":21}]},{"name":"Cone.005","primitives":[{"attributes":{"TEXCOORD_0":76,"POSITION":72,"NORMAL":73},"mode":4,"material":2,"indices":21}]},{"name":"Cone.006","primitives":[{"attributes":{"TEXCOORD_0":77,"POSITION":72,"NORMAL":73},"mode":4,"material":2,"indices":21}]},{"name":"Sphere.004","primitives":[{"attributes":{"POSITION":78,"NORMAL":79,"TEXCOORD_0":80},"mode":4,"material":4,"indices":22}]}],"nodes":[{"name":"abdomen","translation":[-6.400000095367432,0.9600000381469727,0],"mesh":0},{"name":"eye","translation":[4.479999542236328,1.2800006866455078,-2.4000000953674316],"mesh":1},{"name":"eye.001","translation":[4.479999542236328,1.2800006866455078,2.4000000953674316],"mesh":2},{"name":"headm","translation":[1.5999994277954102,0,0],"mesh":3},{"name":"horn","translation":[6.239998817443848,4.4800004959106445,0],"rotation":[0,0,-0.4794256091117859,0.8775825500488281],"mesh":4},{"name":"mand1","translation":[3.1999998092651367,-0.32000017166137695,1.2799999713897705],"rotation":[0.15776002407073975,-0.15776002407073975,-0.6892836093902588,0.689283549785614],"mesh":5},{"name":"jaw1","translation":[4.799999237060547,-0.9599995613098145,-2.240000009536743],"children":[5]},{"name":"mand-1","translation":[3.1999998092651367,-0.32000017166137695,-1.2799999713897705],"rotation":[-0.15776002407073975,0.15776002407073975,-0.6892836093902588,0.689283549785614],"mesh":6},{"name":"jaw-1","translation":[4.799999237060547,-0.9599995613098145,2.240000009536743],"children":[7]},{"name":"head","translation":[10.5600004196167,0.31999969482421875,0],"children":[1,2,3,4,6,8]},{"name":"leg0L_a","translation":[1.382399559020996,2.5199999809265137,-3.59999942779541],"rotation":[-0.44427356123924255,0,-0.170601025223732,0.879497766494751],"mesh":7},{"name":"leg0L_b","translation":[1.612800121307373,-6,-3.239999771118164],"rotation":[-0.8624567985534668,0,-0.4293118417263031,0.26806655526161194],"mesh":8},{"name":"leg0L_k","translation":[2.7647995948791504,5.039999485015869,-7.199999809265137],"children":[11]},{"name":"leg0L","translation":[4.800000190734863,-0.6399998664855957,-5.119999885559082],"children":[10,12]},{"name":"leg0R_a","translation":[1.382399559020996,2.5199999809265137,3.59999942779541],"rotation":[0.44427356123924255,0,-0.170601025223732,0.879497766494751],"mesh":9},{"name":"leg0R_b","translation":[1.612800121307373,-6,3.239999771118164],"rotation":[0.8624567985534668,0,-0.4293118417263031,0.26806655526161194],"mesh":10},{"name":"leg0R_k","translation":[2.7647995948791504,5.039999485015869,7.199999809265137],"children":[15]},{"name":"leg0R","translation":[4.800000190734863,-0.6399998664855957,5.119999885559082],"children":[14,16]},{"name":"leg1L_a","translation":[0,2.5199999809265137,-3.59999942779541],"rotation":[-0.46181046962738037,0,0,0.8869786262512207],"mesh":11},{"name":"leg1L_b","translation":[0,-6,-3.239999771118164],"rotation":[-0.9695116281509399,0,0,0.24504543840885162],"mesh":12},{"name":"leg1L_k","translation":[0,5.039999485015869,-7.199999809265137],"children":[19]},{"name":"leg1L","translation":[0.800000011920929,-0.6399998664855957,-5.119999885559082],"children":[18,20]},{"name":"leg1R_a","translation":[0,2.5199999809265137,3.59999942779541],"rotation":[0.46181046962738037,0,0,0.8869786262512207],"mesh":13},{"name":"leg1R_b","translation":[0,-6,3.239999771118164],"rotation":[0.9695116281509399,0,0,0.24504543840885162],"mesh":14},{"name":"leg1R_k","translation":[0,5.039999485015869,7.199999809265137],"children":[23]},{"name":"leg1R","translation":[0.800000011920929,-0.6399998664855957,5.119999885559082],"children":[22,24]},{"name":"leg2L_a","translation":[-1.3824000358581543,2.5199999809265137,-3.59999942779541],"rotation":[-0.44427356123924255,0,0.17060106992721558,0.879497766494751],"mesh":15},{"name":"leg2L_b","translation":[-1.612800121307373,-6,-3.239999771118164],"rotation":[-0.8624567985534668,0,0.4293118417263031,0.26806655526161194],"mesh":16},{"name":"leg2L_k","translation":[-2.7648000717163086,5.039999485015869,-7.199999809265137],"children":[27]},{"name":"leg2L","translation":[-3.5199999809265137,-0.6399998664855957,-5.119999885559082],"children":[26,28]},{"name":"leg2R_a","translation":[-1.3824000358581543,2.5199999809265137,3.59999942779541],"rotation":[0.44427356123924255,0,0.17060106992721558,0.879497766494751],"mesh":17},{"name":"leg2R_b","translation":[-1.612800121307373,-6,3.239999771118164],"rotation":[0.8624567985534668,0,0.4293118417263031,0.26806655526161194],"mesh":18},{"name":"leg2R_k","translation":[-2.7648000717163086,5.039999485015869,7.199999809265137],"children":[31]},{"name":"leg2R","translation":[-3.5199999809265137,-0.6399998664855957,5.119999885559082],"children":[30,32]},{"name":"shell0","translation":[-2.4000000953674316,5.760000228881836,0],"mesh":19},{"name":"shell1","translation":[-8.15999984741211,4.960000038146973,0],"mesh":20},{"name":"shell2","translation":[-13.920000076293945,4.159999847412109,0],"mesh":21},{"name":"spike0","translation":[-1.600000023841858,8.639999389648438,0],"mesh":22},{"name":"spike1","translation":[-6.400000095367432,8,0],"mesh":23},{"name":"spike2","translation":[-11.199999809265137,7.359999656677246,0],"mesh":24},{"name":"spike3","translation":[-16,6.720000267028809,0],"mesh":25},{"name":"thorax","translation":[5.119999885559082,0.6400003433227539,0],"mesh":26},{"name":"body","translation":[0,8,0],"children":[0,9,13,17,21,25,29,33,34,35,36,37,38,39,40,41]},{"name":"root","children":[42]}],"animations":[{"name":"die","samplers":[{"input":81,"output":82,"interpolation":"LINEAR"},{"input":81,"output":83,"interpolation":"LINEAR"},{"input":81,"output":84,"interpolation":"LINEAR"},{"input":81,"output":85,"interpolation":"LINEAR"},{"input":81,"output":84,"interpolation":"LINEAR"},{"input":81,"output":85,"interpolation":"LINEAR"},{"input":81,"output":84,"interpolation":"LINEAR"},{"input":81,"output":85,"interpolation":"LINEAR"}],"channels":[{"sampler":0,"target":{"node":43,"path":"translation"}},{"sampler":1,"target":{"node":43,"path":"rotation"}},{"sampler":2,"target":{"node":13,"path":"rotation"}},{"sampler":3,"target":{"node":17,"path":"rotation"}},{"sampler":4,"target":{"node":21,"path":"rotation"}},{"sampler":5,"target":{"node":25,"path":"rotation"}},{"sampler":6,"target":{"node":29,"path":"rotation"}},{"sampler":7,"target":{"node":33,"path":"rotation"}}]},{"name":"run","samplers":[{"input":86,"output":87,"interpolation":"LINEAR"},{"input":86,"output":88,"interpolation":"LINEAR"},{"input":86,"output":89,"interpolation":"LINEAR"},{"input":86,"output":90,"interpolation":"LINEAR"},{"input":86,"output":91,"interpolation":"LINEAR"},{"input":86,"output":88,"interpolation":"LINEAR"},{"input":86,"output":89,"interpolation":"LINEAR"}],"channels":[{"sampler":0,"target":{"node":42,"path":"translation"}},{"sampler":1,"target":{"node":13,"path":"rotation"}},{"sampler":2,"target":{"node":17,"path":"rotation"}},{"sampler":3,"target":{"node":21,"path":"rotation"}},{"sampler":4,"target":{"node":25,"path":"rotation"}},{"sampler":5,"target":{"node":29,"path":"rotation"}},{"sampler":6,"target":{"node":33,"path":"rotation"}}]},{"name":"idle","samplers":[{"input":92,"output":93,"interpolation":"LINEAR"},{"input":92,"output":94,"interpolation":"LINEAR"}],"channels":[{"sampler":0,"target":{"node":42,"path":"translation"}},{"sampler":1,"target":{"node":9,"path":"rotation"}}]},{"name":"attack","samplers":[{"input":95,"output":96,"interpolation":"LINEAR"},{"input":95,"output":97,"interpolation":"LINEAR"},{"input":95,"output":98,"interpolation":"LINEAR"},{"input":95,"output":99,"interpolation":"LINEAR"}],"channels":[{"sampler":0,"target":{"node":42,"path":"translation"}},{"sampler":1,"target":{"node":42,"path":"rotation"}},{"sampler":2,"target":{"node":6,"path":"rotation"}},{"sampler":3,"target":{"node":8,"path":"rotation"}}]}],"scenes":[{"name":"Scene","nodes":[43]}],"scene":0,"extensionsUsed":["EXT_texture_webp","KHR_materials_emissive_strength"],"extensionsRequired":["EXT_texture_webp"]}