{"asset":{"generator":"glTF-Transform v4.5.1","version":"2.0"},"accessors":[{"type":"VEC3","componentType":5126,"count":98,"max":[2.410749912261963,2.4000000953674316,2.7297980785369873],"min":[-2.410749912261963,-2.4000000953674316,-2.7297980785369873],"bufferView":0,"byteOffset":0},{"type":"VEC3","componentType":5126,"count":98,"bufferView":0,"byteOffset":12},{"type":"VEC2","componentType":5126,"count":98,"bufferView":0,"byteOffset":24},{"type":"SCALAR","componentType":5123,"count":360,"bufferView":1,"byteOffset":0},{"type":"SCALAR","componentType":5123,"count":360,"bufferView":1,"byteOffset":720},{"type":"SCALAR","componentType":5123,"count":60,"bufferView":1,"byteOffset":1440},{"type":"SCALAR","componentType":5123,"count":240,"bufferView":1,"byteOffset":1560},{"type":"SCALAR","componentType":5123,"count":240,"bufferView":1,"byteOffset":2040},{"type":"SCALAR","componentType":5123,"count":360,"bufferView":1,"byteOffset":2520},{"type":"SCALAR","componentType":5123,"count":72,"bufferView":1,"byteOffset":3240},{"type":"SCALAR","componentType":5123,"count":72,"bufferView":1,"byteOffset":3384},{"type":"SCALAR","componentType":5123,"count":504,"bufferView":1,"byteOffset":3528},{"type":"SCALAR","componentType":5123,"count":36,"bufferView":1,"byteOffset":4536},{"type":"VEC3","componentType":5126,"count":98,"max":[2.1325864791870117,2.0999999046325684,2.339827060699463],"min":[-2.1325864791870117,-2.0999999046325684,-2.339827060699463],"bufferView":2,"byteOffset":0},{"type":"VEC3","componentType":5126,"count":98,"bufferView":2,"byteOffset":12},{"type":"VEC2","componentType":5126,"count":98,"bufferView":2,"byteOffset":24},{"type":"VEC3","componentType":5126,"count":98,"max":[1.8544230461120605,1.7999999523162842,1.9498558044433594],"min":[-1.8544230461120605,-1.7999999523162842,-1.9498558044433594],"bufferView":3,"byteOffset":0},{"type":"VEC3","componentType":5126,"count":98,"bufferView":3,"byteOffset":12},{"type":"VEC2","componentType":5126,"count":98,"bufferView":3,"byteOffset":24},{"type":"VEC3","componentType":5126,"count":98,"max":[1.5762596130371094,1.5,1.5598846673965454],"min":[-1.5762596130371094,-1.5,-1.5598846673965454],"bufferView":4,"byteOffset":0},{"type":"VEC3","componentType":5126,"count":98,"bufferView":4,"byteOffset":12},{"type":"VEC2","componentType":5126,"count":98,"bufferView":4,"byteOffset":24},{"type":"VEC3","componentType":5126,"count":32,"max":[0.6062177419662476,2.136000871658325,0.699999988079071],"min":[-0.6062177419662476,-2.136000871658325,-0.699999988079071],"bufferView":5,"byteOffset":0},{"type":"VEC3","componentType":5126,"count":32,"bufferView":5,"byteOffset":12},{"type":"VEC2","componentType":5126,"count":32,"bufferView":5,"byteOffset":24},{"type":"VEC3","componentType":5126,"count":78,"max":[0.9999999403953552,1,0.9999998807907104],"min":[-0.9999998807907104,-1,-1],"bufferView":6,"byteOffset":0},{"type":"VEC3","componentType":5126,"count":78,"bufferView":6,"byteOffset":12},{"type":"VEC2","componentType":5126,"count":78,"bufferView":6,"byteOffset":24},{"type":"VEC2","componentType":5126,"count":78,"bufferView":7,"byteOffset":0},{"type":"VEC3","componentType":5126,"count":98,"max":[2.039865493774414,2,2.5348124504089355],"min":[-2.039865493774414,-2,-2.5348124504089355],"bufferView":8,"byteOffset":0},{"type":"VEC3","componentType":5126,"count":98,"bufferView":8,"byteOffset":12},{"type":"VEC2","componentType":5126,"count":98,"bufferView":8,"byteOffset":24},{"type":"VEC3","componentType":5126,"count":36,"max":[0.3412247896194458,1.599539041519165,0.31533917784690857],"min":[-0.3412247896194458,-1.599539041519165,-0.3500000834465027],"bufferView":9,"byteOffset":0},{"type":"VEC3","componentType":5126,"count":36,"bufferView":9,"byteOffset":12},{"type":"VEC2","componentType":5126,"count":36,"bufferView":9,"byteOffset":24},{"type":"VEC3","componentType":5126,"count":36,"max":[0.27297982573509216,3.601367712020874,0.25227129459381104],"min":[-0.27297982573509216,-3.601367712020874,-0.2800000309944153],"bufferView":10,"byteOffset":0},{"type":"VEC3","componentType":5126,"count":36,"bufferView":10,"byteOffset":12},{"type":"VEC2","componentType":5126,"count":36,"bufferView":10,"byteOffset":24},{"type":"VEC3","componentType":5126,"count":36,"max":[0.3412247896194458,1.599539041519165,0.31533917784690857],"min":[-0.3412247896194458,-1.599539041519165,-0.3500000834465027],"bufferView":11,"byteOffset":0},{"type":"VEC2","componentType":5126,"count":36,"bufferView":11,"byteOffset":12},{"type":"VEC3","componentType":5126,"count":36,"max":[0.27297982573509216,3.601367712020874,0.25227129459381104],"min":[-0.27297982573509216,-3.601367712020874,-0.2800000309944153],"bufferView":12,"byteOffset":0},{"type":"VEC2","componentType":5126,"count":36,"bufferView":12,"byteOffset":12},{"type":"VEC3","componentType":5126,"count":36,"max":[0.3412247598171234,1.525819182395935,0.3153391182422638],"min":[-0.3412247598171234,-1.525819182395935,-0.3500000238418579],"bufferView":13,"byteOffset":0},{"type":"VEC2","componentType":5126,"count":36,"bufferView":13,"byteOffset":12},{"type":"VEC3","componentType":5126,"count":36,"max":[0.27297982573509216,3.5575623512268066,0.25227126479148865],"min":[-0.27297982573509216,-3.5575623512268066,-0.2800000011920929],"bufferView":14,"byteOffset":0},{"type":"VEC3","componentType":5126,"count":36,"bufferView":14,"byteOffset":12},{"type":"VEC2","componentType":5126,"count":36,"bufferView":14,"byteOffset":24},{"type":"VEC3","componentType":5126,"count":36,"max":[0.3412247598171234,1.525819182395935,0.3153391182422638],"min":[-0.3412247598171234,-1.525819182395935,-0.3500000238418579],"bufferView":15,"byteOffset":0},{"type":"VEC2","componentType":5126,"count":36,"bufferView":15,"byteOffset":12},{"type":"VEC2","componentType":5126,"count":36,"bufferView":16,"byteOffset":0},{"type":"VEC3","componentType":5126,"count":36,"max":[0.3412247896194458,1.599539041519165,0.31533917784690857],"min":[-0.3412247896194458,-1.599539041519165,-0.3500000834465027],"bufferView":17,"byteOffset":0},{"type":"VEC2","componentType":5126,"count":36,"bufferView":17,"byteOffset":12},{"type":"VEC2","componentType":5126,"count":36,"bufferView":18,"byteOffset":0},{"type":"VEC3","componentType":5126,"count":36,"max":[0.3412247896194458,1.599539041519165,0.31533917784690857],"min":[-0.3412247896194458,-1.599539041519165,-0.3500000834465027],"bufferView":19,"byteOffset":0},{"type":"VEC2","componentType":5126,"count":36,"bufferView":19,"byteOffset":12},{"type":"VEC2","componentType":5126,"count":36,"bufferView":20,"byteOffset":0},{"type":"VEC3","componentType":5126,"count":130,"max":[3.5999999046325684,3.200000047683716,3.4000000953674316],"min":[-3.5999999046325684,-3.200000047683716,-3.4000000953674316],"bufferView":21,"byteOffset":0},{"type":"VEC3","componentType":5126,"count":130,"bufferView":21,"byteOffset":12},{"type":"VEC2","componentType":5126,"count":130,"bufferView":21,"byteOffset":24},{"type":"VEC3","componentType":5126,"count":24,"max":[2.5,0.07500000298023224,6],"min":[-2.5,-0.07500000298023224,-6],"bufferView":22,"byteOffset":0},{"type":"VEC3","componentType":5126,"count":24,"bufferView":22,"byteOffset":12},{"type":"VEC2","componentType":5126,"count":24,"bufferView":22,"byteOffset":24},{"type":"VEC2","componentType":5126,"count":24,"bufferView":23,"byteOffset":0},{"type":"VEC3","componentType":5126,"count":24,"max":[2,0.07500000298023224,5],"min":[-2,-0.07500000298023224,-5],"bufferView":24,"byteOffset":0},{"type":"VEC2","componentType":5126,"count":24,"bufferView":24,"byteOffset":12},{"type":"VEC2","componentType":5126,"count":24,"bufferView":25,"byteOffset":0},{"type":"SCALAR","componentType":5126,"count":20,"max":[0.6666666865348816],"min":[0.03333333507180214],"bufferView":26,"byteOffset":0},{"type":"VEC3","componentType":5126,"count":20,"bufferView":26,"byteOffset":80},{"type":"VEC4","componentType":5126,"count":20,"bufferView":26,"byteOffset":320},{"type":"SCALAR","componentType":5126,"count":5,"max":[0.1666666716337204],"min":[0.03333333507180214],"bufferView":26,"byteOffset":640},{"type":"VEC3","componentType":5126,"count":5,"bufferView":26,"byteOffset":660},{"type":"VEC4","componentType":5126,"count":5,"bufferView":26,"byteOffset":720},{"type":"VEC4","componentType":5126,"count":5,"bufferView":26,"byteOffset":800},{"type":"SCALAR","componentType":5126,"count":10,"max":[0.3333333432674408],"min":[0.03333333507180214],"bufferView":26,"byteOffset":880},{"type":"VEC3","componentType":5126,"count":10,"bufferView":26,"byteOffset":920},{"type":"VEC4","componentType":5126,"count":10,"bufferView":26,"byteOffset":1040},{"type":"VEC4","componentType":5126,"count":10,"bufferView":26,"byteOffset":1200}],"bufferViews":[{"buffer":0,"byteOffset":0,"byteLength":3136,"byteStride":32,"target":34962},{"buffer":0,"byteOffset":3136,"byteLength":4608,"target":34963},{"buffer":0,"byteOffset":7744,"byteLength":3136,"byteStride":32,"target":34962},{"buffer":0,"byteOffset":10880,"byteLength":3136,"byteStride":32,"target":34962},{"buffer":0,"byteOffset":14016,"byteLength":3136,"byteStride":32,"target":34962},{"buffer":0,"byteOffset":17152,"byteLength":1024,"byteStride":32,"target":34962},{"buffer":0,"byteOffset":18176,"byteLength":2496,"byteStride":32,"target":34962},{"buffer":0,"byteOffset":20672,"byteLength":624,"byteStride":8,"target":34962},{"buffer":0,"byteOffset":21296,"byteLength":3136,"byteStride":32,"target":34962},{"buffer":0,"byteOffset":24432,"byteLength":1152,"byteStride":32,"target":34962},{"buffer":0,"byteOffset":25584,"byteLength":1152,"byteStride":32,"target":34962},{"buffer":0,"byteOffset":26736,"byteLength":720,"byteStride":20,"target":34962},{"buffer":0,"byteOffset":27456,"byteLength":720,"byteStride":20,"target":34962},{"buffer":0,"byteOffset":28176,"byteLength":720,"byteStride":20,"target":34962},{"buffer":0,"byteOffset":28896,"byteLength":1152,"byteStride":32,"target":34962},{"buffer":0,"byteOffset":30048,"byteLength":720,"byteStride":20,"target":34962},{"buffer":0,"byteOffset":30768,"byteLength":288,"byteStride":8,"target":34962},{"buffer":0,"byteOffset":31056,"byteLength":720,"byteStride":20,"target":34962},{"buffer":0,"byteOffset":31776,"byteLength":288,"byteStride":8,"target":34962},{"buffer":0,"byteOffset":32064,"byteLength":720,"byteStride":20,"target":34962},{"buffer":0,"byteOffset":32784,"byteLength":288,"byteStride":8,"target":34962},{"buffer":0,"byteOffset":33072,"byteLength":4160,"byteStride":32,"target":34962},{"buffer":0,"byteOffset":37232,"byteLength":768,"byteStride":32,"target":34962},{"buffer":0,"byteOffset":38000,"byteLength":192,"byteStride":8,"target":34962},{"buffer":0,"byteOffset":38192,"byteLength":480,"byteStride":20,"target":34962},{"buffer":0,"byteOffset":38672,"byteLength":192,"byteStride":8,"target":34962},{"buffer":0,"byteOffset":38864,"byteLength":1360}],"samplers":[{"magFilter":9729,"minFilter":9987,"wrapS":10497,"wrapT":10497}],"textures":[{"sampler":0,"extensions":{"EXT_texture_webp":{"source":1}}},{"sampler":0,"extensions":{"EXT_texture_webp":{"source":0}}},{"sampler":0,"extensions":{"EXT_texture_webp":{"source":2}}},{"sampler":0,"extensions":{"EXT_texture_webp":{"source":4}}},{"sampler":0,"extensions":{"EXT_texture_webp":{"source":3}}},{"sampler":0,"extensions":{"EXT_texture_webp":{"source":5}}}],"images":[{"name":"chitin_normal","uri":"flyer_0.webp"},{"name":"chitin_color","uri":"flyer_1.webp"},{"name":"chitin_rough","uri":"flyer_2.webp"},{"name":"chitin2_normal","uri":"flyer_3.webp"},{"name":"chitin2_color","uri":"flyer_4.webp"},{"name":"chitin2_rough","uri":"flyer_5.webp"}],"buffers":[{"byteLength":40224,"uri":"data:application/octet-stream;base64,"}],"materials":[{"name":"chitin","doubleSided":true,"pbrMetallicRoughness":{"baseColorFactor":[0.04817182570695877,0.0423114113509655,0.02518685907125473,1],"metallicFactor":0.15000000596046448,"baseColorTexture":{"index":0},"metallicRoughnessTexture":{"index":2}},"normalTexture":{"index":1}},{"name":"stripe","doubleSided":true,"pbrMetallicRoughness":{"baseColorFactor":[0.14702726900577545,0.10224173218011856,0.023153366521000862,1],"metallicFactor":0.15000000596046448,"baseColorTexture":{"index":3},"metallicRoughnessTexture":{"index":5}},"normalTexture":{"index":4}},{"name":"joint","doubleSided":true,"pbrMetallicRoughness":{"baseColorFactor":[0.012983032502233982,0.011612244881689548,0.00802319310605526,1],"metallicFactor":0.15000000596046448,"baseColorTexture":{"index":3},"metallicRoughnessTexture":{"index":5}},"normalTexture":{"index":4}},{"name":"eye","doubleSided":true,"pbrMetallicRoughness":{"baseColorFactor":[1,0.0802198201417923,0.02955683507025242,1],"roughnessFactor":0.30000001192092896,"metallicFactor":0},"emissiveFactor":[1,0.0802198201417923,0.02955683507025242],"extensions":{"KHR_materials_emissive_strength":{"emissiveStrength":3}}},{"name":"wing","alphaMode":"BLEND","doubleSided":true,"pbrMetallicRoughness":{"baseColorFactor":[0.577580451965332,0.6307571530342102,0.4793201684951782,0.3499999940395355],"roughnessFactor":0.30000001192092896,"metallicFactor":0}}],"meshes":[{"name":"Sphere.001","primitives":[{"attributes":{"POSITION":0,"NORMAL":1,"TEXCOORD_0":2},"mode":4,"material":0,"indices":3}]},{"name":"Sphere.002","primitives":[{"attributes":{"POSITION":13,"NORMAL":14,"TEXCOORD_0":15},"mode":4,"material":1,"indices":4}]},{"name":"Sphere.003","primitives":[{"attributes":{"POSITION":16,"NORMAL":17,"TEXCOORD_0":18},"mode":4,"material":0,"indices":4}]},{"name":"Sphere.004","primitives":[{"attributes":{"POSITION":19,"NORMAL":20,"TEXCOORD_0":21},"mode":4,"material":1,"indices":4}]},{"name":"Cone","primitives":[{"attributes":{"POSITION":22,"NORMAL":23,"TEXCOORD_0":24},"mode":4,"material":2,"indices":5}]},{"name":"Sphere.006","primitives":[{"attributes":{"POSITION":25,"NORMAL":26,"TEXCOORD_0":27},"mode":4,"material":3,"indices":6}]},{"name":"Sphere.007","primitives":[{"attributes":{"TEXCOORD_0":28,"POSITION":25,"NORMAL":26},"mode":4,"material":3,"indices":7}]},{"name":"Sphere.005","primitives":[{"attributes":{"POSITION":29,"NORMAL":30,"TEXCOORD_0":31},"mode":4,"material":0,"indices":8}]},{"name":"Cylinder","primitives":[{"attributes":{"POSITION":32,"NORMAL":33,"TEXCOORD_0":34},"mode":4,"material":2,"indices":9}]},{"name":"Cone.001","primitives":[{"attributes":{"POSITION":35,"NORMAL":36,"TEXCOORD_0":37},"mode":4,"material":2,"indices":9}]},{"name":"Cylinder.001","primitives":[{"attributes":{"POSITION":38,"TEXCOORD_0":39,"NORMAL":33},"mode":4,"material":2,"indices":9}]},{"name":"Cone.002","primitives":[{"attributes":{"POSITION":40,"TEXCOORD_0":41,"NORMAL":36},"mode":4,"material":2,"indices":9}]},{"name":"Cylinder.002","primitives":[{"attributes":{"POSITION":42,"TEXCOORD_0":43,"NORMAL":33},"mode":4,"material":2,"indices":9}]},{"name":"Cone.003","primitives":[{"attributes":{"POSITION":44,"NORMAL":45,"TEXCOORD_0":46},"mode":4,"material":2,"indices":9}]},{"name":"Cylinder.003","primitives":[{"attributes":{"POSITION":47,"TEXCOORD_0":48,"NORMAL":33},"mode":4,"material":2,"indices":9}]},{"name":"Cone.004","primitives":[{"attributes":{"TEXCOORD_0":49,"POSITION":44,"NORMAL":45},"mode":4,"material":2,"indices":9}]},{"name":"Cylinder.004","primitives":[{"attributes":{"POSITION":50,"TEXCOORD_0":51,"NORMAL":33},"mode":4,"material":2,"indices":10}]},{"name":"Cone.005","primitives":[{"attributes":{"TEXCOORD_0":52,"POSITION":40,"NORMAL":36},"mode":4,"material":2,"indices":10}]},{"name":"Cylinder.005","primitives":[{"attributes":{"POSITION":53,"TEXCOORD_0":54,"NORMAL":33},"mode":4,"material":2,"indices":9}]},{"name":"Cone.006","primitives":[{"attributes":{"TEXCOORD_0":55,"POSITION":35,"NORMAL":36},"mode":4,"material":2,"indices":9}]},{"name":"Sphere","primitives":[{"attributes":{"POSITION":56,"NORMAL":57,"TEXCOORD_0":58},"mode":4,"material":0,"indices":11}]},{"name":"Cube","primitives":[{"attributes":{"POSITION":59,"NORMAL":60,"TEXCOORD_0":61},"mode":4,"material":4,"indices":12}]},{"name":"Cube.001","primitives":[{"attributes":{"TEXCOORD_0":62,"POSITION":59,"NORMAL":60},"mode":4,"material":4,"indices":12}]},{"name":"Cube.002","primitives":[{"attributes":{"POSITION":63,"TEXCOORD_0":64,"NORMAL":60},"mode":4,"material":4,"indices":12}]},{"name":"Cube.003","primitives":[{"attributes":{"TEXCOORD_0":65,"POSITION":63,"NORMAL":60},"mode":4,"material":4,"indices":12}]}],"nodes":[{"name":"abd0","translation":[-1.5,-0.5,0],"mesh":0},{"name":"abd1","translation":[-4.5,-1.2000007629394531,0],"mesh":1},{"name":"abd2","translation":[-7.5,-1.8999996185302734,0],"mesh":2},{"name":"abd3","translation":[-10.5,-2.6000003814697266,0],"mesh":3},{"name":"stinger","translation":[-14,-3.25,0],"rotation":[0,0,0.8219255805015564,0.5695948600769043],"mesh":4},{"name":"abdomen","translation":[-2,0,0],"children":[0,1,2,3,4]},{"name":"eye","translation":[6.400000095367432,1,-1.600000023841858],"mesh":5},{"name":"eye.001","translation":[6.400000095367432,1,1.600000023841858],"mesh":6},{"name":"head","translation":[5.400000095367432,0.39999961853027344,0],"mesh":7},{"name":"leg0L_a","translation":[0.48000001907348633,0.875,-1.25],"rotation":[-0.44427356123924255,0,-0.17060105502605438,0.879497766494751],"mesh":8},{"name":"leg0L_b","translation":[0.559999942779541,-3.375,-1.125],"rotation":[-0.8810417056083679,0,-0.4385630190372467,0.17727941274642944],"mesh":9},{"name":"leg0L_k","translation":[0.9600000381469727,1.75,-2.5],"children":[10]},{"name":"leg0L","translation":[2.5,-1.5,-2.4000000953674316],"children":[9,11]},{"name":"leg0R_a","translation":[0.48000001907348633,0.875,1.25],"rotation":[0.44427356123924255,0,-0.17060105502605438,0.879497766494751],"mesh":10},{"name":"leg0R_b","translation":[0.559999942779541,-3.375,1.125],"rotation":[0.8810417056083679,0,-0.4385630190372467,0.17727941274642944],"mesh":11},{"name":"leg0R_k","translation":[0.9600000381469727,1.75,2.5],"children":[14]},{"name":"leg0R","translation":[2.5,-1.5,2.4000000953674316],"children":[13,15]},{"name":"leg1L_a","translation":[0,0.875,-1.25],"rotation":[-0.4618103802204132,0,0,0.8869787454605103],"mesh":12},{"name":"leg1L_b","translation":[0,-3.375,-1.125],"rotation":[-0.9870875477790833,0,0,0.16018225252628326],"mesh":13},{"name":"leg1L_k","translation":[0,1.75,-2.5],"children":[18]},{"name":"leg1L","translation":[1,-1.5,-2.4000000953674316],"children":[17,19]},{"name":"leg1R_a","translation":[0,0.875,1.25],"rotation":[0.4618103802204132,0,0,0.8869787454605103],"mesh":14},{"name":"leg1R_b","translation":[0,-3.375,1.125],"rotation":[0.9870875477790833,0,0,0.16018225252628326],"mesh":15},{"name":"leg1R_k","translation":[0,1.75,2.5],"children":[22]},{"name":"leg1R","translation":[1,-1.5,2.4000000953674316],"children":[21,23]},{"name":"leg2L_a","translation":[-0.48000001907348633,0.875,-1.25],"rotation":[-0.44427356123924255,0,0.17060105502605438,0.879497766494751],"mesh":16},{"name":"leg2L_b","translation":[-0.559999942779541,-3.375,-1.125],"rotation":[-0.8810417056083679,0,0.4385630190372467,0.17727941274642944],"mesh":17},{"name":"leg2L_k","translation":[-0.9600000381469727,1.75,-2.5],"children":[26]},{"name":"leg2L","translation":[-0.5,-1.5,-2.4000000953674316],"children":[25,27]},{"name":"leg2R_a","translation":[-0.48000001907348633,0.875,1.25],"rotation":[0.44427356123924255,0,0.17060105502605438,0.879497766494751],"mesh":18},{"name":"leg2R_b","translation":[-0.559999942779541,-3.375,1.125],"rotation":[0.8810417056083679,0,0.4385630190372467,0.17727941274642944],"mesh":19},{"name":"leg2R_k","translation":[-0.9600000381469727,1.75,2.5],"children":[30]},{"name":"leg2R","translation":[-0.5,-1.5,2.4000000953674316],"children":[29,31]},{"name":"thorax","translation":[1,0,0],"mesh":20},{"name":"wingm0L","translation":[-1.500000238418579,0.20000028610229492,-6.000001907348633],"rotation":[0,0.12467475980520248,0,0.9921977519989014],"mesh":21},{"name":"wing0L","translation":[2.200000047683716,2,-2.5999999046325684],"rotation":[0.34289780259132385,0,0,0.9393728375434875],"children":[34]},{"name":"wingm0R","translation":[-1.500000238418579,0.20000028610229492,6.000001907348633],"rotation":[0,-0.12467475980520248,0,0.9921977519989014],"mesh":22},{"name":"wing0R","translation":[2.200000047683716,2,2.5999999046325684],"rotation":[-0.34289780259132385,0,0,0.9393728375434875],"children":[36]},{"name":"wingm1L","translation":[-1.5,0.20000028610229492,-5],"rotation":[0,0.24740397930145264,0,0.9689124226570129],"mesh":23},{"name":"wing1L","translation":[-0.20000000298023224,2,-2.5999999046325684],"rotation":[0.34289780259132385,0,0,0.9393728375434875],"children":[38]},{"name":"wingm1R","translation":[-1.5,0.20000028610229492,5],"rotation":[0,-0.24740397930145264,0,0.9689124226570129],"mesh":24},{"name":"wing1R","translation":[-0.20000000298023224,2,2.5999999046325684],"rotation":[-0.34289780259132385,0,0,0.9393728375434875],"children":[40]},{"name":"body","translation":[0,22,0],"children":[5,6,7,8,12,16,20,24,28,32,33,35,37,39,41]},{"name":"root","children":[42]}],"animations":[{"name":"die","samplers":[{"input":66,"output":67,"interpolation":"LINEAR"},{"input":66,"output":68,"interpolation":"LINEAR"}],"channels":[{"sampler":0,"target":{"node":43,"path":"translation"}},{"sampler":1,"target":{"node":43,"path":"rotation"}}]},{"name":"run","samplers":[{"input":69,"output":70,"interpolation":"LINEAR"},{"input":69,"output":71,"interpolation":"LINEAR"},{"input":69,"output":72,"interpolation":"LINEAR"},{"input":69,"output":71,"interpolation":"LINEAR"},{"input":69,"output":72,"interpolation":"LINEAR"}],"channels":[{"sampler":0,"target":{"node":42,"path":"translation"}},{"sampler":1,"target":{"node":35,"path":"rotation"}},{"sampler":2,"target":{"node":37,"path":"rotation"}},{"sampler":3,"target":{"node":39,"path":"rotation"}},{"sampler":4,"target":{"node":41,"path":"rotation"}}]},{"name":"attack","samplers":[{"input":73,"output":74,"interpolation":"LINEAR"},{"input":73,"output":75,"interpolation":"LINEAR"},{"input":73,"output":76,"interpolation":"LINEAR"}],"channels":[{"sampler":0,"target":{"node":42,"path":"translation"}},{"sampler":1,"target":{"node":42,"path":"rotation"}},{"sampler":2,"target":{"node":5,"path":"rotation"}}]},{"name":"idle","samplers":[{"input":69,"output":71,"interpolation":"LINEAR"},{"input":69,"output":72,"interpolation":"LINEAR"},{"input":69,"output":71,"interpolation":"LINEAR"},{"input":69,"output":72,"interpolation":"LINEAR"}],"channels":[{"sampler":0,"target":{"node":35,"path":"rotation"}},{"sampler":1,"target":{"node":37,"path":"rotation"}},{"sampler":2,"target":{"node":39,"path":"rotation"}},{"sampler":3,"target":{"node":41,"path":"rotation"}}]}],"scenes":[{"name":"Scene","nodes":[43]}],"scene":0,"extensionsUsed":["EXT_texture_webp","KHR_materials_emissive_strength"],"extensionsRequired":["EXT_texture_webp"]}