{"asset":{"generator":"glTF-Transform v4.5.1","version":"2.0"},"accessors":[{"type":"VEC3","componentType":5126,"count":44,"max":[0.5196152925491333,0.6000000238418579,0.6000000238418579],"min":[-0.5196153521537781,-0.6000000238418579,-0.6000000238418579],"bufferView":0,"byteOffset":0},{"type":"VEC3","componentType":5126,"count":44,"bufferView":0,"byteOffset":12},{"type":"VEC2","componentType":5126,"count":44,"bufferView":0,"byteOffset":24},{"type":"SCALAR","componentType":5123,"count":108,"bufferView":1,"byteOffset":0},{"type":"SCALAR","componentType":5123,"count":108,"bufferView":1,"byteOffset":216},{"type":"SCALAR","componentType":5123,"count":360,"bufferView":1,"byteOffset":432},{"type":"SCALAR","componentType":5123,"count":60,"bufferView":1,"byteOffset":1152},{"type":"SCALAR","componentType":5123,"count":36,"bufferView":1,"byteOffset":1272},{"type":"SCALAR","componentType":5123,"count":60,"bufferView":1,"byteOffset":1344},{"type":"SCALAR","componentType":5123,"count":36,"bufferView":1,"byteOffset":1464},{"type":"SCALAR","componentType":5123,"count":432,"bufferView":1,"byteOffset":1536},{"type":"SCALAR","componentType":5123,"count":48,"bufferView":1,"byteOffset":2400},{"type":"SCALAR","componentType":5123,"count":48,"bufferView":1,"byteOffset":2496},{"type":"SCALAR","componentType":5123,"count":432,"bufferView":1,"byteOffset":2592},{"type":"SCALAR","componentType":5123,"count":432,"bufferView":1,"byteOffset":3456},{"type":"SCALAR","componentType":5123,"count":48,"bufferView":1,"byteOffset":4320},{"type":"SCALAR","componentType":5123,"count":432,"bufferView":1,"byteOffset":4416},{"type":"SCALAR","componentType":5123,"count":48,"bufferView":1,"byteOffset":5280},{"type":"VEC2","componentType":5126,"count":44,"bufferView":2,"byteOffset":0},{"type":"VEC3","componentType":5126,"count":98,"max":[2.5961921215057373,2.4000000953674316,2.924783706665039],"min":[-2.5961921215057373,-2.4000000953674316,-2.924783706665039],"bufferView":3,"byteOffset":0},{"type":"VEC3","componentType":5126,"count":98,"bufferView":3,"byteOffset":12},{"type":"VEC2","componentType":5126,"count":98,"bufferView":3,"byteOffset":24},{"type":"VEC3","componentType":5126,"count":32,"max":[0.6062179207801819,3.16780686378479,0.7000001072883606],"min":[-0.6062179207801819,-3.16780686378479,-0.7000001072883606],"bufferView":4,"byteOffset":0},{"type":"VEC3","componentType":5126,"count":32,"bufferView":4,"byteOffset":12},{"type":"VEC2","componentType":5126,"count":32,"bufferView":4,"byteOffset":24},{"type":"VEC3","componentType":5126,"count":20,"max":[0.8999996781349182,4.636809349060059,0.9000000357627869],"min":[-0.900000274181366,-4.636809349060059,-0.8999999165534973],"bufferView":5,"byteOffset":0},{"type":"VEC3","componentType":5126,"count":20,"bufferView":5,"byteOffset":12},{"type":"VEC2","componentType":5126,"count":20,"bufferView":5,"byteOffset":24},{"type":"VEC3","componentType":5126,"count":32,"max":[0.6062179207801819,3.16780686378479,0.7000001072883606],"min":[-0.6062179207801819,-3.16780686378479,-0.7000001072883606],"bufferView":6,"byteOffset":0},{"type":"VEC2","componentType":5126,"count":32,"bufferView":6,"byteOffset":12},{"type":"VEC3","componentType":5126,"count":20,"max":[0.8999996781349182,4.636809349060059,0.8999999165534973],"min":[-0.900000274181366,-4.636809349060059,-0.9000000357627869],"bufferView":7,"byteOffset":0},{"type":"VEC2","componentType":5126,"count":20,"bufferView":7,"byteOffset":12},{"type":"VEC3","componentType":5126,"count":114,"max":[2.5348122119903564,2.200000047683716,2.2618324756622314],"min":[-2.5348122119903564,-2.200000047683716,-2.2618327140808105],"bufferView":8,"byteOffset":0},{"type":"VEC3","componentType":5126,"count":114,"bufferView":8,"byteOffset":12},{"type":"VEC2","componentType":5126,"count":114,"bufferView":8,"byteOffset":24},{"type":"VEC3","componentType":5126,"count":28,"max":[0.3804226219654083,2.881405830383301,0.32360708713531494],"min":[-0.3804226219654083,-2.881405830383301,-0.399999737739563],"bufferView":9,"byteOffset":0},{"type":"VEC3","componentType":5126,"count":28,"bufferView":9,"byteOffset":12},{"type":"VEC2","componentType":5126,"count":28,"bufferView":9,"byteOffset":24},{"type":"VEC3","componentType":5126,"count":28,"max":[0.3804226219654083,2.881405830383301,0.32360655069351196],"min":[-0.3804226219654083,-2.881405830383301,-0.40000027418136597],"bufferView":10,"byteOffset":0},{"type":"VEC2","componentType":5126,"count":28,"bufferView":10,"byteOffset":12},{"type":"VEC3","componentType":5126,"count":114,"max":[2.5348122119903564,2.200000047683716,2.43731951713562],"min":[-2.5348122119903564,-2.200000047683716,-2.437319755554199],"bufferView":11,"byteOffset":0},{"type":"VEC3","componentType":5126,"count":114,"bufferView":11,"byteOffset":12},{"type":"VEC2","componentType":5126,"count":114,"bufferView":11,"byteOffset":24},{"type":"VEC2","componentType":5126,"count":28,"bufferView":12,"byteOffset":0},{"type":"VEC2","componentType":5126,"count":28,"bufferView":13,"byteOffset":0},{"type":"VEC3","componentType":5126,"count":114,"max":[2.5348122119903564,2.200000047683716,2.612806558609009],"min":[-2.5348122119903564,-2.200000047683716,-2.612806797027588],"bufferView":14,"byteOffset":0},{"type":"VEC3","componentType":5126,"count":114,"bufferView":14,"byteOffset":12},{"type":"VEC2","componentType":5126,"count":114,"bufferView":14,"byteOffset":24},{"type":"VEC2","componentType":5126,"count":28,"bufferView":15,"byteOffset":0},{"type":"VEC2","componentType":5126,"count":28,"bufferView":16,"byteOffset":0},{"type":"VEC3","componentType":5126,"count":114,"max":[2.5348122119903564,2.200000047683716,2.7882933616638184],"min":[-2.5348122119903564,-2.200000047683716,-2.7882936000823975],"bufferView":17,"byteOffset":0},{"type":"VEC3","componentType":5126,"count":114,"bufferView":17,"byteOffset":12},{"type":"VEC2","componentType":5126,"count":114,"bufferView":17,"byteOffset":24},{"type":"VEC2","componentType":5126,"count":28,"bufferView":18,"byteOffset":0},{"type":"VEC2","componentType":5126,"count":28,"bufferView":19,"byteOffset":0},{"type":"VEC3","componentType":5126,"count":114,"max":[2.5348122119903564,2.200000047683716,2.963780403137207],"min":[-2.5348122119903564,-2.200000047683716,-2.9637808799743652],"bufferView":20,"byteOffset":0},{"type":"VEC3","componentType":5126,"count":114,"bufferView":20,"byteOffset":12},{"type":"VEC2","componentType":5126,"count":114,"bufferView":20,"byteOffset":24},{"type":"VEC3","componentType":5126,"count":28,"max":[0.3804226219654083,2.88140606880188,0.32360681891441345],"min":[-0.3804226219654083,-2.88140606880188,-0.4000000059604645],"bufferView":21,"byteOffset":0},{"type":"VEC2","componentType":5126,"count":28,"bufferView":21,"byteOffset":12},{"type":"VEC3","componentType":5126,"count":28,"max":[0.3804226219654083,2.88140606880188,0.32360681891441345],"min":[-0.3804226219654083,-2.88140606880188,-0.4000000059604645],"bufferView":22,"byteOffset":0},{"type":"VEC2","componentType":5126,"count":28,"bufferView":22,"byteOffset":12},{"type":"VEC3","componentType":5126,"count":114,"max":[2.5348122119903564,2.200000047683716,3.1392674446105957],"min":[-2.5348122119903564,-2.200000047683716,-3.139267921447754],"bufferView":23,"byteOffset":0},{"type":"VEC3","componentType":5126,"count":114,"bufferView":23,"byteOffset":12},{"type":"VEC2","componentType":5126,"count":114,"bufferView":23,"byteOffset":24},{"type":"VEC3","componentType":5126,"count":28,"max":[0.38042253255844116,2.8814055919647217,0.3236067295074463],"min":[-0.38042259216308594,-2.8814055919647217,-0.40000009536743164],"bufferView":24,"byteOffset":0},{"type":"VEC2","componentType":5126,"count":28,"bufferView":24,"byteOffset":12},{"type":"VEC3","componentType":5126,"count":28,"max":[0.38042253255844116,2.8814055919647217,0.3236069083213806],"min":[-0.38042259216308594,-2.8814055919647217,-0.3999999165534973],"bufferView":25,"byteOffset":0},{"type":"VEC2","componentType":5126,"count":28,"bufferView":25,"byteOffset":12},{"type":"VEC3","componentType":5126,"count":114,"max":[2.5348122119903564,2.200000047683716,3.3147544860839844],"min":[-2.5348122119903564,-2.200000047683716,-3.3147549629211426],"bufferView":26,"byteOffset":0},{"type":"VEC3","componentType":5126,"count":114,"bufferView":26,"byteOffset":12},{"type":"VEC2","componentType":5126,"count":114,"bufferView":26,"byteOffset":24},{"type":"VEC2","componentType":5126,"count":28,"bufferView":27,"byteOffset":0},{"type":"VEC2","componentType":5126,"count":28,"bufferView":28,"byteOffset":0},{"type":"SCALAR","componentType":5126,"count":20,"max":[0.6666666865348816],"min":[0.03333333507180214],"bufferView":29,"byteOffset":0},{"type":"VEC3","componentType":5126,"count":20,"bufferView":29,"byteOffset":80},{"type":"VEC4","componentType":5126,"count":20,"bufferView":29,"byteOffset":320},{"type":"SCALAR","componentType":5126,"count":14,"max":[0.46666666865348816],"min":[0.03333333507180214],"bufferView":29,"byteOffset":640},{"type":"VEC4","componentType":5126,"count":14,"bufferView":29,"byteOffset":696},{"type":"SCALAR","componentType":5126,"count":60,"max":[2],"min":[0.03333333507180214],"bufferView":29,"byteOffset":920},{"type":"VEC4","componentType":5126,"count":60,"bufferView":29,"byteOffset":1160},{"type":"SCALAR","componentType":5126,"count":17,"max":[0.5666666626930237],"min":[0.03333333507180214],"bufferView":29,"byteOffset":2120},{"type":"VEC4","componentType":5126,"count":17,"bufferView":29,"byteOffset":2188},{"type":"VEC4","componentType":5126,"count":17,"bufferView":29,"byteOffset":2460},{"type":"VEC4","componentType":5126,"count":17,"bufferView":29,"byteOffset":2732},{"type":"VEC4","componentType":5126,"count":17,"bufferView":29,"byteOffset":3004},{"type":"VEC4","componentType":5126,"count":17,"bufferView":29,"byteOffset":3276},{"type":"VEC4","componentType":5126,"count":17,"bufferView":29,"byteOffset":3548},{"type":"VEC4","componentType":5126,"count":17,"bufferView":29,"byteOffset":3820}],"bufferViews":[{"buffer":0,"byteOffset":0,"byteLength":1408,"byteStride":32,"target":34962},{"buffer":0,"byteOffset":1408,"byteLength":5376,"target":34963},{"buffer":0,"byteOffset":6784,"byteLength":352,"byteStride":8,"target":34962},{"buffer":0,"byteOffset":7136,"byteLength":3136,"byteStride":32,"target":34962},{"buffer":0,"byteOffset":10272,"byteLength":1024,"byteStride":32,"target":34962},{"buffer":0,"byteOffset":11296,"byteLength":640,"byteStride":32,"target":34962},{"buffer":0,"byteOffset":11936,"byteLength":640,"byteStride":20,"target":34962},{"buffer":0,"byteOffset":12576,"byteLength":400,"byteStride":20,"target":34962},{"buffer":0,"byteOffset":12976,"byteLength":3648,"byteStride":32,"target":34962},{"buffer":0,"byteOffset":16624,"byteLength":896,"byteStride":32,"target":34962},{"buffer":0,"byteOffset":17520,"byteLength":560,"byteStride":20,"target":34962},{"buffer":0,"byteOffset":18080,"byteLength":3648,"byteStride":32,"target":34962},{"buffer":0,"byteOffset":21728,"byteLength":224,"byteStride":8,"target":34962},{"buffer":0,"byteOffset":21952,"byteLength":224,"byteStride":8,"target":34962},{"buffer":0,"byteOffset":22176,"byteLength":3648,"byteStride":32,"target":34962},{"buffer":0,"byteOffset":25824,"byteLength":224,"byteStride":8,"target":34962},{"buffer":0,"byteOffset":26048,"byteLength":224,"byteStride":8,"target":34962},{"buffer":0,"byteOffset":26272,"byteLength":3648,"byteStride":32,"target":34962},{"buffer":0,"byteOffset":29920,"byteLength":224,"byteStride":8,"target":34962},{"buffer":0,"byteOffset":30144,"byteLength":224,"byteStride":8,"target":34962},{"buffer":0,"byteOffset":30368,"byteLength":3648,"byteStride":32,"target":34962},{"buffer":0,"byteOffset":34016,"byteLength":560,"byteStride":20,"target":34962},{"buffer":0,"byteOffset":34576,"byteLength":560,"byteStride":20,"target":34962},{"buffer":0,"byteOffset":35136,"byteLength":3648,"byteStride":32,"target":34962},{"buffer":0,"byteOffset":38784,"byteLength":560,"byteStride":20,"target":34962},{"buffer":0,"byteOffset":39344,"byteLength":560,"byteStride":20,"target":34962},{"buffer":0,"byteOffset":39904,"byteLength":3648,"byteStride":32,"target":34962},{"buffer":0,"byteOffset":43552,"byteLength":224,"byteStride":8,"target":34962},{"buffer":0,"byteOffset":43776,"byteLength":224,"byteStride":8,"target":34962},{"buffer":0,"byteOffset":44000,"byteLength":4092}],"samplers":[{"magFilter":9729,"minFilter":9987,"wrapS":10497,"wrapT":10497}],"textures":[{"sampler":0,"extensions":{"EXT_texture_webp":{"source":1}}},{"sampler":0,"extensions":{"EXT_texture_webp":{"source":0}}},{"sampler":0,"extensions":{"EXT_texture_webp":{"source":2}}},{"sampler":0,"extensions":{"EXT_texture_webp":{"source":4}}},{"sampler":0,"extensions":{"EXT_texture_webp":{"source":3}}},{"sampler":0,"extensions":{"EXT_texture_webp":{"source":5}}}],"images":[{"name":"chitin_normal","uri":"lancer_0.webp"},{"name":"chitin_color","uri":"lancer_1.webp"},{"name":"chitin_rough","uri":"lancer_2.webp"},{"name":"chitin2_normal","uri":"lancer_3.webp"},{"name":"chitin2_color","uri":"lancer_4.webp"},{"name":"chitin2_rough","uri":"lancer_5.webp"}],"buffers":[{"byteLength":48092,"uri":"data:application/octet-stream;base64,"}],"materials":[{"name":"eye","doubleSided":true,"pbrMetallicRoughness":{"baseColorFactor":[1,0.05126945674419403,0.014443843625485897,1],"roughnessFactor":0.30000001192092896,"metallicFactor":0},"emissiveFactor":[1,0.05126945674419403,0.014443843625485897],"extensions":{"KHR_materials_emissive_strength":{"emissiveStrength":3}}},{"name":"chitin","doubleSided":true,"pbrMetallicRoughness":{"baseColorFactor":[0.0423114113509655,0.02955683507025242,0.021219009533524513,1],"metallicFactor":0.15000000596046448,"baseColorTexture":{"index":0},"metallicRoughnessTexture":{"index":2}},"normalTexture":{"index":1}},{"name":"joint","doubleSided":true,"pbrMetallicRoughness":{"baseColorFactor":[0.012983032502233982,0.009134058840572834,0.006048833020031452,1],"metallicFactor":0.15000000596046448,"baseColorTexture":{"index":3},"metallicRoughnessTexture":{"index":5}},"normalTexture":{"index":4}},{"name":"blade","doubleSided":true,"pbrMetallicRoughness":{"baseColorFactor":[0.68668532371521,0.6239603757858276,0.4793201684951782,1],"metallicFactor":0.20000000298023224,"baseColorTexture":{"index":3},"metallicRoughnessTexture":{"index":5}},"normalTexture":{"index":4}},{"name":"plate","doubleSided":true,"pbrMetallicRoughness":{"baseColorFactor":[0.10224173218011856,0.06847816705703735,0.039546236395835876,1],"metallicFactor":0.15000000596046448,"baseColorTexture":{"index":3},"metallicRoughnessTexture":{"index":5}},"normalTexture":{"index":4}}],"meshes":[{"name":"Sphere.008","primitives":[{"attributes":{"POSITION":0,"NORMAL":1,"TEXCOORD_0":2},"mode":4,"material":0,"indices":3}]},{"name":"Sphere.009","primitives":[{"attributes":{"TEXCOORD_0":18,"POSITION":0,"NORMAL":1},"mode":4,"material":0,"indices":4}]},{"name":"Sphere.007","primitives":[{"attributes":{"POSITION":19,"NORMAL":20,"TEXCOORD_0":21},"mode":4,"material":1,"indices":5}]},{"name":"Cylinder","primitives":[{"attributes":{"POSITION":22,"NORMAL":23,"TEXCOORD_0":24},"mode":4,"material":2,"indices":6}]},{"name":"Cone.014","primitives":[{"attributes":{"POSITION":25,"NORMAL":26,"TEXCOORD_0":27},"mode":4,"material":3,"indices":7}]},{"name":"Cylinder.001","primitives":[{"attributes":{"POSITION":28,"TEXCOORD_0":29,"NORMAL":23},"mode":4,"material":2,"indices":8}]},{"name":"Cone.015","primitives":[{"attributes":{"POSITION":30,"TEXCOORD_0":31,"NORMAL":26},"mode":4,"material":3,"indices":9}]},{"name":"Sphere.006","primitives":[{"attributes":{"POSITION":32,"NORMAL":33,"TEXCOORD_0":34},"mode":4,"material":1,"indices":10}]},{"name":"Cone.013","primitives":[{"attributes":{"POSITION":35,"NORMAL":36,"TEXCOORD_0":37},"mode":4,"material":2,"indices":11}]},{"name":"Cone.012","primitives":[{"attributes":{"POSITION":38,"TEXCOORD_0":39,"NORMAL":36},"mode":4,"material":2,"indices":12}]},{"name":"Sphere.005","primitives":[{"attributes":{"POSITION":40,"NORMAL":41,"TEXCOORD_0":42},"mode":4,"material":4,"indices":10}]},{"name":"Cone.011","primitives":[{"attributes":{"TEXCOORD_0":43,"POSITION":35,"NORMAL":36},"mode":4,"material":2,"indices":11}]},{"name":"Cone.010","primitives":[{"attributes":{"TEXCOORD_0":44,"POSITION":38,"NORMAL":36},"mode":4,"material":2,"indices":12}]},{"name":"Sphere.004","primitives":[{"attributes":{"POSITION":45,"NORMAL":46,"TEXCOORD_0":47},"mode":4,"material":1,"indices":13}]},{"name":"Cone.009","primitives":[{"attributes":{"TEXCOORD_0":48,"POSITION":35,"NORMAL":36},"mode":4,"material":2,"indices":11}]},{"name":"Cone.008","primitives":[{"attributes":{"TEXCOORD_0":49,"POSITION":38,"NORMAL":36},"mode":4,"material":2,"indices":12}]},{"name":"Sphere.003","primitives":[{"attributes":{"POSITION":50,"NORMAL":51,"TEXCOORD_0":52},"mode":4,"material":4,"indices":13}]},{"name":"Cone.007","primitives":[{"attributes":{"TEXCOORD_0":53,"POSITION":35,"NORMAL":36},"mode":4,"material":2,"indices":11}]},{"name":"Cone.006","primitives":[{"attributes":{"TEXCOORD_0":54,"POSITION":38,"NORMAL":36},"mode":4,"material":2,"indices":12}]},{"name":"Sphere.002","primitives":[{"attributes":{"POSITION":55,"NORMAL":56,"TEXCOORD_0":57},"mode":4,"material":1,"indices":13}]},{"name":"Cone.005","primitives":[{"attributes":{"POSITION":58,"TEXCOORD_0":59,"NORMAL":36},"mode":4,"material":2,"indices":11}]},{"name":"Cone.004","primitives":[{"attributes":{"POSITION":60,"TEXCOORD_0":61,"NORMAL":36},"mode":4,"material":2,"indices":12}]},{"name":"Sphere.001","primitives":[{"attributes":{"POSITION":62,"NORMAL":63,"TEXCOORD_0":64},"mode":4,"material":4,"indices":14}]},{"name":"Cone.003","primitives":[{"attributes":{"POSITION":65,"TEXCOORD_0":66,"NORMAL":36},"mode":4,"material":2,"indices":15}]},{"name":"Cone.002","primitives":[{"attributes":{"POSITION":67,"TEXCOORD_0":68,"NORMAL":36},"mode":4,"material":2,"indices":12}]},{"name":"Sphere","primitives":[{"attributes":{"POSITION":69,"NORMAL":70,"TEXCOORD_0":71},"mode":4,"material":1,"indices":16}]},{"name":"Cone.001","primitives":[{"attributes":{"TEXCOORD_0":72,"POSITION":58,"NORMAL":36},"mode":4,"material":2,"indices":15}]},{"name":"Cone","primitives":[{"attributes":{"TEXCOORD_0":73,"POSITION":60,"NORMAL":36},"mode":4,"material":2,"indices":17}]}],"nodes":[{"name":"eye","translation":[2.5,1.1999998092651367,-1.399999976158142],"mesh":0},{"name":"eye.001","translation":[2.5,1.1999998092651367,1.399999976158142],"mesh":1},{"name":"headm","translation":[0.5,0.40000009536743164,0],"mesh":2},{"name":"head","translation":[5.5,1,0],"children":[0,1,2]},{"name":"armL","translation":[1.75,2.5,-0.8500001430511475],"rotation":[-0.14184598624706268,0,-0.29203590750694275,0.945830225944519],"mesh":3},{"name":"bladeL","translation":[7,2,-1.2000000476837158],"rotation":[0.1283353567123413,0,-0.8983476161956787,0.4201209545135498],"mesh":4},{"name":"scytheL","translation":[4.5,2,-2.799999952316284],"children":[4,5]},{"name":"armR","translation":[1.75,2.5,0.8500001430511475],"rotation":[0.14184598624706268,0,-0.29203590750694275,0.945830225944519],"mesh":5},{"name":"bladeR","translation":[7,2,1.2000000476837158],"rotation":[-0.1283353567123413,0,-0.8983476161956787,0.4201209545135498],"mesh":6},{"name":"scytheR","translation":[4.5,2,2.799999952316284],"children":[7,8]},{"name":"segm6","translation":[0,0.19999933242797852,0],"mesh":7},{"name":"sleg6-1","translation":[0.3000008463859558,-2.500000476837158,4.550000190734863],"rotation":[0.9189228415489197,0,-0.14137281477451324,0.3682316243648529],"mesh":8},{"name":"sleg61","translation":[0.2999994456768036,-2.500000476837158,-4.549999713897705],"rotation":[-0.9189229607582092,0,-0.14137284457683563,0.3682316243648529],"mesh":9},{"name":"seg6","translation":[-4.200003147125244,0,0],"rotation":[0,0.046349260956048965,0,0.9989253282546997],"children":[10,11,12]},{"name":"segm5","translation":[0,0.19999980926513672,0],"mesh":10},{"name":"sleg5-1","translation":[0.2999967932701111,-2.5,4.549999713897705],"rotation":[0.9189228415489197,0,-0.14137284457683563,0.3682316243648529],"mesh":11},{"name":"sleg51","translation":[0.2999967336654663,-2.5,-4.550000190734863],"rotation":[-0.9189229607582092,0,-0.14137285947799683,0.3682316243648529],"mesh":12},{"name":"seg5","translation":[-4.199997901916504,0,0],"rotation":[0,0.05861819162964821,0,0.9982804656028748],"children":[13,14,15,16]},{"name":"segm4","translation":[0,0.19999980926513672,0],"mesh":13},{"name":"sleg4-1","translation":[0.299999475479126,-2.5,4.550000190734863],"rotation":[0.9189228415489197,0,-0.14137284457683563,0.3682316243648529],"mesh":14},{"name":"sleg41","translation":[0.29999983310699463,-2.5,-4.550000190734863],"rotation":[-0.9189228415489197,0,-0.14137284457683563,0.3682316243648529],"mesh":15},{"name":"seg4","translation":[-4.19999885559082,0,0],"rotation":[0,0.026548102498054504,0,0.9996475577354431],"children":[17,18,19,20]},{"name":"segm3","translation":[0,0.19999933242797852,0],"mesh":16},{"name":"sleg3-1","translation":[0.2999996542930603,-2.500000476837158,4.5500006675720215],"rotation":[0.9189229607582092,0,-0.14137284457683563,0.3682316243648529],"mesh":17},{"name":"sleg31","translation":[0.2999999523162842,-2.500000476837158,-4.550000190734863],"rotation":[-0.9189228415489197,0,-0.14137284457683563,0.3682316243648529],"mesh":18},{"name":"seg3","translation":[-4.200000762939453,0,0],"rotation":[0,-0.025639988481998444,0,0.9996713399887085],"children":[21,22,23,24]},{"name":"segm2","translation":[0,0.19999980926513672,0],"mesh":19},{"name":"sleg2-1","translation":[0.2999997138977051,-2.5,4.550000190734863],"rotation":[0.9189229011535645,0,-0.14137272536754608,0.3682316243648529],"mesh":20},{"name":"sleg21","translation":[0.2999997138977051,-2.5,-4.550000190734863],"rotation":[-0.9189229011535645,0,-0.1413727104663849,0.3682316243648529],"mesh":21},{"name":"seg2","translation":[-4.199999809265137,0,0],"rotation":[0,-0.05839760974049568,0,0.998293399810791],"children":[25,26,27,28]},{"name":"segm1","translation":[0,0.19999980926513672,0],"mesh":22},{"name":"sleg1-1","translation":[0.30000025033950806,-2.5,4.550000190734863],"rotation":[0.9189228415489197,0,-0.14137274026870728,0.3682316541671753],"mesh":23},{"name":"sleg11","translation":[0.30000007152557373,-2.5,-4.5500006675720215],"rotation":[-0.9189228415489197,0,-0.14137274026870728,0.3682316243648529],"mesh":24},{"name":"seg1","translation":[-4.199999809265137,0,0],"rotation":[0,-0.04698232188820839,0,0.9988958239555359],"children":[29,30,31,32]},{"name":"segm0","translation":[0,0.19999980926513672,0],"mesh":25},{"name":"sleg0-1","translation":[0.2999999523162842,-2.5,4.550000190734863],"rotation":[0.9189228415489197,0,-0.14137272536754608,0.3682316243648529],"mesh":26},{"name":"sleg01","translation":[0.2999999523162842,-2.5,-4.550000190734863],"rotation":[-0.9189228415489197,0,-0.14137272536754608,0.3682316243648529],"mesh":27},{"name":"seg0","translation":[2,0,0],"children":[33,34,35,36]},{"name":"body","translation":[0,5,0],"children":[3,6,9,37]},{"name":"root","children":[38]}],"animations":[{"name":"die","samplers":[{"input":74,"output":75,"interpolation":"LINEAR"},{"input":74,"output":76,"interpolation":"LINEAR"}],"channels":[{"sampler":0,"target":{"node":39,"path":"translation"}},{"sampler":1,"target":{"node":39,"path":"rotation"}}]},{"name":"attack","samplers":[{"input":77,"output":78,"interpolation":"LINEAR"},{"input":77,"output":78,"interpolation":"LINEAR"}],"channels":[{"sampler":0,"target":{"node":6,"path":"rotation"}},{"sampler":1,"target":{"node":9,"path":"rotation"}}]},{"name":"idle","samplers":[{"input":79,"output":80,"interpolation":"LINEAR"},{"input":79,"output":80,"interpolation":"LINEAR"}],"channels":[{"sampler":0,"target":{"node":6,"path":"rotation"}},{"sampler":1,"target":{"node":9,"path":"rotation"}}]},{"name":"run","samplers":[{"input":81,"output":82,"interpolation":"LINEAR"},{"input":81,"output":83,"interpolation":"LINEAR"},{"input":81,"output":84,"interpolation":"LINEAR"},{"input":81,"output":85,"interpolation":"LINEAR"},{"input":81,"output":86,"interpolation":"LINEAR"},{"input":81,"output":87,"interpolation":"LINEAR"},{"input":81,"output":88,"interpolation":"LINEAR"}],"channels":[{"sampler":0,"target":{"node":37,"path":"rotation"}},{"sampler":1,"target":{"node":33,"path":"rotation"}},{"sampler":2,"target":{"node":29,"path":"rotation"}},{"sampler":3,"target":{"node":25,"path":"rotation"}},{"sampler":4,"target":{"node":21,"path":"rotation"}},{"sampler":5,"target":{"node":17,"path":"rotation"}},{"sampler":6,"target":{"node":13,"path":"rotation"}}]}],"scenes":[{"name":"Scene","nodes":[39]}],"scene":0,"extensionsUsed":["EXT_texture_webp","KHR_materials_emissive_strength"],"extensionsRequired":["EXT_texture_webp"]}