{"asset":{"generator":"glTF-Transform v4.5.1","version":"2.0"},"accessors":[{"type":"VEC3","componentType":5126,"count":198,"max":[9,5.5,7.5],"min":[-8.999999046325684,-5.5,-7.5],"bufferView":0,"byteOffset":0},{"type":"VEC3","componentType":5126,"count":198,"bufferView":0,"byteOffset":12},{"type":"VEC2","componentType":5126,"count":198,"bufferView":0,"byteOffset":24},{"type":"SCALAR","componentType":5123,"count":864,"bufferView":1,"byteOffset":0},{"type":"SCALAR","componentType":5123,"count":360,"bufferView":1,"byteOffset":1728},{"type":"SCALAR","componentType":5123,"count":156,"bufferView":1,"byteOffset":2448},{"type":"SCALAR","componentType":5123,"count":156,"bufferView":1,"byteOffset":2760},{"type":"SCALAR","componentType":5123,"count":72,"bufferView":1,"byteOffset":3072},{"type":"SCALAR","componentType":5123,"count":72,"bufferView":1,"byteOffset":3216},{"type":"SCALAR","componentType":5123,"count":72,"bufferView":1,"byteOffset":3360},{"type":"SCALAR","componentType":5123,"count":72,"bufferView":1,"byteOffset":3504},{"type":"SCALAR","componentType":5123,"count":72,"bufferView":1,"byteOffset":3648},{"type":"SCALAR","componentType":5123,"count":72,"bufferView":1,"byteOffset":3792},{"type":"SCALAR","componentType":5123,"count":72,"bufferView":1,"byteOffset":3936},{"type":"SCALAR","componentType":5123,"count":72,"bufferView":1,"byteOffset":4080},{"type":"SCALAR","componentType":5123,"count":48,"bufferView":1,"byteOffset":4224},{"type":"SCALAR","componentType":5123,"count":48,"bufferView":1,"byteOffset":4320},{"type":"SCALAR","componentType":5123,"count":504,"bufferView":1,"byteOffset":4416},{"type":"VEC3","componentType":5126,"count":98,"max":[2.410749912261963,2.4000000953674316,3.119769334793091],"min":[-2.410749912261963,-2.4000000953674316,-3.119769334793091],"bufferView":2,"byteOffset":0},{"type":"VEC3","componentType":5126,"count":98,"bufferView":2,"byteOffset":12},{"type":"VEC2","componentType":5126,"count":98,"bufferView":2,"byteOffset":24},{"type":"VEC3","componentType":5126,"count":64,"max":[3.119769334793091,4.5,3.200000047683716],"min":[-3.119769334793091,-4.5,-3.200000047683716],"bufferView":3,"byteOffset":0},{"type":"VEC3","componentType":5126,"count":64,"bufferView":3,"byteOffset":12},{"type":"VEC2","componentType":5126,"count":64,"bufferView":3,"byteOffset":24},{"type":"VEC3","componentType":5126,"count":64,"max":[2.437319755554199,0.6000000238418579,2.5],"min":[-2.437319755554199,-0.6000000238418579,-2.5],"bufferView":4,"byteOffset":0},{"type":"VEC3","componentType":5126,"count":64,"bufferView":4,"byteOffset":12},{"type":"VEC2","componentType":5126,"count":64,"bufferView":4,"byteOffset":24},{"type":"VEC3","componentType":5126,"count":36,"max":[0.7799423933029175,3.456696033477783,0.7207751274108887],"min":[-0.7799423933029175,-3.456696033477783,-0.800000011920929],"bufferView":5,"byteOffset":0},{"type":"VEC3","componentType":5126,"count":36,"bufferView":5,"byteOffset":12},{"type":"VEC2","componentType":5126,"count":36,"bufferView":5,"byteOffset":24},{"type":"VEC3","componentType":5126,"count":36,"max":[0.6239537596702576,5.861114025115967,0.5766200423240662],"min":[-0.6239538788795471,-5.861114025115967,-0.6399999856948853],"bufferView":6,"byteOffset":0},{"type":"VEC3","componentType":5126,"count":36,"bufferView":6,"byteOffset":12},{"type":"VEC2","componentType":5126,"count":36,"bufferView":6,"byteOffset":24},{"type":"VEC3","componentType":5126,"count":36,"max":[0.7799423933029175,3.456696033477783,0.7207751274108887],"min":[-0.7799423933029175,-3.456696033477783,-0.800000011920929],"bufferView":7,"byteOffset":0},{"type":"VEC2","componentType":5126,"count":36,"bufferView":7,"byteOffset":12},{"type":"VEC3","componentType":5126,"count":36,"max":[0.6239537596702576,5.861114025115967,0.5766200423240662],"min":[-0.6239538788795471,-5.861114025115967,-0.6399999856948853],"bufferView":8,"byteOffset":0},{"type":"VEC2","componentType":5126,"count":36,"bufferView":8,"byteOffset":12},{"type":"VEC3","componentType":5126,"count":36,"max":[0.7799423336982727,3.456696033477783,0.7207751274108887],"min":[-0.7799423336982727,-3.456696033477783,-0.800000011920929],"bufferView":9,"byteOffset":0},{"type":"VEC2","componentType":5126,"count":36,"bufferView":9,"byteOffset":12},{"type":"VEC3","componentType":5126,"count":36,"max":[0.6239539384841919,5.861115455627441,0.5766202807426453],"min":[-0.6239538192749023,-5.861115455627441,-0.6399998664855957],"bufferView":10,"byteOffset":0},{"type":"VEC2","componentType":5126,"count":36,"bufferView":10,"byteOffset":12},{"type":"VEC3","componentType":5126,"count":36,"max":[0.7799423336982727,3.456696033477783,0.7207751274108887],"min":[-0.7799423336982727,-3.456696033477783,-0.800000011920929],"bufferView":11,"byteOffset":0},{"type":"VEC2","componentType":5126,"count":36,"bufferView":11,"byteOffset":12},{"type":"VEC3","componentType":5126,"count":36,"max":[0.6239539384841919,5.861115455627441,0.5766199231147766],"min":[-0.6239538192749023,-5.861115455627441,-0.6400002241134644],"bufferView":12,"byteOffset":0},{"type":"VEC2","componentType":5126,"count":36,"bufferView":12,"byteOffset":12},{"type":"VEC3","componentType":5126,"count":36,"max":[0.7799424529075623,4.170580863952637,0.7207751870155334],"min":[-0.7799424529075623,-4.170580863952637,-0.8000001311302185],"bufferView":13,"byteOffset":0},{"type":"VEC2","componentType":5126,"count":36,"bufferView":13,"byteOffset":12},{"type":"VEC3","componentType":5126,"count":36,"max":[0.6239534020423889,6.46250057220459,0.5766198635101318],"min":[-0.6239541172981262,-6.46250057220459,-0.6400001645088196],"bufferView":14,"byteOffset":0},{"type":"VEC3","componentType":5126,"count":36,"bufferView":14,"byteOffset":12},{"type":"VEC2","componentType":5126,"count":36,"bufferView":14,"byteOffset":24},{"type":"VEC3","componentType":5126,"count":36,"max":[0.7799424529075623,4.170580863952637,0.7207751870155334],"min":[-0.7799424529075623,-4.170580863952637,-0.8000001311302185],"bufferView":15,"byteOffset":0},{"type":"VEC2","componentType":5126,"count":36,"bufferView":15,"byteOffset":12},{"type":"VEC3","componentType":5126,"count":36,"max":[0.6239534020423889,6.46250057220459,0.5766202211380005],"min":[-0.6239541172981262,-6.46250057220459,-0.6399998068809509],"bufferView":16,"byteOffset":0},{"type":"VEC2","componentType":5126,"count":36,"bufferView":16,"byteOffset":12},{"type":"VEC3","componentType":5126,"count":36,"max":[0.779942512512207,5.318246841430664,0.7207750678062439],"min":[-0.779942512512207,-5.318246841430664,-0.800000011920929],"bufferView":17,"byteOffset":0},{"type":"VEC2","componentType":5126,"count":36,"bufferView":17,"byteOffset":12},{"type":"VEC3","componentType":5126,"count":36,"max":[0.6239540576934814,7.522393703460693,0.5766201019287109],"min":[-0.6239535808563232,-7.522393703460693,-0.64000004529953],"bufferView":18,"byteOffset":0},{"type":"VEC3","componentType":5126,"count":36,"bufferView":18,"byteOffset":12},{"type":"VEC2","componentType":5126,"count":36,"bufferView":18,"byteOffset":24},{"type":"VEC3","componentType":5126,"count":36,"max":[0.779942512512207,5.318246841430664,0.7207750678062439],"min":[-0.779942512512207,-5.318246841430664,-0.800000011920929],"bufferView":19,"byteOffset":0},{"type":"VEC2","componentType":5126,"count":36,"bufferView":19,"byteOffset":12},{"type":"VEC3","componentType":5126,"count":36,"max":[0.6239540576934814,7.522393703460693,0.5766201019287109],"min":[-0.6239535808563232,-7.522393703460693,-0.64000004529953],"bufferView":20,"byteOffset":0},{"type":"VEC2","componentType":5126,"count":36,"bufferView":20,"byteOffset":12},{"type":"VEC3","componentType":5126,"count":28,"max":[0.6657395958900452,1.3928390741348267,0.5663118958473206],"min":[-0.6657395958900452,-1.3928390741348267,-0.699999988079071],"bufferView":21,"byteOffset":0},{"type":"VEC3","componentType":5126,"count":28,"bufferView":21,"byteOffset":12},{"type":"VEC2","componentType":5126,"count":28,"bufferView":21,"byteOffset":24},{"type":"VEC3","componentType":5126,"count":28,"max":[0.6657395958900452,1.486606478691101,0.5663118958473206],"min":[-0.6657395958900452,-1.486606478691101,-0.699999988079071],"bufferView":22,"byteOffset":0},{"type":"VEC3","componentType":5126,"count":28,"bufferView":22,"byteOffset":12},{"type":"VEC2","componentType":5126,"count":28,"bufferView":22,"byteOffset":24},{"type":"VEC3","componentType":5126,"count":28,"max":[0.6657395958900452,1.5811388492584229,0.5663118958473206],"min":[-0.6657395958900452,-1.5811388492584229,-0.699999988079071],"bufferView":23,"byteOffset":0},{"type":"VEC3","componentType":5126,"count":28,"bufferView":23,"byteOffset":12},{"type":"VEC2","componentType":5126,"count":28,"bufferView":23,"byteOffset":24},{"type":"VEC2","componentType":5126,"count":28,"bufferView":24,"byteOffset":0},{"type":"VEC2","componentType":5126,"count":28,"bufferView":25,"byteOffset":0},{"type":"VEC3","componentType":5126,"count":138,"max":[5,4,5.5],"min":[-5,-4,-5.5],"bufferView":26,"byteOffset":0},{"type":"VEC3","componentType":5126,"count":138,"bufferView":26,"byteOffset":12},{"type":"VEC2","componentType":5126,"count":138,"bufferView":26,"byteOffset":24},{"type":"SCALAR","componentType":5126,"count":28,"max":[0.9333333373069763],"min":[0.03333333507180214],"bufferView":27,"byteOffset":0},{"type":"VEC3","componentType":5126,"count":28,"bufferView":27,"byteOffset":112},{"type":"VEC4","componentType":5126,"count":28,"bufferView":27,"byteOffset":448},{"type":"VEC4","componentType":5126,"count":28,"bufferView":27,"byteOffset":896},{"type":"VEC4","componentType":5126,"count":28,"bufferView":27,"byteOffset":1344},{"type":"SCALAR","componentType":5126,"count":22,"max":[0.7333333492279053],"min":[0.03333333507180214],"bufferView":27,"byteOffset":1792},{"type":"VEC3","componentType":5126,"count":22,"bufferView":27,"byteOffset":1880},{"type":"VEC3","componentType":5126,"count":22,"bufferView":27,"byteOffset":2144},{"type":"VEC4","componentType":5126,"count":22,"bufferView":27,"byteOffset":2408},{"type":"SCALAR","componentType":5126,"count":60,"max":[2],"min":[0.03333333507180214],"bufferView":27,"byteOffset":2760},{"type":"VEC3","componentType":5126,"count":60,"bufferView":27,"byteOffset":3000},{"type":"SCALAR","componentType":5126,"count":29,"max":[0.9666666388511658],"min":[0.03333333507180214],"bufferView":27,"byteOffset":3720},{"type":"VEC4","componentType":5126,"count":29,"bufferView":27,"byteOffset":3836},{"type":"VEC4","componentType":5126,"count":29,"bufferView":27,"byteOffset":4300},{"type":"VEC4","componentType":5126,"count":29,"bufferView":27,"byteOffset":4764},{"type":"VEC4","componentType":5126,"count":29,"bufferView":27,"byteOffset":5228}],"bufferViews":[{"buffer":0,"byteOffset":0,"byteLength":6336,"byteStride":32,"target":34962},{"buffer":0,"byteOffset":6336,"byteLength":5424,"target":34963},{"buffer":0,"byteOffset":11760,"byteLength":3136,"byteStride":32,"target":34962},{"buffer":0,"byteOffset":14896,"byteLength":2048,"byteStride":32,"target":34962},{"buffer":0,"byteOffset":16944,"byteLength":2048,"byteStride":32,"target":34962},{"buffer":0,"byteOffset":18992,"byteLength":1152,"byteStride":32,"target":34962},{"buffer":0,"byteOffset":20144,"byteLength":1152,"byteStride":32,"target":34962},{"buffer":0,"byteOffset":21296,"byteLength":720,"byteStride":20,"target":34962},{"buffer":0,"byteOffset":22016,"byteLength":720,"byteStride":20,"target":34962},{"buffer":0,"byteOffset":22736,"byteLength":720,"byteStride":20,"target":34962},{"buffer":0,"byteOffset":23456,"byteLength":720,"byteStride":20,"target":34962},{"buffer":0,"byteOffset":24176,"byteLength":720,"byteStride":20,"target":34962},{"buffer":0,"byteOffset":24896,"byteLength":720,"byteStride":20,"target":34962},{"buffer":0,"byteOffset":25616,"byteLength":720,"byteStride":20,"target":34962},{"buffer":0,"byteOffset":26336,"byteLength":1152,"byteStride":32,"target":34962},{"buffer":0,"byteOffset":27488,"byteLength":720,"byteStride":20,"target":34962},{"buffer":0,"byteOffset":28208,"byteLength":720,"byteStride":20,"target":34962},{"buffer":0,"byteOffset":28928,"byteLength":720,"byteStride":20,"target":34962},{"buffer":0,"byteOffset":29648,"byteLength":1152,"byteStride":32,"target":34962},{"buffer":0,"byteOffset":30800,"byteLength":720,"byteStride":20,"target":34962},{"buffer":0,"byteOffset":31520,"byteLength":720,"byteStride":20,"target":34962},{"buffer":0,"byteOffset":32240,"byteLength":896,"byteStride":32,"target":34962},{"buffer":0,"byteOffset":33136,"byteLength":896,"byteStride":32,"target":34962},{"buffer":0,"byteOffset":34032,"byteLength":896,"byteStride":32,"target":34962},{"buffer":0,"byteOffset":34928,"byteLength":224,"byteStride":8,"target":34962},{"buffer":0,"byteOffset":35152,"byteLength":224,"byteStride":8,"target":34962},{"buffer":0,"byteOffset":35376,"byteLength":4416,"byteStride":32,"target":34962},{"buffer":0,"byteOffset":39792,"byteLength":5692}],"samplers":[{"magFilter":9729,"minFilter":9987,"wrapS":10497,"wrapT":10497}],"textures":[{"sampler":0,"extensions":{"EXT_texture_webp":{"source":1}}},{"sampler":0,"extensions":{"EXT_texture_webp":{"source":0}}},{"sampler":0,"extensions":{"EXT_texture_webp":{"source":2}}},{"sampler":0,"extensions":{"EXT_texture_webp":{"source":4}}},{"sampler":0,"extensions":{"EXT_texture_webp":{"source":3}}},{"sampler":0,"extensions":{"EXT_texture_webp":{"source":5}}}],"images":[{"name":"chitin_normal","uri":"mortar_0.webp"},{"name":"chitin_color","uri":"mortar_1.webp"},{"name":"chitin_rough","uri":"mortar_2.webp"},{"name":"chitin2_normal","uri":"mortar_3.webp"},{"name":"chitin2_color","uri":"mortar_4.webp"},{"name":"chitin2_rough","uri":"mortar_5.webp"}],"buffers":[{"byteLength":45484,"uri":"data:application/octet-stream;base64,"}],"materials":[{"name":"chitin","doubleSided":true,"pbrMetallicRoughness":{"baseColorFactor":[0.06847816705703735,0.061246052384376526,0.03688944876194,1],"metallicFactor":0.15000000596046448,"baseColorTexture":{"index":0},"metallicRoughnessTexture":{"index":2}},"normalTexture":{"index":1}},{"name":"plate","doubleSided":true,"pbrMetallicRoughness":{"baseColorFactor":[0.1441284716129303,0.11697066575288773,0.05126945674419403,1],"metallicFactor":0.15000000596046448,"baseColorTexture":{"index":3},"metallicRoughnessTexture":{"index":5}},"normalTexture":{"index":4}},{"name":"acid","doubleSided":true,"pbrMetallicRoughness":{"baseColorFactor":[0.2746773064136505,0.7454041838645935,0.06847816705703735,1],"roughnessFactor":0.30000001192092896,"metallicFactor":0},"emissiveFactor":[0.2746773064136505,0.7454041838645935,0.06847816705703735]},{"name":"joint","doubleSided":true,"pbrMetallicRoughness":{"baseColorFactor":[0.017641954123973846,0.01599629409611225,0.01032982300966978,1],"metallicFactor":0.15000000596046448,"baseColorTexture":{"index":3},"metallicRoughnessTexture":{"index":5}},"normalTexture":{"index":4}}],"meshes":[{"name":"Sphere","primitives":[{"attributes":{"POSITION":0,"NORMAL":1,"TEXCOORD_0":2},"mode":4,"material":0,"indices":3}]},{"name":"Sphere.002","primitives":[{"attributes":{"POSITION":18,"NORMAL":19,"TEXCOORD_0":20},"mode":4,"material":0,"indices":4}]},{"name":"Cone","primitives":[{"attributes":{"POSITION":21,"NORMAL":22,"TEXCOORD_0":23},"mode":4,"material":1,"indices":5}]},{"name":"Cylinder","primitives":[{"attributes":{"POSITION":24,"NORMAL":25,"TEXCOORD_0":26},"mode":4,"material":2,"indices":6}]},{"name":"Cylinder.001","primitives":[{"attributes":{"POSITION":27,"NORMAL":28,"TEXCOORD_0":29},"mode":4,"material":3,"indices":7}]},{"name":"Cone.006","primitives":[{"attributes":{"POSITION":30,"NORMAL":31,"TEXCOORD_0":32},"mode":4,"material":3,"indices":8}]},{"name":"Cylinder.002","primitives":[{"attributes":{"POSITION":33,"TEXCOORD_0":34,"NORMAL":28},"mode":4,"material":3,"indices":9}]},{"name":"Cone.007","primitives":[{"attributes":{"POSITION":35,"TEXCOORD_0":36,"NORMAL":31},"mode":4,"material":3,"indices":9}]},{"name":"Cylinder.003","primitives":[{"attributes":{"POSITION":37,"TEXCOORD_0":38,"NORMAL":28},"mode":4,"material":3,"indices":10}]},{"name":"Cone.008","primitives":[{"attributes":{"POSITION":39,"TEXCOORD_0":40,"NORMAL":31},"mode":4,"material":3,"indices":11}]},{"name":"Cylinder.004","primitives":[{"attributes":{"POSITION":41,"TEXCOORD_0":42,"NORMAL":28},"mode":4,"material":3,"indices":9}]},{"name":"Cone.009","primitives":[{"attributes":{"POSITION":43,"TEXCOORD_0":44,"NORMAL":31},"mode":4,"material":3,"indices":9}]},{"name":"Cylinder.005","primitives":[{"attributes":{"POSITION":45,"TEXCOORD_0":46,"NORMAL":28},"mode":4,"material":3,"indices":12}]},{"name":"Cone.010","primitives":[{"attributes":{"POSITION":47,"NORMAL":48,"TEXCOORD_0":49},"mode":4,"material":3,"indices":13}]},{"name":"Cylinder.006","primitives":[{"attributes":{"POSITION":50,"TEXCOORD_0":51,"NORMAL":28},"mode":4,"material":3,"indices":9}]},{"name":"Cone.011","primitives":[{"attributes":{"POSITION":52,"TEXCOORD_0":53,"NORMAL":48},"mode":4,"material":3,"indices":9}]},{"name":"Cylinder.007","primitives":[{"attributes":{"POSITION":54,"TEXCOORD_0":55,"NORMAL":28},"mode":4,"material":3,"indices":12}]},{"name":"Cone.012","primitives":[{"attributes":{"POSITION":56,"NORMAL":57,"TEXCOORD_0":58},"mode":4,"material":3,"indices":14}]},{"name":"Cylinder.008","primitives":[{"attributes":{"POSITION":59,"TEXCOORD_0":60,"NORMAL":28},"mode":4,"material":3,"indices":14}]},{"name":"Cone.013","primitives":[{"attributes":{"POSITION":61,"TEXCOORD_0":62,"NORMAL":57},"mode":4,"material":3,"indices":14}]},{"name":"Cone.001","primitives":[{"attributes":{"POSITION":63,"NORMAL":64,"TEXCOORD_0":65},"mode":4,"material":3,"indices":15}]},{"name":"Cone.002","primitives":[{"attributes":{"POSITION":66,"NORMAL":67,"TEXCOORD_0":68},"mode":4,"material":3,"indices":15}]},{"name":"Cone.003","primitives":[{"attributes":{"POSITION":69,"NORMAL":70,"TEXCOORD_0":71},"mode":4,"material":3,"indices":15}]},{"name":"Cone.004","primitives":[{"attributes":{"TEXCOORD_0":72,"POSITION":66,"NORMAL":67},"mode":4,"material":3,"indices":16}]},{"name":"Cone.005","primitives":[{"attributes":{"TEXCOORD_0":73,"POSITION":63,"NORMAL":64},"mode":4,"material":3,"indices":16}]},{"name":"Sphere.001","primitives":[{"attributes":{"POSITION":74,"NORMAL":75,"TEXCOORD_0":76},"mode":4,"material":1,"indices":17}]}],"nodes":[{"name":"abdomen","translation":[-3,0.5,0],"mesh":0},{"name":"head","translation":[9.399999618530273,-0.40000009536743164,0],"mesh":1},{"name":"organ","translation":[0,4,0],"rotation":[0,0,0.22310638427734375,0.9747942090034485],"mesh":2},{"name":"organ_mouth","translation":[-2,8.399999618530273,0],"rotation":[0,0,0.22310638427734375,0.9747942090034485],"mesh":3},{"name":"launcher","translation":[-2,4,0],"children":[2,3]},{"name":"leg0L_a","translation":[0.8249998092651367,1.9250001907348633,-2.75],"rotation":[-0.4508451521396637,0,-0.13525357842445374,0.8822953701019287],"mesh":4},{"name":"leg0L_b","translation":[0.9625000953674316,-5.225000381469727,-2.4750003814697266],"rotation":[-0.9063640832901001,0,-0.3524748980998993,0.23294976353645325],"mesh":5},{"name":"leg0L_k","translation":[1.6500000953674316,3.8500003814697266,-5.5],"children":[6]},{"name":"leg0L","translation":[5,-1,-4],"children":[5,7]},{"name":"leg0R_a","translation":[0.8249998092651367,1.9250001907348633,2.75],"rotation":[0.4508451521396637,0,-0.13525357842445374,0.8822953701019287],"mesh":6},{"name":"leg0R_b","translation":[0.9625000953674316,-5.225000381469727,2.4750003814697266],"rotation":[0.9063640832901001,0,-0.3524748980998993,0.23294976353645325],"mesh":7},{"name":"leg0R_k","translation":[1.6500000953674316,3.8500003814697266,5.5],"children":[10]},{"name":"leg0R","translation":[5,-1,4],"children":[9,11]},{"name":"leg1L_a","translation":[-0.824999988079071,1.9250001907348633,-2.75],"rotation":[-0.4508451521396637,0,0.13525357842445374,0.8822953701019287],"mesh":8},{"name":"leg1L_b","translation":[-0.9625000953674316,-5.225000381469727,-2.4750003814697266],"rotation":[-0.9063640832901001,0,0.35247498750686646,0.2329496592283249],"mesh":9},{"name":"leg1L_k","translation":[-1.649999976158142,3.8500003814697266,-5.5],"children":[14]},{"name":"leg1L","translation":[1.5,-1,-4],"children":[13,15]},{"name":"leg1R_a","translation":[-0.824999988079071,1.9250001907348633,2.75],"rotation":[0.4508451521396637,0,0.13525357842445374,0.8822953701019287],"mesh":10},{"name":"leg1R_b","translation":[-0.9625000953674316,-5.225000381469727,2.4750003814697266],"rotation":[0.9063640832901001,0,0.35247498750686646,0.2329496592283249],"mesh":11},{"name":"leg1R_k","translation":[-1.649999976158142,3.8500003814697266,5.5],"children":[18]},{"name":"leg1R","translation":[1.5,-1,4],"children":[17,19]},{"name":"leg2L_a","translation":[-2.4749999046325684,1.9250001907348633,-2.75],"rotation":[-0.38566645979881287,0,0.34709984064102173,0.8548585176467896],"mesh":12},{"name":"leg2L_b","translation":[-2.8874998092651367,-5.225000381469727,-2.4750003814697266],"rotation":[-0.6188527345657349,0,0.721994936466217,0.30942633748054504],"mesh":13},{"name":"leg2L_k","translation":[-4.949999809265137,3.8500003814697266,-5.5],"children":[22]},{"name":"leg2L","translation":[-2,-1,-4],"children":[21,23]},{"name":"leg2R_a","translation":[-2.4749999046325684,1.9250001907348633,2.75],"rotation":[0.38566645979881287,0,0.34709984064102173,0.8548585176467896],"mesh":14},{"name":"leg2R_b","translation":[-2.8874998092651367,-5.225000381469727,2.4750003814697266],"rotation":[0.6188527345657349,0,0.721994936466217,0.30942633748054504],"mesh":15},{"name":"leg2R_k","translation":[-4.949999809265137,3.8500003814697266,5.5],"children":[26]},{"name":"leg2R","translation":[-2,-1,4],"children":[25,27]},{"name":"leg3L_a","translation":[-4.125,1.9250001907348633,-2.75],"rotation":[-0.3133046627044678,0,0.46995705366134644,0.8252154588699341],"mesh":16},{"name":"leg3L_b","translation":[-4.8125,-5.225000381469727,-2.4750003814697266],"rotation":[-0.42098289728164673,0,0.8185780048370361,0.3907729685306549],"mesh":17},{"name":"leg3L_k","translation":[-8.25,3.8500003814697266,-5.5],"children":[30]},{"name":"leg3L","translation":[-5.5,-1,-4],"children":[29,31]},{"name":"leg3R_a","translation":[-4.125,1.9250001907348633,2.75],"rotation":[0.3133046627044678,0,0.46995705366134644,0.8252154588699341],"mesh":18},{"name":"leg3R_b","translation":[-4.8125,-5.225000381469727,2.4750003814697266],"rotation":[0.42098289728164673,0,0.8185780048370361,0.3907729685306549],"mesh":19},{"name":"leg3R_k","translation":[-8.25,3.8500003814697266,5.5],"children":[34]},{"name":"leg3R","translation":[-5.5,-1,4],"children":[33,35]},{"name":"spine0","translation":[-8.5,5.5,0],"rotation":[0,0,0.1825573891401291,0.9831951856613159],"mesh":20},{"name":"spine1","translation":[-5.5,6,0],"rotation":[0,0,0.17067238688468933,0.9853278398513794],"mesh":21},{"name":"spine2","translation":[-2.5,6.5,0],"rotation":[0,0,0.16018229722976685,0.9870875477790833],"mesh":22},{"name":"spine3","translation":[0.5,6,0],"rotation":[0,0,0.17067238688468933,0.9853278398513794],"mesh":23},{"name":"spine4","translation":[3.5,5.5,0],"rotation":[0,0,0.1825573891401291,0.9831951856613159],"mesh":24},{"name":"thorax","translation":[5,0,0],"mesh":25},{"name":"body","translation":[0,8,0],"children":[0,1,4,8,12,16,20,24,28,32,36,37,38,39,40,41,42]},{"name":"root","children":[43]}],"animations":[{"name":"die","samplers":[{"input":77,"output":78,"interpolation":"LINEAR"},{"input":77,"output":79,"interpolation":"LINEAR"},{"input":77,"output":80,"interpolation":"LINEAR"},{"input":77,"output":81,"interpolation":"LINEAR"},{"input":77,"output":80,"interpolation":"LINEAR"},{"input":77,"output":81,"interpolation":"LINEAR"},{"input":77,"output":80,"interpolation":"LINEAR"},{"input":77,"output":81,"interpolation":"LINEAR"},{"input":77,"output":80,"interpolation":"LINEAR"},{"input":77,"output":81,"interpolation":"LINEAR"}],"channels":[{"sampler":0,"target":{"node":44,"path":"translation"}},{"sampler":1,"target":{"node":44,"path":"rotation"}},{"sampler":2,"target":{"node":8,"path":"rotation"}},{"sampler":3,"target":{"node":12,"path":"rotation"}},{"sampler":4,"target":{"node":16,"path":"rotation"}},{"sampler":5,"target":{"node":20,"path":"rotation"}},{"sampler":6,"target":{"node":24,"path":"rotation"}},{"sampler":7,"target":{"node":28,"path":"rotation"}},{"sampler":8,"target":{"node":32,"path":"rotation"}},{"sampler":9,"target":{"node":36,"path":"rotation"}}]},{"name":"attack","samplers":[{"input":82,"output":83,"interpolation":"LINEAR"},{"input":82,"output":84,"interpolation":"LINEAR"},{"input":82,"output":85,"interpolation":"LINEAR"}],"channels":[{"sampler":0,"target":{"node":43,"path":"translation"}},{"sampler":1,"target":{"node":4,"path":"translation"}},{"sampler":2,"target":{"node":4,"path":"rotation"}}]},{"name":"idle","samplers":[{"input":86,"output":87,"interpolation":"LINEAR"}],"channels":[{"sampler":0,"target":{"node":4,"path":"translation"}}]},{"name":"run","samplers":[{"input":88,"output":89,"interpolation":"LINEAR"},{"input":88,"output":90,"interpolation":"LINEAR"},{"input":88,"output":91,"interpolation":"LINEAR"},{"input":88,"output":92,"interpolation":"LINEAR"},{"input":88,"output":89,"interpolation":"LINEAR"},{"input":88,"output":90,"interpolation":"LINEAR"},{"input":88,"output":91,"interpolation":"LINEAR"},{"input":88,"output":92,"interpolation":"LINEAR"}],"channels":[{"sampler":0,"target":{"node":8,"path":"rotation"}},{"sampler":1,"target":{"node":12,"path":"rotation"}},{"sampler":2,"target":{"node":16,"path":"rotation"}},{"sampler":3,"target":{"node":20,"path":"rotation"}},{"sampler":4,"target":{"node":24,"path":"rotation"}},{"sampler":5,"target":{"node":28,"path":"rotation"}},{"sampler":6,"target":{"node":32,"path":"rotation"}},{"sampler":7,"target":{"node":36,"path":"rotation"}}]}],"scenes":[{"name":"Scene","nodes":[44]}],"scene":0,"extensionsUsed":["EXT_texture_webp"],"extensionsRequired":["EXT_texture_webp"]}