{"asset":{"generator":"glTF-Transform v4.5.1","version":"2.0"},"accessors":[{"type":"VEC3","componentType":5126,"count":156,"max":[3.0417749881744385,10.140000343322754,12.479997634887695],"min":[-3.0417747497558594,-10.140000343322754,-12.479999542236328],"bufferView":0,"byteOffset":0},{"type":"VEC3","componentType":5126,"count":156,"bufferView":0,"byteOffset":12},{"type":"VEC2","componentType":5126,"count":156,"bufferView":0,"byteOffset":24},{"type":"SCALAR","componentType":5123,"count":588,"bufferView":1,"byteOffset":0},{"type":"SCALAR","componentType":5123,"count":588,"bufferView":1,"byteOffset":1176},{"type":"SCALAR","componentType":5123,"count":1188,"bufferView":1,"byteOffset":2352},{"type":"SCALAR","componentType":5123,"count":60,"bufferView":1,"byteOffset":4728},{"type":"SCALAR","componentType":5123,"count":60,"bufferView":1,"byteOffset":4848},{"type":"SCALAR","componentType":5123,"count":60,"bufferView":1,"byteOffset":4968},{"type":"SCALAR","componentType":5123,"count":60,"bufferView":1,"byteOffset":5088},{"type":"SCALAR","componentType":5123,"count":192,"bufferView":1,"byteOffset":5208},{"type":"SCALAR","componentType":5123,"count":192,"bufferView":1,"byteOffset":5592},{"type":"SCALAR","componentType":5123,"count":672,"bufferView":1,"byteOffset":5976},{"type":"SCALAR","componentType":5123,"count":72,"bufferView":1,"byteOffset":7320},{"type":"SCALAR","componentType":5123,"count":72,"bufferView":1,"byteOffset":7464},{"type":"SCALAR","componentType":5123,"count":72,"bufferView":1,"byteOffset":7608},{"type":"SCALAR","componentType":5123,"count":72,"bufferView":1,"byteOffset":7752},{"type":"SCALAR","componentType":5123,"count":72,"bufferView":1,"byteOffset":7896},{"type":"SCALAR","componentType":5123,"count":72,"bufferView":1,"byteOffset":8040},{"type":"SCALAR","componentType":5123,"count":72,"bufferView":1,"byteOffset":8184},{"type":"SCALAR","componentType":5123,"count":72,"bufferView":1,"byteOffset":8328},{"type":"SCALAR","componentType":5123,"count":864,"bufferView":1,"byteOffset":8472},{"type":"VEC3","componentType":5126,"count":136,"max":[3.0417749881744385,12.479999542236328,15.599998474121094],"min":[-3.0417747497558594,-12.479999542236328,-15.600000381469727],"bufferView":2,"byteOffset":0},{"type":"VEC3","componentType":5126,"count":136,"bufferView":2,"byteOffset":12},{"type":"VEC2","componentType":5126,"count":136,"bufferView":2,"byteOffset":24},{"type":"VEC3","componentType":5126,"count":136,"max":[3.0417749881744385,14.819999694824219,18.71999740600586],"min":[-3.0417747497558594,-14.819999694824219,-18.719999313354492],"bufferView":3,"byteOffset":0},{"type":"VEC3","componentType":5126,"count":136,"bufferView":3,"byteOffset":12},{"type":"VEC2","componentType":5126,"count":136,"bufferView":3,"byteOffset":24},{"type":"VEC2","componentType":5126,"count":136,"bufferView":4,"byteOffset":0},{"type":"VEC2","componentType":5126,"count":156,"bufferView":5,"byteOffset":0},{"type":"VEC3","componentType":5126,"count":264,"max":[25.604999542236328,14.300000190734863,18.19999885559082],"min":[-25.60500144958496,-14.300000190734863,-18.19999885559082],"bufferView":6,"byteOffset":0},{"type":"VEC3","componentType":5126,"count":264,"bufferView":6,"byteOffset":12},{"type":"VEC2","componentType":5126,"count":264,"bufferView":6,"byteOffset":24},{"type":"VEC3","componentType":5126,"count":32,"max":[1.5761662721633911,5.360037326812744,1.8200000524520874],"min":[-1.5761662721633911,-5.360037326812744,-1.8200000524520874],"bufferView":7,"byteOffset":0},{"type":"VEC3","componentType":5126,"count":32,"bufferView":7,"byteOffset":12},{"type":"VEC2","componentType":5126,"count":32,"bufferView":7,"byteOffset":24},{"type":"VEC3","componentType":5126,"count":32,"max":[1.5761662721633911,4.8572001457214355,1.8200000524520874],"min":[-1.5761662721633911,-4.8572001457214355,-1.8200000524520874],"bufferView":8,"byteOffset":0},{"type":"VEC3","componentType":5126,"count":32,"bufferView":8,"byteOffset":12},{"type":"VEC2","componentType":5126,"count":32,"bufferView":8,"byteOffset":24},{"type":"VEC3","componentType":5126,"count":32,"max":[1.5761662721633911,4.358395099639893,1.8200000524520874],"min":[-1.5761662721633911,-4.358395099639893,-1.8200000524520874],"bufferView":9,"byteOffset":0},{"type":"VEC3","componentType":5126,"count":32,"bufferView":9,"byteOffset":12},{"type":"VEC2","componentType":5126,"count":32,"bufferView":9,"byteOffset":24},{"type":"VEC3","componentType":5126,"count":32,"max":[1.5761662721633911,3.865178108215332,1.8200000524520874],"min":[-1.5761662721633911,-3.865178108215332,-1.8200000524520874],"bufferView":10,"byteOffset":0},{"type":"VEC3","componentType":5126,"count":32,"bufferView":10,"byteOffset":12},{"type":"VEC2","componentType":5126,"count":32,"bufferView":10,"byteOffset":24},{"type":"VEC3","componentType":5126,"count":32,"max":[1.5761662721633911,3.379999876022339,1.8200000524520874],"min":[-1.5761662721633911,-3.379999876022339,-1.8200000524520874],"bufferView":11,"byteOffset":0},{"type":"VEC3","componentType":5126,"count":32,"bufferView":11,"byteOffset":12},{"type":"VEC2","componentType":5126,"count":32,"bufferView":11,"byteOffset":24},{"type":"VEC3","componentType":5126,"count":32,"max":[1.8013323545455933,5.280625343322754,2.080000400543213],"min":[-1.8013330698013306,-5.280625343322754,-2.0799999237060547],"bufferView":12,"byteOffset":0},{"type":"VEC3","componentType":5126,"count":32,"bufferView":12,"byteOffset":12},{"type":"VEC2","componentType":5126,"count":32,"bufferView":12,"byteOffset":24},{"type":"VEC3","componentType":5126,"count":32,"max":[1.8013324737548828,5.7406439781188965,2.0799999237060547],"min":[-1.8013324737548828,-5.7406439781188965,-2.0799999237060547],"bufferView":13,"byteOffset":0},{"type":"VEC3","componentType":5126,"count":32,"bufferView":13,"byteOffset":12},{"type":"VEC2","componentType":5126,"count":32,"bufferView":13,"byteOffset":24},{"type":"VEC3","componentType":5126,"count":32,"max":[1.801332712173462,6.692159652709961,2.0799999237060547],"min":[-1.801332712173462,-6.692159652709961,-2.0799999237060547],"bufferView":14,"byteOffset":0},{"type":"VEC3","componentType":5126,"count":32,"bufferView":14,"byteOffset":12},{"type":"VEC2","componentType":5126,"count":32,"bufferView":14,"byteOffset":24},{"type":"VEC2","componentType":5126,"count":32,"bufferView":15,"byteOffset":0},{"type":"VEC3","componentType":5126,"count":32,"max":[1.8013323545455933,5.280625343322754,2.0799999237060547],"min":[-1.8013330698013306,-5.280625343322754,-2.080000400543213],"bufferView":16,"byteOffset":0},{"type":"VEC2","componentType":5126,"count":32,"bufferView":16,"byteOffset":12},{"type":"VEC3","componentType":5126,"count":66,"max":[1.9781975746154785,2.0799999237060547,1.9781975746154785],"min":[-1.9781975746154785,-2.0799999237060547,-1.9781975746154785],"bufferView":17,"byteOffset":0},{"type":"VEC3","componentType":5126,"count":66,"bufferView":17,"byteOffset":12},{"type":"VEC2","componentType":5126,"count":66,"bufferView":17,"byteOffset":24},{"type":"VEC2","componentType":5126,"count":66,"bufferView":18,"byteOffset":0},{"type":"VEC3","componentType":5126,"count":166,"max":[8.986690521240234,8.84000015258789,10.754098892211914],"min":[-8.986690521240234,-8.84000015258789,-10.754100799560547],"bufferView":19,"byteOffset":0},{"type":"VEC3","componentType":5126,"count":166,"bufferView":19,"byteOffset":12},{"type":"VEC2","componentType":5126,"count":166,"bufferView":19,"byteOffset":24},{"type":"VEC3","componentType":5126,"count":32,"max":[1.801332712173462,5.416493892669678,2.0799999237060547],"min":[-1.801332712173462,-5.416493892669678,-2.0799999237060547],"bufferView":20,"byteOffset":0},{"type":"VEC3","componentType":5126,"count":32,"bufferView":20,"byteOffset":12},{"type":"VEC2","componentType":5126,"count":32,"bufferView":20,"byteOffset":24},{"type":"VEC3","componentType":5126,"count":32,"max":[1.801332712173462,5.416493892669678,2.0799999237060547],"min":[-1.801332712173462,-5.416493892669678,-2.0799999237060547],"bufferView":21,"byteOffset":0},{"type":"VEC2","componentType":5126,"count":32,"bufferView":21,"byteOffset":12},{"type":"VEC3","componentType":5126,"count":36,"max":[2.2813315391540527,9.804448127746582,2.108267307281494],"min":[-2.2813315391540527,-9.804448127746582,-2.3400001525878906],"bufferView":22,"byteOffset":0},{"type":"VEC3","componentType":5126,"count":36,"bufferView":22,"byteOffset":12},{"type":"VEC2","componentType":5126,"count":36,"bufferView":22,"byteOffset":24},{"type":"VEC3","componentType":5126,"count":36,"max":[1.825064778327942,15.642805099487305,1.6866132020950317],"min":[-1.8250643014907837,-15.642805099487305,-1.8720004558563232],"bufferView":23,"byteOffset":0},{"type":"VEC3","componentType":5126,"count":36,"bufferView":23,"byteOffset":12},{"type":"VEC2","componentType":5126,"count":36,"bufferView":23,"byteOffset":24},{"type":"VEC3","componentType":5126,"count":36,"max":[2.2813315391540527,9.804448127746582,2.108267307281494],"min":[-2.2813315391540527,-9.804448127746582,-2.3400001525878906],"bufferView":24,"byteOffset":0},{"type":"VEC2","componentType":5126,"count":36,"bufferView":24,"byteOffset":12},{"type":"VEC3","componentType":5126,"count":36,"max":[1.825064778327942,15.642805099487305,1.6866141557693481],"min":[-1.8250643014907837,-15.642805099487305,-1.8719995021820068],"bufferView":25,"byteOffset":0},{"type":"VEC2","componentType":5126,"count":36,"bufferView":25,"byteOffset":12},{"type":"VEC3","componentType":5126,"count":36,"max":[2.2813315391540527,9.804448127746582,2.108267307281494],"min":[-2.2813315391540527,-9.804448127746582,-2.3400001525878906],"bufferView":26,"byteOffset":0},{"type":"VEC2","componentType":5126,"count":36,"bufferView":26,"byteOffset":12},{"type":"VEC3","componentType":5126,"count":36,"max":[1.825065016746521,15.642807006835938,1.68661367893219],"min":[-1.825065016746521,-15.642807006835938,-1.871999979019165],"bufferView":27,"byteOffset":0},{"type":"VEC3","componentType":5126,"count":36,"bufferView":27,"byteOffset":12},{"type":"VEC2","componentType":5126,"count":36,"bufferView":27,"byteOffset":24},{"type":"VEC3","componentType":5126,"count":36,"max":[2.2813315391540527,9.804448127746582,2.108267307281494],"min":[-2.2813315391540527,-9.804448127746582,-2.3400001525878906],"bufferView":28,"byteOffset":0},{"type":"VEC2","componentType":5126,"count":36,"bufferView":28,"byteOffset":12},{"type":"VEC2","componentType":5126,"count":36,"bufferView":29,"byteOffset":0},{"type":"VEC3","componentType":5126,"count":36,"max":[2.2813315391540527,11.829286575317383,2.108267307281494],"min":[-2.2813315391540527,-11.829286575317383,-2.3400001525878906],"bufferView":30,"byteOffset":0},{"type":"VEC2","componentType":5126,"count":36,"bufferView":30,"byteOffset":12},{"type":"VEC3","componentType":5126,"count":36,"max":[1.825064778327942,17.444786071777344,1.6866133213043213],"min":[-1.825064778327942,-17.444786071777344,-1.8719995021820068],"bufferView":31,"byteOffset":0},{"type":"VEC3","componentType":5126,"count":36,"bufferView":31,"byteOffset":12},{"type":"VEC2","componentType":5126,"count":36,"bufferView":31,"byteOffset":24},{"type":"VEC3","componentType":5126,"count":36,"max":[2.2813315391540527,11.829286575317383,2.108267307281494],"min":[-2.2813315391540527,-11.829286575317383,-2.3400001525878906],"bufferView":32,"byteOffset":0},{"type":"VEC2","componentType":5126,"count":36,"bufferView":32,"byteOffset":12},{"type":"VEC3","componentType":5126,"count":36,"max":[1.825064778327942,17.444786071777344,1.6866133213043213],"min":[-1.825064778327942,-17.444786071777344,-1.8719995021820068],"bufferView":33,"byteOffset":0},{"type":"VEC2","componentType":5126,"count":36,"bufferView":33,"byteOffset":12},{"type":"VEC3","componentType":5126,"count":36,"max":[2.2813315391540527,15.084484100341797,2.1082675457000732],"min":[-2.2813315391540527,-15.084484100341797,-2.3400003910064697],"bufferView":34,"byteOffset":0},{"type":"VEC2","componentType":5126,"count":36,"bufferView":34,"byteOffset":12},{"type":"VEC3","componentType":5126,"count":36,"max":[1.8250652551651,20.58074378967285,1.6866146326065063],"min":[-1.8250652551651,-20.58074378967285,-1.8719990253448486],"bufferView":35,"byteOffset":0},{"type":"VEC3","componentType":5126,"count":36,"bufferView":35,"byteOffset":12},{"type":"VEC2","componentType":5126,"count":36,"bufferView":35,"byteOffset":24},{"type":"VEC3","componentType":5126,"count":36,"max":[2.2813315391540527,15.084484100341797,2.1082675457000732],"min":[-2.2813315391540527,-15.084484100341797,-2.3400003910064697],"bufferView":36,"byteOffset":0},{"type":"VEC2","componentType":5126,"count":36,"bufferView":36,"byteOffset":12},{"type":"VEC3","componentType":5126,"count":36,"max":[1.8250652551651,20.58074378967285,1.6866127252578735],"min":[-1.8250652551651,-20.58074378967285,-1.8720009326934814],"bufferView":37,"byteOffset":0},{"type":"VEC2","componentType":5126,"count":36,"bufferView":37,"byteOffset":12},{"type":"VEC3","componentType":5126,"count":198,"max":[15.600000381469727,11.960000038146973,15.600000381469727],"min":[-15.59999942779541,-11.960000038146973,-15.600000381469727],"bufferView":38,"byteOffset":0},{"type":"VEC3","componentType":5126,"count":198,"bufferView":38,"byteOffset":12},{"type":"VEC2","componentType":5126,"count":198,"bufferView":38,"byteOffset":24},{"type":"SCALAR","componentType":5126,"count":40,"max":[1.3333333730697632],"min":[0.03333333507180214],"bufferView":39,"byteOffset":0},{"type":"VEC3","componentType":5126,"count":40,"bufferView":39,"byteOffset":160},{"type":"VEC4","componentType":5126,"count":40,"bufferView":39,"byteOffset":640},{"type":"SCALAR","componentType":5126,"count":24,"max":[0.800000011920929],"min":[0.03333333507180214],"bufferView":39,"byteOffset":1280},{"type":"VEC3","componentType":5126,"count":24,"bufferView":39,"byteOffset":1376},{"type":"VEC4","componentType":5126,"count":24,"bufferView":39,"byteOffset":1664},{"type":"VEC4","componentType":5126,"count":24,"bufferView":39,"byteOffset":2048},{"type":"SCALAR","componentType":5126,"count":60,"max":[2],"min":[0.03333333507180214],"bufferView":39,"byteOffset":2432},{"type":"VEC3","componentType":5126,"count":60,"bufferView":39,"byteOffset":2672},{"type":"SCALAR","componentType":5126,"count":20,"max":[0.6666666865348816],"min":[0.03333333507180214],"bufferView":39,"byteOffset":3392},{"type":"VEC3","componentType":5126,"count":20,"bufferView":39,"byteOffset":3472},{"type":"SCALAR","componentType":5126,"count":33,"max":[1.100000023841858],"min":[0.03333333507180214],"bufferView":39,"byteOffset":3712},{"type":"VEC4","componentType":5126,"count":33,"bufferView":39,"byteOffset":3844},{"type":"VEC4","componentType":5126,"count":33,"bufferView":39,"byteOffset":4372},{"type":"VEC4","componentType":5126,"count":33,"bufferView":39,"byteOffset":4900},{"type":"VEC4","componentType":5126,"count":33,"bufferView":39,"byteOffset":5428}],"bufferViews":[{"buffer":0,"byteOffset":0,"byteLength":4992,"byteStride":32,"target":34962},{"buffer":0,"byteOffset":4992,"byteLength":10200,"target":34963},{"buffer":0,"byteOffset":15192,"byteLength":4352,"byteStride":32,"target":34962},{"buffer":0,"byteOffset":19544,"byteLength":4352,"byteStride":32,"target":34962},{"buffer":0,"byteOffset":23896,"byteLength":1088,"byteStride":8,"target":34962},{"buffer":0,"byteOffset":24984,"byteLength":1248,"byteStride":8,"target":34962},{"buffer":0,"byteOffset":26232,"byteLength":8448,"byteStride":32,"target":34962},{"buffer":0,"byteOffset":34680,"byteLength":1024,"byteStride":32,"target":34962},{"buffer":0,"byteOffset":35704,"byteLength":1024,"byteStride":32,"target":34962},{"buffer":0,"byteOffset":36728,"byteLength":1024,"byteStride":32,"target":34962},{"buffer":0,"byteOffset":37752,"byteLength":1024,"byteStride":32,"target":34962},{"buffer":0,"byteOffset":38776,"byteLength":1024,"byteStride":32,"target":34962},{"buffer":0,"byteOffset":39800,"byteLength":1024,"byteStride":32,"target":34962},{"buffer":0,"byteOffset":40824,"byteLength":1024,"byteStride":32,"target":34962},{"buffer":0,"byteOffset":41848,"byteLength":1024,"byteStride":32,"target":34962},{"buffer":0,"byteOffset":42872,"byteLength":256,"byteStride":8,"target":34962},{"buffer":0,"byteOffset":43128,"byteLength":640,"byteStride":20,"target":34962},{"buffer":0,"byteOffset":43768,"byteLength":2112,"byteStride":32,"target":34962},{"buffer":0,"byteOffset":45880,"byteLength":528,"byteStride":8,"target":34962},{"buffer":0,"byteOffset":46408,"byteLength":5312,"byteStride":32,"target":34962},{"buffer":0,"byteOffset":51720,"byteLength":1024,"byteStride":32,"target":34962},{"buffer":0,"byteOffset":52744,"byteLength":640,"byteStride":20,"target":34962},{"buffer":0,"byteOffset":53384,"byteLength":1152,"byteStride":32,"target":34962},{"buffer":0,"byteOffset":54536,"byteLength":1152,"byteStride":32,"target":34962},{"buffer":0,"byteOffset":55688,"byteLength":720,"byteStride":20,"target":34962},{"buffer":0,"byteOffset":56408,"byteLength":720,"byteStride":20,"target":34962},{"buffer":0,"byteOffset":57128,"byteLength":720,"byteStride":20,"target":34962},{"buffer":0,"byteOffset":57848,"byteLength":1152,"byteStride":32,"target":34962},{"buffer":0,"byteOffset":59000,"byteLength":720,"byteStride":20,"target":34962},{"buffer":0,"byteOffset":59720,"byteLength":288,"byteStride":8,"target":34962},{"buffer":0,"byteOffset":60008,"byteLength":720,"byteStride":20,"target":34962},{"buffer":0,"byteOffset":60728,"byteLength":1152,"byteStride":32,"target":34962},{"buffer":0,"byteOffset":61880,"byteLength":720,"byteStride":20,"target":34962},{"buffer":0,"byteOffset":62600,"byteLength":720,"byteStride":20,"target":34962},{"buffer":0,"byteOffset":63320,"byteLength":720,"byteStride":20,"target":34962},{"buffer":0,"byteOffset":64040,"byteLength":1152,"byteStride":32,"target":34962},{"buffer":0,"byteOffset":65192,"byteLength":720,"byteStride":20,"target":34962},{"buffer":0,"byteOffset":65912,"byteLength":720,"byteStride":20,"target":34962},{"buffer":0,"byteOffset":66632,"byteLength":6336,"byteStride":32,"target":34962},{"buffer":0,"byteOffset":72968,"byteLength":5956}],"samplers":[{"magFilter":9729,"minFilter":9987,"wrapS":10497,"wrapT":10497}],"textures":[{"sampler":0,"extensions":{"EXT_texture_webp":{"source":1}}},{"sampler":0,"extensions":{"EXT_texture_webp":{"source":0}}},{"sampler":0,"extensions":{"EXT_texture_webp":{"source":2}}},{"sampler":0,"extensions":{"EXT_texture_webp":{"source":4}}},{"sampler":0,"extensions":{"EXT_texture_webp":{"source":3}}},{"sampler":0,"extensions":{"EXT_texture_webp":{"source":5}}}],"images":[{"name":"chitin_normal","uri":"queen_0.webp"},{"name":"chitin_color","uri":"queen_1.webp"},{"name":"chitin_rough","uri":"queen_2.webp"},{"name":"chitin2_normal","uri":"queen_3.webp"},{"name":"chitin2_color","uri":"queen_4.webp"},{"name":"chitin2_rough","uri":"queen_5.webp"}],"buffers":[{"byteLength":78924,"uri":"data:application/octet-stream;base64,"}],"materials":[{"name":"chitin","doubleSided":true,"pbrMetallicRoughness":{"baseColorFactor":[0.06847816705703735,0.02518685907125473,0.04817182570695877,1],"metallicFactor":0.15000000596046448,"baseColorTexture":{"index":0},"metallicRoughnessTexture":{"index":2}},"normalTexture":{"index":1}},{"name":"egg","doubleSided":true,"pbrMetallicRoughness":{"baseColorFactor":[0.07818742096424103,0.2541520893573761,0.017641954123973846,1],"roughnessFactor":0.30000001192092896,"metallicFactor":0},"emissiveFactor":[0.03518433850184177,0.11436843718109024,0.00793887914547975]},{"name":"horn","doubleSided":true,"pbrMetallicRoughness":{"baseColorFactor":[0.68668532371521,0.5647115111351013,0.3613067865371704,1],"metallicFactor":0.10000000149011612,"baseColorTexture":{"index":3},"metallicRoughnessTexture":{"index":5}},"normalTexture":{"index":4}},{"name":"eye","doubleSided":true,"pbrMetallicRoughness":{"baseColorFactor":[0.577580451965332,1,0.2622506618499756,1],"roughnessFactor":0.30000001192092896,"metallicFactor":0},"emissiveFactor":[0.577580451965332,1,0.2622506618499756],"extensions":{"KHR_materials_emissive_strength":{"emissiveStrength":3}}},{"name":"joint","doubleSided":true,"pbrMetallicRoughness":{"baseColorFactor":[0.017641954123973846,0.006995410192757845,0.012983032502233982,1],"metallicFactor":0.15000000596046448,"baseColorTexture":{"index":3},"metallicRoughnessTexture":{"index":5}},"normalTexture":{"index":4}},{"name":"plate","doubleSided":true,"pbrMetallicRoughness":{"baseColorFactor":[0.1441284716129303,0.04817182570695877,0.09758734703063965,1],"metallicFactor":0.15000000596046448,"baseColorTexture":{"index":3},"metallicRoughnessTexture":{"index":5}},"normalTexture":{"index":4}}],"meshes":[{"name":"Sphere.001","primitives":[{"attributes":{"POSITION":0,"NORMAL":1,"TEXCOORD_0":2},"mode":4,"material":0,"indices":3}]},{"name":"Sphere.002","primitives":[{"attributes":{"POSITION":22,"NORMAL":23,"TEXCOORD_0":24},"mode":4,"material":0,"indices":4}]},{"name":"Sphere.003","primitives":[{"attributes":{"POSITION":25,"NORMAL":26,"TEXCOORD_0":27},"mode":4,"material":0,"indices":4}]},{"name":"Sphere.004","primitives":[{"attributes":{"TEXCOORD_0":28,"POSITION":22,"NORMAL":23},"mode":4,"material":0,"indices":4}]},{"name":"Sphere.005","primitives":[{"attributes":{"TEXCOORD_0":29,"POSITION":0,"NORMAL":1},"mode":4,"material":0,"indices":3}]},{"name":"Sphere","primitives":[{"attributes":{"POSITION":30,"NORMAL":31,"TEXCOORD_0":32},"mode":4,"material":1,"indices":5}]},{"name":"Cone.007","primitives":[{"attributes":{"POSITION":33,"NORMAL":34,"TEXCOORD_0":35},"mode":4,"material":2,"indices":6}]},{"name":"Cone.008","primitives":[{"attributes":{"POSITION":36,"NORMAL":37,"TEXCOORD_0":38},"mode":4,"material":2,"indices":6}]},{"name":"Cone.009","primitives":[{"attributes":{"POSITION":39,"NORMAL":40,"TEXCOORD_0":41},"mode":4,"material":2,"indices":7}]},{"name":"Cone.010","primitives":[{"attributes":{"POSITION":42,"NORMAL":43,"TEXCOORD_0":44},"mode":4,"material":2,"indices":7}]},{"name":"Cone.011","primitives":[{"attributes":{"POSITION":45,"NORMAL":46,"TEXCOORD_0":47},"mode":4,"material":2,"indices":7}]},{"name":"Cone","primitives":[{"attributes":{"POSITION":48,"NORMAL":49,"TEXCOORD_0":50},"mode":4,"material":2,"indices":8}]},{"name":"Cone.001","primitives":[{"attributes":{"POSITION":51,"NORMAL":52,"TEXCOORD_0":53},"mode":4,"material":2,"indices":8}]},{"name":"Cone.002","primitives":[{"attributes":{"POSITION":54,"NORMAL":55,"TEXCOORD_0":56},"mode":4,"material":2,"indices":6}]},{"name":"Cone.003","primitives":[{"attributes":{"TEXCOORD_0":57,"POSITION":51,"NORMAL":52},"mode":4,"material":2,"indices":7}]},{"name":"Cone.004","primitives":[{"attributes":{"POSITION":58,"TEXCOORD_0":59,"NORMAL":49},"mode":4,"material":2,"indices":9}]},{"name":"Sphere.008","primitives":[{"attributes":{"POSITION":60,"NORMAL":61,"TEXCOORD_0":62},"mode":4,"material":3,"indices":10}]},{"name":"Sphere.009","primitives":[{"attributes":{"TEXCOORD_0":63,"POSITION":60,"NORMAL":61},"mode":4,"material":3,"indices":11}]},{"name":"Sphere.007","primitives":[{"attributes":{"POSITION":64,"NORMAL":65,"TEXCOORD_0":66},"mode":4,"material":0,"indices":12}]},{"name":"Cone.005","primitives":[{"attributes":{"POSITION":67,"NORMAL":68,"TEXCOORD_0":69},"mode":4,"material":2,"indices":7}]},{"name":"Cone.006","primitives":[{"attributes":{"POSITION":70,"TEXCOORD_0":71,"NORMAL":68},"mode":4,"material":2,"indices":8}]},{"name":"Cylinder","primitives":[{"attributes":{"POSITION":72,"NORMAL":73,"TEXCOORD_0":74},"mode":4,"material":4,"indices":13}]},{"name":"Cone.012","primitives":[{"attributes":{"POSITION":75,"NORMAL":76,"TEXCOORD_0":77},"mode":4,"material":4,"indices":14}]},{"name":"Cylinder.001","primitives":[{"attributes":{"POSITION":78,"TEXCOORD_0":79,"NORMAL":73},"mode":4,"material":4,"indices":15}]},{"name":"Cone.013","primitives":[{"attributes":{"POSITION":80,"TEXCOORD_0":81,"NORMAL":76},"mode":4,"material":4,"indices":13}]},{"name":"Cylinder.002","primitives":[{"attributes":{"POSITION":82,"TEXCOORD_0":83,"NORMAL":73},"mode":4,"material":4,"indices":16}]},{"name":"Cone.014","primitives":[{"attributes":{"POSITION":84,"NORMAL":85,"TEXCOORD_0":86},"mode":4,"material":4,"indices":17}]},{"name":"Cylinder.003","primitives":[{"attributes":{"POSITION":87,"TEXCOORD_0":88,"NORMAL":73},"mode":4,"material":4,"indices":15}]},{"name":"Cone.015","primitives":[{"attributes":{"TEXCOORD_0":89,"POSITION":84,"NORMAL":85},"mode":4,"material":4,"indices":13}]},{"name":"Cylinder.004","primitives":[{"attributes":{"POSITION":90,"TEXCOORD_0":91,"NORMAL":73},"mode":4,"material":4,"indices":18}]},{"name":"Cone.016","primitives":[{"attributes":{"POSITION":92,"NORMAL":93,"TEXCOORD_0":94},"mode":4,"material":4,"indices":17}]},{"name":"Cylinder.005","primitives":[{"attributes":{"POSITION":95,"TEXCOORD_0":96,"NORMAL":73},"mode":4,"material":4,"indices":15}]},{"name":"Cone.017","primitives":[{"attributes":{"POSITION":97,"TEXCOORD_0":98,"NORMAL":93},"mode":4,"material":4,"indices":13}]},{"name":"Cylinder.006","primitives":[{"attributes":{"POSITION":99,"TEXCOORD_0":100,"NORMAL":73},"mode":4,"material":4,"indices":18}]},{"name":"Cone.018","primitives":[{"attributes":{"POSITION":101,"NORMAL":102,"TEXCOORD_0":103},"mode":4,"material":4,"indices":19}]},{"name":"Cylinder.007","primitives":[{"attributes":{"POSITION":104,"TEXCOORD_0":105,"NORMAL":73},"mode":4,"material":4,"indices":20}]},{"name":"Cone.019","primitives":[{"attributes":{"POSITION":106,"TEXCOORD_0":107,"NORMAL":102},"mode":4,"material":4,"indices":18}]},{"name":"Sphere.006","primitives":[{"attributes":{"POSITION":108,"NORMAL":109,"TEXCOORD_0":110},"mode":4,"material":5,"indices":21}]}],"nodes":[{"name":"band0","translation":[-2.6000003814697266,-1.3000000715255737,0],"mesh":0},{"name":"band1","translation":[-10.920000076293945,-1.3000000715255737,0],"mesh":1},{"name":"band2","translation":[-19.240001678466797,-1.3000000715255737,0],"mesh":2},{"name":"band3","translation":[-27.560001373291016,-1.3000000715255737,0],"mesh":3},{"name":"band4","translation":[-35.880001068115234,-1.3000000715255737,0],"mesh":4},{"name":"ovip","translation":[-18.200000762939453,-1.3000000715255737,0],"mesh":5},{"name":"abdomen","translation":[-13,1.2999998331069946,0],"children":[0,1,2,3,4,5]},{"name":"dspine0","translation":[6.5,16.89999771118164,0],"rotation":[0,0,0.12218332290649414,0.9925076365470886],"mesh":6},{"name":"dspine1","translation":[1.2999999523162842,16.380001068115234,0],"rotation":[0,0,0.1350594162940979,0.9908375144004822],"mesh":7},{"name":"dspine2","translation":[-3.8999998569488525,15.860000610351562,0],"rotation":[0,0,0.15086422860622406,0.9885544776916504],"mesh":8},{"name":"dspine3","translation":[-9.100000381469727,15.339999198913574,0],"rotation":[0,0,0.17067228257656097,0.9853278398513794],"mesh":9},{"name":"dspine4","translation":[-14.300000190734863,14.820001602172852,0],"rotation":[0,0,0.19611617922782898,0.9805806875228882],"mesh":10},{"name":"crown0","translation":[-3.25,11.050005912780762,10.919999122619629],"rotation":[0.27392104268074036,0,0.3424012064933777,0.8987373113632202],"mesh":11},{"name":"crown1","translation":[-3.25,12.34999942779541,5.460000514984131],"rotation":[0.11959883570671082,0,0.29899701476097107,0.9467296004295349],"mesh":12},{"name":"crown2","translation":[-3.25,13.65000057220459,0],"rotation":[0,0,0.25084128975868225,0.9680282473564148],"mesh":13},{"name":"crown3","translation":[-3.25,12.350003242492676,-5.460000514984131],"rotation":[-0.11959883570671082,0,0.29899701476097107,0.9467296004295349],"mesh":14},{"name":"crown4","translation":[-3.25,11.050003051757812,-10.920000076293945],"rotation":[-0.27392107248306274,0,0.3424012064933777,0.8987373113632202],"mesh":15},{"name":"eye","translation":[10.399999618530273,3.9000022411346436,-4.679999828338623],"mesh":16},{"name":"eye.001","translation":[10.399999618530273,3.8999993801116943,4.680000305175781],"mesh":17},{"name":"headm","translation":[2.6000003814697266,1.3000013828277588,0],"mesh":18},{"name":"mand1","translation":[15.600000381469727,-3.119999647140503,-2.859999656677246],"rotation":[0.18343167006969452,0,-0.7337269186973572,0.6542153358459473],"mesh":19},{"name":"mand-1","translation":[15.600000381469727,-3.119999885559082,2.859999895095825],"rotation":[-0.18343167006969452,0,-0.7337269186973572,0.6542153358459473],"mesh":20},{"name":"head","translation":[15.600000381469727,6.499998569488525,0],"children":[12,13,14,15,16,17,18,19,20,21]},{"name":"leg0L_a","translation":[2.340001106262207,5.45999813079834,-7.8000006675720215],"rotation":[-0.45084527134895325,0,-0.13525360822677612,0.8822953104972839],"mesh":21},{"name":"leg0L_b","translation":[2.730001211166382,-13.709996223449707,-7.01999568939209],"rotation":[-0.9027564525604248,0,-0.35107192397117615,0.24855457246303558],"mesh":22},{"name":"leg0L_k","translation":[4.680001735687256,10.919997215270996,-15.600000381469727],"children":[24]},{"name":"leg0L","translation":[10.399999618530273,-1.300000786781311,-11.700000762939453],"rotation":[0,0.1395431011915207,0,0.9902160167694092],"children":[23,25]},{"name":"leg0R_a","translation":[2.340001344680786,5.4599995613098145,7.800001621246338],"rotation":[0.45084527134895325,0,-0.13525360822677612,0.8822954297065735],"mesh":23},{"name":"leg0R_b","translation":[2.7300047874450684,-13.710000038146973,7.020000457763672],"rotation":[0.9027564525604248,0,-0.35107192397117615,0.24855457246303558],"mesh":24},{"name":"leg0R_k","translation":[4.680000305175781,10.919998168945312,15.600000381469727],"children":[28]},{"name":"leg0R","translation":[10.399999618530273,-1.3000004291534424,11.69999885559082],"rotation":[0,-0.1395431011915207,0,0.9902160167694092],"children":[27,29]},{"name":"leg1L_a","translation":[-2.340000629425049,5.45999813079834,-7.80000114440918],"rotation":[-0.45084527134895325,0,0.13525360822677612,0.8822953104972839],"mesh":25},{"name":"leg1L_b","translation":[-2.7300000190734863,-13.70999813079834,-7.020002365112305],"rotation":[-0.9027564525604248,0,0.35107192397117615,0.24855457246303558],"mesh":26},{"name":"leg1L_k","translation":[-4.6800007820129395,10.919997215270996,-15.599998474121094],"children":[32]},{"name":"leg1L","translation":[3.9000000953674316,-1.300000786781311,-11.700000762939453],"rotation":[0,-0.1395431011915207,0,0.9902160167694092],"children":[31,33]},{"name":"leg1R_a","translation":[-2.3400003910064697,5.459999084472656,7.800000190734863],"rotation":[0.45084527134895325,0,0.13525360822677612,0.8822954297065735],"mesh":27},{"name":"leg1R_b","translation":[-2.7300004959106445,-13.70999813079834,7.020005226135254],"rotation":[0.9027564525604248,0,0.35107192397117615,0.24855457246303558],"mesh":28},{"name":"leg1R_k","translation":[-4.680000305175781,10.919998168945312,15.600000381469727],"children":[36]},{"name":"leg1R","translation":[3.9000000953674316,-1.3000004291534424,11.69999885559082],"rotation":[0,0.1395431011915207,0,0.9902160167694092],"children":[35,37]},{"name":"leg2L_a","translation":[-7.020000457763672,5.45999813079834,-7.80000114440918],"rotation":[-0.38566645979881287,0,0.34709984064102173,0.8548585176467896],"mesh":29},{"name":"leg2L_b","translation":[-8.190001487731934,-13.709997177124023,-7.020001411437988],"rotation":[-0.6149734258651733,0,0.7174690961837769,0.32717862725257874],"mesh":30},{"name":"leg2L_k","translation":[-14.039999961853027,10.91999626159668,-15.60000228881836],"children":[40]},{"name":"leg2L","translation":[-2.5999999046325684,-1.300000786781311,-11.700000762939453],"rotation":[0,0.1395431011915207,0,0.9902160167694092],"children":[39,41]},{"name":"leg2R_a","translation":[-7.019999980926514,5.460000038146973,7.8000030517578125],"rotation":[0.38566645979881287,0,0.34709978103637695,0.8548585772514343],"mesh":31},{"name":"leg2R_b","translation":[-8.19000244140625,-13.70999813079834,7.019998550415039],"rotation":[0.6149734258651733,0,0.7174690365791321,0.3271786570549011],"mesh":32},{"name":"leg2R_k","translation":[-14.040000915527344,10.919998168945312,15.600001335144043],"children":[44]},{"name":"leg2R","translation":[-2.5999999046325684,-1.3000004291534424,11.69999885559082],"rotation":[0,-0.1395431011915207,0,0.9902160167694092],"children":[43,45]},{"name":"leg3L_a","translation":[-11.69999885559082,5.459999084472656,-7.8000006675720215],"rotation":[-0.3133046627044678,0,0.46995705366134644,0.8252154588699341],"mesh":33},{"name":"leg3L_b","translation":[-13.650003433227539,-13.710000991821289,-7.020000457763672],"rotation":[-0.4174359440803528,0,0.8116807341575623,0.40856048464775085],"mesh":34},{"name":"leg3L_k","translation":[-23.399999618530273,10.920000076293945,-15.600001335144043],"children":[48]},{"name":"leg3L","translation":[-9.100000381469727,-1.300000786781311,-11.700000762939453],"rotation":[0,-0.1395431011915207,0,0.9902160167694092],"children":[47,49]},{"name":"leg3R_a","translation":[-11.69999885559082,5.459998607635498,7.8000006675720215],"rotation":[0.3133046627044678,0,0.4699571132659912,0.8252154588699341],"mesh":35},{"name":"leg3R_b","translation":[-13.650007247924805,-13.709997177124023,7.020004749298096],"rotation":[0.4174359440803528,0,0.8116807341575623,0.40856051445007324],"mesh":36},{"name":"leg3R_k","translation":[-23.399999618530273,10.91999626159668,15.600000381469727],"children":[52]},{"name":"leg3R","translation":[-9.100000381469727,-1.3000004291534424,11.69999885559082],"rotation":[0,0.1395431011915207,0,0.9902160167694092],"children":[51,53]},{"name":"thorax","translation":[0,2.6000006198883057,0],"mesh":37},{"name":"body","translation":[0,18.200000762939453,0],"children":[6,7,8,9,10,11,22,26,30,34,38,42,46,50,54,55]},{"name":"root","rotation":[0.07492970675230026,0,0,0.9971888065338135],"children":[56]}],"animations":[{"name":"die","samplers":[{"input":111,"output":112,"interpolation":"LINEAR"},{"input":111,"output":113,"interpolation":"LINEAR"}],"channels":[{"sampler":0,"target":{"node":57,"path":"translation"}},{"sampler":1,"target":{"node":57,"path":"rotation"}}]},{"name":"attack","samplers":[{"input":114,"output":115,"interpolation":"LINEAR"},{"input":114,"output":116,"interpolation":"LINEAR"},{"input":114,"output":117,"interpolation":"LINEAR"}],"channels":[{"sampler":0,"target":{"node":56,"path":"translation"}},{"sampler":1,"target":{"node":56,"path":"rotation"}},{"sampler":2,"target":{"node":22,"path":"rotation"}}]},{"name":"idle","samplers":[{"input":118,"output":119,"interpolation":"LINEAR"}],"channels":[{"sampler":0,"target":{"node":6,"path":"translation"}}]},{"name":"summon","samplers":[{"input":120,"output":121,"interpolation":"LINEAR"}],"channels":[{"sampler":0,"target":{"node":6,"path":"translation"}}]},{"name":"run","samplers":[{"input":122,"output":123,"interpolation":"LINEAR"},{"input":122,"output":124,"interpolation":"LINEAR"},{"input":122,"output":125,"interpolation":"LINEAR"},{"input":122,"output":126,"interpolation":"LINEAR"},{"input":122,"output":123,"interpolation":"LINEAR"},{"input":122,"output":124,"interpolation":"LINEAR"},{"input":122,"output":125,"interpolation":"LINEAR"},{"input":122,"output":126,"interpolation":"LINEAR"}],"channels":[{"sampler":0,"target":{"node":26,"path":"rotation"}},{"sampler":1,"target":{"node":30,"path":"rotation"}},{"sampler":2,"target":{"node":34,"path":"rotation"}},{"sampler":3,"target":{"node":38,"path":"rotation"}},{"sampler":4,"target":{"node":42,"path":"rotation"}},{"sampler":5,"target":{"node":46,"path":"rotation"}},{"sampler":6,"target":{"node":50,"path":"rotation"}},{"sampler":7,"target":{"node":54,"path":"rotation"}}]}],"scenes":[{"name":"Scene","nodes":[57]}],"scene":0,"extensionsUsed":["EXT_texture_webp","KHR_materials_emissive_strength"],"extensionsRequired":["EXT_texture_webp"]}