{"asset":{"generator":"glTF-Transform v4.5.1","version":"2.0"},"accessors":[{"type":"VEC3","componentType":5126,"count":44,"max":[0.4330127239227295,0.5,0.5],"min":[-0.4330127537250519,-0.5,-0.5],"bufferView":0,"byteOffset":0},{"type":"VEC3","componentType":5126,"count":44,"bufferView":0,"byteOffset":12},{"type":"VEC2","componentType":5126,"count":44,"bufferView":0,"byteOffset":24},{"type":"SCALAR","componentType":5123,"count":108,"bufferView":1,"byteOffset":0},{"type":"SCALAR","componentType":5123,"count":108,"bufferView":1,"byteOffset":216},{"type":"SCALAR","componentType":5123,"count":360,"bufferView":1,"byteOffset":432},{"type":"SCALAR","componentType":5123,"count":108,"bufferView":1,"byteOffset":1152},{"type":"SCALAR","componentType":5123,"count":108,"bufferView":1,"byteOffset":1368},{"type":"SCALAR","componentType":5123,"count":72,"bufferView":1,"byteOffset":1584},{"type":"SCALAR","componentType":5123,"count":72,"bufferView":1,"byteOffset":1728},{"type":"SCALAR","componentType":5123,"count":72,"bufferView":1,"byteOffset":1872},{"type":"SCALAR","componentType":5123,"count":72,"bufferView":1,"byteOffset":2016},{"type":"SCALAR","componentType":5123,"count":72,"bufferView":1,"byteOffset":2160},{"type":"SCALAR","componentType":5123,"count":72,"bufferView":1,"byteOffset":2304},{"type":"SCALAR","componentType":5123,"count":864,"bufferView":1,"byteOffset":2448},{"type":"SCALAR","componentType":5123,"count":144,"bufferView":1,"byteOffset":4176},{"type":"SCALAR","componentType":5123,"count":144,"bufferView":1,"byteOffset":4464},{"type":"SCALAR","componentType":5123,"count":432,"bufferView":1,"byteOffset":4752},{"type":"VEC2","componentType":5126,"count":44,"bufferView":2,"byteOffset":0},{"type":"VEC3","componentType":5126,"count":98,"max":[2.410749912261963,2.4000000953674316,2.924783706665039],"min":[-2.410749912261963,-2.4000000953674316,-2.924783706665039],"bufferView":3,"byteOffset":0},{"type":"VEC3","componentType":5126,"count":98,"bufferView":3,"byteOffset":12},{"type":"VEC2","componentType":5126,"count":98,"bufferView":3,"byteOffset":24},{"type":"VEC3","componentType":5126,"count":48,"max":[1.3314791917800903,1.7999999523162842,1.399999976158142],"min":[-1.3314791917800903,-1.7999999523162842,-1.399999976158142],"bufferView":4,"byteOffset":0},{"type":"VEC3","componentType":5126,"count":48,"bufferView":4,"byteOffset":12},{"type":"VEC2","componentType":5126,"count":48,"bufferView":4,"byteOffset":24},{"type":"VEC3","componentType":5126,"count":48,"max":[0.7608452439308167,0.20000000298023224,0.800000011920929],"min":[-0.7608452439308167,-0.20000000298023224,-0.800000011920929],"bufferView":5,"byteOffset":0},{"type":"VEC3","componentType":5126,"count":48,"bufferView":5,"byteOffset":12},{"type":"VEC2","componentType":5126,"count":48,"bufferView":5,"byteOffset":24},{"type":"VEC3","componentType":5126,"count":36,"max":[0.5849568247795105,2.55926251411438,0.5405814051628113],"min":[-0.5849568247795105,-2.55926251411438,-0.6000000834465027],"bufferView":6,"byteOffset":0},{"type":"VEC3","componentType":5126,"count":36,"bufferView":6,"byteOffset":12},{"type":"VEC2","componentType":5126,"count":36,"bufferView":6,"byteOffset":24},{"type":"VEC3","componentType":5126,"count":36,"max":[0.46796533465385437,4.299164772033691,0.4324648678302765],"min":[-0.4679654538631439,-4.299164772033691,-0.4800000488758087],"bufferView":7,"byteOffset":0},{"type":"VEC3","componentType":5126,"count":36,"bufferView":7,"byteOffset":12},{"type":"VEC2","componentType":5126,"count":36,"bufferView":7,"byteOffset":24},{"type":"VEC3","componentType":5126,"count":36,"max":[0.5849568247795105,2.55926251411438,0.5405814051628113],"min":[-0.5849568247795105,-2.55926251411438,-0.6000000834465027],"bufferView":8,"byteOffset":0},{"type":"VEC2","componentType":5126,"count":36,"bufferView":8,"byteOffset":12},{"type":"VEC3","componentType":5126,"count":36,"max":[0.46796533465385437,4.299164772033691,0.4324651062488556],"min":[-0.4679654538631439,-4.299164772033691,-0.4799998104572296],"bufferView":9,"byteOffset":0},{"type":"VEC2","componentType":5126,"count":36,"bufferView":9,"byteOffset":12},{"type":"VEC3","componentType":5126,"count":36,"max":[0.5849567651748657,2.4413108825683594,0.5405813455581665],"min":[-0.5849567651748657,-2.4413108825683594,-0.6000000238418579],"bufferView":10,"byteOffset":0},{"type":"VEC2","componentType":5126,"count":36,"bufferView":10,"byteOffset":12},{"type":"VEC3","componentType":5126,"count":36,"max":[0.46796539425849915,4.204759120941162,0.4324650466442108],"min":[-0.46796539425849915,-4.204759120941162,-0.47999998927116394],"bufferView":11,"byteOffset":0},{"type":"VEC3","componentType":5126,"count":36,"bufferView":11,"byteOffset":12},{"type":"VEC2","componentType":5126,"count":36,"bufferView":11,"byteOffset":24},{"type":"VEC3","componentType":5126,"count":36,"max":[0.5849567651748657,2.4413108825683594,0.5405813455581665],"min":[-0.5849567651748657,-2.4413108825683594,-0.6000000238418579],"bufferView":12,"byteOffset":0},{"type":"VEC2","componentType":5126,"count":36,"bufferView":12,"byteOffset":12},{"type":"VEC2","componentType":5126,"count":36,"bufferView":13,"byteOffset":0},{"type":"VEC3","componentType":5126,"count":36,"max":[0.584956705570221,2.559262275695801,0.5405813455581665],"min":[-0.584956705570221,-2.559262275695801,-0.6000000238418579],"bufferView":14,"byteOffset":0},{"type":"VEC2","componentType":5126,"count":36,"bufferView":14,"byteOffset":12},{"type":"VEC3","componentType":5126,"count":36,"max":[0.46796539425849915,4.299164295196533,0.4324648678302765],"min":[-0.4679652750492096,-4.299164295196533,-0.4800000488758087],"bufferView":15,"byteOffset":0},{"type":"VEC2","componentType":5126,"count":36,"bufferView":15,"byteOffset":12},{"type":"VEC3","componentType":5126,"count":36,"max":[0.584956705570221,2.559262275695801,0.5405813455581665],"min":[-0.584956705570221,-2.559262275695801,-0.6000000238418579],"bufferView":16,"byteOffset":0},{"type":"VEC2","componentType":5126,"count":36,"bufferView":16,"byteOffset":12},{"type":"VEC3","componentType":5126,"count":36,"max":[0.46796539425849915,4.299164295196533,0.4324651062488556],"min":[-0.4679652750492096,-4.299164295196533,-0.4799998104572296],"bufferView":17,"byteOffset":0},{"type":"VEC2","componentType":5126,"count":36,"bufferView":17,"byteOffset":12},{"type":"VEC3","componentType":5126,"count":202,"max":[6.5,6,6],"min":[-6.499999523162842,-6,-6],"bufferView":18,"byteOffset":0},{"type":"VEC3","componentType":5126,"count":202,"bufferView":18,"byteOffset":12},{"type":"VEC2","componentType":5126,"count":202,"bufferView":18,"byteOffset":24},{"type":"VEC3","componentType":5126,"count":44,"max":[5.1999993324279785,0.5,0.4999999403953552],"min":[-5.1999993324279785,-0.5,-0.5],"bufferView":19,"byteOffset":0},{"type":"VEC3","componentType":5126,"count":44,"bufferView":19,"byteOffset":12},{"type":"VEC2","componentType":5126,"count":44,"bufferView":19,"byteOffset":24},{"type":"VEC2","componentType":5126,"count":44,"bufferView":20,"byteOffset":0},{"type":"VEC2","componentType":5126,"count":44,"bufferView":21,"byteOffset":0},{"type":"VEC2","componentType":5126,"count":44,"bufferView":22,"byteOffset":0},{"type":"VEC2","componentType":5126,"count":44,"bufferView":23,"byteOffset":0},{"type":"VEC3","componentType":5126,"count":116,"max":[4.87463903427124,4,4.87463903427124],"min":[-4.87463903427124,-4,-4.874639511108398],"bufferView":24,"byteOffset":0},{"type":"VEC3","componentType":5126,"count":116,"bufferView":24,"byteOffset":12},{"type":"VEC2","componentType":5126,"count":116,"bufferView":24,"byteOffset":24},{"type":"SCALAR","componentType":5126,"count":20,"max":[0.6666666865348816],"min":[0.03333333507180214],"bufferView":25,"byteOffset":0},{"type":"VEC3","componentType":5126,"count":20,"bufferView":25,"byteOffset":80},{"type":"VEC4","componentType":5126,"count":20,"bufferView":25,"byteOffset":320},{"type":"SCALAR","componentType":5126,"count":24,"max":[0.800000011920929],"min":[0.03333333507180214],"bufferView":25,"byteOffset":640},{"type":"VEC4","componentType":5126,"count":24,"bufferView":25,"byteOffset":736},{"type":"VEC4","componentType":5126,"count":24,"bufferView":25,"byteOffset":1120},{"type":"VEC3","componentType":5126,"count":24,"bufferView":25,"byteOffset":1504},{"type":"SCALAR","componentType":5126,"count":21,"max":[0.699999988079071],"min":[0.03333333507180214],"bufferView":25,"byteOffset":1792},{"type":"VEC4","componentType":5126,"count":21,"bufferView":25,"byteOffset":1876},{"type":"VEC4","componentType":5126,"count":21,"bufferView":25,"byteOffset":2212},{"type":"VEC4","componentType":5126,"count":21,"bufferView":25,"byteOffset":2548},{"type":"VEC4","componentType":5126,"count":21,"bufferView":25,"byteOffset":2884},{"type":"SCALAR","componentType":5126,"count":60,"max":[2],"min":[0.03333333507180214],"bufferView":25,"byteOffset":3220},{"type":"VEC3","componentType":5126,"count":60,"bufferView":25,"byteOffset":3460}],"bufferViews":[{"buffer":0,"byteOffset":0,"byteLength":1408,"byteStride":32,"target":34962},{"buffer":0,"byteOffset":1408,"byteLength":5616,"target":34963},{"buffer":0,"byteOffset":7024,"byteLength":352,"byteStride":8,"target":34962},{"buffer":0,"byteOffset":7376,"byteLength":3136,"byteStride":32,"target":34962},{"buffer":0,"byteOffset":10512,"byteLength":1536,"byteStride":32,"target":34962},{"buffer":0,"byteOffset":12048,"byteLength":1536,"byteStride":32,"target":34962},{"buffer":0,"byteOffset":13584,"byteLength":1152,"byteStride":32,"target":34962},{"buffer":0,"byteOffset":14736,"byteLength":1152,"byteStride":32,"target":34962},{"buffer":0,"byteOffset":15888,"byteLength":720,"byteStride":20,"target":34962},{"buffer":0,"byteOffset":16608,"byteLength":720,"byteStride":20,"target":34962},{"buffer":0,"byteOffset":17328,"byteLength":720,"byteStride":20,"target":34962},{"buffer":0,"byteOffset":18048,"byteLength":1152,"byteStride":32,"target":34962},{"buffer":0,"byteOffset":19200,"byteLength":720,"byteStride":20,"target":34962},{"buffer":0,"byteOffset":19920,"byteLength":288,"byteStride":8,"target":34962},{"buffer":0,"byteOffset":20208,"byteLength":720,"byteStride":20,"target":34962},{"buffer":0,"byteOffset":20928,"byteLength":720,"byteStride":20,"target":34962},{"buffer":0,"byteOffset":21648,"byteLength":720,"byteStride":20,"target":34962},{"buffer":0,"byteOffset":22368,"byteLength":720,"byteStride":20,"target":34962},{"buffer":0,"byteOffset":23088,"byteLength":6464,"byteStride":32,"target":34962},{"buffer":0,"byteOffset":29552,"byteLength":1408,"byteStride":32,"target":34962},{"buffer":0,"byteOffset":30960,"byteLength":352,"byteStride":8,"target":34962},{"buffer":0,"byteOffset":31312,"byteLength":352,"byteStride":8,"target":34962},{"buffer":0,"byteOffset":31664,"byteLength":352,"byteStride":8,"target":34962},{"buffer":0,"byteOffset":32016,"byteLength":352,"byteStride":8,"target":34962},{"buffer":0,"byteOffset":32368,"byteLength":3712,"byteStride":32,"target":34962},{"buffer":0,"byteOffset":36080,"byteLength":4180}],"samplers":[{"magFilter":9729,"minFilter":9987,"wrapS":10497,"wrapT":10497}],"textures":[{"sampler":0,"extensions":{"EXT_texture_webp":{"source":1}}},{"sampler":0,"extensions":{"EXT_texture_webp":{"source":0}}},{"sampler":0,"extensions":{"EXT_texture_webp":{"source":2}}},{"sampler":0,"extensions":{"EXT_texture_webp":{"source":4}}},{"sampler":0,"extensions":{"EXT_texture_webp":{"source":3}}},{"sampler":0,"extensions":{"EXT_texture_webp":{"source":5}}}],"images":[{"name":"chitin_normal","uri":"spitter_0.webp"},{"name":"chitin_color","uri":"spitter_1.webp"},{"name":"chitin_rough","uri":"spitter_2.webp"},{"name":"chitin2_normal","uri":"spitter_3.webp"},{"name":"chitin2_color","uri":"spitter_4.webp"},{"name":"chitin2_rough","uri":"spitter_5.webp"}],"buffers":[{"byteLength":40260,"uri":"data:application/octet-stream;base64,"}],"materials":[{"name":"eye","doubleSided":true,"pbrMetallicRoughness":{"baseColorFactor":[0.68668532371521,1,0.32314321398735046,1],"roughnessFactor":0.20000000298023224,"metallicFactor":0},"emissiveFactor":[0.4793201684951782,1,0.1441284716129303],"extensions":{"KHR_materials_emissive_strength":{"emissiveStrength":4}}},{"name":"chitin","doubleSided":true,"pbrMetallicRoughness":{"baseColorFactor":[0.09305896610021591,0.1384316086769104,0.0423114113509655,1],"metallicFactor":0.15000000596046448,"baseColorTexture":{"index":0},"metallicRoughnessTexture":{"index":2}},"normalTexture":{"index":1}},{"name":"sac","doubleSided":true,"pbrMetallicRoughness":{"baseColorFactor":[0.15896083414554596,0.423267662525177,0.03688944876194,1],"roughnessFactor":0.30000001192092896,"metallicFactor":0},"emissiveFactor":[0.030815174359343445,0.1454144424421404,0.004110326369371309]},{"name":"joint","doubleSided":true,"pbrMetallicRoughness":{"baseColorFactor":[0.027320891618728638,0.0423114113509655,0.011612244881689548,1],"metallicFactor":0.10000000149011612,"baseColorTexture":{"index":3},"metallicRoughnessTexture":{"index":5}},"normalTexture":{"index":4}}],"meshes":[{"name":"Sphere.008","primitives":[{"attributes":{"POSITION":0,"NORMAL":1,"TEXCOORD_0":2},"mode":4,"material":0,"indices":3}]},{"name":"Sphere.009","primitives":[{"attributes":{"TEXCOORD_0":18,"POSITION":0,"NORMAL":1},"mode":4,"material":0,"indices":4}]},{"name":"Sphere.007","primitives":[{"attributes":{"POSITION":19,"NORMAL":20,"TEXCOORD_0":21},"mode":4,"material":1,"indices":5}]},{"name":"Cone","primitives":[{"attributes":{"POSITION":22,"NORMAL":23,"TEXCOORD_0":24},"mode":4,"material":1,"indices":6}]},{"name":"Cylinder","primitives":[{"attributes":{"POSITION":25,"NORMAL":26,"TEXCOORD_0":27},"mode":4,"material":2,"indices":7}]},{"name":"Cylinder.001","primitives":[{"attributes":{"POSITION":28,"NORMAL":29,"TEXCOORD_0":30},"mode":4,"material":3,"indices":8}]},{"name":"Cone.001","primitives":[{"attributes":{"POSITION":31,"NORMAL":32,"TEXCOORD_0":33},"mode":4,"material":3,"indices":9}]},{"name":"Cylinder.002","primitives":[{"attributes":{"POSITION":34,"TEXCOORD_0":35,"NORMAL":29},"mode":4,"material":3,"indices":10}]},{"name":"Cone.002","primitives":[{"attributes":{"POSITION":36,"TEXCOORD_0":37,"NORMAL":32},"mode":4,"material":3,"indices":10}]},{"name":"Cylinder.003","primitives":[{"attributes":{"POSITION":38,"TEXCOORD_0":39,"NORMAL":29},"mode":4,"material":3,"indices":11}]},{"name":"Cone.003","primitives":[{"attributes":{"POSITION":40,"NORMAL":41,"TEXCOORD_0":42},"mode":4,"material":3,"indices":9}]},{"name":"Cylinder.004","primitives":[{"attributes":{"POSITION":43,"TEXCOORD_0":44,"NORMAL":29},"mode":4,"material":3,"indices":10}]},{"name":"Cone.004","primitives":[{"attributes":{"TEXCOORD_0":45,"POSITION":40,"NORMAL":41},"mode":4,"material":3,"indices":10}]},{"name":"Cylinder.005","primitives":[{"attributes":{"POSITION":46,"TEXCOORD_0":47,"NORMAL":29},"mode":4,"material":3,"indices":12}]},{"name":"Cone.005","primitives":[{"attributes":{"POSITION":48,"TEXCOORD_0":49,"NORMAL":32},"mode":4,"material":3,"indices":13}]},{"name":"Cylinder.006","primitives":[{"attributes":{"POSITION":50,"TEXCOORD_0":51,"NORMAL":29},"mode":4,"material":3,"indices":10}]},{"name":"Cone.006","primitives":[{"attributes":{"POSITION":52,"TEXCOORD_0":53,"NORMAL":32},"mode":4,"material":3,"indices":10}]},{"name":"Sphere.001","primitives":[{"attributes":{"POSITION":54,"NORMAL":55,"TEXCOORD_0":56},"mode":4,"material":2,"indices":14}]},{"name":"Sphere.002","primitives":[{"attributes":{"POSITION":57,"NORMAL":58,"TEXCOORD_0":59},"mode":4,"material":1,"indices":15}]},{"name":"Sphere.003","primitives":[{"attributes":{"TEXCOORD_0":60,"POSITION":57,"NORMAL":58},"mode":4,"material":1,"indices":15}]},{"name":"Sphere.004","primitives":[{"attributes":{"TEXCOORD_0":61,"POSITION":57,"NORMAL":58},"mode":4,"material":1,"indices":15}]},{"name":"Sphere.005","primitives":[{"attributes":{"TEXCOORD_0":62,"POSITION":57,"NORMAL":58},"mode":4,"material":1,"indices":16}]},{"name":"Sphere.006","primitives":[{"attributes":{"TEXCOORD_0":63,"POSITION":57,"NORMAL":58},"mode":4,"material":1,"indices":16}]},{"name":"Sphere","primitives":[{"attributes":{"POSITION":64,"NORMAL":65,"TEXCOORD_0":66},"mode":4,"material":1,"indices":17}]}],"nodes":[{"name":"eye","translation":[2.3000001907348633,1.0999999046325684,-1.600000023841858],"mesh":0},{"name":"eye.001","translation":[2.3000001907348633,1.0999999046325684,1.600000023841858],"mesh":1},{"name":"headm","translation":[0.9000000953674316,0.09999990463256836,0],"mesh":2},{"name":"spout","translation":[3.5,0.3000001907348633,0],"rotation":[0,0,-0.7071068286895752,0.7071068286895752],"mesh":3},{"name":"spout_glow","translation":[5.399999618530273,0.3000001907348633,0],"rotation":[0,0,-0.7071068286895752,0.7071068286895752],"mesh":4},{"name":"head","translation":[6.5,0.5,0],"children":[0,1,2,3,4]},{"name":"leg0L_a","translation":[0.7679996490478516,1.4000000953674316,-1.999999761581421],"rotation":[-0.44427353143692017,0,-0.1706009954214096,0.8794978260993958],"mesh":5},{"name":"leg0L_b","translation":[0.8960006237030029,-3.8000001907348633,-1.8000011444091797],"rotation":[-0.8688476085662842,0,-0.43249306082725525,0.2409432828426361],"mesh":6},{"name":"leg0L_k","translation":[1.5359995365142822,2.8000001907348633,-3.9999990463256836],"children":[7]},{"name":"leg0L","translation":[3.5,-0.8000001907348633,-3],"rotation":[0,0.19866931438446045,0,0.9800665974617004],"children":[6,8]},{"name":"leg0R_a","translation":[0.7679996490478516,1.4000000953674316,1.999999761581421],"rotation":[0.44427353143692017,0,-0.1706009954214096,0.8794978260993958],"mesh":7},{"name":"leg0R_b","translation":[0.8960006237030029,-3.8000001907348633,1.8000011444091797],"rotation":[0.8688476085662842,0,-0.43249306082725525,0.2409432828426361],"mesh":8},{"name":"leg0R_k","translation":[1.5359995365142822,2.8000001907348633,3.9999990463256836],"children":[11]},{"name":"leg0R","translation":[3.5,-0.8000001907348633,3],"rotation":[0,-0.19866931438446045,0,0.9800665974617004],"children":[10,12]},{"name":"leg1L_a","translation":[0,1.4000000953674316,-2.000000238418579],"rotation":[-0.4618103802204132,0,0,0.8869787454605103],"mesh":9},{"name":"leg1L_b","translation":[0,-3.8000001907348633,-1.8000000715255737],"rotation":[-0.9756377339363098,0,0,0.2193879336118698],"mesh":10},{"name":"leg1L_k","translation":[0,2.8000001907348633,-4.000000476837158],"children":[15]},{"name":"leg1L","translation":[1,-0.8000001907348633,-3],"rotation":[0,-0.19866931438446045,0,0.9800665974617004],"children":[14,16]},{"name":"leg1R_a","translation":[0,1.4000000953674316,2.000000238418579],"rotation":[0.4618103802204132,0,0,0.8869787454605103],"mesh":11},{"name":"leg1R_b","translation":[0,-3.8000001907348633,1.8000000715255737],"rotation":[0.9756377339363098,0,0,0.2193879336118698],"mesh":12},{"name":"leg1R_k","translation":[0,2.8000001907348633,4.000000476837158],"children":[19]},{"name":"leg1R","translation":[1,-0.8000001907348633,3],"rotation":[0,0.19866931438446045,0,0.9800665974617004],"children":[18,20]},{"name":"leg2L_a","translation":[-0.7680002450942993,1.4000000953674316,-1.9999996423721313],"rotation":[-0.44427356123924255,0,0.17060105502605438,0.879497766494751],"mesh":13},{"name":"leg2L_b","translation":[-0.8960001468658447,-3.8000001907348633,-1.8000004291534424],"rotation":[-0.8688476085662842,0,0.4324931204319,0.24094317853450775],"mesh":14},{"name":"leg2L_k","translation":[-1.5359992980957031,2.8000001907348633,-4],"children":[23]},{"name":"leg2L","translation":[-1.5,-0.8000001907348633,-3],"rotation":[0,0.19866931438446045,0,0.9800665974617004],"children":[22,24]},{"name":"leg2R_a","translation":[-0.7680002450942993,1.4000000953674316,1.9999996423721313],"rotation":[0.44427356123924255,0,0.17060105502605438,0.879497766494751],"mesh":15},{"name":"leg2R_b","translation":[-0.8960001468658447,-3.8000001907348633,1.8000004291534424],"rotation":[0.8688476085662842,0,0.4324931204319,0.24094317853450775],"mesh":16},{"name":"leg2R_k","translation":[-1.5359992980957031,2.8000001907348633,4],"children":[27]},{"name":"leg2R","translation":[-1.5,-0.8000001907348633,3],"rotation":[0,-0.19866931438446045,0,0.9800665974617004],"children":[26,28]},{"name":"sac","translation":[-1,0.5,0],"mesh":17},{"name":"vein0","translation":[-1,0.5,-4.199999809265137],"mesh":18},{"name":"vein1","translation":[-1,4.494437217712402,-1.2978713512420654],"rotation":[0.5877853035926819,0,0,0.80901700258255],"mesh":19},{"name":"vein2","translation":[-1,2.968698501586914,3.397871494293213],"rotation":[0.9510565400123596,0,0,0.3090169429779053],"mesh":20},{"name":"vein3","translation":[-1,-1.9686980247497559,3.397871494293213],"rotation":[-0.9510565996170044,0,0,0.3090170919895172],"mesh":21},{"name":"vein4","translation":[-1,-3.4944372177124023,-1.2978713512420654],"rotation":[-0.5877851843833923,0,0,0.8090170621871948],"mesh":22},{"name":"sacpivot","translation":[-4,2,0],"children":[30,31,32,33,34,35]},{"name":"thorax","translation":[2.5,0.5,0],"mesh":23},{"name":"body","translation":[0,6,0],"children":[5,9,13,17,21,25,29,36,37]},{"name":"root","children":[38]}],"animations":[{"name":"die","samplers":[{"input":67,"output":68,"interpolation":"LINEAR"},{"input":67,"output":69,"interpolation":"LINEAR"}],"channels":[{"sampler":0,"target":{"node":39,"path":"translation"}},{"sampler":1,"target":{"node":39,"path":"rotation"}}]},{"name":"attack","samplers":[{"input":70,"output":71,"interpolation":"LINEAR"},{"input":70,"output":72,"interpolation":"LINEAR"},{"input":70,"output":73,"interpolation":"LINEAR"}],"channels":[{"sampler":0,"target":{"node":38,"path":"rotation"}},{"sampler":1,"target":{"node":5,"path":"rotation"}},{"sampler":2,"target":{"node":36,"path":"translation"}}]},{"name":"run","samplers":[{"input":74,"output":75,"interpolation":"LINEAR"},{"input":74,"output":76,"interpolation":"LINEAR"},{"input":74,"output":77,"interpolation":"LINEAR"},{"input":74,"output":78,"interpolation":"LINEAR"},{"input":74,"output":75,"interpolation":"LINEAR"},{"input":74,"output":76,"interpolation":"LINEAR"}],"channels":[{"sampler":0,"target":{"node":9,"path":"rotation"}},{"sampler":1,"target":{"node":13,"path":"rotation"}},{"sampler":2,"target":{"node":17,"path":"rotation"}},{"sampler":3,"target":{"node":21,"path":"rotation"}},{"sampler":4,"target":{"node":25,"path":"rotation"}},{"sampler":5,"target":{"node":29,"path":"rotation"}}]},{"name":"idle","samplers":[{"input":79,"output":80,"interpolation":"LINEAR"}],"channels":[{"sampler":0,"target":{"node":36,"path":"translation"}}]}],"scenes":[{"name":"Scene","nodes":[39]}],"scene":0,"extensionsUsed":["EXT_texture_webp","KHR_materials_emissive_strength"],"extensionsRequired":["EXT_texture_webp"]}